G04*
G04 #@! TF.GenerationSoftware,Altium Limited,Altium Designer,20.0.12 (288)*
G04*
G04 Layer_Color=2752767*
%FSLAX25Y25*%
%MOIN*%
G70*
G01*
G75*
%ADD10C,0.00500*%
%ADD11C,0.00591*%
%ADD12C,0.00394*%
%ADD13C,0.00197*%
%ADD14C,0.00100*%
%ADD15C,0.00158*%
%ADD16C,0.00200*%
%ADD17C,0.00267*%
D10*
X333100Y153000D02*
G03*
X341100Y145000I8000J0D01*
G01*
X718600D02*
G03*
X726600Y153000I0J8000D01*
G01*
Y443700D02*
G03*
X718600Y451700I-8000J0D01*
G01*
X341100D02*
G03*
X333100Y443700I0J-8000D01*
G01*
Y153000D02*
Y443700D01*
X341100Y145000D02*
X718600D01*
X341100Y451700D02*
X718600D01*
X726600Y153000D02*
Y443700D01*
D11*
X362655Y228200D02*
G03*
X362655Y228200I-1969J0D01*
G01*
X509164Y359927D02*
G03*
X509164Y359927I-1414J0D01*
G01*
X509514Y214458D02*
G03*
X509514Y214458I-1414J0D01*
G01*
X381900Y200361D02*
X409739Y228200D01*
X354061D02*
X381900Y256039D01*
X409739Y228200D01*
X354061D02*
X381900Y200361D01*
X510750Y348841D02*
Y363014D01*
X476750Y348841D02*
X510750D01*
X476750D02*
Y363014D01*
X510750D01*
X511100Y203371D02*
Y217544D01*
X477100Y203371D02*
X511100D01*
X477100D02*
Y217544D01*
X511100D01*
X476250Y369927D02*
X511250D01*
X476250Y341927D02*
Y369927D01*
Y341927D02*
X511250D01*
Y369927D01*
X476600Y224458D02*
X511600D01*
X476600Y196458D02*
Y224458D01*
Y196458D02*
X511600D01*
Y224458D01*
D12*
X448450Y169794D02*
G03*
X448450Y169794I-1000J0D01*
G01*
X415150Y425994D02*
G03*
X415150Y425994I-1000J0D01*
G01*
X457835Y190239D02*
G03*
X457835Y190239I-1000J0D01*
G01*
X684816Y185739D02*
X700406Y201328D01*
X674237Y196318D02*
X689827Y211907D01*
X700406Y201328D01*
X648896Y450344D02*
X680904D01*
X648896Y425856D02*
X680904D01*
X673361Y197194D02*
X688950Y212784D01*
X662782Y207773D02*
X678372Y223362D01*
X688950Y212784D01*
X443150Y167795D02*
X449450D01*
Y179606D01*
X443150D02*
X449450D01*
X443150Y167795D02*
Y179606D01*
X416150Y435806D02*
X416150Y423994D01*
X409850D02*
Y435806D01*
Y423994D02*
X416150D01*
X409850Y435806D02*
X416150D01*
X431545Y299705D02*
Y325295D01*
Y299705D02*
X449655D01*
Y325295D01*
X431545D02*
X449655D01*
X431545Y217205D02*
Y242795D01*
Y217205D02*
X449655D01*
Y242795D01*
X431545D02*
X449655D01*
X454835Y188239D02*
Y194538D01*
Y188239D02*
X466646D01*
Y194538D01*
X454835D02*
X466646D01*
X385876Y359894D02*
Y371706D01*
X390995Y359894D02*
Y371706D01*
X385876D02*
X390995D01*
X385876Y359894D02*
X390995D01*
X381900Y191430D02*
X418670Y228200D01*
X345130Y228200D02*
X381900Y264970D01*
X418670Y228200D01*
X345130Y228200D02*
X381900Y191430D01*
X437800Y167200D02*
Y180200D01*
X454800D01*
Y167200D02*
Y180200D01*
X437800Y167200D02*
X454800D01*
X421000Y423404D02*
Y436396D01*
X405000Y423404D02*
Y436396D01*
Y423404D02*
X421000D01*
X405000Y436396D02*
X421000D01*
X425600Y298500D02*
Y326500D01*
Y298500D02*
X455600Y298500D01*
Y326500D01*
X425600Y326500D02*
X455600Y326500D01*
X425600Y216000D02*
Y244000D01*
Y216000D02*
X455600Y216000D01*
Y244000D01*
X425600Y244000D02*
X455600Y244000D01*
X454240Y199888D02*
X467240D01*
Y182888D02*
Y199888D01*
X454240Y182888D02*
X467240D01*
X454240D02*
Y199888D01*
X381600Y359501D02*
X381600Y372099D01*
X395200Y359501D02*
Y372099D01*
X381600D02*
X395200D01*
X381600Y359501D02*
X395200Y359501D01*
D13*
X688699Y198823D02*
G03*
X688699Y198823I-1378J0D01*
G01*
X666278Y438100D02*
G03*
X666278Y438100I-1378J0D01*
G01*
X677244Y210278D02*
G03*
X677244Y210278I-1378J0D01*
G01*
X441778Y196589D02*
G03*
X441778Y196589I-1378J0D01*
G01*
X712378Y299200D02*
G03*
X712378Y299200I-1378J0D01*
G01*
X383278Y228200D02*
G03*
X383278Y228200I-1378J0D01*
G01*
X380878Y432511D02*
G03*
X380878Y432511I-1378J0D01*
G01*
X423878Y444200D02*
G03*
X423878Y444200I-1378J0D01*
G01*
D02*
G03*
X423878Y444200I-1378J0D01*
G01*
X448178Y348800D02*
G03*
X448178Y348800I-1378J0D01*
G01*
X440628D02*
G03*
X440628Y348800I-1378J0D01*
G01*
X433078D02*
G03*
X433078Y348800I-1378J0D01*
G01*
X448178Y266483D02*
G03*
X448178Y266483I-1378J0D01*
G01*
X440628D02*
G03*
X440628Y266483I-1378J0D01*
G01*
X433078D02*
G03*
X433078Y266483I-1378J0D01*
G01*
X533678Y406800D02*
G03*
X533678Y406800I-1378J0D01*
G01*
X533678Y360480D02*
G03*
X533678Y360480I-1378J0D01*
G01*
X533678Y319960D02*
G03*
X533678Y319960I-1378J0D01*
G01*
Y264540D02*
G03*
X533678Y264540I-1378J0D01*
G01*
Y221520D02*
G03*
X533678Y221520I-1378J0D01*
G01*
Y175200D02*
G03*
X533678Y175200I-1378J0D01*
G01*
X495128Y355927D02*
G03*
X495128Y355927I-1378J0D01*
G01*
X495478Y210457D02*
G03*
X495478Y210457I-1378J0D01*
G01*
X447678Y173700D02*
G03*
X447678Y173700I-1378J0D01*
G01*
X414378Y429900D02*
G03*
X414378Y429900I-1378J0D01*
G01*
X352578Y358300D02*
G03*
X352578Y358300I-1378J0D01*
G01*
X352578Y385400D02*
G03*
X352578Y385400I-1378J0D01*
G01*
X441978Y312500D02*
G03*
X441978Y312500I-1378J0D01*
G01*
Y230000D02*
G03*
X441978Y230000I-1378J0D01*
G01*
X462118Y191388D02*
G03*
X462118Y191388I-1378J0D01*
G01*
X366678Y333200D02*
G03*
X366678Y333200I-1378J0D01*
G01*
Y327250D02*
G03*
X366678Y327250I-1378J0D01*
G01*
Y321300D02*
G03*
X366678Y321300I-1378J0D01*
G01*
X391478Y333200D02*
G03*
X391478Y333200I-1378J0D01*
G01*
Y327250D02*
G03*
X391478Y327250I-1378J0D01*
G01*
Y321300D02*
G03*
X391478Y321300I-1378J0D01*
G01*
X631312Y444199D02*
G03*
X631312Y444199I-1378J0D01*
G01*
D02*
G03*
X631312Y444199I-1378J0D01*
G01*
X623445D02*
G03*
X623445Y444199I-1378J0D01*
G01*
D02*
G03*
X623445Y444199I-1378J0D01*
G01*
X615579D02*
G03*
X615579Y444199I-1378J0D01*
G01*
D02*
G03*
X615579Y444199I-1378J0D01*
G01*
X607712D02*
G03*
X607712Y444199I-1378J0D01*
G01*
D02*
G03*
X607712Y444199I-1378J0D01*
G01*
X599845D02*
G03*
X599845Y444199I-1378J0D01*
G01*
D02*
G03*
X599845Y444199I-1378J0D01*
G01*
X591979D02*
G03*
X591979Y444199I-1378J0D01*
G01*
D02*
G03*
X591979Y444199I-1378J0D01*
G01*
X584112D02*
G03*
X584112Y444199I-1378J0D01*
G01*
D02*
G03*
X584112Y444199I-1378J0D01*
G01*
X576245D02*
G03*
X576245Y444199I-1378J0D01*
G01*
D02*
G03*
X576245Y444199I-1378J0D01*
G01*
X568378D02*
G03*
X568378Y444199I-1378J0D01*
G01*
D02*
G03*
X568378Y444199I-1378J0D01*
G01*
X560512D02*
G03*
X560512Y444199I-1378J0D01*
G01*
D02*
G03*
X560512Y444199I-1378J0D01*
G01*
X552645D02*
G03*
X552645Y444199I-1378J0D01*
G01*
D02*
G03*
X552645Y444199I-1378J0D01*
G01*
X544778D02*
G03*
X544778Y444199I-1378J0D01*
G01*
D02*
G03*
X544778Y444199I-1378J0D01*
G01*
X536912D02*
G03*
X536912Y444199I-1378J0D01*
G01*
D02*
G03*
X536912Y444199I-1378J0D01*
G01*
X529045D02*
G03*
X529045Y444199I-1378J0D01*
G01*
D02*
G03*
X529045Y444199I-1378J0D01*
G01*
X521178D02*
G03*
X521178Y444199I-1378J0D01*
G01*
D02*
G03*
X521178Y444199I-1378J0D01*
G01*
X513312D02*
G03*
X513312Y444199I-1378J0D01*
G01*
D02*
G03*
X513312Y444199I-1378J0D01*
G01*
X505445D02*
G03*
X505445Y444199I-1378J0D01*
G01*
D02*
G03*
X505445Y444199I-1378J0D01*
G01*
X497579D02*
G03*
X497579Y444199I-1378J0D01*
G01*
D02*
G03*
X497579Y444199I-1378J0D01*
G01*
X489712D02*
G03*
X489712Y444199I-1378J0D01*
G01*
D02*
G03*
X489712Y444199I-1378J0D01*
G01*
X481845D02*
G03*
X481845Y444199I-1378J0D01*
G01*
D02*
G03*
X481845Y444199I-1378J0D01*
G01*
X473979D02*
G03*
X473979Y444199I-1378J0D01*
G01*
D02*
G03*
X473979Y444199I-1378J0D01*
G01*
X466112D02*
G03*
X466112Y444199I-1378J0D01*
G01*
D02*
G03*
X466112Y444199I-1378J0D01*
G01*
X458245D02*
G03*
X458245Y444199I-1378J0D01*
G01*
D02*
G03*
X458245Y444199I-1378J0D01*
G01*
X450379D02*
G03*
X450379Y444199I-1378J0D01*
G01*
D02*
G03*
X450379Y444199I-1378J0D01*
G01*
X389813Y365800D02*
G03*
X389813Y365800I-1378J0D01*
G01*
X685929Y197431D02*
X688713Y200215D01*
X685929D02*
X688713Y197431D01*
X662931Y438100D02*
X666868D01*
X664900Y436131D02*
Y440068D01*
X674474Y208886D02*
X677258Y211670D01*
X674474D02*
X677258Y208886D01*
X440400Y194621D02*
Y198557D01*
X438432Y196589D02*
X442369D01*
X711000Y297232D02*
Y301168D01*
X709031Y299200D02*
X712968D01*
X380508Y226808D02*
X383292Y229592D01*
X380508D02*
X383292Y226808D01*
X379500Y430543D02*
Y434480D01*
X377532Y432511D02*
X381469D01*
X420532Y444200D02*
X424469D01*
X422500Y442232D02*
Y446169D01*
Y442232D02*
Y446169D01*
X420532Y444200D02*
X424469D01*
X444832Y348800D02*
X448769D01*
X446800Y346831D02*
Y350768D01*
X437282Y348800D02*
X441219D01*
X439250Y346831D02*
Y350768D01*
X429732Y348800D02*
X433669D01*
X431700Y346831D02*
Y350768D01*
X444832Y266483D02*
X448769D01*
X446800Y264515D02*
Y268452D01*
X437282Y266483D02*
X441219D01*
X439250Y264515D02*
Y268452D01*
X429732Y266483D02*
X433669D01*
X431700Y264515D02*
Y268452D01*
X532300Y404832D02*
Y408769D01*
X530332Y406800D02*
X534269D01*
X532300Y358511D02*
Y362449D01*
X530332Y360480D02*
X534269D01*
X532300Y317991D02*
Y321929D01*
X530332Y319960D02*
X534269D01*
X532300Y262572D02*
Y266509D01*
X530332Y264540D02*
X534269D01*
X532300Y219551D02*
Y223488D01*
X530332Y221520D02*
X534269D01*
X532300Y173231D02*
Y177169D01*
X530332Y175200D02*
X534269D01*
X491782Y355927D02*
X495718D01*
X493750Y353959D02*
Y357896D01*
X492132Y210457D02*
X496068D01*
X494100Y208489D02*
Y212426D01*
X444332Y173700D02*
X448269D01*
X446300Y171731D02*
Y175669D01*
X411031Y429900D02*
X414968D01*
X413000Y427931D02*
Y431869D01*
X349232Y358300D02*
X353169D01*
X351200Y356331D02*
Y360268D01*
X349232Y385400D02*
X353169D01*
X351200Y383432D02*
Y387368D01*
X440600Y310531D02*
Y314469D01*
X438631Y312500D02*
X442568D01*
X440600Y228031D02*
Y231968D01*
X438631Y230000D02*
X442568D01*
X460740Y189420D02*
Y193357D01*
X458772Y191388D02*
X462709D01*
X363332Y333200D02*
X367268D01*
X365300Y331231D02*
Y335169D01*
X363332Y327250D02*
X367268Y327250D01*
X365300Y325282D02*
X365300Y329219D01*
X363332Y321300D02*
X367268Y321300D01*
X365300Y319332D02*
Y323269D01*
X388131Y333200D02*
X392069D01*
X390100Y331231D02*
Y335169D01*
X388131Y327250D02*
X392069D01*
X390100Y325282D02*
Y329219D01*
X388131Y321300D02*
X392069D01*
X390100Y319332D02*
Y323269D01*
X627965Y444199D02*
X631902D01*
X629934Y442231D02*
Y446168D01*
Y442231D02*
Y446168D01*
X627965Y444199D02*
X631902D01*
X620099D02*
X624036D01*
X622067Y442231D02*
Y446168D01*
Y442231D02*
Y446168D01*
X620099Y444199D02*
X624036D01*
X612232D02*
X616169D01*
X614200Y442231D02*
Y446168D01*
Y442231D02*
Y446168D01*
X612232Y444199D02*
X616169D01*
X604365D02*
X608302D01*
X606334Y442231D02*
Y446168D01*
Y442231D02*
Y446168D01*
X604365Y444199D02*
X608302D01*
X596499D02*
X600436D01*
X598467Y442231D02*
Y446168D01*
Y442231D02*
Y446168D01*
X596499Y444199D02*
X600436D01*
X588632D02*
X592569D01*
X590600Y442231D02*
Y446168D01*
Y442231D02*
Y446168D01*
X588632Y444199D02*
X592569D01*
X580765D02*
X584702D01*
X582734Y442231D02*
Y446168D01*
Y442231D02*
Y446168D01*
X580765Y444199D02*
X584702D01*
X572899D02*
X576836D01*
X574867Y442231D02*
Y446168D01*
Y442231D02*
Y446168D01*
X572899Y444199D02*
X576836D01*
X565032D02*
X568969D01*
X567001Y442231D02*
Y446168D01*
Y442231D02*
Y446168D01*
X565032Y444199D02*
X568969D01*
X557165D02*
X561102D01*
X559134Y442231D02*
Y446168D01*
Y442231D02*
Y446168D01*
X557165Y444199D02*
X561102D01*
X549299D02*
X553236D01*
X551267Y442231D02*
Y446168D01*
Y442231D02*
Y446168D01*
X549299Y444199D02*
X553236D01*
X541432D02*
X545369D01*
X543401Y442231D02*
Y446168D01*
Y442231D02*
Y446168D01*
X541432Y444199D02*
X545369D01*
X533565D02*
X537502D01*
X535534Y442231D02*
Y446168D01*
Y442231D02*
Y446168D01*
X533565Y444199D02*
X537502D01*
X525699D02*
X529636D01*
X527667Y442231D02*
Y446168D01*
Y442231D02*
Y446168D01*
X525699Y444199D02*
X529636D01*
X517832D02*
X521769D01*
X519801Y442231D02*
Y446168D01*
Y442231D02*
Y446168D01*
X517832Y444199D02*
X521769D01*
X509965D02*
X513902D01*
X511934Y442231D02*
Y446168D01*
Y442231D02*
Y446168D01*
X509965Y444199D02*
X513902D01*
X502099D02*
X506036D01*
X504067Y442231D02*
Y446168D01*
Y442231D02*
Y446168D01*
X502099Y444199D02*
X506036D01*
X494232D02*
X498169D01*
X496201Y442231D02*
Y446168D01*
Y442231D02*
Y446168D01*
X494232Y444199D02*
X498169D01*
X486365D02*
X490303D01*
X488334Y442231D02*
Y446168D01*
Y442231D02*
Y446168D01*
X486365Y444199D02*
X490303D01*
X478499D02*
X482436D01*
X480467Y442231D02*
Y446168D01*
Y442231D02*
Y446168D01*
X478499Y444199D02*
X482436D01*
X470632D02*
X474569D01*
X472601Y442231D02*
Y446168D01*
Y442231D02*
Y446168D01*
X470632Y444199D02*
X474569D01*
X462766D02*
X466703D01*
X464734Y442231D02*
Y446168D01*
Y442231D02*
Y446168D01*
X462766Y444199D02*
X466703D01*
X454899D02*
X458836D01*
X456867Y442231D02*
Y446168D01*
Y442231D02*
Y446168D01*
X454899Y444199D02*
X458836D01*
X447032D02*
X450969D01*
X449001Y442231D02*
Y446168D01*
Y442231D02*
Y446168D01*
X447032Y444199D02*
X450969D01*
X388435Y363831D02*
Y367769D01*
X386467Y365800D02*
X390404D01*
D14*
X477000Y165200D02*
G03*
X477000Y165200I-500J0D01*
G01*
X470667D02*
G03*
X470667Y165200I-500J0D01*
G01*
X460059Y208500D02*
G03*
X460059Y208500I-500J0D01*
G01*
Y202500D02*
G03*
X460059Y202500I-500J0D01*
G01*
X368300Y194300D02*
G03*
X368300Y194300I-500J0D01*
G01*
X372200Y186100D02*
G03*
X372200Y186100I-500J0D01*
G01*
X343200Y198700D02*
G03*
X343200Y198700I-500J0D01*
G01*
X357800Y197900D02*
G03*
X357800Y197900I-500J0D01*
G01*
X381900Y188800D02*
G03*
X381900Y188800I-500J0D01*
G01*
X339381Y236400D02*
G03*
X339381Y236400I-500J0D01*
G01*
X355700Y181700D02*
G03*
X355700Y181700I-500J0D01*
G01*
X402400Y259800D02*
G03*
X402400Y259800I-500J0D01*
G01*
X414300Y206700D02*
G03*
X414300Y206700I-500J0D01*
G01*
X398200Y264000D02*
G03*
X398200Y264000I-500J0D01*
G01*
X420300Y206700D02*
G03*
X420300Y206700I-500J0D01*
G01*
X364100Y190100D02*
G03*
X364100Y190100I-500J0D01*
G01*
X359900Y185900D02*
G03*
X359900Y185900I-500J0D01*
G01*
X339381Y230500D02*
G03*
X339381Y230500I-500J0D01*
G01*
X447300Y331500D02*
G03*
X447300Y331500I-500J0D01*
G01*
X433703Y293039D02*
G03*
X433703Y293039I-500J0D01*
G01*
X439749Y331500D02*
G03*
X439749Y331500I-500J0D01*
G01*
X431100Y213200D02*
G03*
X431100Y213200I-500J0D01*
G01*
X432199Y331500D02*
G03*
X432199Y331500I-500J0D01*
G01*
X447300Y249159D02*
G03*
X447300Y249159I-500J0D01*
G01*
X439899D02*
G03*
X439899Y249159I-500J0D01*
G01*
X432199Y249101D02*
G03*
X432199Y249101I-500J0D01*
G01*
X501676Y376599D02*
G03*
X501676Y376599I-500J0D01*
G01*
X496701D02*
G03*
X496701Y376599I-500J0D01*
G01*
X516600Y376600D02*
G03*
X516600Y376600I-500J0D01*
G01*
X484200Y384300D02*
G03*
X484200Y384300I-500J0D01*
G01*
X506400Y317700D02*
G03*
X506400Y317700I-500J0D01*
G01*
X525200Y340400D02*
G03*
X525200Y340400I-500J0D01*
G01*
X501600Y231799D02*
G03*
X501600Y231799I-500J0D01*
G01*
X496700D02*
G03*
X496700Y231799I-500J0D01*
G01*
X516800Y231800D02*
G03*
X516800Y231800I-500J0D01*
G01*
X484400Y239600D02*
G03*
X484400Y239600I-500J0D01*
G01*
X503800Y171400D02*
G03*
X503800Y171400I-500J0D01*
G01*
X524900Y195600D02*
G03*
X524900Y195600I-500J0D01*
G01*
X363645Y337600D02*
G03*
X363645Y337600I-500J0D01*
G01*
Y327200D02*
G03*
X363645Y327200I-500J0D01*
G01*
X363645Y317200D02*
G03*
X363645Y317200I-500J0D01*
G01*
X341141Y287000D02*
G03*
X341141Y287000I-500J0D01*
G01*
X341141Y297100D02*
G03*
X341141Y297100I-500J0D01*
G01*
X341141Y307100D02*
G03*
X341141Y307100I-500J0D01*
G01*
X397400Y337600D02*
G03*
X397400Y337600I-500J0D01*
G01*
Y327200D02*
G03*
X397400Y327200I-500J0D01*
G01*
X397400Y317200D02*
G03*
X397400Y317200I-500J0D01*
G01*
X374896Y287000D02*
G03*
X374896Y287000I-500J0D01*
G01*
X374896Y297100D02*
G03*
X374896Y297100I-500J0D01*
G01*
X374896Y307100D02*
G03*
X374896Y307100I-500J0D01*
G01*
X386100Y408741D02*
G03*
X386100Y408741I-500J0D01*
G01*
X392800D02*
G03*
X392800Y408741I-500J0D01*
G01*
X396742Y428900D02*
G03*
X396742Y428900I-500J0D01*
G01*
X464333Y165200D02*
G03*
X464333Y165200I-500J0D01*
G01*
X433200Y179600D02*
G03*
X433200Y179600I-500J0D01*
G01*
X430200Y444200D02*
G03*
X430200Y444200I-500J0D01*
G01*
X458000Y165200D02*
G03*
X458000Y165200I-500J0D01*
G01*
X433200Y174500D02*
G03*
X433200Y174500I-500J0D01*
G01*
X413300Y419700D02*
G03*
X413300Y419700I-500J0D01*
G01*
X504700Y425500D02*
G03*
X504700Y425500I-500J0D01*
G01*
Y417633D02*
G03*
X504700Y417633I-500J0D01*
G01*
Y409767D02*
G03*
X504700Y409767I-500J0D01*
G01*
Y401900D02*
G03*
X504700Y401900I-500J0D01*
G01*
Y301500D02*
G03*
X504700Y301500I-500J0D01*
G01*
Y292060D02*
G03*
X504700Y292060I-500J0D01*
G01*
Y282620D02*
G03*
X504700Y282620I-500J0D01*
G01*
Y273180D02*
G03*
X504700Y273180I-500J0D01*
G01*
Y263740D02*
G03*
X504700Y263740I-500J0D01*
G01*
Y254300D02*
G03*
X504700Y254300I-500J0D01*
G01*
Y157400D02*
G03*
X504700Y157400I-500J0D01*
G01*
Y148900D02*
G03*
X504700Y148900I-500J0D01*
G01*
X506651Y376599D02*
G03*
X506651Y376599I-500J0D01*
G01*
X511625Y376600D02*
G03*
X511625Y376600I-500J0D01*
G01*
X489800Y390200D02*
G03*
X489800Y390200I-500J0D01*
G01*
X486751Y376599D02*
G03*
X486751Y376599I-500J0D01*
G01*
X491725Y376600D02*
G03*
X491725Y376600I-500J0D01*
G01*
X478800Y390200D02*
G03*
X478800Y390200I-500J0D01*
G01*
X481776Y376599D02*
G03*
X481776Y376599I-500J0D01*
G01*
X476800Y376600D02*
G03*
X476800Y376600I-500J0D01*
G01*
X519400Y315200D02*
G03*
X519400Y315200I-500J0D01*
G01*
X486485Y333458D02*
G03*
X486485Y333458I-500J0D01*
G01*
X491629Y333457D02*
G03*
X491629Y333457I-500J0D01*
G01*
X506400Y311600D02*
G03*
X506400Y311600I-500J0D01*
G01*
X481342Y333458D02*
G03*
X481342Y333458I-500J0D01*
G01*
X476200Y333457D02*
G03*
X476200Y333457I-500J0D01*
G01*
X535600Y340400D02*
G03*
X535600Y340400I-500J0D01*
G01*
X504000Y333458D02*
G03*
X504000Y333458I-500J0D01*
G01*
X498900Y333457D02*
G03*
X498900Y333457I-500J0D01*
G01*
X521400Y349000D02*
G03*
X521400Y349000I-500J0D01*
G01*
X509600Y333458D02*
G03*
X509600Y333458I-500J0D01*
G01*
X515000Y333457D02*
G03*
X515000Y333457I-500J0D01*
G01*
X506700Y231799D02*
G03*
X506700Y231799I-500J0D01*
G01*
X511700Y231800D02*
G03*
X511700Y231800I-500J0D01*
G01*
X490000Y245500D02*
G03*
X490000Y245500I-500J0D01*
G01*
X486900Y231799D02*
G03*
X486900Y231799I-500J0D01*
G01*
X491800Y231800D02*
G03*
X491800Y231800I-500J0D01*
G01*
X478900Y245500D02*
G03*
X478900Y245500I-500J0D01*
G01*
X482000Y231799D02*
G03*
X482000Y231799I-500J0D01*
G01*
X477000Y231800D02*
G03*
X477000Y231800I-500J0D01*
G01*
X513000Y173900D02*
G03*
X513000Y173900I-500J0D01*
G01*
X486900Y188657D02*
G03*
X486900Y188657I-500J0D01*
G01*
X492400D02*
G03*
X492400Y188657I-500J0D01*
G01*
X513000Y168600D02*
G03*
X513000Y168600I-500J0D01*
G01*
X481400Y188657D02*
G03*
X481400Y188657I-500J0D01*
G01*
X476400D02*
G03*
X476400Y188657I-500J0D01*
G01*
X530000Y201500D02*
G03*
X530000Y201500I-500J0D01*
G01*
X504000Y188657D02*
G03*
X504000Y188657I-500J0D01*
G01*
X498900D02*
G03*
X498900Y188657I-500J0D01*
G01*
X521500Y204059D02*
G03*
X521500Y204059I-500J0D01*
G01*
X509600Y188657D02*
G03*
X509600Y188657I-500J0D01*
G01*
X515000D02*
G03*
X515000Y188657I-500J0D01*
G01*
X412600Y444500D02*
G03*
X412600Y444500I-500J0D01*
G01*
X399300Y438200D02*
G03*
X399300Y438200I-500J0D01*
G01*
X401860Y428900D02*
G03*
X401860Y428900I-500J0D01*
G01*
X399300Y444500D02*
G03*
X399300Y444500I-500J0D01*
G01*
X341141Y337600D02*
G03*
X341141Y337600I-500J0D01*
G01*
Y327200D02*
G03*
X341141Y327200I-500J0D01*
G01*
X341141Y317200D02*
G03*
X341141Y317200I-500J0D01*
G01*
X352393Y337600D02*
G03*
X352393Y337600I-500J0D01*
G01*
Y327200D02*
G03*
X352393Y327200I-500J0D01*
G01*
Y317200D02*
G03*
X352393Y317200I-500J0D01*
G01*
Y307101D02*
G03*
X352393Y307101I-500J0D01*
G01*
X352393Y297101D02*
G03*
X352393Y297101I-500J0D01*
G01*
X352393Y287001D02*
G03*
X352393Y287001I-500J0D01*
G01*
X374897Y337600D02*
G03*
X374897Y337600I-500J0D01*
G01*
Y327200D02*
G03*
X374897Y327200I-500J0D01*
G01*
X374897Y317200D02*
G03*
X374897Y317200I-500J0D01*
G01*
X386148Y337600D02*
G03*
X386148Y337600I-500J0D01*
G01*
Y327200D02*
G03*
X386148Y327200I-500J0D01*
G01*
X386148Y317200D02*
G03*
X386148Y317200I-500J0D01*
G01*
Y307101D02*
G03*
X386148Y307101I-500J0D01*
G01*
X386148Y297101D02*
G03*
X386148Y297101I-500J0D01*
G01*
X386148Y287001D02*
G03*
X386148Y287001I-500J0D01*
G01*
X437600Y370659D02*
G03*
X437600Y370659I-500J0D01*
G01*
X431300Y370659D02*
G03*
X431300Y370659I-500J0D01*
G01*
X400800Y356800D02*
G03*
X400800Y356800I-500J0D01*
G01*
X389100Y353500D02*
G03*
X389100Y353500I-500J0D01*
G01*
X403400Y366300D02*
G03*
X403400Y366300I-500J0D01*
G01*
X377500Y365800D02*
G03*
X377500Y365800I-500J0D01*
G01*
X475713Y165200D02*
X477287D01*
X476500Y164413D02*
Y165987D01*
X469379Y165200D02*
X470954D01*
X470167Y164413D02*
Y165987D01*
X459559Y207713D02*
Y209288D01*
X458772Y208500D02*
X460347D01*
X459559Y201713D02*
Y203288D01*
X458772Y202500D02*
X460347D01*
X367243Y194857D02*
X368357Y193743D01*
X367243D02*
X368357Y194857D01*
X371143Y186657D02*
X372257Y185543D01*
X371143D02*
X372257Y186657D01*
X342143Y198143D02*
X343257Y199257D01*
X342143D02*
X343257Y198143D01*
X356743Y198457D02*
X357857Y197343D01*
X356743D02*
X357857Y198457D01*
X380613Y188800D02*
X382187D01*
X381400Y188013D02*
Y189587D01*
X338093Y236400D02*
X339668D01*
X338881Y235613D02*
X338881Y237187D01*
X354643Y182257D02*
X355757Y181143D01*
X354643D02*
X355757Y182257D01*
X401343Y260357D02*
X402457Y259243D01*
X401343D02*
X402457Y260357D01*
X413013Y206700D02*
X414587D01*
X413800Y205913D02*
Y207487D01*
X397143Y264557D02*
X398257Y263443D01*
X397143D02*
X398257Y264557D01*
X419013Y206700D02*
X420587Y206700D01*
X419800Y205913D02*
X419800Y207487D01*
X363043Y189543D02*
X364157Y190657D01*
X363043D02*
X364157Y189543D01*
X358843Y185343D02*
X359957Y186457D01*
X358843D02*
X359957Y185343D01*
X338881Y229713D02*
X338881Y231287D01*
X338094Y230500D02*
X339669Y230500D01*
X446800Y330713D02*
Y332287D01*
X446012Y331500D02*
X447587D01*
X432415Y293039D02*
X433990D01*
X433203Y292251D02*
Y293826D01*
X439250Y332287D02*
X439250Y330713D01*
X438462Y331500D02*
X440037D01*
X429813Y213200D02*
X431387D01*
X430600Y212413D02*
Y213987D01*
X431699Y330713D02*
Y332287D01*
X430912Y331500D02*
X432487D01*
X446800Y248372D02*
Y249947D01*
X446012Y249159D02*
X447587D01*
X439399Y249947D02*
X439399Y248372D01*
X438612Y249159D02*
X440187D01*
X431699Y248313D02*
Y249888D01*
X430912Y249101D02*
X432487D01*
X501176Y375812D02*
Y377387D01*
X500388Y376599D02*
X501963D01*
X496201Y375812D02*
Y377387D01*
X495413Y376599D02*
X496988D01*
X516100Y375813D02*
Y377387D01*
X515313Y376600D02*
X516887D01*
X482913Y384300D02*
X484487Y384300D01*
X483700Y383513D02*
Y385087D01*
X505113Y317700D02*
X506687D01*
X505900Y316913D02*
Y318487D01*
X523913Y340400D02*
X525487D01*
X524700Y339613D02*
Y341187D01*
X501100Y231012D02*
Y232587D01*
X500313Y231799D02*
X501887D01*
X496200Y231012D02*
Y232587D01*
X495413Y231799D02*
X496987D01*
X516300Y231013D02*
Y232587D01*
X515513Y231800D02*
X517087D01*
X483113Y239600D02*
X484687D01*
X483900Y238813D02*
Y240387D01*
X503300Y172187D02*
X503300Y170613D01*
X502513Y171400D02*
X504087D01*
X523613Y195600D02*
X525187Y195600D01*
X524400Y194813D02*
Y196387D01*
X362357Y337600D02*
X363932Y337600D01*
X363145Y338387D02*
X363145Y336813D01*
X362357Y327200D02*
X363932Y327200D01*
X363145Y327988D02*
X363145Y326413D01*
X362357Y317200D02*
X363932Y317200D01*
X363145Y317988D02*
X363145Y316413D01*
X339853Y287000D02*
X341428D01*
X340641Y286213D02*
Y287788D01*
X339853Y297100D02*
X341428Y297100D01*
X340641Y296313D02*
Y297888D01*
X339853Y307100D02*
X341428D01*
X340641Y306313D02*
Y307888D01*
X396113Y337600D02*
X397687D01*
X396900Y336812D02*
X396900Y338387D01*
X396113Y327200D02*
X397687D01*
X396900Y327988D02*
X396900Y326413D01*
X396113Y317200D02*
X397687D01*
X396900Y316413D02*
X396900Y317988D01*
X373608Y287000D02*
X375183D01*
X374396Y286213D02*
Y287788D01*
X373608Y297100D02*
X375183D01*
X374396Y296313D02*
Y297888D01*
X373608Y307100D02*
X375183D01*
X374396Y306313D02*
Y307888D01*
X385600Y407954D02*
X385600Y409529D01*
X384812Y408741D02*
X386387Y408741D01*
X392300Y407954D02*
X392300Y409529D01*
X391512Y408741D02*
X393087D01*
X396242Y428113D02*
Y429687D01*
X395454Y428900D02*
X397029D01*
X463833Y164413D02*
Y165987D01*
X463046Y165200D02*
X464621Y165200D01*
X431913Y179600D02*
X433487D01*
X432700Y178813D02*
X432700Y180387D01*
X429700Y443413D02*
X429700Y444987D01*
X428913Y444200D02*
X430487Y444200D01*
X457500Y164413D02*
X457500Y165987D01*
X456713Y165200D02*
X458287D01*
X431913Y174500D02*
X433487D01*
X432700Y173713D02*
Y175287D01*
X412013Y419700D02*
X413587D01*
X412800Y418913D02*
Y420487D01*
X504200Y424713D02*
Y426287D01*
X503413Y425500D02*
X504987D01*
X504200Y416846D02*
Y418421D01*
X503413Y417633D02*
X504987D01*
X504200Y410554D02*
X504200Y408979D01*
X503413Y409767D02*
X504987D01*
X504200Y401113D02*
Y402687D01*
X503413Y401900D02*
X504987D01*
X504200Y300713D02*
Y302287D01*
X503413Y301500D02*
X504987D01*
X504200Y291273D02*
Y292847D01*
X503413Y292060D02*
X504987D01*
X504200Y281833D02*
Y283407D01*
X503413Y282620D02*
X504987D01*
X504200Y272393D02*
Y273967D01*
X503413Y273180D02*
X504987D01*
X504200Y262953D02*
Y264527D01*
X503413Y263740D02*
X504987D01*
X504200Y253513D02*
Y255087D01*
X503413Y254300D02*
X504987D01*
X504200Y156613D02*
Y158187D01*
X503413Y157400D02*
X504987D01*
X504200Y148113D02*
Y149687D01*
X503413Y148900D02*
X504987D01*
X505363Y376599D02*
X506938D01*
X506151Y375812D02*
Y377387D01*
X510338Y376600D02*
X511912D01*
X511125Y377387D02*
X511125Y375813D01*
X489300Y390987D02*
X489300Y389413D01*
X488513Y390200D02*
X490087D01*
X485463Y376599D02*
X487038D01*
X486251Y375812D02*
Y377387D01*
X490438Y376600D02*
X492012D01*
X491225Y375813D02*
Y377387D01*
X478300Y389413D02*
Y390987D01*
X477513Y390200D02*
X479087D01*
X480488Y376599D02*
X482063Y376599D01*
X481276Y377387D02*
X481276Y375812D01*
X475513Y376600D02*
X477087D01*
X476300Y375813D02*
Y377387D01*
X518113Y315200D02*
X519687D01*
X518900Y314413D02*
Y315987D01*
X485198Y333458D02*
X486772D01*
X485985Y332671D02*
Y334245D01*
X490341Y333457D02*
X491916D01*
X491128Y332670D02*
Y334245D01*
X505900Y312387D02*
X505900Y310813D01*
X505113Y311600D02*
X506687D01*
X480055Y333458D02*
X481630D01*
X480842Y332671D02*
Y334245D01*
X474913Y333457D02*
X476487D01*
X475700Y332670D02*
X475700Y334245D01*
X535100Y339613D02*
Y341187D01*
X534313Y340400D02*
X535887Y340400D01*
X502713Y333458D02*
X504287D01*
X503500Y332671D02*
Y334245D01*
X497613Y333457D02*
X499187D01*
X498400Y332670D02*
Y334245D01*
X520113Y349000D02*
X521687D01*
X520900Y348213D02*
Y349787D01*
X508313Y333458D02*
X509887D01*
X509100Y332671D02*
Y334245D01*
X513713Y333457D02*
X515287D01*
X514500Y332670D02*
Y334245D01*
X505413Y231799D02*
X506987D01*
X506200Y231012D02*
Y232587D01*
X510413Y231800D02*
X511987D01*
X511200Y231013D02*
Y232587D01*
X489500Y244713D02*
Y246287D01*
X488713Y245500D02*
X490287D01*
X485613Y231799D02*
X487188D01*
X486400Y231012D02*
Y232587D01*
X490512Y231800D02*
X492087D01*
X491300Y231013D02*
Y232587D01*
X478400Y244713D02*
X478400Y246287D01*
X477613Y245500D02*
X479187D01*
X480713Y231799D02*
X482288D01*
X481500Y231012D02*
Y232587D01*
X475713Y231800D02*
X477287D01*
X476500Y231013D02*
Y232587D01*
X512500Y173113D02*
Y174687D01*
X511713Y173900D02*
X513287D01*
X485613Y188657D02*
X487187D01*
X486400Y187870D02*
Y189445D01*
X491113Y188657D02*
X492687D01*
X491900Y187870D02*
Y189445D01*
X512500Y167813D02*
Y169387D01*
X511713Y168600D02*
X513287D01*
X480113Y188657D02*
X481687D01*
X480900Y187870D02*
Y189445D01*
X475113Y188657D02*
X476687D01*
X475900Y187870D02*
Y189445D01*
X529500Y200713D02*
Y202287D01*
X528713Y201500D02*
X530287D01*
X502713Y188657D02*
X504287D01*
X503500Y187870D02*
Y189445D01*
X497613Y188657D02*
X499187D01*
X498400Y187870D02*
Y189445D01*
X520213Y204059D02*
X521788D01*
X521000Y203271D02*
Y204846D01*
X508313Y188657D02*
X509887D01*
X509100Y187870D02*
Y189445D01*
X513713Y188657D02*
X515287D01*
X514500Y187870D02*
Y189445D01*
X412100Y443713D02*
Y445287D01*
X411313Y444500D02*
X412887D01*
X398800Y437413D02*
Y438987D01*
X398013Y438200D02*
X399587D01*
X400572Y428900D02*
X402147D01*
X401360Y428113D02*
Y429687D01*
X398800Y443713D02*
Y445287D01*
X398013Y444500D02*
X399587D01*
X340641Y336813D02*
Y338387D01*
X339854Y337600D02*
X341429D01*
X340641Y326413D02*
Y327988D01*
X339854Y327200D02*
X341429D01*
X340641Y316413D02*
Y317988D01*
X339854Y317200D02*
X341429D01*
X351893Y336813D02*
Y338387D01*
X351106Y337600D02*
X352680D01*
X351893Y326413D02*
Y327988D01*
X351106Y327200D02*
X352680D01*
X351893Y316413D02*
Y317988D01*
X351106Y317200D02*
X352680D01*
X351893Y306313D02*
Y307888D01*
X351106Y307101D02*
X352680D01*
X351893Y296314D02*
Y297888D01*
X351106Y297101D02*
X352680D01*
X351893Y286213D02*
Y287788D01*
X351106Y287001D02*
X352680D01*
X374396Y338387D02*
X374396Y336813D01*
X373609Y337600D02*
X375184D01*
X374396Y327988D02*
X374396Y326413D01*
X373609Y327200D02*
X375184Y327200D01*
X374396Y317988D02*
X374396Y316413D01*
X373609Y317200D02*
X375184D01*
X385648Y336813D02*
Y338387D01*
X384861Y337600D02*
X386436D01*
X385648Y326413D02*
Y327988D01*
X384861Y327200D02*
X386436Y327200D01*
X385648Y316413D02*
Y317988D01*
X384861Y317200D02*
X386436Y317200D01*
X385648Y306314D02*
Y307888D01*
X384861Y307101D02*
X386436D01*
X385648Y296314D02*
Y297888D01*
X384861Y297101D02*
X386436D01*
X385648Y286213D02*
Y287788D01*
X384861Y287001D02*
X386436D01*
X437100Y369871D02*
Y371446D01*
X436313Y370659D02*
X437888D01*
X430800Y369872D02*
Y371447D01*
X430012Y370659D02*
X431587D01*
X399513Y356800D02*
X401087Y356800D01*
X400300Y356013D02*
Y357587D01*
X388600Y352713D02*
Y354287D01*
X387813Y353500D02*
X389387D01*
X402113Y366300D02*
X403687D01*
X402900Y365513D02*
Y367087D01*
X377000Y365013D02*
X377000Y366587D01*
X376213Y365800D02*
X377787D01*
D15*
X337767Y217800D02*
G03*
X337767Y217800I-707J0D01*
G01*
X336060D02*
X338060D01*
X337060Y216800D02*
Y218800D01*
D16*
X695830Y313400D02*
Y315000D01*
X697430D01*
Y313400D01*
X695830D01*
Y343400D02*
Y345000D01*
X697430D01*
Y343400D01*
X695830D01*
Y403400D02*
Y405000D01*
X697430D01*
Y403400D01*
X695830D01*
Y373400D02*
Y375000D01*
X697430D01*
Y373400D01*
X695830D01*
Y253400D02*
Y255000D01*
X697430D01*
Y253400D01*
X695830D01*
Y283400D02*
Y285000D01*
X697430D01*
Y283400D01*
X695830D01*
Y223400D02*
Y225000D01*
X697430D01*
Y223400D01*
X695830D01*
Y193400D02*
Y195000D01*
X697430D01*
Y193400D01*
X695830D01*
X484600Y149700D02*
X483800Y151300D01*
X485400D01*
X484600Y149700D01*
X474600D02*
X473800Y151300D01*
X475400D01*
X474600Y149700D01*
X464600D02*
X463800Y151300D01*
X465400D01*
X464600Y149700D01*
X454600D02*
X453800Y151300D01*
X455400D01*
X454600Y149700D01*
X444600D02*
X443800Y151300D01*
X445400D01*
X444600Y149700D01*
X434600D02*
X433800Y151300D01*
X435400D01*
X434600Y149700D01*
X424600D02*
X423800Y151300D01*
X425400D01*
X424600Y149700D01*
X387822Y169393D02*
X388222Y169793D01*
X388622D01*
X388222Y170193D01*
X388622Y170593D01*
X388222D01*
X387822Y170993D01*
X387422Y170593D01*
X387022D01*
X387422Y170193D01*
X387022Y169793D01*
X387422D01*
X387822Y169393D01*
X410578Y169393D02*
X410978Y169793D01*
X411378D01*
X410978Y170193D01*
X411378Y170593D01*
X410978D01*
X410578Y170993D01*
X410178Y170593D01*
X409778D01*
X410178Y170193D01*
X409778Y169793D01*
X410178D01*
X410578Y169393D01*
X381392Y171362D02*
X381792Y172162D01*
X381392Y172962D01*
X382192Y172562D01*
X382992Y172962D01*
X382592Y172162D01*
X382992Y171362D01*
X382192Y171762D01*
X381392Y171362D01*
X415408Y171362D02*
X415808Y172162D01*
X415408Y172962D01*
X416208Y172562D01*
X417008Y172962D01*
X416608Y172162D01*
X417008Y171362D01*
X416208Y171762D01*
X415408Y171362D01*
X381792Y155305D02*
Y154905D01*
X382592D01*
Y155305D01*
X382992D01*
Y156105D01*
X382592D01*
Y156505D01*
X381792D01*
Y156105D01*
X381392D01*
Y155305D01*
X381792D01*
X415808D02*
Y154905D01*
X416608D01*
Y155305D01*
X417008D01*
Y156105D01*
X416608D01*
Y156505D01*
X415808D01*
Y156105D01*
X415408D01*
Y155305D01*
X415808D01*
X664600Y441700D02*
X665000D01*
X665400Y442100D01*
X665800Y441700D01*
X666200D01*
Y442100D01*
X665800Y442500D01*
X666200Y442900D01*
Y443300D01*
X665800D01*
X665400Y442900D01*
X665000Y443300D01*
X664600D01*
Y442900D01*
X665000Y442500D01*
X664600Y442100D01*
Y441700D01*
X664200Y431400D02*
X664600D01*
X665000Y431800D01*
X665400Y431400D01*
X665800D01*
Y431800D01*
X665400Y432200D01*
X665800Y432600D01*
Y433000D01*
X665400D01*
X665000Y432600D01*
X664600Y433000D01*
X664200D01*
Y432600D01*
X664600Y432200D01*
X664200Y431800D01*
Y431400D01*
X667000Y427800D02*
X667400D01*
X667800Y428200D01*
X668200Y427800D01*
X668600D01*
Y428200D01*
X668200Y428600D01*
X668600Y429000D01*
Y429400D01*
X668200D01*
X667800Y429000D01*
X667400Y429400D01*
X667000D01*
Y429000D01*
X667400Y428600D01*
X667000Y428200D01*
Y427800D01*
X663000D02*
X663400D01*
X663800Y428200D01*
X664200Y427800D01*
X664600D01*
Y428200D01*
X664200Y428600D01*
X664600Y429000D01*
Y429400D01*
X664200D01*
X663800Y429000D01*
X663400Y429400D01*
X663000D01*
Y429000D01*
X663400Y428600D01*
X663000Y428200D01*
Y427800D01*
X659000D02*
X659400D01*
X659800Y428200D01*
X660200Y427800D01*
X660600D01*
Y428200D01*
X660200Y428600D01*
X660600Y429000D01*
Y429400D01*
X660200D01*
X659800Y429000D01*
X659400Y429400D01*
X659000D01*
Y429000D01*
X659400Y428600D01*
X659000Y428200D01*
Y427800D01*
X655000D02*
X655400D01*
X655800Y428200D01*
X656200Y427800D01*
X656600D01*
Y428200D01*
X656200Y428600D01*
X656600Y429000D01*
Y429400D01*
X656200D01*
X655800Y429000D01*
X655400Y429400D01*
X655000D01*
Y429000D01*
X655400Y428600D01*
X655000Y428200D01*
Y427800D01*
X651000D02*
X651400D01*
X651800Y428200D01*
X652200Y427800D01*
X652600D01*
Y428200D01*
X652200Y428600D01*
X652600Y429000D01*
Y429400D01*
X652200D01*
X651800Y429000D01*
X651400Y429400D01*
X651000D01*
Y429000D01*
X651400Y428600D01*
X651000Y428200D01*
Y427800D01*
X657400Y431275D02*
X657800D01*
X658200Y431675D01*
X658600Y431275D01*
X659000D01*
Y431675D01*
X658600Y432075D01*
X659000Y432475D01*
Y432875D01*
X658600D01*
X658200Y432475D01*
X657800Y432875D01*
X657400D01*
Y432475D01*
X657800Y432075D01*
X657400Y431675D01*
Y431275D01*
Y434750D02*
X657800D01*
X658200Y435150D01*
X658600Y434750D01*
X659000D01*
Y435150D01*
X658600Y435550D01*
X659000Y435950D01*
Y436350D01*
X658600D01*
X658200Y435950D01*
X657800Y436350D01*
X657400D01*
Y435950D01*
X657800Y435550D01*
X657400Y435150D01*
Y434750D01*
Y438225D02*
X657800D01*
X658200Y438625D01*
X658600Y438225D01*
X659000D01*
Y438625D01*
X658600Y439025D01*
X659000Y439425D01*
Y439825D01*
X658600D01*
X658200Y439425D01*
X657800Y439825D01*
X657400D01*
Y439425D01*
X657800Y439025D01*
X657400Y438625D01*
Y438225D01*
Y441700D02*
X657800D01*
X658200Y442100D01*
X658600Y441700D01*
X659000D01*
Y442100D01*
X658600Y442500D01*
X659000Y442900D01*
Y443300D01*
X658600D01*
X658200Y442900D01*
X657800Y443300D01*
X657400D01*
Y442900D01*
X657800Y442500D01*
X657400Y442100D01*
Y441700D01*
X666200Y177500D02*
X667000Y178300D01*
X667800Y177500D01*
X667000Y176700D01*
X666200Y177500D01*
X709200Y219700D02*
X710000Y220500D01*
X710800Y219700D01*
X710000Y218900D01*
X709200Y219700D01*
Y188600D02*
X710000Y189400D01*
X710800Y188600D01*
X710000Y187800D01*
X709200Y188600D01*
X366000Y234800D02*
X366400D01*
X366800Y235200D01*
X367200Y234800D01*
X367600D01*
Y235200D01*
X367200Y235600D01*
X367600Y236000D01*
Y236400D01*
X367200D01*
X366800Y236000D01*
X366400Y236400D01*
X366000D01*
Y236000D01*
X366400Y235600D01*
X366000Y235200D01*
Y234800D01*
X339700Y281200D02*
X340100D01*
X340500Y281600D01*
X340900Y281200D01*
X341300D01*
Y281600D01*
X340900Y282000D01*
X341300Y282400D01*
Y282800D01*
X340900D01*
X340500Y282400D01*
X340100Y282800D01*
X339700D01*
Y282400D01*
X340100Y282000D01*
X339700Y281600D01*
Y281200D01*
X468500Y270700D02*
X468900D01*
X469300Y271100D01*
X469700Y270700D01*
X470100D01*
Y271100D01*
X469700Y271500D01*
X470100Y271900D01*
Y272300D01*
X469700D01*
X469300Y271900D01*
X468900Y272300D01*
X468500D01*
Y271900D01*
X468900Y271500D01*
X468500Y271100D01*
Y270700D01*
Y293700D02*
X468900D01*
X469300Y294100D01*
X469700Y293700D01*
X470100D01*
Y294100D01*
X469700Y294500D01*
X470100Y294900D01*
Y295300D01*
X469700D01*
X469300Y294900D01*
X468900Y295300D01*
X468500D01*
Y294900D01*
X468900Y294500D01*
X468500Y294100D01*
Y293700D01*
X374600Y274900D02*
X375000D01*
X375400Y275300D01*
X375800Y274900D01*
X376200D01*
Y275300D01*
X375800Y275700D01*
X376200Y276100D01*
Y276500D01*
X375800D01*
X375400Y276100D01*
X375000Y276500D01*
X374600D01*
Y276100D01*
X375000Y275700D01*
X374600Y275300D01*
Y274900D01*
X372550Y270800D02*
X372950D01*
X373350Y271200D01*
X373750Y270800D01*
X374150D01*
Y271200D01*
X373750Y271600D01*
X374150Y272000D01*
Y272400D01*
X373750D01*
X373350Y272000D01*
X372950Y272400D01*
X372550D01*
Y272000D01*
X372950Y271600D01*
X372550Y271200D01*
Y270800D01*
X379790Y256710D02*
X380190D01*
X380590Y257110D01*
X380990Y256710D01*
X381390D01*
Y257110D01*
X380990Y257510D01*
X381390Y257910D01*
Y258310D01*
X380990D01*
X380590Y257910D01*
X380190Y258310D01*
X379790D01*
Y257910D01*
X380190Y257510D01*
X379790Y257110D01*
Y256710D01*
X375825Y259500D02*
X376225D01*
X376625Y259900D01*
X377025Y259500D01*
X377425D01*
Y259900D01*
X377025Y260300D01*
X377425Y260700D01*
Y261100D01*
X377025D01*
X376625Y260700D01*
X376225Y261100D01*
X375825D01*
Y260700D01*
X376225Y260300D01*
X375825Y259900D01*
Y259500D01*
X368700Y262400D02*
X369100D01*
X369500Y262800D01*
X369900Y262400D01*
X370300D01*
Y262800D01*
X369900Y263200D01*
X370300Y263600D01*
Y264000D01*
X369900D01*
X369500Y263600D01*
X369100Y264000D01*
X368700D01*
Y263600D01*
X369100Y263200D01*
X368700Y262800D01*
Y262400D01*
X370500Y274900D02*
X370900D01*
X371300Y275300D01*
X371700Y274900D01*
X372100D01*
Y275300D01*
X371700Y275700D01*
X372100Y276100D01*
Y276500D01*
X371700D01*
X371300Y276100D01*
X370900Y276500D01*
X370500D01*
Y276100D01*
X370900Y275700D01*
X370500Y275300D01*
Y274900D01*
X368450Y270800D02*
X368850D01*
X369250Y271200D01*
X369650Y270800D01*
X370050D01*
Y271200D01*
X369650Y271600D01*
X370050Y272000D01*
Y272400D01*
X369650D01*
X369250Y272000D01*
X368850Y272400D01*
X368450D01*
Y272000D01*
X368850Y271600D01*
X368450Y271200D01*
Y270800D01*
X368600Y228600D02*
X369000D01*
X369400Y229000D01*
X369800Y228600D01*
X370200D01*
Y229000D01*
X369800Y229400D01*
X370200Y229800D01*
Y230200D01*
X369800D01*
X369400Y229800D01*
X369000Y230200D01*
X368600D01*
Y229800D01*
X369000Y229400D01*
X368600Y229000D01*
Y228600D01*
X371200Y224200D02*
X371600D01*
X372000Y224600D01*
X372400Y224200D01*
X372800D01*
Y224600D01*
X372400Y225000D01*
X372800Y225400D01*
Y225800D01*
X372400D01*
X372000Y225400D01*
X371600Y225800D01*
X371200D01*
Y225400D01*
X371600Y225000D01*
X371200Y224600D01*
Y224200D01*
X371075Y259500D02*
X371475D01*
X371875Y259900D01*
X372275Y259500D01*
X372675D01*
Y259900D01*
X372275Y260300D01*
X372675Y260700D01*
Y261100D01*
X372275D01*
X371875Y260700D01*
X371475Y261100D01*
X371075D01*
Y260700D01*
X371475Y260300D01*
X371075Y259900D01*
Y259500D01*
X382500Y199200D02*
X382900D01*
X383300Y199600D01*
X383700Y199200D01*
X384100D01*
Y199600D01*
X383700Y200000D01*
X384100Y200400D01*
Y200800D01*
X383700D01*
X383300Y200400D01*
X382900Y200800D01*
X382500D01*
Y200400D01*
X382900Y200000D01*
X382500Y199600D01*
Y199200D01*
X379700D02*
X380100D01*
X380500Y199600D01*
X380900Y199200D01*
X381300D01*
Y199600D01*
X380900Y200000D01*
X381300Y200400D01*
Y200800D01*
X380900D01*
X380500Y200400D01*
X380100Y200800D01*
X379700D01*
Y200400D01*
X380100Y200000D01*
X379700Y199600D01*
Y199200D01*
X372439Y214561D02*
X372839D01*
X373239Y214961D01*
X373639Y214561D01*
X374039D01*
Y214961D01*
X373639Y215361D01*
X374039Y215761D01*
Y216161D01*
X373639D01*
X373239Y215761D01*
X372839Y216161D01*
X372439D01*
Y215761D01*
X372839Y215361D01*
X372439Y214961D01*
Y214561D01*
X369800Y220700D02*
X370200D01*
X370600Y221100D01*
X371000Y220700D01*
X371400D01*
Y221100D01*
X371000Y221500D01*
X371400Y221900D01*
Y222300D01*
X371000D01*
X370600Y221900D01*
X370200Y222300D01*
X369800D01*
Y221900D01*
X370200Y221500D01*
X369800Y221100D01*
Y220700D01*
X359420Y228200D02*
X359820D01*
X360220Y228600D01*
X360620Y228200D01*
X361020D01*
Y228600D01*
X360620Y229000D01*
X361020Y229400D01*
Y229800D01*
X360620D01*
X360220Y229400D01*
X359820Y229800D01*
X359420D01*
Y229400D01*
X359820Y229000D01*
X359420Y228600D01*
Y228200D01*
X338000Y241500D02*
X338400D01*
X338800Y241900D01*
X339200Y241500D01*
X339600D01*
Y241900D01*
X339200Y242300D01*
X339600Y242700D01*
Y243100D01*
X339200D01*
X338800Y242700D01*
X338400Y243100D01*
X338000D01*
Y242700D01*
X338400Y242300D01*
X338000Y241900D01*
Y241500D01*
X353900Y384600D02*
X354300D01*
X354700Y385000D01*
X355100Y384600D01*
X355500D01*
Y385000D01*
X355100Y385400D01*
X355500Y385800D01*
Y386200D01*
X355100D01*
X354700Y385800D01*
X354300Y386200D01*
X353900D01*
Y385800D01*
X354300Y385400D01*
X353900Y385000D01*
Y384600D01*
X354600Y357500D02*
X355000D01*
X355400Y357900D01*
X355800Y357500D01*
X356200D01*
Y357900D01*
X355800Y358300D01*
X356200Y358700D01*
Y359100D01*
X355800D01*
X355400Y358700D01*
X355000Y359100D01*
X354600D01*
Y358700D01*
X355000Y358300D01*
X354600Y357900D01*
Y357500D01*
X384800Y415800D02*
X385200D01*
X385600Y416200D01*
X386000Y415800D01*
X386400D01*
Y416200D01*
X386000Y416600D01*
X386400Y417000D01*
Y417400D01*
X386000D01*
X385600Y417000D01*
X385200Y417400D01*
X384800D01*
Y417000D01*
X385200Y416600D01*
X384800Y416200D01*
Y415800D01*
X337700Y261400D02*
X338100D01*
X338500Y261800D01*
X338900Y261400D01*
X339300D01*
Y261800D01*
X338900Y262200D01*
X339300Y262600D01*
Y263000D01*
X338900D01*
X338500Y262600D01*
X338100Y263000D01*
X337700D01*
Y262600D01*
X338100Y262200D01*
X337700Y261800D01*
Y261400D01*
X334700Y264200D02*
X335100D01*
X335500Y264600D01*
X335900Y264200D01*
X336300D01*
Y264600D01*
X335900Y265000D01*
X336300Y265400D01*
Y265800D01*
X335900D01*
X335500Y265400D01*
X335100Y265800D01*
X334700D01*
Y265400D01*
X335100Y265000D01*
X334700Y264600D01*
Y264200D01*
X336100Y277100D02*
X336500D01*
X336900Y277500D01*
X337300Y277100D01*
X337700D01*
Y277500D01*
X337300Y277900D01*
X337700Y278300D01*
Y278700D01*
X337300D01*
X336900Y278300D01*
X336500Y278700D01*
X336100D01*
Y278300D01*
X336500Y277900D01*
X336100Y277500D01*
Y277100D01*
X346200Y282000D02*
X346600D01*
X347000Y282400D01*
X347400Y282000D01*
X347800D01*
Y282400D01*
X347400Y282800D01*
X347800Y283200D01*
Y283600D01*
X347400D01*
X347000Y283200D01*
X346600Y283600D01*
X346200D01*
Y283200D01*
X346600Y282800D01*
X346200Y282400D01*
Y282000D01*
X422861Y302743D02*
X423261D01*
X423661Y303143D01*
X424061Y302743D01*
X424461D01*
Y303143D01*
X424061Y303543D01*
X424461Y303943D01*
Y304343D01*
X424061D01*
X423661Y303943D01*
X423261Y304343D01*
X422861D01*
Y303943D01*
X423261Y303543D01*
X422861Y303143D01*
Y302743D01*
X420189Y309984D02*
X420589D01*
X420989Y310384D01*
X421389Y309984D01*
X421789D01*
Y310384D01*
X421389Y310784D01*
X421789Y311184D01*
Y311584D01*
X421389D01*
X420989Y311184D01*
X420589Y311584D01*
X420189D01*
Y311184D01*
X420589Y310784D01*
X420189Y310384D01*
Y309984D01*
Y300184D02*
X420589D01*
X420989Y300584D01*
X421389Y300184D01*
X421789D01*
Y300584D01*
X421389Y300984D01*
X421789Y301384D01*
Y301784D01*
X421389D01*
X420989Y301384D01*
X420589Y301784D01*
X420189D01*
Y301384D01*
X420589Y300984D01*
X420189Y300584D01*
Y300184D01*
X414845Y302743D02*
X415245D01*
X415645Y303143D01*
X416045Y302743D01*
X416445D01*
Y303143D01*
X416045Y303543D01*
X416445Y303943D01*
Y304343D01*
X416045D01*
X415645Y303943D01*
X415245Y304343D01*
X414845D01*
Y303943D01*
X415245Y303543D01*
X414845Y303143D01*
Y302743D01*
X422861Y315539D02*
X423261D01*
X423661Y315939D01*
X424061Y315539D01*
X424461D01*
Y315939D01*
X424061Y316339D01*
X424461Y316739D01*
Y317139D01*
X424061D01*
X423661Y316739D01*
X423261Y317139D01*
X422861D01*
Y316739D01*
X423261Y316339D01*
X422861Y315939D01*
Y315539D01*
X412172Y312980D02*
X412572D01*
X412972Y313380D01*
X413372Y312980D01*
X413772D01*
Y313380D01*
X413372Y313779D01*
X413772Y314179D01*
Y314580D01*
X413372D01*
X412972Y314179D01*
X412572Y314580D01*
X412172D01*
Y314179D01*
X412572Y313779D01*
X412172Y313380D01*
Y312980D01*
Y300184D02*
X412572D01*
X412972Y300584D01*
X413372Y300184D01*
X413772D01*
Y300584D01*
X413372Y300984D01*
X413772Y301384D01*
Y301784D01*
X413372D01*
X412972Y301384D01*
X412572Y301784D01*
X412172D01*
Y301384D01*
X412572Y300984D01*
X412172Y300584D01*
Y300184D01*
X434961Y307861D02*
X435361D01*
X435761Y308261D01*
X436161Y307861D01*
X436561D01*
Y308261D01*
X436161Y308661D01*
X436561Y309061D01*
Y309461D01*
X436161D01*
X435761Y309061D01*
X435361Y309461D01*
X434961D01*
Y309061D01*
X435361Y308661D01*
X434961Y308261D01*
Y307861D01*
X414845Y319100D02*
X415245D01*
X415645Y319500D01*
X416045Y319100D01*
X416445D01*
Y319500D01*
X416045Y319900D01*
X416445Y320300D01*
Y320700D01*
X416045D01*
X415645Y320300D01*
X415245Y320700D01*
X414845D01*
Y320300D01*
X415245Y319900D01*
X414845Y319500D01*
Y319100D01*
X392100Y281200D02*
X392500D01*
X392900Y281600D01*
X393300Y281200D01*
X393700D01*
Y281600D01*
X393300Y282000D01*
X393700Y282400D01*
Y282800D01*
X393300D01*
X392900Y282400D01*
X392500Y282800D01*
X392100D01*
Y282400D01*
X392500Y282000D01*
X392100Y281600D01*
Y281200D01*
X412000Y237420D02*
X412400D01*
X412800Y237820D01*
X413200Y237420D01*
X413600D01*
Y237820D01*
X413200Y238219D01*
X413600Y238619D01*
Y239019D01*
X413200D01*
X412800Y238619D01*
X412400Y239019D01*
X412000D01*
Y238619D01*
X412400Y238219D01*
X412000Y237820D01*
Y237420D01*
X487400Y205800D02*
X487800D01*
X488200Y206200D01*
X488600Y205800D01*
X489000D01*
Y206200D01*
X488600Y206600D01*
X489000Y207000D01*
Y207400D01*
X488600D01*
X488200Y207000D01*
X487800Y207400D01*
X487400D01*
Y207000D01*
X487800Y206600D01*
X487400Y206200D01*
Y205800D01*
X503300Y214700D02*
X503700D01*
X504100Y215100D01*
X504500Y214700D01*
X504900D01*
Y215100D01*
X504500Y215500D01*
X504900Y215900D01*
Y216300D01*
X504500D01*
X504100Y215900D01*
X503700Y216300D01*
X503300D01*
Y215900D01*
X503700Y215500D01*
X503300Y215100D01*
Y214700D01*
X391600Y222400D02*
X392000D01*
X392400Y222800D01*
X392800Y222400D01*
X393200D01*
Y222800D01*
X392800Y223200D01*
X393200Y223600D01*
Y224000D01*
X392800D01*
X392400Y223600D01*
X392000Y224000D01*
X391600D01*
Y223600D01*
X392000Y223200D01*
X391600Y222800D01*
Y222400D01*
X388200Y341800D02*
X388600D01*
X389000Y342200D01*
X389400Y341800D01*
X389800D01*
Y342200D01*
X389400Y342600D01*
X389800Y343000D01*
Y343400D01*
X389400D01*
X389000Y343000D01*
X388600Y343400D01*
X388200D01*
Y343000D01*
X388600Y342600D01*
X388200Y342200D01*
Y341800D01*
X364903Y345096D02*
X365303D01*
X365704Y345497D01*
X366104Y345096D01*
X366504D01*
Y345497D01*
X366104Y345897D01*
X366504Y346297D01*
Y346696D01*
X366104D01*
X365704Y346297D01*
X365303Y346696D01*
X364903D01*
Y346297D01*
X365303Y345897D01*
X364903Y345497D01*
Y345096D01*
X395000Y198500D02*
X395400D01*
X395800Y198900D01*
X396200Y198500D01*
X396600D01*
Y198900D01*
X396200Y199300D01*
X396600Y199700D01*
Y200100D01*
X396200D01*
X395800Y199700D01*
X395400Y200100D01*
X395000D01*
Y199700D01*
X395400Y199300D01*
X395000Y198900D01*
Y198500D01*
X385400Y196400D02*
X385800D01*
X386200Y196800D01*
X386600Y196400D01*
X387000D01*
Y196800D01*
X386600Y197200D01*
X387000Y197600D01*
Y198000D01*
X386600D01*
X386200Y197600D01*
X385800Y198000D01*
X385400D01*
Y197600D01*
X385800Y197200D01*
X385400Y196800D01*
Y196400D01*
X422700Y200500D02*
X423100D01*
X423500Y200900D01*
X423900Y200500D01*
X424300D01*
Y200900D01*
X423900Y201300D01*
X424300Y201700D01*
Y202100D01*
X423900D01*
X423500Y201700D01*
X423100Y202100D01*
X422700D01*
Y201700D01*
X423100Y201300D01*
X422700Y200900D01*
Y200500D01*
X409200Y199540D02*
X409600D01*
X410000Y199940D01*
X410400Y199540D01*
X410800D01*
Y199940D01*
X410400Y200340D01*
X410800Y200740D01*
Y201140D01*
X410400D01*
X410000Y200740D01*
X409600Y201140D01*
X409200D01*
Y200740D01*
X409600Y200340D01*
X409200Y199940D01*
Y199540D01*
X344989Y213700D02*
X345389D01*
X345789Y214100D01*
X346189Y213700D01*
X346589D01*
Y214100D01*
X346189Y214500D01*
X346589Y214900D01*
Y215300D01*
X346189D01*
X345789Y214900D01*
X345389Y215300D01*
X344989D01*
Y214900D01*
X345389Y214500D01*
X344989Y214100D01*
Y213700D01*
X349257Y193243D02*
X349657D01*
X350057Y193643D01*
X350457Y193243D01*
X350857D01*
Y193643D01*
X350457Y194043D01*
X350857Y194443D01*
Y194843D01*
X350457D01*
X350057Y194443D01*
X349657Y194843D01*
X349257D01*
Y194443D01*
X349657Y194043D01*
X349257Y193643D01*
Y193243D01*
X360800Y205800D02*
X361200D01*
X361600Y206200D01*
X362000Y205800D01*
X362400D01*
Y206200D01*
X362000Y206600D01*
X362400Y207000D01*
Y207400D01*
X362000D01*
X361600Y207000D01*
X361200Y207400D01*
X360800D01*
Y207000D01*
X361200Y206600D01*
X360800Y206200D01*
Y205800D01*
X375200Y227000D02*
X375600D01*
X376000Y227400D01*
X376400Y227000D01*
X376800D01*
Y227400D01*
X376400Y227800D01*
X376800Y228200D01*
Y228600D01*
X376400D01*
X376000Y228200D01*
X375600Y228600D01*
X375200D01*
Y228200D01*
X375600Y227800D01*
X375200Y227400D01*
Y227000D01*
Y223300D02*
X375600D01*
X376000Y223700D01*
X376400Y223300D01*
X376800D01*
Y223700D01*
X376400Y224100D01*
X376800Y224500D01*
Y224900D01*
X376400D01*
X376000Y224500D01*
X375600Y224900D01*
X375200D01*
Y224500D01*
X375600Y224100D01*
X375200Y223700D01*
Y223300D01*
X394700Y202700D02*
X395100D01*
X395500Y203100D01*
X395900Y202700D01*
X396300D01*
Y203100D01*
X395900Y203500D01*
X396300Y203900D01*
Y204300D01*
X395900D01*
X395500Y203900D01*
X395100Y204300D01*
X394700D01*
Y203900D01*
X395100Y203500D01*
X394700Y203100D01*
Y202700D01*
X406700Y212200D02*
X407100D01*
X407500Y212600D01*
X407900Y212200D01*
X408300D01*
Y212600D01*
X407900Y213000D01*
X408300Y213400D01*
Y213800D01*
X407900D01*
X407500Y213400D01*
X407100Y213800D01*
X406700D01*
Y213400D01*
X407100Y213000D01*
X406700Y212600D01*
Y212200D01*
X410998Y181002D02*
X411398D01*
X411798Y181402D01*
X412198Y181002D01*
X412598D01*
Y181402D01*
X412198Y181802D01*
X412598Y182202D01*
Y182602D01*
X412198D01*
X411798Y182202D01*
X411398Y182602D01*
X410998D01*
Y182202D01*
X411398Y181802D01*
X410998Y181402D01*
Y181002D01*
X385802D02*
X386202D01*
X386602Y181402D01*
X387002Y181002D01*
X387402D01*
Y181402D01*
X387002Y181802D01*
X387402Y182202D01*
Y182602D01*
X387002D01*
X386602Y182202D01*
X386202Y182602D01*
X385802D01*
Y182202D01*
X386202Y181802D01*
X385802Y181402D01*
Y181002D01*
X399800Y180500D02*
X400200D01*
X400600Y180900D01*
X401000Y180500D01*
X401400D01*
Y180900D01*
X401000Y181300D01*
X401400Y181700D01*
Y182100D01*
X401000D01*
X400600Y181700D01*
X400200Y182100D01*
X399800D01*
Y181700D01*
X400200Y181300D01*
X399800Y180900D01*
Y180500D01*
X397000D02*
X397400D01*
X397800Y180900D01*
X398200Y180500D01*
X398600D01*
Y180900D01*
X398200Y181300D01*
X398600Y181700D01*
Y182100D01*
X398200D01*
X397800Y181700D01*
X397400Y182100D01*
X397000D01*
Y181700D01*
X397400Y181300D01*
X397000Y180900D01*
Y180500D01*
X397645Y234200D02*
X398045D01*
X398445Y234600D01*
X398845Y234200D01*
X399245D01*
Y234600D01*
X398845Y235000D01*
X399245Y235400D01*
Y235800D01*
X398845D01*
X398445Y235400D01*
X398045Y235800D01*
X397645D01*
Y235400D01*
X398045Y235000D01*
X397645Y234600D01*
Y234200D01*
X406200Y264101D02*
X406600D01*
X407000Y264500D01*
X407400Y264101D01*
X407800D01*
Y264500D01*
X407400Y264900D01*
X407800Y265300D01*
Y265701D01*
X407400D01*
X407000Y265300D01*
X406600Y265701D01*
X406200D01*
Y265300D01*
X406600Y264900D01*
X406200Y264500D01*
Y264101D01*
X359200Y271400D02*
X359600D01*
X360000Y271800D01*
X360400Y271400D01*
X360800D01*
Y271800D01*
X360400Y272200D01*
X360800Y272600D01*
Y273000D01*
X360400D01*
X360000Y272600D01*
X359600Y273000D01*
X359200D01*
Y272600D01*
X359600Y272200D01*
X359200Y271800D01*
Y271400D01*
X366500Y285200D02*
X366900D01*
X367300Y285600D01*
X367700Y285200D01*
X368100D01*
Y285600D01*
X367700Y286000D01*
X368100Y286400D01*
Y286800D01*
X367700D01*
X367300Y286400D01*
X366900Y286800D01*
X366500D01*
Y286400D01*
X366900Y286000D01*
X366500Y285600D01*
Y285200D01*
X350000Y270600D02*
X350400D01*
X350800Y271000D01*
X351200Y270600D01*
X351600D01*
Y271000D01*
X351200Y271400D01*
X351600Y271800D01*
Y272200D01*
X351200D01*
X350800Y271800D01*
X350400Y272200D01*
X350000D01*
Y271800D01*
X350400Y271400D01*
X350000Y271000D01*
Y270600D01*
X346700Y264700D02*
X347100D01*
X347500Y265100D01*
X347900Y264700D01*
X348300D01*
Y265100D01*
X347900Y265500D01*
X348300Y265900D01*
Y266300D01*
X347900D01*
X347500Y265900D01*
X347100Y266300D01*
X346700D01*
Y265900D01*
X347100Y265500D01*
X346700Y265100D01*
Y264700D01*
X409700Y213200D02*
X410100D01*
X410500Y213600D01*
X410900Y213200D01*
X411300D01*
Y213600D01*
X410900Y214000D01*
X411300Y214400D01*
Y214800D01*
X410900D01*
X410500Y214400D01*
X410100Y214800D01*
X409700D01*
Y214400D01*
X410100Y214000D01*
X409700Y213600D01*
Y213200D01*
X385700Y236823D02*
X386100D01*
X386500Y237223D01*
X386900Y236823D01*
X387300D01*
Y237223D01*
X386900Y237623D01*
X387300Y238023D01*
Y238423D01*
X386900D01*
X386500Y238023D01*
X386100Y238423D01*
X385700D01*
Y238023D01*
X386100Y237623D01*
X385700Y237223D01*
Y236823D01*
X388300Y239200D02*
X388700D01*
X389100Y239600D01*
X389500Y239200D01*
X389900D01*
Y239600D01*
X389500Y240000D01*
X389900Y240400D01*
Y240800D01*
X389500D01*
X389100Y240400D01*
X388700Y240800D01*
X388300D01*
Y240400D01*
X388700Y240000D01*
X388300Y239600D01*
Y239200D01*
X385700Y259500D02*
X386100D01*
X386500Y259900D01*
X386900Y259500D01*
X387300D01*
Y259900D01*
X386900Y260300D01*
X387300Y260700D01*
Y261100D01*
X386900D01*
X386500Y260700D01*
X386100Y261100D01*
X385700D01*
Y260700D01*
X386100Y260300D01*
X385700Y259900D01*
Y259500D01*
X390912Y213412D02*
X391312D01*
X391712Y213812D01*
X392112Y213412D01*
X392512D01*
Y213812D01*
X392112Y214212D01*
X392512Y214612D01*
Y215012D01*
X392112D01*
X391712Y214612D01*
X391312Y215012D01*
X390912D01*
Y214612D01*
X391312Y214212D01*
X390912Y213812D01*
Y213412D01*
X477950Y351250D02*
X478350D01*
X478750Y351650D01*
X479150Y351250D01*
X479550D01*
Y351650D01*
X479150Y352050D01*
X479550Y352450D01*
Y352850D01*
X479150D01*
X478750Y352450D01*
X478350Y352850D01*
X477950D01*
Y352450D01*
X478350Y352050D01*
X477950Y351650D01*
Y351250D01*
X595200Y404200D02*
Y405800D01*
X596800D01*
Y404200D01*
X595200D01*
X595600Y404600D02*
Y405400D01*
X596400D01*
Y404600D01*
X595600D01*
X510000Y244700D02*
X510400D01*
X510800Y245100D01*
X511200Y244700D01*
X511600D01*
Y245100D01*
X511200Y245500D01*
X511600Y245900D01*
Y246300D01*
X511200D01*
X510800Y245900D01*
X510400Y246300D01*
X510000D01*
Y245900D01*
X510400Y245500D01*
X510000Y245100D01*
Y244700D01*
X515400Y205818D02*
X515800D01*
X516200Y206218D01*
X516600Y205818D01*
X517000D01*
Y206218D01*
X516600Y206618D01*
X517000Y207018D01*
Y207418D01*
X516600D01*
X516200Y207018D01*
X515800Y207418D01*
X515400D01*
Y207018D01*
X515800Y206618D01*
X515400Y206218D01*
Y205818D01*
X386478Y443522D02*
X386878D01*
X387278Y443922D01*
X387678Y443522D01*
X388078D01*
Y443922D01*
X387678Y444322D01*
X388078Y444722D01*
Y445122D01*
X387678D01*
X387278Y444722D01*
X386878Y445122D01*
X386478D01*
Y444722D01*
X386878Y444322D01*
X386478Y443922D01*
Y443522D01*
X475041Y239141D02*
X475441D01*
X475841Y239541D01*
X476241Y239141D01*
X476641D01*
Y239541D01*
X476241Y239941D01*
X476641Y240341D01*
Y240741D01*
X476241D01*
X475841Y240341D01*
X475441Y240741D01*
X475041D01*
Y240341D01*
X475441Y239941D01*
X475041Y239541D01*
Y239141D01*
X474941Y383959D02*
X475341D01*
X475741Y384359D01*
X476141Y383959D01*
X476541D01*
Y384359D01*
X476141Y384759D01*
X476541Y385159D01*
Y385559D01*
X476141D01*
X475741Y385159D01*
X475341Y385559D01*
X474941D01*
Y385159D01*
X475341Y384759D01*
X474941Y384359D01*
Y383959D01*
X495800Y206000D02*
X496200D01*
X496600Y206400D01*
X497000Y206000D01*
X497400D01*
Y206400D01*
X497000Y206800D01*
X497400Y207200D01*
Y207600D01*
X497000D01*
X496600Y207200D01*
X496200Y207600D01*
X495800D01*
Y207200D01*
X496200Y206800D01*
X495800Y206400D01*
Y206000D01*
X494600Y352000D02*
X495000D01*
X495400Y352400D01*
X495800Y352000D01*
X496200D01*
Y352400D01*
X495800Y352800D01*
X496200Y353200D01*
Y353600D01*
X495800D01*
X495400Y353200D01*
X495000Y353600D01*
X494600D01*
Y353200D01*
X495000Y352800D01*
X494600Y352400D01*
Y352000D01*
X595200Y176700D02*
Y178300D01*
X596800D01*
Y176700D01*
X595200D01*
X595600Y177100D02*
Y177900D01*
X596400D01*
Y177100D01*
X595600D01*
X595200Y222200D02*
Y223800D01*
X596800D01*
Y222200D01*
X595200D01*
X595600Y222600D02*
Y223400D01*
X596400D01*
Y222600D01*
X595600D01*
X595200Y267700D02*
Y269300D01*
X596800D01*
Y267700D01*
X595200D01*
X595600Y268100D02*
Y268900D01*
X596400D01*
Y268100D01*
X595600D01*
X595200Y313200D02*
Y314800D01*
X596800D01*
Y313200D01*
X595200D01*
X595600Y313600D02*
Y314400D01*
X596400D01*
Y313600D01*
X595600D01*
X595200Y358700D02*
Y360300D01*
X596800D01*
Y358700D01*
X595200D01*
X595600Y359100D02*
Y359900D01*
X596400D01*
Y359100D01*
X595600D01*
X535700Y260600D02*
X536100D01*
X536500Y261000D01*
X536900Y260600D01*
X537300D01*
Y261000D01*
X536900Y261400D01*
X537300Y261800D01*
Y262200D01*
X536900D01*
X536500Y261800D01*
X536100Y262200D01*
X535700D01*
Y261800D01*
X536100Y261400D01*
X535700Y261000D01*
Y260600D01*
X535800Y403000D02*
X536200D01*
X536600Y403400D01*
X537000Y403000D01*
X537400D01*
Y403400D01*
X537000Y403800D01*
X537400Y404200D01*
Y404600D01*
X537000D01*
X536600Y404200D01*
X536200Y404600D01*
X535800D01*
Y404200D01*
X536200Y403800D01*
X535800Y403400D01*
Y403000D01*
X527200D02*
X527600D01*
X528000Y403400D01*
X528400Y403000D01*
X528800D01*
Y403400D01*
X528400Y403800D01*
X528800Y404200D01*
Y404600D01*
X528400D01*
X528000Y404200D01*
X527600Y404600D01*
X527200D01*
Y404200D01*
X527600Y403800D01*
X527200Y403400D01*
Y403000D01*
X531500Y410200D02*
X531900D01*
X532300Y410600D01*
X532700Y410200D01*
X533100D01*
Y410600D01*
X532700Y411000D01*
X533100Y411400D01*
Y411800D01*
X532700D01*
X532300Y411400D01*
X531900Y411800D01*
X531500D01*
Y411400D01*
X531900Y411000D01*
X531500Y410600D01*
Y410200D01*
X527200Y407800D02*
X527600D01*
X528000Y408200D01*
X528400Y407800D01*
X528800D01*
Y408200D01*
X528400Y408600D01*
X528800Y409000D01*
Y409400D01*
X528400D01*
X528000Y409000D01*
X527600Y409400D01*
X527200D01*
Y409000D01*
X527600Y408600D01*
X527200Y408200D01*
Y407800D01*
Y412600D02*
X527600D01*
X528000Y413000D01*
X528400Y412600D01*
X528800D01*
Y413000D01*
X528400Y413400D01*
X528800Y413800D01*
Y414200D01*
X528400D01*
X528000Y413800D01*
X527600Y414200D01*
X527200D01*
Y413800D01*
X527600Y413400D01*
X527200Y413000D01*
Y412600D01*
X531500Y405400D02*
X531900D01*
X532300Y405800D01*
X532700Y405400D01*
X533100D01*
Y405800D01*
X532700Y406200D01*
X533100Y406600D01*
Y407000D01*
X532700D01*
X532300Y406600D01*
X531900Y407000D01*
X531500D01*
Y406600D01*
X531900Y406200D01*
X531500Y405800D01*
Y405400D01*
X535800Y407800D02*
X536200D01*
X536600Y408200D01*
X537000Y407800D01*
X537400D01*
Y408200D01*
X537000Y408600D01*
X537400Y409000D01*
Y409400D01*
X537000D01*
X536600Y409000D01*
X536200Y409400D01*
X535800D01*
Y409000D01*
X536200Y408600D01*
X535800Y408200D01*
Y407800D01*
Y412600D02*
X536200D01*
X536600Y413000D01*
X537000Y412600D01*
X537400D01*
Y413000D01*
X537000Y413400D01*
X537400Y413800D01*
Y414200D01*
X537000D01*
X536600Y413800D01*
X536200Y414200D01*
X535800D01*
Y413800D01*
X536200Y413400D01*
X535800Y413000D01*
Y412600D01*
X527100Y356400D02*
X527500D01*
X527900Y356800D01*
X528300Y356400D01*
X528700D01*
Y356800D01*
X528300Y357200D01*
X528700Y357600D01*
Y358000D01*
X528300D01*
X527900Y357600D01*
X527500Y358000D01*
X527100D01*
Y357600D01*
X527500Y357200D01*
X527100Y356800D01*
Y356400D01*
X531400Y363600D02*
X531800D01*
X532200Y364000D01*
X532600Y363600D01*
X533000D01*
Y364000D01*
X532600Y364400D01*
X533000Y364800D01*
Y365200D01*
X532600D01*
X532200Y364800D01*
X531800Y365200D01*
X531400D01*
Y364800D01*
X531800Y364400D01*
X531400Y364000D01*
Y363600D01*
X527100Y361200D02*
X527500D01*
X527900Y361600D01*
X528300Y361200D01*
X528700D01*
Y361600D01*
X528300Y362000D01*
X528700Y362400D01*
Y362800D01*
X528300D01*
X527900Y362400D01*
X527500Y362800D01*
X527100D01*
Y362400D01*
X527500Y362000D01*
X527100Y361600D01*
Y361200D01*
Y366000D02*
X527500D01*
X527900Y366400D01*
X528300Y366000D01*
X528700D01*
Y366400D01*
X528300Y366800D01*
X528700Y367200D01*
Y367600D01*
X528300D01*
X527900Y367200D01*
X527500Y367600D01*
X527100D01*
Y367200D01*
X527500Y366800D01*
X527100Y366400D01*
Y366000D01*
X531400Y358800D02*
X531800D01*
X532200Y359200D01*
X532600Y358800D01*
X533000D01*
Y359200D01*
X532600Y359600D01*
X533000Y360000D01*
Y360400D01*
X532600D01*
X532200Y360000D01*
X531800Y360400D01*
X531400D01*
Y360000D01*
X531800Y359600D01*
X531400Y359200D01*
Y358800D01*
X535700Y356400D02*
X536100D01*
X536500Y356800D01*
X536900Y356400D01*
X537300D01*
Y356800D01*
X536900Y357200D01*
X537300Y357600D01*
Y358000D01*
X536900D01*
X536500Y357600D01*
X536100Y358000D01*
X535700D01*
Y357600D01*
X536100Y357200D01*
X535700Y356800D01*
Y356400D01*
Y361200D02*
X536100D01*
X536500Y361600D01*
X536900Y361200D01*
X537300D01*
Y361600D01*
X536900Y362000D01*
X537300Y362400D01*
Y362800D01*
X536900D01*
X536500Y362400D01*
X536100Y362800D01*
X535700D01*
Y362400D01*
X536100Y362000D01*
X535700Y361600D01*
Y361200D01*
Y366000D02*
X536100D01*
X536500Y366400D01*
X536900Y366000D01*
X537300D01*
Y366400D01*
X536900Y366800D01*
X537300Y367200D01*
Y367600D01*
X536900D01*
X536500Y367200D01*
X536100Y367600D01*
X535700D01*
Y367200D01*
X536100Y366800D01*
X535700Y366400D01*
Y366000D01*
X527300Y316000D02*
X527700D01*
X528100Y316400D01*
X528500Y316000D01*
X528900D01*
Y316400D01*
X528500Y316800D01*
X528900Y317200D01*
Y317600D01*
X528500D01*
X528100Y317200D01*
X527700Y317600D01*
X527300D01*
Y317200D01*
X527700Y316800D01*
X527300Y316400D01*
Y316000D01*
X531600Y323200D02*
X532000D01*
X532400Y323600D01*
X532800Y323200D01*
X533200D01*
Y323600D01*
X532800Y324000D01*
X533200Y324400D01*
Y324800D01*
X532800D01*
X532400Y324400D01*
X532000Y324800D01*
X531600D01*
Y324400D01*
X532000Y324000D01*
X531600Y323600D01*
Y323200D01*
X527300Y320800D02*
X527700D01*
X528100Y321200D01*
X528500Y320800D01*
X528900D01*
Y321200D01*
X528500Y321600D01*
X528900Y322000D01*
Y322400D01*
X528500D01*
X528100Y322000D01*
X527700Y322400D01*
X527300D01*
Y322000D01*
X527700Y321600D01*
X527300Y321200D01*
Y320800D01*
Y325600D02*
X527700D01*
X528100Y326000D01*
X528500Y325600D01*
X528900D01*
Y326000D01*
X528500Y326400D01*
X528900Y326800D01*
Y327200D01*
X528500D01*
X528100Y326800D01*
X527700Y327200D01*
X527300D01*
Y326800D01*
X527700Y326400D01*
X527300Y326000D01*
Y325600D01*
X531600Y318400D02*
X532000D01*
X532400Y318800D01*
X532800Y318400D01*
X533200D01*
Y318800D01*
X532800Y319200D01*
X533200Y319600D01*
Y320000D01*
X532800D01*
X532400Y319600D01*
X532000Y320000D01*
X531600D01*
Y319600D01*
X532000Y319200D01*
X531600Y318800D01*
Y318400D01*
X535900Y316000D02*
X536300D01*
X536700Y316400D01*
X537100Y316000D01*
X537500D01*
Y316400D01*
X537100Y316800D01*
X537500Y317200D01*
Y317600D01*
X537100D01*
X536700Y317200D01*
X536300Y317600D01*
X535900D01*
Y317200D01*
X536300Y316800D01*
X535900Y316400D01*
Y316000D01*
Y320800D02*
X536300D01*
X536700Y321200D01*
X537100Y320800D01*
X537500D01*
Y321200D01*
X537100Y321600D01*
X537500Y322000D01*
Y322400D01*
X537100D01*
X536700Y322000D01*
X536300Y322400D01*
X535900D01*
Y322000D01*
X536300Y321600D01*
X535900Y321200D01*
Y320800D01*
Y325600D02*
X536300D01*
X536700Y326000D01*
X537100Y325600D01*
X537500D01*
Y326000D01*
X537100Y326400D01*
X537500Y326800D01*
Y327200D01*
X537100D01*
X536700Y326800D01*
X536300Y327200D01*
X535900D01*
Y326800D01*
X536300Y326400D01*
X535900Y326000D01*
Y325600D01*
X527100Y260600D02*
X527500D01*
X527900Y261000D01*
X528300Y260600D01*
X528700D01*
Y261000D01*
X528300Y261400D01*
X528700Y261800D01*
Y262200D01*
X528300D01*
X527900Y261800D01*
X527500Y262200D01*
X527100D01*
Y261800D01*
X527500Y261400D01*
X527100Y261000D01*
Y260600D01*
X531400Y267800D02*
X531800D01*
X532200Y268200D01*
X532600Y267800D01*
X533000D01*
Y268200D01*
X532600Y268600D01*
X533000Y269000D01*
Y269400D01*
X532600D01*
X532200Y269000D01*
X531800Y269400D01*
X531400D01*
Y269000D01*
X531800Y268600D01*
X531400Y268200D01*
Y267800D01*
X527100Y265400D02*
X527500D01*
X527900Y265800D01*
X528300Y265400D01*
X528700D01*
Y265800D01*
X528300Y266200D01*
X528700Y266600D01*
Y267000D01*
X528300D01*
X527900Y266600D01*
X527500Y267000D01*
X527100D01*
Y266600D01*
X527500Y266200D01*
X527100Y265800D01*
Y265400D01*
X527100Y270200D02*
X527500D01*
X527900Y270600D01*
X528300Y270200D01*
X528700D01*
Y270600D01*
X528300Y271000D01*
X528700Y271400D01*
Y271800D01*
X528300D01*
X527900Y271400D01*
X527500Y271800D01*
X527100D01*
Y271400D01*
X527500Y271000D01*
X527100Y270600D01*
Y270200D01*
X531400Y263000D02*
X531800D01*
X532200Y263400D01*
X532600Y263000D01*
X533000D01*
Y263400D01*
X532600Y263800D01*
X533000Y264200D01*
Y264600D01*
X532600D01*
X532200Y264200D01*
X531800Y264600D01*
X531400D01*
Y264200D01*
X531800Y263800D01*
X531400Y263400D01*
Y263000D01*
X535700Y265400D02*
X536100D01*
X536500Y265800D01*
X536900Y265400D01*
X537300D01*
Y265800D01*
X536900Y266200D01*
X537300Y266600D01*
Y267000D01*
X536900D01*
X536500Y266600D01*
X536100Y267000D01*
X535700D01*
Y266600D01*
X536100Y266200D01*
X535700Y265800D01*
Y265400D01*
Y270200D02*
X536100D01*
X536500Y270600D01*
X536900Y270200D01*
X537300D01*
Y270600D01*
X536900Y271000D01*
X537300Y271400D01*
Y271800D01*
X536900D01*
X536500Y271400D01*
X536100Y271800D01*
X535700D01*
Y271400D01*
X536100Y271000D01*
X535700Y270600D01*
Y270200D01*
X527200Y217300D02*
X527600D01*
X528000Y217700D01*
X528400Y217300D01*
X528800D01*
Y217700D01*
X528400Y218100D01*
X528800Y218500D01*
Y218900D01*
X528400D01*
X528000Y218500D01*
X527600Y218900D01*
X527200D01*
Y218500D01*
X527600Y218100D01*
X527200Y217700D01*
Y217300D01*
X531500Y224500D02*
X531900D01*
X532300Y224900D01*
X532700Y224500D01*
X533100D01*
Y224900D01*
X532700Y225300D01*
X533100Y225700D01*
Y226100D01*
X532700D01*
X532300Y225700D01*
X531900Y226100D01*
X531500D01*
Y225700D01*
X531900Y225300D01*
X531500Y224900D01*
Y224500D01*
X527200Y222100D02*
X527600D01*
X528000Y222500D01*
X528400Y222100D01*
X528800D01*
Y222500D01*
X528400Y222900D01*
X528800Y223300D01*
Y223700D01*
X528400D01*
X528000Y223300D01*
X527600Y223700D01*
X527200D01*
Y223300D01*
X527600Y222900D01*
X527200Y222500D01*
Y222100D01*
Y226900D02*
X527600D01*
X528000Y227300D01*
X528400Y226900D01*
X528800D01*
Y227300D01*
X528400Y227700D01*
X528800Y228100D01*
Y228500D01*
X528400D01*
X528000Y228100D01*
X527600Y228500D01*
X527200D01*
Y228100D01*
X527600Y227700D01*
X527200Y227300D01*
Y226900D01*
X531500Y219700D02*
X531900D01*
X532300Y220100D01*
X532700Y219700D01*
X533100D01*
Y220100D01*
X532700Y220500D01*
X533100Y220900D01*
Y221300D01*
X532700D01*
X532300Y220900D01*
X531900Y221300D01*
X531500D01*
Y220900D01*
X531900Y220500D01*
X531500Y220100D01*
Y219700D01*
X535800Y217300D02*
X536200D01*
X536600Y217700D01*
X537000Y217300D01*
X537400D01*
Y217700D01*
X537000Y218100D01*
X537400Y218500D01*
Y218900D01*
X537000D01*
X536600Y218500D01*
X536200Y218900D01*
X535800D01*
Y218500D01*
X536200Y218100D01*
X535800Y217700D01*
Y217300D01*
Y222100D02*
X536200D01*
X536600Y222500D01*
X537000Y222100D01*
X537400D01*
Y222500D01*
X537000Y222900D01*
X537400Y223300D01*
Y223700D01*
X537000D01*
X536600Y223300D01*
X536200Y223700D01*
X535800D01*
Y223300D01*
X536200Y222900D01*
X535800Y222500D01*
Y222100D01*
Y226900D02*
X536200D01*
X536600Y227300D01*
X537000Y226900D01*
X537400D01*
Y227300D01*
X537000Y227700D01*
X537400Y228100D01*
Y228500D01*
X537000D01*
X536600Y228100D01*
X536200Y228500D01*
X535800D01*
Y228100D01*
X536200Y227700D01*
X535800Y227300D01*
Y226900D01*
X527400Y171100D02*
X527800D01*
X528200Y171500D01*
X528600Y171100D01*
X529000D01*
Y171500D01*
X528600Y171900D01*
X529000Y172300D01*
Y172700D01*
X528600D01*
X528200Y172300D01*
X527800Y172700D01*
X527400D01*
Y172300D01*
X527800Y171900D01*
X527400Y171500D01*
Y171100D01*
Y175900D02*
X527800D01*
X528200Y176300D01*
X528600Y175900D01*
X529000D01*
Y176300D01*
X528600Y176700D01*
X529000Y177100D01*
Y177500D01*
X528600D01*
X528200Y177100D01*
X527800Y177500D01*
X527400D01*
Y177100D01*
X527800Y176700D01*
X527400Y176300D01*
Y175900D01*
Y180700D02*
X527800D01*
X528200Y181100D01*
X528600Y180700D01*
X529000D01*
Y181100D01*
X528600Y181500D01*
X529000Y181900D01*
Y182300D01*
X528600D01*
X528200Y181900D01*
X527800Y182300D01*
X527400D01*
Y181900D01*
X527800Y181500D01*
X527400Y181100D01*
Y180700D01*
X531500Y178300D02*
X531900D01*
X532300Y178700D01*
X532700Y178300D01*
X533100D01*
Y178700D01*
X532700Y179100D01*
X533100Y179500D01*
Y179900D01*
X532700D01*
X532300Y179500D01*
X531900Y179900D01*
X531500D01*
Y179500D01*
X531900Y179100D01*
X531500Y178700D01*
Y178300D01*
X535600Y171100D02*
X536000D01*
X536400Y171500D01*
X536800Y171100D01*
X537200D01*
Y171500D01*
X536800Y171900D01*
X537200Y172300D01*
Y172700D01*
X536800D01*
X536400Y172300D01*
X536000Y172700D01*
X535600D01*
Y172300D01*
X536000Y171900D01*
X535600Y171500D01*
Y171100D01*
Y175900D02*
X536000D01*
X536400Y176300D01*
X536800Y175900D01*
X537200D01*
Y176300D01*
X536800Y176700D01*
X537200Y177100D01*
Y177500D01*
X536800D01*
X536400Y177100D01*
X536000Y177500D01*
X535600D01*
Y177100D01*
X536000Y176700D01*
X535600Y176300D01*
Y175900D01*
X531500Y173500D02*
X531900D01*
X532300Y173900D01*
X532700Y173500D01*
X533100D01*
Y173900D01*
X532700Y174300D01*
X533100Y174700D01*
Y175100D01*
X532700D01*
X532300Y174700D01*
X531900Y175100D01*
X531500D01*
Y174700D01*
X531900Y174300D01*
X531500Y173900D01*
Y173500D01*
X535600Y180700D02*
X536000D01*
X536400Y181100D01*
X536800Y180700D01*
X537200D01*
Y181100D01*
X536800Y181500D01*
X537200Y181900D01*
Y182300D01*
X536800D01*
X536400Y181900D01*
X536000Y182300D01*
X535600D01*
Y181900D01*
X536000Y181500D01*
X535600Y181100D01*
Y180700D01*
X515500Y238000D02*
X515900D01*
X516300Y238400D01*
X516700Y238000D01*
X517100D01*
Y238400D01*
X516700Y238800D01*
X517100Y239200D01*
Y239600D01*
X516700D01*
X516300Y239200D01*
X515900Y239600D01*
X515500D01*
Y239200D01*
X515900Y238800D01*
X515500Y238400D01*
Y238000D01*
X495400Y382900D02*
X495800D01*
X496200Y383300D01*
X496600Y382900D01*
X497000D01*
Y383300D01*
X496600Y383700D01*
X497000Y384100D01*
Y384500D01*
X496600D01*
X496200Y384100D01*
X495800Y384500D01*
X495400D01*
Y384100D01*
X495800Y383700D01*
X495400Y383300D01*
Y382900D01*
X510325D02*
X510725D01*
X511125Y383300D01*
X511525Y382900D01*
X511925D01*
Y383300D01*
X511525Y383700D01*
X511925Y384100D01*
Y384500D01*
X511525D01*
X511125Y384100D01*
X510725Y384500D01*
X510325D01*
Y384100D01*
X510725Y383700D01*
X510325Y383300D01*
Y382900D01*
X514259Y160741D02*
X514659D01*
X515059Y161141D01*
X515459Y160741D01*
X515859D01*
Y161141D01*
X515459Y161541D01*
X515859Y161941D01*
Y162341D01*
X515459D01*
X515059Y161941D01*
X514659Y162341D01*
X514259D01*
Y161941D01*
X514659Y161541D01*
X514259Y161141D01*
Y160741D01*
X507659Y305659D02*
X508059D01*
X508459Y306059D01*
X508859Y305659D01*
X509259D01*
Y306059D01*
X508859Y306459D01*
X509259Y306859D01*
Y307259D01*
X508859D01*
X508459Y306859D01*
X508059Y307259D01*
X507659D01*
Y306859D01*
X508059Y306459D01*
X507659Y306059D01*
Y305659D01*
X515300Y350759D02*
X515700D01*
X516100Y351159D01*
X516500Y350759D01*
X516900D01*
Y351159D01*
X516500Y351559D01*
X516900Y351959D01*
Y352359D01*
X516500D01*
X516100Y351959D01*
X515700Y352359D01*
X515300D01*
Y351959D01*
X515700Y351559D01*
X515300Y351159D01*
Y350759D01*
X503200Y352200D02*
X503600D01*
X504000Y352600D01*
X504400Y352200D01*
X504800D01*
Y352600D01*
X504400Y353000D01*
X504800Y353400D01*
Y353800D01*
X504400D01*
X504000Y353400D01*
X503600Y353800D01*
X503200D01*
Y353400D01*
X503600Y353000D01*
X503200Y352600D01*
Y352200D01*
X477950Y359350D02*
X478350D01*
X478750Y359750D01*
X479150Y359350D01*
X479550D01*
Y359750D01*
X479150Y360150D01*
X479550Y360550D01*
Y360950D01*
X479150D01*
X478750Y360550D01*
X478350Y360950D01*
X477950D01*
Y360550D01*
X478350Y360150D01*
X477950Y359750D01*
Y359350D01*
X501500Y206300D02*
X501900D01*
X502300Y206700D01*
X502700Y206300D01*
X503100D01*
Y206700D01*
X502700Y207100D01*
X503100Y207500D01*
Y207900D01*
X502700D01*
X502300Y207500D01*
X501900Y207900D01*
X501500D01*
Y207500D01*
X501900Y207100D01*
X501500Y206700D01*
Y206300D01*
X478300Y206000D02*
X478700D01*
X479100Y206400D01*
X479500Y206000D01*
X479900D01*
Y206400D01*
X479500Y206800D01*
X479900Y207200D01*
Y207600D01*
X479500D01*
X479100Y207200D01*
X478700Y207600D01*
X478300D01*
Y207200D01*
X478700Y206800D01*
X478300Y206400D01*
Y206000D01*
Y213100D02*
X478700D01*
X479100Y213500D01*
X479500Y213100D01*
X479900D01*
Y213500D01*
X479500Y213900D01*
X479900Y214300D01*
Y214700D01*
X479500D01*
X479100Y214300D01*
X478700Y214700D01*
X478300D01*
Y214300D01*
X478700Y213900D01*
X478300Y213500D01*
Y213100D01*
X423700Y427900D02*
X424100D01*
X424500Y428300D01*
X424900Y427900D01*
X425300D01*
Y428300D01*
X424900Y428700D01*
X425300Y429100D01*
Y429500D01*
X424900D01*
X424500Y429100D01*
X424100Y429500D01*
X423700D01*
Y429100D01*
X424100Y428700D01*
X423700Y428300D01*
Y427900D01*
X421500Y422700D02*
X421900D01*
X422300Y423100D01*
X422700Y422700D01*
X423100D01*
Y423100D01*
X422700Y423500D01*
X423100Y423900D01*
Y424300D01*
X422700D01*
X422300Y423900D01*
X421900Y424300D01*
X421500D01*
Y423900D01*
X421900Y423500D01*
X421500Y423100D01*
Y422700D01*
X424100Y424600D02*
X424500D01*
X424900Y425000D01*
X425300Y424600D01*
X425700D01*
Y425000D01*
X425300Y425400D01*
X425700Y425800D01*
Y426200D01*
X425300D01*
X424900Y425800D01*
X424500Y426200D01*
X424100D01*
Y425800D01*
X424500Y425400D01*
X424100Y425000D01*
Y424600D01*
X456700Y217200D02*
X457100D01*
X457500Y217600D01*
X457900Y217200D01*
X458300D01*
Y217600D01*
X457900Y218000D01*
X458300Y218400D01*
Y218800D01*
X457900D01*
X457500Y218400D01*
X457100Y218800D01*
X456700D01*
Y218400D01*
X457100Y218000D01*
X456700Y217600D01*
Y217200D01*
X458000Y233400D02*
X458400D01*
X458800Y233800D01*
X459200Y233400D01*
X459600D01*
Y233800D01*
X459200Y234200D01*
X459600Y234600D01*
Y235000D01*
X459200D01*
X458800Y234600D01*
X458400Y235000D01*
X458000D01*
Y234600D01*
X458400Y234200D01*
X458000Y233800D01*
Y233400D01*
X445500Y214600D02*
X445900D01*
X446300Y215000D01*
X446700Y214600D01*
X447100D01*
Y215000D01*
X446700Y215400D01*
X447100Y215800D01*
Y216200D01*
X446700D01*
X446300Y215800D01*
X445900Y216200D01*
X445500D01*
Y215800D01*
X445900Y215400D01*
X445500Y215000D01*
Y214600D01*
X461700Y225200D02*
X462100D01*
X462500Y225600D01*
X462900Y225200D01*
X463300D01*
Y225600D01*
X462900Y226000D01*
X463300Y226400D01*
Y226800D01*
X462900D01*
X462500Y226400D01*
X462100Y226800D01*
X461700D01*
Y226400D01*
X462100Y226000D01*
X461700Y225600D01*
Y225200D01*
X456700Y299700D02*
X457100D01*
X457500Y300100D01*
X457900Y299700D01*
X458300D01*
Y300100D01*
X457900Y300500D01*
X458300Y300900D01*
Y301300D01*
X457900D01*
X457500Y300900D01*
X457100Y301300D01*
X456700D01*
Y300900D01*
X457100Y300500D01*
X456700Y300100D01*
Y299700D01*
X458100Y316300D02*
X458500D01*
X458900Y316700D01*
X459300Y316300D01*
X459700D01*
Y316700D01*
X459300Y317100D01*
X459700Y317500D01*
Y317900D01*
X459300D01*
X458900Y317500D01*
X458500Y317900D01*
X458100D01*
Y317500D01*
X458500Y317100D01*
X458100Y316700D01*
Y316300D01*
X461200Y308200D02*
X461600D01*
X462000Y308600D01*
X462400Y308200D01*
X462800D01*
Y308600D01*
X462400Y309000D01*
X462800Y309400D01*
Y309800D01*
X462400D01*
X462000Y309400D01*
X461600Y309800D01*
X461200D01*
Y309400D01*
X461600Y309000D01*
X461200Y308600D01*
Y308200D01*
X446800Y295700D02*
X447200D01*
X447600Y296100D01*
X448000Y295700D01*
X448400D01*
Y296100D01*
X448000Y296500D01*
X448400Y296900D01*
Y297300D01*
X448000D01*
X447600Y296900D01*
X447200Y297300D01*
X446800D01*
Y296900D01*
X447200Y296500D01*
X446800Y296100D01*
Y295700D01*
X434961Y225361D02*
X435361D01*
X435761Y225761D01*
X436161Y225361D01*
X436561D01*
Y225761D01*
X436161Y226161D01*
X436561Y226561D01*
Y226961D01*
X436161D01*
X435761Y226561D01*
X435361Y226961D01*
X434961D01*
Y226561D01*
X435361Y226161D01*
X434961Y225761D01*
Y225361D01*
Y350400D02*
X435361D01*
X435761Y350800D01*
X436161Y350400D01*
X436561D01*
Y350800D01*
X436161Y351200D01*
X436561Y351600D01*
Y352000D01*
X436161D01*
X435761Y351600D01*
X435361Y352000D01*
X434961D01*
Y351600D01*
X435361Y351200D01*
X434961Y350800D01*
Y350400D01*
X531500Y394189D02*
X531900D01*
X532300Y394589D01*
X532700Y394189D01*
X533100D01*
Y394589D01*
X532700Y394989D01*
X533100Y395389D01*
Y395789D01*
X532700D01*
X532300Y395389D01*
X531900Y395789D01*
X531500D01*
Y395389D01*
X531900Y394989D01*
X531500Y394589D01*
Y394189D01*
X509011D02*
X509411D01*
X509811Y394589D01*
X510211Y394189D01*
X510611D01*
Y394589D01*
X510211Y394989D01*
X510611Y395389D01*
Y395789D01*
X510211D01*
X509811Y395389D01*
X509411Y395789D01*
X509011D01*
Y395389D01*
X509411Y394989D01*
X509011Y394589D01*
Y394189D01*
X531500Y251929D02*
X531900D01*
X532300Y252329D01*
X532700Y251929D01*
X533100D01*
Y252329D01*
X532700Y252729D01*
X533100Y253129D01*
Y253529D01*
X532700D01*
X532300Y253129D01*
X531900Y253529D01*
X531500D01*
Y253129D01*
X531900Y252729D01*
X531500Y252329D01*
Y251929D01*
X490500Y237800D02*
X490900D01*
X491300Y238200D01*
X491700Y237800D01*
X492100D01*
Y238200D01*
X491700Y238600D01*
X492100Y239000D01*
Y239400D01*
X491700D01*
X491300Y239000D01*
X490900Y239400D01*
X490500D01*
Y239000D01*
X490900Y238600D01*
X490500Y238200D01*
Y237800D01*
X495400Y238000D02*
X495800D01*
X496200Y238400D01*
X496600Y238000D01*
X497000D01*
Y238400D01*
X496600Y238800D01*
X497000Y239200D01*
Y239600D01*
X496600D01*
X496200Y239200D01*
X495800Y239600D01*
X495400D01*
Y239200D01*
X495800Y238800D01*
X495400Y238400D01*
Y238000D01*
X468500Y308400D02*
X468900D01*
X469300Y308800D01*
X469700Y308400D01*
X470100D01*
Y308800D01*
X469700Y309200D01*
X470100Y309600D01*
Y310000D01*
X469700D01*
X469300Y309600D01*
X468900Y310000D01*
X468500D01*
Y309600D01*
X468900Y309200D01*
X468500Y308800D01*
Y308400D01*
Y248200D02*
X468900D01*
X469300Y248600D01*
X469700Y248200D01*
X470100D01*
Y248600D01*
X469700Y249000D01*
X470100Y249400D01*
Y249800D01*
X469700D01*
X469300Y249400D01*
X468900Y249800D01*
X468500D01*
Y249400D01*
X468900Y249000D01*
X468500Y248600D01*
Y248200D01*
X366001Y180400D02*
X366401D01*
X366800Y180800D01*
X367200Y180400D01*
X367600D01*
Y180800D01*
X367200Y181200D01*
X367600Y181600D01*
Y182000D01*
X367200D01*
X366800Y181600D01*
X366401Y182000D01*
X366001D01*
Y181600D01*
X366401Y181200D01*
X366001Y180800D01*
Y180400D01*
X371500Y194380D02*
X371900D01*
X372300Y194781D01*
X372700Y194380D01*
X373100D01*
Y194781D01*
X372700Y195180D01*
X373100Y195580D01*
Y195981D01*
X372700D01*
X372300Y195580D01*
X371900Y195981D01*
X371500D01*
Y195580D01*
X371900Y195180D01*
X371500Y194781D01*
Y194380D01*
X370700Y217500D02*
X371100D01*
X371500Y217900D01*
X371900Y217500D01*
X372300D01*
Y217900D01*
X371900Y218300D01*
X372300Y218700D01*
Y219100D01*
X371900D01*
X371500Y218700D01*
X371100Y219100D01*
X370700D01*
Y218700D01*
X371100Y218300D01*
X370700Y217900D01*
Y217500D01*
X364700Y204200D02*
X365100D01*
X365500Y204600D01*
X365900Y204200D01*
X366300D01*
Y204600D01*
X365900Y205000D01*
X366300Y205400D01*
Y205800D01*
X365900D01*
X365500Y205400D01*
X365100Y205800D01*
X364700D01*
Y205400D01*
X365100Y205000D01*
X364700Y204600D01*
Y204200D01*
X397645Y229200D02*
X398045D01*
X398445Y229600D01*
X398845Y229200D01*
X399245D01*
Y229600D01*
X398845Y230000D01*
X399245Y230400D01*
Y230800D01*
X398845D01*
X398445Y230400D01*
X398045Y230800D01*
X397645D01*
Y230400D01*
X398045Y230000D01*
X397645Y229600D01*
Y229200D01*
X400000Y231700D02*
X400400D01*
X400800Y232100D01*
X401200Y231700D01*
X401600D01*
Y232100D01*
X401200Y232500D01*
X401600Y232900D01*
Y233300D01*
X401200D01*
X400800Y232900D01*
X400400Y233300D01*
X400000D01*
Y232900D01*
X400400Y232500D01*
X400000Y232100D01*
Y231700D01*
X413700Y234200D02*
X414100D01*
X414500Y234600D01*
X414900Y234200D01*
X415300D01*
Y234600D01*
X414900Y235000D01*
X415300Y235400D01*
Y235800D01*
X414900D01*
X414500Y235400D01*
X414100Y235800D01*
X413700D01*
Y235400D01*
X414100Y235000D01*
X413700Y234600D01*
Y234200D01*
X411200Y231700D02*
X411600D01*
X412000Y232100D01*
X412400Y231700D01*
X412800D01*
Y232100D01*
X412400Y232500D01*
X412800Y232900D01*
Y233300D01*
X412400D01*
X412000Y232900D01*
X411600Y233300D01*
X411200D01*
Y232900D01*
X411600Y232500D01*
X411200Y232100D01*
Y231700D01*
X413700Y229200D02*
X414100D01*
X414500Y229600D01*
X414900Y229200D01*
X415300D01*
Y229600D01*
X414900Y230000D01*
X415300Y230400D01*
Y230800D01*
X414900D01*
X414500Y230400D01*
X414100Y230800D01*
X413700D01*
Y230400D01*
X414100Y230000D01*
X413700Y229600D01*
Y229200D01*
X431700Y305302D02*
X432100D01*
X432500Y305702D01*
X432900Y305302D01*
X433300D01*
Y305702D01*
X432900Y306102D01*
X433300Y306502D01*
Y306902D01*
X432900D01*
X432500Y306502D01*
X432100Y306902D01*
X431700D01*
Y306502D01*
X432100Y306102D01*
X431700Y305702D01*
Y305302D01*
X423700Y350700D02*
X424100D01*
X424500Y351100D01*
X424900Y350700D01*
X425300D01*
Y351100D01*
X424900Y351500D01*
X425300Y351900D01*
Y352300D01*
X424900D01*
X424500Y351900D01*
X424100Y352300D01*
X423700D01*
Y351900D01*
X424100Y351500D01*
X423700Y351100D01*
Y350700D01*
X419950D02*
X420350D01*
X420750Y351100D01*
X421150Y350700D01*
X421550D01*
Y351100D01*
X421150Y351500D01*
X421550Y351900D01*
Y352300D01*
X421150D01*
X420750Y351900D01*
X420350Y352300D01*
X419950D01*
Y351900D01*
X420350Y351500D01*
X419950Y351100D01*
Y350700D01*
X416200D02*
X416600D01*
X417000Y351100D01*
X417400Y350700D01*
X417800D01*
Y351100D01*
X417400Y351500D01*
X417800Y351900D01*
Y352300D01*
X417400D01*
X417000Y351900D01*
X416600Y352300D01*
X416200D01*
Y351900D01*
X416600Y351500D01*
X416200Y351100D01*
Y350700D01*
X342400Y321000D02*
X342800D01*
X343200Y321400D01*
X343600Y321000D01*
X344000D01*
Y321400D01*
X343600Y321800D01*
X344000Y322200D01*
Y322600D01*
X343600D01*
X343200Y322200D01*
X342800Y322600D01*
X342400D01*
Y322200D01*
X342800Y321800D01*
X342400Y321400D01*
Y321000D01*
X337300Y341700D02*
X337700D01*
X338100Y342100D01*
X338500Y341700D01*
X338900D01*
Y342100D01*
X338500Y342500D01*
X338900Y342900D01*
Y343300D01*
X338500D01*
X338100Y342900D01*
X337700Y343300D01*
X337300D01*
Y342900D01*
X337700Y342500D01*
X337300Y342100D01*
Y341700D01*
X337700Y331500D02*
X338100D01*
X338500Y331900D01*
X338900Y331500D01*
X339300D01*
Y331900D01*
X338900Y332300D01*
X339300Y332700D01*
Y333100D01*
X338900D01*
X338500Y332700D01*
X338100Y333100D01*
X337700D01*
Y332700D01*
X338100Y332300D01*
X337700Y331900D01*
Y331500D01*
X344200Y300500D02*
X344600D01*
X345000Y300900D01*
X345400Y300500D01*
X345800D01*
Y300900D01*
X345400Y301300D01*
X345800Y301700D01*
Y302100D01*
X345400D01*
X345000Y301700D01*
X344600Y302100D01*
X344200D01*
Y301700D01*
X344600Y301300D01*
X344200Y300900D01*
Y300500D01*
X340100Y292200D02*
X340500D01*
X340900Y292600D01*
X341300Y292200D01*
X341700D01*
Y292600D01*
X341300Y293000D01*
X341700Y293400D01*
Y293800D01*
X341300D01*
X340900Y293400D01*
X340500Y293800D01*
X340100D01*
Y293400D01*
X340500Y293000D01*
X340100Y292600D01*
Y292200D01*
X342400Y311000D02*
X342800D01*
X343200Y311400D01*
X343600Y311000D01*
X344000D01*
Y311400D01*
X343600Y311800D01*
X344000Y312200D01*
Y312600D01*
X343600D01*
X343200Y312200D01*
X342800Y312600D01*
X342400D01*
Y312200D01*
X342800Y311800D01*
X342400Y311400D01*
Y311000D01*
X376155Y321545D02*
X376555D01*
X376955Y321945D01*
X377355Y321545D01*
X377755D01*
Y321945D01*
X377355Y322345D01*
X377755Y322745D01*
Y323145D01*
X377355D01*
X376955Y322745D01*
X376555Y323145D01*
X376155D01*
Y322745D01*
X376555Y322345D01*
X376155Y321945D01*
Y321545D01*
X376155Y311655D02*
X376555D01*
X376955Y312055D01*
X377355Y311655D01*
X377755D01*
Y312055D01*
X377355Y312455D01*
X377755Y312855D01*
Y313255D01*
X377355D01*
X376955Y312855D01*
X376555Y313255D01*
X376155D01*
Y312855D01*
X376555Y312455D01*
X376155Y312055D01*
Y311655D01*
X376155Y332700D02*
X376555D01*
X376955Y333100D01*
X377355Y332700D01*
X377755D01*
Y333100D01*
X377355Y333500D01*
X377755Y333900D01*
Y334300D01*
X377355D01*
X376955Y333900D01*
X376555Y334300D01*
X376155D01*
Y333900D01*
X376555Y333500D01*
X376155Y333100D01*
Y332700D01*
X376155Y301345D02*
X376555D01*
X376955Y301745D01*
X377355Y301345D01*
X377755D01*
Y301745D01*
X377355Y302145D01*
X377755Y302545D01*
Y302945D01*
X377355D01*
X376955Y302545D01*
X376555Y302945D01*
X376155D01*
Y302545D01*
X376555Y302145D01*
X376155Y301745D01*
Y301345D01*
Y291255D02*
X376555D01*
X376955Y291655D01*
X377355Y291255D01*
X377755D01*
Y291655D01*
X377355Y292055D01*
X377755Y292455D01*
Y292855D01*
X377355D01*
X376955Y292455D01*
X376555Y292855D01*
X376155D01*
Y292455D01*
X376555Y292055D01*
X376155Y291655D01*
Y291255D01*
X393541Y326400D02*
X393941D01*
X394341Y326800D01*
X394741Y326400D01*
X395141D01*
Y326800D01*
X394741Y327200D01*
X395141Y327600D01*
Y328000D01*
X394741D01*
X394341Y327600D01*
X393941Y328000D01*
X393541D01*
Y327600D01*
X393941Y327200D01*
X393541Y326800D01*
Y326400D01*
X358988Y332400D02*
X359388D01*
X359788Y332800D01*
X360188Y332400D01*
X360588D01*
Y332800D01*
X360188Y333200D01*
X360588Y333600D01*
Y334000D01*
X360188D01*
X359788Y333600D01*
X359388Y334000D01*
X358988D01*
Y333600D01*
X359388Y333200D01*
X358988Y332800D01*
Y332400D01*
X358988Y320500D02*
X359388D01*
X359788Y320900D01*
X360188Y320500D01*
X360588D01*
Y320900D01*
X360188Y321300D01*
X360588Y321700D01*
Y322100D01*
X360188D01*
X359788Y321700D01*
X359388Y322100D01*
X358988D01*
Y321700D01*
X359388Y321300D01*
X358988Y320900D01*
Y320500D01*
X359785Y326400D02*
X360185D01*
X360585Y326800D01*
X360985Y326400D01*
X361385D01*
Y326800D01*
X360985Y327200D01*
X361385Y327600D01*
Y328000D01*
X360985D01*
X360585Y327600D01*
X360185Y328000D01*
X359785D01*
Y327600D01*
X360185Y327200D01*
X359785Y326800D01*
Y326400D01*
X394812Y332400D02*
X395212D01*
X395612Y332800D01*
X396012Y332400D01*
X396412D01*
Y332800D01*
X396012Y333200D01*
X396412Y333600D01*
Y334000D01*
X396012D01*
X395612Y333600D01*
X395212Y334000D01*
X394812D01*
Y333600D01*
X395212Y333200D01*
X394812Y332800D01*
Y332400D01*
X394812Y320500D02*
X395212D01*
X395612Y320900D01*
X396012Y320500D01*
X396412D01*
Y320900D01*
X396012Y321300D01*
X396412Y321700D01*
Y322100D01*
X396012D01*
X395612Y321700D01*
X395212Y322100D01*
X394812D01*
Y321700D01*
X395212Y321300D01*
X394812Y320900D01*
Y320500D01*
X383788Y332400D02*
X384188D01*
X384588Y332800D01*
X384988Y332400D01*
X385388D01*
Y332800D01*
X384988Y333200D01*
X385388Y333600D01*
Y334000D01*
X384988D01*
X384588Y333600D01*
X384188Y334000D01*
X383788D01*
Y333600D01*
X384188Y333200D01*
X383788Y332800D01*
Y332400D01*
X371037Y326400D02*
X371437D01*
X371837Y326800D01*
X372237Y326400D01*
X372637D01*
Y326800D01*
X372237Y327200D01*
X372637Y327600D01*
Y328000D01*
X372237D01*
X371837Y327600D01*
X371437Y328000D01*
X371037D01*
Y327600D01*
X371437Y327200D01*
X371037Y326800D01*
Y326400D01*
X349700Y311200D02*
X350100D01*
X350500Y311600D01*
X350900Y311200D01*
X351300D01*
Y311600D01*
X350900Y312000D01*
X351300Y312400D01*
Y312800D01*
X350900D01*
X350500Y312400D01*
X350100Y312800D01*
X349700D01*
Y312400D01*
X350100Y312000D01*
X349700Y311600D01*
Y311200D01*
X388300Y262200D02*
X388700D01*
X389100Y262600D01*
X389500Y262200D01*
X389900D01*
Y262600D01*
X389500Y263000D01*
X389900Y263400D01*
Y263800D01*
X389500D01*
X389100Y263400D01*
X388700Y263800D01*
X388300D01*
Y263400D01*
X388700Y263000D01*
X388300Y262600D01*
Y262200D01*
X390912Y259500D02*
X391312D01*
X391712Y259900D01*
X392112Y259500D01*
X392512D01*
Y259900D01*
X392112Y260300D01*
X392512Y260700D01*
Y261100D01*
X392112D01*
X391712Y260700D01*
X391312Y261100D01*
X390912D01*
Y260700D01*
X391312Y260300D01*
X390912Y259900D01*
Y259500D01*
X354200Y311700D02*
X354600D01*
X355000Y312100D01*
X355400Y311700D01*
X355800D01*
Y312100D01*
X355400Y312500D01*
X355800Y312900D01*
Y313300D01*
X355400D01*
X355000Y312900D01*
X354600Y313300D01*
X354200D01*
Y312900D01*
X354600Y312500D01*
X354200Y312100D01*
Y311700D01*
X357700D02*
X358100D01*
X358500Y312100D01*
X358900Y311700D01*
X359300D01*
Y312100D01*
X358900Y312500D01*
X359300Y312900D01*
Y313300D01*
X358900D01*
X358500Y312900D01*
X358100Y313300D01*
X357700D01*
Y312900D01*
X358100Y312500D01*
X357700Y312100D01*
Y311700D01*
X361200D02*
X361600D01*
X362000Y312100D01*
X362400Y311700D01*
X362800D01*
Y312100D01*
X362400Y312500D01*
X362800Y312900D01*
Y313300D01*
X362400D01*
X362000Y312900D01*
X361600Y313300D01*
X361200D01*
Y312900D01*
X361600Y312500D01*
X361200Y312100D01*
Y311700D01*
X377468Y341968D02*
X377869D01*
X378269Y342369D01*
X378668Y341968D01*
X379068D01*
Y342369D01*
X378668Y342769D01*
X379068Y343168D01*
Y343568D01*
X378668D01*
X378269Y343168D01*
X377869Y343568D01*
X377468D01*
Y343168D01*
X377869Y342769D01*
X377468Y342369D01*
Y341968D01*
X373450Y262200D02*
X373850D01*
X374250Y262600D01*
X374650Y262200D01*
X375050D01*
Y262600D01*
X374650Y263000D01*
X375050Y263400D01*
Y263800D01*
X374650D01*
X374250Y263400D01*
X373850Y263800D01*
X373450D01*
Y263400D01*
X373850Y263000D01*
X373450Y262600D01*
Y262200D01*
X378200D02*
X378600D01*
X379000Y262600D01*
X379400Y262200D01*
X379800D01*
Y262600D01*
X379400Y263000D01*
X379800Y263400D01*
Y263800D01*
X379400D01*
X379000Y263400D01*
X378600Y263800D01*
X378200D01*
Y263400D01*
X378600Y263000D01*
X378200Y262600D01*
Y262200D01*
X344000Y255500D02*
X344400D01*
X344800Y255900D01*
X345200Y255500D01*
X345600D01*
Y255900D01*
X345200Y256300D01*
X345600Y256700D01*
Y257100D01*
X345200D01*
X344800Y256700D01*
X344400Y257100D01*
X344000D01*
Y256700D01*
X344400Y256300D01*
X344000Y255900D01*
Y255500D01*
X352700Y273700D02*
X353100D01*
X353500Y274100D01*
X353900Y273700D01*
X354300D01*
Y274100D01*
X353900Y274500D01*
X354300Y274900D01*
Y275300D01*
X353900D01*
X353500Y274900D01*
X353100Y275300D01*
X352700D01*
Y274900D01*
X353100Y274500D01*
X352700Y274100D01*
Y273700D01*
X355950Y272550D02*
X356350D01*
X356750Y272950D01*
X357150Y272550D01*
X357550D01*
Y272950D01*
X357150Y273350D01*
X357550Y273750D01*
Y274150D01*
X357150D01*
X356750Y273750D01*
X356350Y274150D01*
X355950D01*
Y273750D01*
X356350Y273350D01*
X355950Y272950D01*
Y272550D01*
X350900Y237400D02*
X351300D01*
X351700Y237800D01*
X352100Y237400D01*
X352500D01*
Y237800D01*
X352100Y238200D01*
X352500Y238600D01*
Y239000D01*
X352100D01*
X351700Y238600D01*
X351300Y239000D01*
X350900D01*
Y238600D01*
X351300Y238200D01*
X350900Y237800D01*
Y237400D01*
X344900Y235600D02*
X345300D01*
X345700Y236000D01*
X346100Y235600D01*
X346500D01*
Y236000D01*
X346100Y236400D01*
X346500Y236800D01*
Y237200D01*
X346100D01*
X345700Y236800D01*
X345300Y237200D01*
X344900D01*
Y236800D01*
X345300Y236400D01*
X344900Y236000D01*
Y235600D01*
X375200Y230700D02*
X375600D01*
X376000Y231100D01*
X376400Y230700D01*
X376800D01*
Y231100D01*
X376400Y231500D01*
X376800Y231900D01*
Y232300D01*
X376400D01*
X376000Y231900D01*
X375600Y232300D01*
X375200D01*
Y231900D01*
X375600Y231500D01*
X375200Y231100D01*
Y230700D01*
X361900Y231288D02*
X362300D01*
X362700Y231688D01*
X363100Y231288D01*
X363500D01*
Y231688D01*
X363100Y232088D01*
X363500Y232488D01*
Y232888D01*
X363100D01*
X362700Y232488D01*
X362300Y232888D01*
X361900D01*
Y232488D01*
X362300Y232088D01*
X361900Y231688D01*
Y231288D01*
X382700Y245200D02*
X383100D01*
X383500Y245600D01*
X383900Y245200D01*
X384300D01*
Y245600D01*
X383900Y246000D01*
X384300Y246400D01*
Y246800D01*
X383900D01*
X383500Y246400D01*
X383100Y246800D01*
X382700D01*
Y246400D01*
X383100Y246000D01*
X382700Y245600D01*
Y245200D01*
X346900Y258611D02*
X347300D01*
X347700Y259011D01*
X348100Y258611D01*
X348500D01*
Y259011D01*
X348100Y259411D01*
X348500Y259811D01*
Y260211D01*
X348100D01*
X347700Y259811D01*
X347300Y260211D01*
X346900D01*
Y259811D01*
X347300Y259411D01*
X346900Y259011D01*
Y258611D01*
X345500Y252600D02*
X345900D01*
X346300Y253000D01*
X346700Y252600D01*
X347100D01*
Y253000D01*
X346700Y253400D01*
X347100Y253800D01*
Y254200D01*
X346700D01*
X346300Y253800D01*
X345900Y254200D01*
X345500D01*
Y253800D01*
X345900Y253400D01*
X345500Y253000D01*
Y252600D01*
X423200Y221100D02*
X423600D01*
X424000Y221500D01*
X424400Y221100D01*
X424800D01*
Y221500D01*
X424400Y221900D01*
X424800Y222300D01*
Y222700D01*
X424400D01*
X424000Y222300D01*
X423600Y222700D01*
X423200D01*
Y222300D01*
X423600Y221900D01*
X423200Y221500D01*
Y221100D01*
X434961Y296700D02*
X435361D01*
X435761Y297100D01*
X436161Y296700D01*
X436561D01*
Y297100D01*
X436161Y297500D01*
X436561Y297900D01*
Y298300D01*
X436161D01*
X435761Y297900D01*
X435361Y298300D01*
X434961D01*
Y297900D01*
X435361Y297500D01*
X434961Y297100D01*
Y296700D01*
X429843Y297143D02*
X430243D01*
X430643Y297543D01*
X431043Y297143D01*
X431443D01*
Y297543D01*
X431043Y297943D01*
X431443Y298343D01*
Y298743D01*
X431043D01*
X430643Y298343D01*
X430243Y298743D01*
X429843D01*
Y298343D01*
X430243Y297943D01*
X429843Y297543D01*
Y297143D01*
X438450Y295550D02*
X438850D01*
X439250Y295950D01*
X439650Y295550D01*
X440050D01*
Y295950D01*
X439650Y296350D01*
X440050Y296750D01*
Y297150D01*
X439650D01*
X439250Y296750D01*
X438850Y297150D01*
X438450D01*
Y296750D01*
X438850Y296350D01*
X438450Y295950D01*
Y295550D01*
Y348450D02*
X438850D01*
X439250Y348850D01*
X439650Y348450D01*
X440050D01*
Y348850D01*
X439650Y349250D01*
X440050Y349650D01*
Y350050D01*
X439650D01*
X439250Y349650D01*
X438850Y350050D01*
X438450D01*
Y349650D01*
X438850Y349250D01*
X438450Y348850D01*
Y348450D01*
X460100Y196900D02*
X460500D01*
X460900Y197300D01*
X461300Y196900D01*
X461700D01*
Y197300D01*
X461300Y197700D01*
X461700Y198100D01*
Y198500D01*
X461300D01*
X460900Y198100D01*
X460500Y198500D01*
X460100D01*
Y198100D01*
X460500Y197700D01*
X460100Y197300D01*
Y196900D01*
X450300Y211200D02*
X450700D01*
X451100Y211600D01*
X451500Y211200D01*
X451900D01*
Y211600D01*
X451500Y212000D01*
X451900Y212400D01*
Y212800D01*
X451500D01*
X451100Y212400D01*
X450700Y212800D01*
X450300D01*
Y212400D01*
X450700Y212000D01*
X450300Y211600D01*
Y211200D01*
X432359Y212400D02*
X432759D01*
X433159Y212800D01*
X433559Y212400D01*
X433959D01*
Y212800D01*
X433559Y213200D01*
X433959Y213600D01*
Y214000D01*
X433559D01*
X433159Y213600D01*
X432759Y214000D01*
X432359D01*
Y213600D01*
X432759Y213200D01*
X432359Y212800D01*
Y212400D01*
X459940Y190560D02*
X460340D01*
X460740Y190960D01*
X461140Y190560D01*
X461540D01*
Y190960D01*
X461140Y191360D01*
X461540Y191760D01*
Y192160D01*
X461140D01*
X460740Y191760D01*
X460340Y192160D01*
X459940D01*
Y191760D01*
X460340Y191360D01*
X459940Y190960D01*
Y190560D01*
Y180240D02*
X460340D01*
X460740Y180640D01*
X461140Y180240D01*
X461540D01*
Y180640D01*
X461140Y181040D01*
X461540Y181440D01*
Y181840D01*
X461140D01*
X460740Y181440D01*
X460340Y181840D01*
X459940D01*
Y181440D01*
X460340Y181040D01*
X459940Y180640D01*
Y180240D01*
X457219Y172900D02*
X457619D01*
X458019Y173300D01*
X458419Y172900D01*
X458819D01*
Y173300D01*
X458419Y173700D01*
X458819Y174100D01*
Y174500D01*
X458419D01*
X458019Y174100D01*
X457619Y174500D01*
X457219D01*
Y174100D01*
X457619Y173700D01*
X457219Y173300D01*
Y172900D01*
X466113Y170038D02*
X466513D01*
X466913Y170438D01*
X467313Y170038D01*
X467713D01*
Y170438D01*
X467313Y170838D01*
X467713Y171238D01*
Y171638D01*
X467313D01*
X466913Y171238D01*
X466513Y171638D01*
X466113D01*
Y171238D01*
X466513Y170838D01*
X466113Y170438D01*
Y170038D01*
X439600Y195400D02*
X440000D01*
X440400Y195800D01*
X440800Y195400D01*
X441200D01*
Y195800D01*
X440800Y196200D01*
X441200Y196600D01*
Y197000D01*
X440800D01*
X440400Y196600D01*
X440000Y197000D01*
X439600D01*
Y196600D01*
X440000Y196200D01*
X439600Y195800D01*
Y195400D01*
X429341Y185141D02*
X429741D01*
X430141Y185541D01*
X430541Y185141D01*
X430941D01*
Y185541D01*
X430541Y185941D01*
X430941Y186341D01*
Y186741D01*
X430541D01*
X430141Y186341D01*
X429741Y186741D01*
X429341D01*
Y186341D01*
X429741Y185941D01*
X429341Y185541D01*
Y185141D01*
X366400Y274900D02*
X366800D01*
X367200Y275300D01*
X367600Y274900D01*
X368000D01*
Y275300D01*
X367600Y275700D01*
X368000Y276100D01*
Y276500D01*
X367600D01*
X367200Y276100D01*
X366800Y276500D01*
X366400D01*
Y276100D01*
X366800Y275700D01*
X366400Y275300D01*
Y274900D01*
X448200Y439660D02*
X448600D01*
X449000Y440060D01*
X449400Y439660D01*
X449800D01*
Y440060D01*
X449400Y440459D01*
X449800Y440860D01*
Y441259D01*
X449400D01*
X449000Y440860D01*
X448600Y441259D01*
X448200D01*
Y440860D01*
X448600Y440459D01*
X448200Y440060D01*
Y439660D01*
X456067D02*
X456467D01*
X456867Y440060D01*
X457267Y439660D01*
X457667D01*
Y440060D01*
X457267Y440459D01*
X457667Y440860D01*
Y441259D01*
X457267D01*
X456867Y440860D01*
X456467Y441259D01*
X456067D01*
Y440860D01*
X456467Y440459D01*
X456067Y440060D01*
Y439660D01*
X463934D02*
X464334D01*
X464734Y440060D01*
X465134Y439660D01*
X465534D01*
Y440060D01*
X465134Y440459D01*
X465534Y440860D01*
Y441259D01*
X465134D01*
X464734Y440860D01*
X464334Y441259D01*
X463934D01*
Y440860D01*
X464334Y440459D01*
X463934Y440060D01*
Y439660D01*
X471800D02*
X472200D01*
X472600Y440060D01*
X473000Y439660D01*
X473400D01*
Y440060D01*
X473000Y440459D01*
X473400Y440860D01*
Y441259D01*
X473000D01*
X472600Y440860D01*
X472200Y441259D01*
X471800D01*
Y440860D01*
X472200Y440459D01*
X471800Y440060D01*
Y439660D01*
X479667D02*
X480067D01*
X480467Y440060D01*
X480867Y439660D01*
X481267D01*
Y440060D01*
X480867Y440459D01*
X481267Y440860D01*
Y441259D01*
X480867D01*
X480467Y440860D01*
X480067Y441259D01*
X479667D01*
Y440860D01*
X480067Y440459D01*
X479667Y440060D01*
Y439660D01*
X495400D02*
X495800D01*
X496200Y440060D01*
X496600Y439660D01*
X497000D01*
Y440060D01*
X496600Y440459D01*
X497000Y440860D01*
Y441259D01*
X496600D01*
X496200Y440860D01*
X495800Y441259D01*
X495400D01*
Y440860D01*
X495800Y440459D01*
X495400Y440060D01*
Y439660D01*
X503267D02*
X503667D01*
X504067Y440060D01*
X504467Y439660D01*
X504867D01*
Y440060D01*
X504467Y440459D01*
X504867Y440860D01*
Y441259D01*
X504467D01*
X504067Y440860D01*
X503667Y441259D01*
X503267D01*
Y440860D01*
X503667Y440459D01*
X503267Y440060D01*
Y439660D01*
X511134D02*
X511534D01*
X511934Y440060D01*
X512334Y439660D01*
X512734D01*
Y440060D01*
X512334Y440459D01*
X512734Y440860D01*
Y441259D01*
X512334D01*
X511934Y440860D01*
X511534Y441259D01*
X511134D01*
Y440860D01*
X511534Y440459D01*
X511134Y440060D01*
Y439660D01*
X519000D02*
X519400D01*
X519800Y440060D01*
X520200Y439660D01*
X520600D01*
Y440060D01*
X520200Y440459D01*
X520600Y440860D01*
Y441259D01*
X520200D01*
X519800Y440860D01*
X519400Y441259D01*
X519000D01*
Y440860D01*
X519400Y440459D01*
X519000Y440060D01*
Y439660D01*
X526867D02*
X527267D01*
X527667Y440060D01*
X528067Y439660D01*
X528467D01*
Y440060D01*
X528067Y440459D01*
X528467Y440860D01*
Y441259D01*
X528067D01*
X527667Y440860D01*
X527267Y441259D01*
X526867D01*
Y440860D01*
X527267Y440459D01*
X526867Y440060D01*
Y439660D01*
X534734D02*
X535134D01*
X535534Y440060D01*
X535934Y439660D01*
X536334D01*
Y440060D01*
X535934Y440459D01*
X536334Y440860D01*
Y441259D01*
X535934D01*
X535534Y440860D01*
X535134Y441259D01*
X534734D01*
Y440860D01*
X535134Y440459D01*
X534734Y440060D01*
Y439660D01*
X542600D02*
X543000D01*
X543400Y440060D01*
X543800Y439660D01*
X544200D01*
Y440060D01*
X543800Y440459D01*
X544200Y440860D01*
Y441259D01*
X543800D01*
X543400Y440860D01*
X543000Y441259D01*
X542600D01*
Y440860D01*
X543000Y440459D01*
X542600Y440060D01*
Y439660D01*
X550467D02*
X550867D01*
X551267Y440060D01*
X551667Y439660D01*
X552067D01*
Y440060D01*
X551667Y440459D01*
X552067Y440860D01*
Y441259D01*
X551667D01*
X551267Y440860D01*
X550867Y441259D01*
X550467D01*
Y440860D01*
X550867Y440459D01*
X550467Y440060D01*
Y439660D01*
X558334D02*
X558734D01*
X559134Y440060D01*
X559534Y439660D01*
X559934D01*
Y440060D01*
X559534Y440459D01*
X559934Y440860D01*
Y441259D01*
X559534D01*
X559134Y440860D01*
X558734Y441259D01*
X558334D01*
Y440860D01*
X558734Y440459D01*
X558334Y440060D01*
Y439660D01*
X566200D02*
X566600D01*
X567000Y440060D01*
X567400Y439660D01*
X567800D01*
Y440060D01*
X567400Y440459D01*
X567800Y440860D01*
Y441259D01*
X567400D01*
X567000Y440860D01*
X566600Y441259D01*
X566200D01*
Y440860D01*
X566600Y440459D01*
X566200Y440060D01*
Y439660D01*
X574067D02*
X574467D01*
X574867Y440060D01*
X575267Y439660D01*
X575667D01*
Y440060D01*
X575267Y440459D01*
X575667Y440860D01*
Y441259D01*
X575267D01*
X574867Y440860D01*
X574467Y441259D01*
X574067D01*
Y440860D01*
X574467Y440459D01*
X574067Y440060D01*
Y439660D01*
X581934D02*
X582334D01*
X582734Y440060D01*
X583134Y439660D01*
X583534D01*
Y440060D01*
X583134Y440459D01*
X583534Y440860D01*
Y441259D01*
X583134D01*
X582734Y440860D01*
X582334Y441259D01*
X581934D01*
Y440860D01*
X582334Y440459D01*
X581934Y440060D01*
Y439660D01*
X589800D02*
X590200D01*
X590600Y440060D01*
X591000Y439660D01*
X591400D01*
Y440060D01*
X591000Y440459D01*
X591400Y440860D01*
Y441259D01*
X591000D01*
X590600Y440860D01*
X590200Y441259D01*
X589800D01*
Y440860D01*
X590200Y440459D01*
X589800Y440060D01*
Y439660D01*
X597667D02*
X598067D01*
X598467Y440060D01*
X598867Y439660D01*
X599267D01*
Y440060D01*
X598867Y440459D01*
X599267Y440860D01*
Y441259D01*
X598867D01*
X598467Y440860D01*
X598067Y441259D01*
X597667D01*
Y440860D01*
X598067Y440459D01*
X597667Y440060D01*
Y439660D01*
X605534D02*
X605934D01*
X606333Y440060D01*
X606734Y439660D01*
X607133D01*
Y440060D01*
X606734Y440459D01*
X607133Y440860D01*
Y441259D01*
X606734D01*
X606333Y440860D01*
X605934Y441259D01*
X605534D01*
Y440860D01*
X605934Y440459D01*
X605534Y440060D01*
Y439660D01*
X613400D02*
X613800D01*
X614200Y440060D01*
X614600Y439660D01*
X615000D01*
Y440060D01*
X614600Y440459D01*
X615000Y440860D01*
Y441259D01*
X614600D01*
X614200Y440860D01*
X613800Y441259D01*
X613400D01*
Y440860D01*
X613800Y440459D01*
X613400Y440060D01*
Y439660D01*
X621267D02*
X621667D01*
X622067Y440060D01*
X622467Y439660D01*
X622867D01*
Y440060D01*
X622467Y440459D01*
X622867Y440860D01*
Y441259D01*
X622467D01*
X622067Y440860D01*
X621667Y441259D01*
X621267D01*
Y440860D01*
X621667Y440459D01*
X621267Y440060D01*
Y439660D01*
X629134D02*
X629533D01*
X629934Y440060D01*
X630334Y439660D01*
X630733D01*
Y440060D01*
X630334Y440459D01*
X630733Y440860D01*
Y441259D01*
X630334D01*
X629934Y440860D01*
X629533Y441259D01*
X629134D01*
Y440860D01*
X629533Y440459D01*
X629134Y440060D01*
Y439660D01*
X487534D02*
X487934D01*
X488334Y440060D01*
X488734Y439660D01*
X489134D01*
Y440060D01*
X488734Y440459D01*
X489134Y440860D01*
Y441259D01*
X488734D01*
X488334Y440860D01*
X487934Y441259D01*
X487534D01*
Y440860D01*
X487934Y440459D01*
X487534Y440060D01*
Y439660D01*
X392600Y352600D02*
X393000D01*
X393400Y353000D01*
X393800Y352600D01*
X394200D01*
Y353000D01*
X393800Y353400D01*
X394200Y353800D01*
Y354200D01*
X393800D01*
X393400Y353800D01*
X393000Y354200D01*
X392600D01*
Y353800D01*
X393000Y353400D01*
X392600Y353000D01*
Y352600D01*
X367800Y374800D02*
X368200D01*
X368600Y375200D01*
X369000Y374800D01*
X369400D01*
Y375200D01*
X369000Y375600D01*
X369400Y376000D01*
Y376400D01*
X369000D01*
X368600Y376000D01*
X368200Y376400D01*
X367800D01*
Y376000D01*
X368200Y375600D01*
X367800Y375200D01*
Y374800D01*
X346100D02*
X346500D01*
X346900Y375200D01*
X347300Y374800D01*
X347700D01*
Y375200D01*
X347300Y375600D01*
X347700Y376000D01*
Y376400D01*
X347300D01*
X346900Y376000D01*
X346500Y376400D01*
X346100D01*
Y376000D01*
X346500Y375600D01*
X346100Y375200D01*
Y374800D01*
X399625Y345925D02*
X400026D01*
X400425Y346325D01*
X400826Y345925D01*
X401226D01*
Y346325D01*
X400826Y346726D01*
X401226Y347126D01*
Y347526D01*
X400826D01*
X400425Y347126D01*
X400026Y347526D01*
X399625D01*
Y347126D01*
X400026Y346726D01*
X399625Y346325D01*
Y345925D01*
X397000Y379600D02*
X397400D01*
X397800Y380000D01*
X398200Y379600D01*
X398600D01*
Y380000D01*
X398200Y380400D01*
X398600Y380800D01*
Y381200D01*
X398200D01*
X397800Y380800D01*
X397400Y381200D01*
X397000D01*
Y380800D01*
X397400Y380400D01*
X397000Y380000D01*
Y379600D01*
X400400Y379100D02*
X400800D01*
X401200Y379500D01*
X401600Y379100D01*
X402000D01*
Y379500D01*
X401600Y379900D01*
X402000Y380300D01*
Y380700D01*
X401600D01*
X401200Y380300D01*
X400800Y380700D01*
X400400D01*
Y380300D01*
X400800Y379900D01*
X400400Y379500D01*
Y379100D01*
X406468Y376368D02*
X406868D01*
X407268Y376768D01*
X407668Y376368D01*
X408068D01*
Y376768D01*
X407668Y377168D01*
X408068Y377568D01*
Y377968D01*
X407668D01*
X407268Y377568D01*
X406868Y377968D01*
X406468D01*
Y377568D01*
X406868Y377168D01*
X406468Y376768D01*
Y376368D01*
X393559Y376600D02*
X393959D01*
X394359Y377000D01*
X394759Y376600D01*
X395159D01*
Y377000D01*
X394759Y377400D01*
X395159Y377800D01*
Y378200D01*
X394759D01*
X394359Y377800D01*
X393959Y378200D01*
X393559D01*
Y377800D01*
X393959Y377400D01*
X393559Y377000D01*
Y376600D01*
X401600Y372600D02*
X402000D01*
X402400Y373000D01*
X402800Y372600D01*
X403200D01*
Y373000D01*
X402800Y373400D01*
X403200Y373800D01*
Y374200D01*
X402800D01*
X402400Y373800D01*
X402000Y374200D01*
X401600D01*
Y373800D01*
X402000Y373400D01*
X401600Y373000D01*
Y372600D01*
X403000Y375700D02*
X403400D01*
X403800Y376100D01*
X404200Y375700D01*
X404600D01*
Y376100D01*
X404200Y376500D01*
X404600Y376900D01*
Y377300D01*
X404200D01*
X403800Y376900D01*
X403400Y377300D01*
X403000D01*
Y376900D01*
X403400Y376500D01*
X403000Y376100D01*
Y375700D01*
D17*
X710570Y161400D02*
G03*
X710570Y161400I-800J0D01*
G01*
Y435100D02*
G03*
X710570Y435100I-800J0D01*
G01*
X350006Y161400D02*
G03*
X350006Y161400I-800J0D01*
G01*
Y435100D02*
G03*
X350006Y435100I-800J0D01*
G01*
M02*
