G04*
G04 #@! TF.GenerationSoftware,Altium Limited,Altium Designer,20.0.12 (288)*
G04*
G04 Layer_Color=16711935*
%FSLAX25Y25*%
%MOIN*%
G70*
G01*
G75*
%ADD19C,0.00500*%
%ADD21C,0.00394*%
%ADD25C,0.00591*%
%ADD26C,0.00197*%
%ADD27C,0.00100*%
%ADD28C,0.00158*%
D19*
X333100Y153000D02*
G03*
X341100Y145000I8000J0D01*
G01*
X718600D02*
G03*
X726600Y153000I0J8000D01*
G01*
Y443700D02*
G03*
X718600Y451700I-8000J0D01*
G01*
X341100D02*
G03*
X333100Y443700I0J-8000D01*
G01*
Y153000D02*
Y443700D01*
X341100Y145000D02*
X718600D01*
X341100Y451700D02*
X718600D01*
X726600Y153000D02*
Y443700D01*
D21*
X448450Y169794D02*
G03*
X448450Y169794I-1000J0D01*
G01*
X415150Y425994D02*
G03*
X415150Y425994I-1000J0D01*
G01*
X457835Y190239D02*
G03*
X457835Y190239I-1000J0D01*
G01*
X684816Y185739D02*
X700406Y201328D01*
X674237Y196318D02*
X689827Y211907D01*
X700406Y201328D01*
X648896Y450344D02*
X680904D01*
X648896Y425856D02*
X680904D01*
X673361Y197194D02*
X688950Y212784D01*
X662782Y207773D02*
X678372Y223362D01*
X688950Y212784D01*
X443150Y167795D02*
X449450D01*
Y179606D01*
X443150D02*
X449450D01*
X443150Y167795D02*
Y179606D01*
X416150Y435806D02*
X416150Y423994D01*
X409850D02*
Y435806D01*
Y423994D02*
X416150D01*
X409850Y435806D02*
X416150D01*
X431545Y299705D02*
Y325295D01*
Y299705D02*
X449655D01*
Y325295D01*
X431545D02*
X449655D01*
X431545Y217205D02*
Y242795D01*
Y217205D02*
X449655D01*
Y242795D01*
X431545D02*
X449655D01*
X454835Y188239D02*
Y194538D01*
Y188239D02*
X466646D01*
Y194538D01*
X454835D02*
X466646D01*
X385876Y359894D02*
Y371706D01*
X390995Y359894D02*
Y371706D01*
X385876D02*
X390995D01*
X385876Y359894D02*
X390995D01*
X381900Y191430D02*
X418670Y228200D01*
X345130Y228200D02*
X381900Y264970D01*
X418670Y228200D01*
X345130Y228200D02*
X381900Y191430D01*
X437800Y167200D02*
Y180200D01*
X454800D01*
Y167200D02*
Y180200D01*
X437800Y167200D02*
X454800D01*
X421000Y423404D02*
Y436396D01*
X405000Y423404D02*
Y436396D01*
Y423404D02*
X421000D01*
X405000Y436396D02*
X421000D01*
X425600Y298500D02*
Y326500D01*
Y298500D02*
X455600Y298500D01*
Y326500D01*
X425600Y326500D02*
X455600Y326500D01*
X425600Y216000D02*
Y244000D01*
Y216000D02*
X455600Y216000D01*
Y244000D01*
X425600Y244000D02*
X455600Y244000D01*
X454240Y199888D02*
X467240D01*
Y182888D02*
Y199888D01*
X454240Y182888D02*
X467240D01*
X454240D02*
Y199888D01*
X381600Y359501D02*
X381600Y372099D01*
X395200Y359501D02*
Y372099D01*
X381600D02*
X395200D01*
X381600Y359501D02*
X395200Y359501D01*
D25*
X362655Y228200D02*
G03*
X362655Y228200I-1969J0D01*
G01*
X509164Y359927D02*
G03*
X509164Y359927I-1414J0D01*
G01*
X509514Y214458D02*
G03*
X509514Y214458I-1414J0D01*
G01*
X381900Y200361D02*
X409739Y228200D01*
X354061D02*
X381900Y256039D01*
X409739Y228200D01*
X354061D02*
X381900Y200361D01*
X510750Y348841D02*
Y363014D01*
X476750Y348841D02*
X510750D01*
X476750D02*
Y363014D01*
X510750D01*
X511100Y203371D02*
Y217544D01*
X477100Y203371D02*
X511100D01*
X477100D02*
Y217544D01*
X511100D01*
X476250Y369927D02*
X511250D01*
X476250Y341927D02*
Y369927D01*
Y341927D02*
X511250D01*
Y369927D01*
X476600Y224458D02*
X511600D01*
X476600Y196458D02*
Y224458D01*
Y196458D02*
X511600D01*
Y224458D01*
D26*
X688699Y198823D02*
G03*
X688699Y198823I-1378J0D01*
G01*
X666278Y438100D02*
G03*
X666278Y438100I-1378J0D01*
G01*
X677244Y210278D02*
G03*
X677244Y210278I-1378J0D01*
G01*
X441778Y196589D02*
G03*
X441778Y196589I-1378J0D01*
G01*
X712378Y299200D02*
G03*
X712378Y299200I-1378J0D01*
G01*
X383278Y228200D02*
G03*
X383278Y228200I-1378J0D01*
G01*
X380878Y432511D02*
G03*
X380878Y432511I-1378J0D01*
G01*
X423878Y444200D02*
G03*
X423878Y444200I-1378J0D01*
G01*
D02*
G03*
X423878Y444200I-1378J0D01*
G01*
X448178Y348800D02*
G03*
X448178Y348800I-1378J0D01*
G01*
X440628D02*
G03*
X440628Y348800I-1378J0D01*
G01*
X433078D02*
G03*
X433078Y348800I-1378J0D01*
G01*
X448178Y266483D02*
G03*
X448178Y266483I-1378J0D01*
G01*
X440628D02*
G03*
X440628Y266483I-1378J0D01*
G01*
X433078D02*
G03*
X433078Y266483I-1378J0D01*
G01*
X533678Y406800D02*
G03*
X533678Y406800I-1378J0D01*
G01*
X533678Y360480D02*
G03*
X533678Y360480I-1378J0D01*
G01*
X533678Y319960D02*
G03*
X533678Y319960I-1378J0D01*
G01*
Y264540D02*
G03*
X533678Y264540I-1378J0D01*
G01*
Y221520D02*
G03*
X533678Y221520I-1378J0D01*
G01*
Y175200D02*
G03*
X533678Y175200I-1378J0D01*
G01*
X495128Y355927D02*
G03*
X495128Y355927I-1378J0D01*
G01*
X495478Y210457D02*
G03*
X495478Y210457I-1378J0D01*
G01*
X447678Y173700D02*
G03*
X447678Y173700I-1378J0D01*
G01*
X414378Y429900D02*
G03*
X414378Y429900I-1378J0D01*
G01*
X352578Y358300D02*
G03*
X352578Y358300I-1378J0D01*
G01*
X352578Y385400D02*
G03*
X352578Y385400I-1378J0D01*
G01*
X441978Y312500D02*
G03*
X441978Y312500I-1378J0D01*
G01*
Y230000D02*
G03*
X441978Y230000I-1378J0D01*
G01*
X462118Y191388D02*
G03*
X462118Y191388I-1378J0D01*
G01*
X366678Y333200D02*
G03*
X366678Y333200I-1378J0D01*
G01*
Y327250D02*
G03*
X366678Y327250I-1378J0D01*
G01*
Y321300D02*
G03*
X366678Y321300I-1378J0D01*
G01*
X391478Y333200D02*
G03*
X391478Y333200I-1378J0D01*
G01*
Y327250D02*
G03*
X391478Y327250I-1378J0D01*
G01*
Y321300D02*
G03*
X391478Y321300I-1378J0D01*
G01*
X631312Y444199D02*
G03*
X631312Y444199I-1378J0D01*
G01*
D02*
G03*
X631312Y444199I-1378J0D01*
G01*
X623445D02*
G03*
X623445Y444199I-1378J0D01*
G01*
D02*
G03*
X623445Y444199I-1378J0D01*
G01*
X615579D02*
G03*
X615579Y444199I-1378J0D01*
G01*
D02*
G03*
X615579Y444199I-1378J0D01*
G01*
X607712D02*
G03*
X607712Y444199I-1378J0D01*
G01*
D02*
G03*
X607712Y444199I-1378J0D01*
G01*
X599845D02*
G03*
X599845Y444199I-1378J0D01*
G01*
D02*
G03*
X599845Y444199I-1378J0D01*
G01*
X591979D02*
G03*
X591979Y444199I-1378J0D01*
G01*
D02*
G03*
X591979Y444199I-1378J0D01*
G01*
X584112D02*
G03*
X584112Y444199I-1378J0D01*
G01*
D02*
G03*
X584112Y444199I-1378J0D01*
G01*
X576245D02*
G03*
X576245Y444199I-1378J0D01*
G01*
D02*
G03*
X576245Y444199I-1378J0D01*
G01*
X568378D02*
G03*
X568378Y444199I-1378J0D01*
G01*
D02*
G03*
X568378Y444199I-1378J0D01*
G01*
X560512D02*
G03*
X560512Y444199I-1378J0D01*
G01*
D02*
G03*
X560512Y444199I-1378J0D01*
G01*
X552645D02*
G03*
X552645Y444199I-1378J0D01*
G01*
D02*
G03*
X552645Y444199I-1378J0D01*
G01*
X544778D02*
G03*
X544778Y444199I-1378J0D01*
G01*
D02*
G03*
X544778Y444199I-1378J0D01*
G01*
X536912D02*
G03*
X536912Y444199I-1378J0D01*
G01*
D02*
G03*
X536912Y444199I-1378J0D01*
G01*
X529045D02*
G03*
X529045Y444199I-1378J0D01*
G01*
D02*
G03*
X529045Y444199I-1378J0D01*
G01*
X521178D02*
G03*
X521178Y444199I-1378J0D01*
G01*
D02*
G03*
X521178Y444199I-1378J0D01*
G01*
X513312D02*
G03*
X513312Y444199I-1378J0D01*
G01*
D02*
G03*
X513312Y444199I-1378J0D01*
G01*
X505445D02*
G03*
X505445Y444199I-1378J0D01*
G01*
D02*
G03*
X505445Y444199I-1378J0D01*
G01*
X497579D02*
G03*
X497579Y444199I-1378J0D01*
G01*
D02*
G03*
X497579Y444199I-1378J0D01*
G01*
X489712D02*
G03*
X489712Y444199I-1378J0D01*
G01*
D02*
G03*
X489712Y444199I-1378J0D01*
G01*
X481845D02*
G03*
X481845Y444199I-1378J0D01*
G01*
D02*
G03*
X481845Y444199I-1378J0D01*
G01*
X473979D02*
G03*
X473979Y444199I-1378J0D01*
G01*
D02*
G03*
X473979Y444199I-1378J0D01*
G01*
X466112D02*
G03*
X466112Y444199I-1378J0D01*
G01*
D02*
G03*
X466112Y444199I-1378J0D01*
G01*
X458245D02*
G03*
X458245Y444199I-1378J0D01*
G01*
D02*
G03*
X458245Y444199I-1378J0D01*
G01*
X450379D02*
G03*
X450379Y444199I-1378J0D01*
G01*
D02*
G03*
X450379Y444199I-1378J0D01*
G01*
X389813Y365800D02*
G03*
X389813Y365800I-1378J0D01*
G01*
X685929Y197431D02*
X688713Y200215D01*
X685929D02*
X688713Y197431D01*
X662931Y438100D02*
X666868D01*
X664900Y436131D02*
Y440068D01*
X674474Y208886D02*
X677258Y211670D01*
X674474D02*
X677258Y208886D01*
X440400Y194621D02*
Y198557D01*
X438432Y196589D02*
X442369D01*
X711000Y297232D02*
Y301168D01*
X709031Y299200D02*
X712968D01*
X380508Y226808D02*
X383292Y229592D01*
X380508D02*
X383292Y226808D01*
X379500Y430543D02*
Y434480D01*
X377532Y432511D02*
X381469D01*
X420532Y444200D02*
X424469D01*
X422500Y442232D02*
Y446169D01*
Y442232D02*
Y446169D01*
X420532Y444200D02*
X424469D01*
X444832Y348800D02*
X448769D01*
X446800Y346831D02*
Y350768D01*
X437282Y348800D02*
X441219D01*
X439250Y346831D02*
Y350768D01*
X429732Y348800D02*
X433669D01*
X431700Y346831D02*
Y350768D01*
X444832Y266483D02*
X448769D01*
X446800Y264515D02*
Y268452D01*
X437282Y266483D02*
X441219D01*
X439250Y264515D02*
Y268452D01*
X429732Y266483D02*
X433669D01*
X431700Y264515D02*
Y268452D01*
X532300Y404832D02*
Y408769D01*
X530332Y406800D02*
X534269D01*
X532300Y358511D02*
Y362449D01*
X530332Y360480D02*
X534269D01*
X532300Y317991D02*
Y321929D01*
X530332Y319960D02*
X534269D01*
X532300Y262572D02*
Y266509D01*
X530332Y264540D02*
X534269D01*
X532300Y219551D02*
Y223488D01*
X530332Y221520D02*
X534269D01*
X532300Y173231D02*
Y177169D01*
X530332Y175200D02*
X534269D01*
X491782Y355927D02*
X495718D01*
X493750Y353959D02*
Y357896D01*
X492132Y210457D02*
X496068D01*
X494100Y208489D02*
Y212426D01*
X444332Y173700D02*
X448269D01*
X446300Y171731D02*
Y175669D01*
X411031Y429900D02*
X414968D01*
X413000Y427931D02*
Y431869D01*
X349232Y358300D02*
X353169D01*
X351200Y356331D02*
Y360268D01*
X349232Y385400D02*
X353169D01*
X351200Y383432D02*
Y387368D01*
X440600Y310531D02*
Y314469D01*
X438631Y312500D02*
X442568D01*
X440600Y228031D02*
Y231968D01*
X438631Y230000D02*
X442568D01*
X460740Y189420D02*
Y193357D01*
X458772Y191388D02*
X462709D01*
X363332Y333200D02*
X367268D01*
X365300Y331231D02*
Y335169D01*
X363332Y327250D02*
X367268Y327250D01*
X365300Y325282D02*
X365300Y329219D01*
X363332Y321300D02*
X367268Y321300D01*
X365300Y319332D02*
Y323269D01*
X388131Y333200D02*
X392069D01*
X390100Y331231D02*
Y335169D01*
X388131Y327250D02*
X392069D01*
X390100Y325282D02*
Y329219D01*
X388131Y321300D02*
X392069D01*
X390100Y319332D02*
Y323269D01*
X627965Y444199D02*
X631902D01*
X629934Y442231D02*
Y446168D01*
Y442231D02*
Y446168D01*
X627965Y444199D02*
X631902D01*
X620099D02*
X624036D01*
X622067Y442231D02*
Y446168D01*
Y442231D02*
Y446168D01*
X620099Y444199D02*
X624036D01*
X612232D02*
X616169D01*
X614200Y442231D02*
Y446168D01*
Y442231D02*
Y446168D01*
X612232Y444199D02*
X616169D01*
X604365D02*
X608302D01*
X606334Y442231D02*
Y446168D01*
Y442231D02*
Y446168D01*
X604365Y444199D02*
X608302D01*
X596499D02*
X600436D01*
X598467Y442231D02*
Y446168D01*
Y442231D02*
Y446168D01*
X596499Y444199D02*
X600436D01*
X588632D02*
X592569D01*
X590600Y442231D02*
Y446168D01*
Y442231D02*
Y446168D01*
X588632Y444199D02*
X592569D01*
X580765D02*
X584702D01*
X582734Y442231D02*
Y446168D01*
Y442231D02*
Y446168D01*
X580765Y444199D02*
X584702D01*
X572899D02*
X576836D01*
X574867Y442231D02*
Y446168D01*
Y442231D02*
Y446168D01*
X572899Y444199D02*
X576836D01*
X565032D02*
X568969D01*
X567001Y442231D02*
Y446168D01*
Y442231D02*
Y446168D01*
X565032Y444199D02*
X568969D01*
X557165D02*
X561102D01*
X559134Y442231D02*
Y446168D01*
Y442231D02*
Y446168D01*
X557165Y444199D02*
X561102D01*
X549299D02*
X553236D01*
X551267Y442231D02*
Y446168D01*
Y442231D02*
Y446168D01*
X549299Y444199D02*
X553236D01*
X541432D02*
X545369D01*
X543401Y442231D02*
Y446168D01*
Y442231D02*
Y446168D01*
X541432Y444199D02*
X545369D01*
X533565D02*
X537502D01*
X535534Y442231D02*
Y446168D01*
Y442231D02*
Y446168D01*
X533565Y444199D02*
X537502D01*
X525699D02*
X529636D01*
X527667Y442231D02*
Y446168D01*
Y442231D02*
Y446168D01*
X525699Y444199D02*
X529636D01*
X517832D02*
X521769D01*
X519801Y442231D02*
Y446168D01*
Y442231D02*
Y446168D01*
X517832Y444199D02*
X521769D01*
X509965D02*
X513902D01*
X511934Y442231D02*
Y446168D01*
Y442231D02*
Y446168D01*
X509965Y444199D02*
X513902D01*
X502099D02*
X506036D01*
X504067Y442231D02*
Y446168D01*
Y442231D02*
Y446168D01*
X502099Y444199D02*
X506036D01*
X494232D02*
X498169D01*
X496201Y442231D02*
Y446168D01*
Y442231D02*
Y446168D01*
X494232Y444199D02*
X498169D01*
X486365D02*
X490303D01*
X488334Y442231D02*
Y446168D01*
Y442231D02*
Y446168D01*
X486365Y444199D02*
X490303D01*
X478499D02*
X482436D01*
X480467Y442231D02*
Y446168D01*
Y442231D02*
Y446168D01*
X478499Y444199D02*
X482436D01*
X470632D02*
X474569D01*
X472601Y442231D02*
Y446168D01*
Y442231D02*
Y446168D01*
X470632Y444199D02*
X474569D01*
X462766D02*
X466703D01*
X464734Y442231D02*
Y446168D01*
Y442231D02*
Y446168D01*
X462766Y444199D02*
X466703D01*
X454899D02*
X458836D01*
X456867Y442231D02*
Y446168D01*
Y442231D02*
Y446168D01*
X454899Y444199D02*
X458836D01*
X447032D02*
X450969D01*
X449001Y442231D02*
Y446168D01*
Y442231D02*
Y446168D01*
X447032Y444199D02*
X450969D01*
X388435Y363831D02*
Y367769D01*
X386467Y365800D02*
X390404D01*
D27*
X477000Y165200D02*
G03*
X477000Y165200I-500J0D01*
G01*
X470667D02*
G03*
X470667Y165200I-500J0D01*
G01*
X460059Y208500D02*
G03*
X460059Y208500I-500J0D01*
G01*
Y202500D02*
G03*
X460059Y202500I-500J0D01*
G01*
X368300Y194300D02*
G03*
X368300Y194300I-500J0D01*
G01*
X372200Y186100D02*
G03*
X372200Y186100I-500J0D01*
G01*
X343200Y198700D02*
G03*
X343200Y198700I-500J0D01*
G01*
X357800Y197900D02*
G03*
X357800Y197900I-500J0D01*
G01*
X381900Y188800D02*
G03*
X381900Y188800I-500J0D01*
G01*
X339381Y236400D02*
G03*
X339381Y236400I-500J0D01*
G01*
X355700Y181700D02*
G03*
X355700Y181700I-500J0D01*
G01*
X402400Y259800D02*
G03*
X402400Y259800I-500J0D01*
G01*
X414300Y206700D02*
G03*
X414300Y206700I-500J0D01*
G01*
X398200Y264000D02*
G03*
X398200Y264000I-500J0D01*
G01*
X420300Y206700D02*
G03*
X420300Y206700I-500J0D01*
G01*
X364100Y190100D02*
G03*
X364100Y190100I-500J0D01*
G01*
X359900Y185900D02*
G03*
X359900Y185900I-500J0D01*
G01*
X339381Y230500D02*
G03*
X339381Y230500I-500J0D01*
G01*
X447300Y331500D02*
G03*
X447300Y331500I-500J0D01*
G01*
X433703Y293039D02*
G03*
X433703Y293039I-500J0D01*
G01*
X439749Y331500D02*
G03*
X439749Y331500I-500J0D01*
G01*
X431100Y213200D02*
G03*
X431100Y213200I-500J0D01*
G01*
X432199Y331500D02*
G03*
X432199Y331500I-500J0D01*
G01*
X447300Y249159D02*
G03*
X447300Y249159I-500J0D01*
G01*
X439899D02*
G03*
X439899Y249159I-500J0D01*
G01*
X432199Y249101D02*
G03*
X432199Y249101I-500J0D01*
G01*
X501676Y376599D02*
G03*
X501676Y376599I-500J0D01*
G01*
X496701D02*
G03*
X496701Y376599I-500J0D01*
G01*
X516600Y376600D02*
G03*
X516600Y376600I-500J0D01*
G01*
X484200Y384300D02*
G03*
X484200Y384300I-500J0D01*
G01*
X506400Y317700D02*
G03*
X506400Y317700I-500J0D01*
G01*
X525200Y340400D02*
G03*
X525200Y340400I-500J0D01*
G01*
X501600Y231799D02*
G03*
X501600Y231799I-500J0D01*
G01*
X496700D02*
G03*
X496700Y231799I-500J0D01*
G01*
X516800Y231800D02*
G03*
X516800Y231800I-500J0D01*
G01*
X484400Y239600D02*
G03*
X484400Y239600I-500J0D01*
G01*
X503800Y171400D02*
G03*
X503800Y171400I-500J0D01*
G01*
X524900Y195600D02*
G03*
X524900Y195600I-500J0D01*
G01*
X363645Y337600D02*
G03*
X363645Y337600I-500J0D01*
G01*
Y327200D02*
G03*
X363645Y327200I-500J0D01*
G01*
X363645Y317200D02*
G03*
X363645Y317200I-500J0D01*
G01*
X341141Y287000D02*
G03*
X341141Y287000I-500J0D01*
G01*
X341141Y297100D02*
G03*
X341141Y297100I-500J0D01*
G01*
X341141Y307100D02*
G03*
X341141Y307100I-500J0D01*
G01*
X397400Y337600D02*
G03*
X397400Y337600I-500J0D01*
G01*
Y327200D02*
G03*
X397400Y327200I-500J0D01*
G01*
X397400Y317200D02*
G03*
X397400Y317200I-500J0D01*
G01*
X374896Y287000D02*
G03*
X374896Y287000I-500J0D01*
G01*
X374896Y297100D02*
G03*
X374896Y297100I-500J0D01*
G01*
X374896Y307100D02*
G03*
X374896Y307100I-500J0D01*
G01*
X386100Y408741D02*
G03*
X386100Y408741I-500J0D01*
G01*
X392800D02*
G03*
X392800Y408741I-500J0D01*
G01*
X396742Y428900D02*
G03*
X396742Y428900I-500J0D01*
G01*
X464333Y165200D02*
G03*
X464333Y165200I-500J0D01*
G01*
X433200Y179600D02*
G03*
X433200Y179600I-500J0D01*
G01*
X430200Y444200D02*
G03*
X430200Y444200I-500J0D01*
G01*
X458000Y165200D02*
G03*
X458000Y165200I-500J0D01*
G01*
X433200Y174500D02*
G03*
X433200Y174500I-500J0D01*
G01*
X413300Y419700D02*
G03*
X413300Y419700I-500J0D01*
G01*
X504700Y425500D02*
G03*
X504700Y425500I-500J0D01*
G01*
Y417633D02*
G03*
X504700Y417633I-500J0D01*
G01*
Y409767D02*
G03*
X504700Y409767I-500J0D01*
G01*
Y401900D02*
G03*
X504700Y401900I-500J0D01*
G01*
Y301500D02*
G03*
X504700Y301500I-500J0D01*
G01*
Y292060D02*
G03*
X504700Y292060I-500J0D01*
G01*
Y282620D02*
G03*
X504700Y282620I-500J0D01*
G01*
Y273180D02*
G03*
X504700Y273180I-500J0D01*
G01*
Y263740D02*
G03*
X504700Y263740I-500J0D01*
G01*
Y254300D02*
G03*
X504700Y254300I-500J0D01*
G01*
Y157400D02*
G03*
X504700Y157400I-500J0D01*
G01*
Y148900D02*
G03*
X504700Y148900I-500J0D01*
G01*
X506651Y376599D02*
G03*
X506651Y376599I-500J0D01*
G01*
X511625Y376600D02*
G03*
X511625Y376600I-500J0D01*
G01*
X489800Y390200D02*
G03*
X489800Y390200I-500J0D01*
G01*
X486751Y376599D02*
G03*
X486751Y376599I-500J0D01*
G01*
X491725Y376600D02*
G03*
X491725Y376600I-500J0D01*
G01*
X478800Y390200D02*
G03*
X478800Y390200I-500J0D01*
G01*
X481776Y376599D02*
G03*
X481776Y376599I-500J0D01*
G01*
X476800Y376600D02*
G03*
X476800Y376600I-500J0D01*
G01*
X519400Y315200D02*
G03*
X519400Y315200I-500J0D01*
G01*
X486485Y333458D02*
G03*
X486485Y333458I-500J0D01*
G01*
X491629Y333457D02*
G03*
X491629Y333457I-500J0D01*
G01*
X506400Y311600D02*
G03*
X506400Y311600I-500J0D01*
G01*
X481342Y333458D02*
G03*
X481342Y333458I-500J0D01*
G01*
X476200Y333457D02*
G03*
X476200Y333457I-500J0D01*
G01*
X535600Y340400D02*
G03*
X535600Y340400I-500J0D01*
G01*
X504000Y333458D02*
G03*
X504000Y333458I-500J0D01*
G01*
X498900Y333457D02*
G03*
X498900Y333457I-500J0D01*
G01*
X521400Y349000D02*
G03*
X521400Y349000I-500J0D01*
G01*
X509600Y333458D02*
G03*
X509600Y333458I-500J0D01*
G01*
X515000Y333457D02*
G03*
X515000Y333457I-500J0D01*
G01*
X506700Y231799D02*
G03*
X506700Y231799I-500J0D01*
G01*
X511700Y231800D02*
G03*
X511700Y231800I-500J0D01*
G01*
X490000Y245500D02*
G03*
X490000Y245500I-500J0D01*
G01*
X486900Y231799D02*
G03*
X486900Y231799I-500J0D01*
G01*
X491800Y231800D02*
G03*
X491800Y231800I-500J0D01*
G01*
X478900Y245500D02*
G03*
X478900Y245500I-500J0D01*
G01*
X482000Y231799D02*
G03*
X482000Y231799I-500J0D01*
G01*
X477000Y231800D02*
G03*
X477000Y231800I-500J0D01*
G01*
X513000Y173900D02*
G03*
X513000Y173900I-500J0D01*
G01*
X486900Y188657D02*
G03*
X486900Y188657I-500J0D01*
G01*
X492400D02*
G03*
X492400Y188657I-500J0D01*
G01*
X513000Y168600D02*
G03*
X513000Y168600I-500J0D01*
G01*
X481400Y188657D02*
G03*
X481400Y188657I-500J0D01*
G01*
X476400D02*
G03*
X476400Y188657I-500J0D01*
G01*
X530000Y201500D02*
G03*
X530000Y201500I-500J0D01*
G01*
X504000Y188657D02*
G03*
X504000Y188657I-500J0D01*
G01*
X498900D02*
G03*
X498900Y188657I-500J0D01*
G01*
X521500Y204059D02*
G03*
X521500Y204059I-500J0D01*
G01*
X509600Y188657D02*
G03*
X509600Y188657I-500J0D01*
G01*
X515000D02*
G03*
X515000Y188657I-500J0D01*
G01*
X412600Y444500D02*
G03*
X412600Y444500I-500J0D01*
G01*
X399300Y438200D02*
G03*
X399300Y438200I-500J0D01*
G01*
X401860Y428900D02*
G03*
X401860Y428900I-500J0D01*
G01*
X399300Y444500D02*
G03*
X399300Y444500I-500J0D01*
G01*
X341141Y337600D02*
G03*
X341141Y337600I-500J0D01*
G01*
Y327200D02*
G03*
X341141Y327200I-500J0D01*
G01*
X341141Y317200D02*
G03*
X341141Y317200I-500J0D01*
G01*
X352393Y337600D02*
G03*
X352393Y337600I-500J0D01*
G01*
Y327200D02*
G03*
X352393Y327200I-500J0D01*
G01*
Y317200D02*
G03*
X352393Y317200I-500J0D01*
G01*
Y307101D02*
G03*
X352393Y307101I-500J0D01*
G01*
X352393Y297101D02*
G03*
X352393Y297101I-500J0D01*
G01*
X352393Y287001D02*
G03*
X352393Y287001I-500J0D01*
G01*
X374897Y337600D02*
G03*
X374897Y337600I-500J0D01*
G01*
Y327200D02*
G03*
X374897Y327200I-500J0D01*
G01*
X374897Y317200D02*
G03*
X374897Y317200I-500J0D01*
G01*
X386148Y337600D02*
G03*
X386148Y337600I-500J0D01*
G01*
Y327200D02*
G03*
X386148Y327200I-500J0D01*
G01*
X386148Y317200D02*
G03*
X386148Y317200I-500J0D01*
G01*
Y307101D02*
G03*
X386148Y307101I-500J0D01*
G01*
X386148Y297101D02*
G03*
X386148Y297101I-500J0D01*
G01*
X386148Y287001D02*
G03*
X386148Y287001I-500J0D01*
G01*
X437600Y370659D02*
G03*
X437600Y370659I-500J0D01*
G01*
X431300Y370659D02*
G03*
X431300Y370659I-500J0D01*
G01*
X400800Y356800D02*
G03*
X400800Y356800I-500J0D01*
G01*
X389100Y353500D02*
G03*
X389100Y353500I-500J0D01*
G01*
X403400Y366300D02*
G03*
X403400Y366300I-500J0D01*
G01*
X377500Y365800D02*
G03*
X377500Y365800I-500J0D01*
G01*
X475713Y165200D02*
X477287D01*
X476500Y164413D02*
Y165987D01*
X469379Y165200D02*
X470954D01*
X470167Y164413D02*
Y165987D01*
X459559Y207713D02*
Y209288D01*
X458772Y208500D02*
X460347D01*
X459559Y201713D02*
Y203288D01*
X458772Y202500D02*
X460347D01*
X367243Y194857D02*
X368357Y193743D01*
X367243D02*
X368357Y194857D01*
X371143Y186657D02*
X372257Y185543D01*
X371143D02*
X372257Y186657D01*
X342143Y198143D02*
X343257Y199257D01*
X342143D02*
X343257Y198143D01*
X356743Y198457D02*
X357857Y197343D01*
X356743D02*
X357857Y198457D01*
X380613Y188800D02*
X382187D01*
X381400Y188013D02*
Y189587D01*
X338093Y236400D02*
X339668D01*
X338881Y235613D02*
X338881Y237187D01*
X354643Y182257D02*
X355757Y181143D01*
X354643D02*
X355757Y182257D01*
X401343Y260357D02*
X402457Y259243D01*
X401343D02*
X402457Y260357D01*
X413013Y206700D02*
X414587D01*
X413800Y205913D02*
Y207487D01*
X397143Y264557D02*
X398257Y263443D01*
X397143D02*
X398257Y264557D01*
X419013Y206700D02*
X420587Y206700D01*
X419800Y205913D02*
X419800Y207487D01*
X363043Y189543D02*
X364157Y190657D01*
X363043D02*
X364157Y189543D01*
X358843Y185343D02*
X359957Y186457D01*
X358843D02*
X359957Y185343D01*
X338881Y229713D02*
X338881Y231287D01*
X338094Y230500D02*
X339669Y230500D01*
X446800Y330713D02*
Y332287D01*
X446012Y331500D02*
X447587D01*
X432415Y293039D02*
X433990D01*
X433203Y292251D02*
Y293826D01*
X439250Y332287D02*
X439250Y330713D01*
X438462Y331500D02*
X440037D01*
X429813Y213200D02*
X431387D01*
X430600Y212413D02*
Y213987D01*
X431699Y330713D02*
Y332287D01*
X430912Y331500D02*
X432487D01*
X446800Y248372D02*
Y249947D01*
X446012Y249159D02*
X447587D01*
X439399Y249947D02*
X439399Y248372D01*
X438612Y249159D02*
X440187D01*
X431699Y248313D02*
Y249888D01*
X430912Y249101D02*
X432487D01*
X501176Y375812D02*
Y377387D01*
X500388Y376599D02*
X501963D01*
X496201Y375812D02*
Y377387D01*
X495413Y376599D02*
X496988D01*
X516100Y375813D02*
Y377387D01*
X515313Y376600D02*
X516887D01*
X482913Y384300D02*
X484487Y384300D01*
X483700Y383513D02*
Y385087D01*
X505113Y317700D02*
X506687D01*
X505900Y316913D02*
Y318487D01*
X523913Y340400D02*
X525487D01*
X524700Y339613D02*
Y341187D01*
X501100Y231012D02*
Y232587D01*
X500313Y231799D02*
X501887D01*
X496200Y231012D02*
Y232587D01*
X495413Y231799D02*
X496987D01*
X516300Y231013D02*
Y232587D01*
X515513Y231800D02*
X517087D01*
X483113Y239600D02*
X484687D01*
X483900Y238813D02*
Y240387D01*
X503300Y172187D02*
X503300Y170613D01*
X502513Y171400D02*
X504087D01*
X523613Y195600D02*
X525187Y195600D01*
X524400Y194813D02*
Y196387D01*
X362357Y337600D02*
X363932Y337600D01*
X363145Y338387D02*
X363145Y336813D01*
X362357Y327200D02*
X363932Y327200D01*
X363145Y327988D02*
X363145Y326413D01*
X362357Y317200D02*
X363932Y317200D01*
X363145Y317988D02*
X363145Y316413D01*
X339853Y287000D02*
X341428D01*
X340641Y286213D02*
Y287788D01*
X339853Y297100D02*
X341428Y297100D01*
X340641Y296313D02*
Y297888D01*
X339853Y307100D02*
X341428D01*
X340641Y306313D02*
Y307888D01*
X396113Y337600D02*
X397687D01*
X396900Y336812D02*
X396900Y338387D01*
X396113Y327200D02*
X397687D01*
X396900Y327988D02*
X396900Y326413D01*
X396113Y317200D02*
X397687D01*
X396900Y316413D02*
X396900Y317988D01*
X373608Y287000D02*
X375183D01*
X374396Y286213D02*
Y287788D01*
X373608Y297100D02*
X375183D01*
X374396Y296313D02*
Y297888D01*
X373608Y307100D02*
X375183D01*
X374396Y306313D02*
Y307888D01*
X385600Y407954D02*
X385600Y409529D01*
X384812Y408741D02*
X386387Y408741D01*
X392300Y407954D02*
X392300Y409529D01*
X391512Y408741D02*
X393087D01*
X396242Y428113D02*
Y429687D01*
X395454Y428900D02*
X397029D01*
X463833Y164413D02*
Y165987D01*
X463046Y165200D02*
X464621Y165200D01*
X431913Y179600D02*
X433487D01*
X432700Y178813D02*
X432700Y180387D01*
X429700Y443413D02*
X429700Y444987D01*
X428913Y444200D02*
X430487Y444200D01*
X457500Y164413D02*
X457500Y165987D01*
X456713Y165200D02*
X458287D01*
X431913Y174500D02*
X433487D01*
X432700Y173713D02*
Y175287D01*
X412013Y419700D02*
X413587D01*
X412800Y418913D02*
Y420487D01*
X504200Y424713D02*
Y426287D01*
X503413Y425500D02*
X504987D01*
X504200Y416846D02*
Y418421D01*
X503413Y417633D02*
X504987D01*
X504200Y410554D02*
X504200Y408979D01*
X503413Y409767D02*
X504987D01*
X504200Y401113D02*
Y402687D01*
X503413Y401900D02*
X504987D01*
X504200Y300713D02*
Y302287D01*
X503413Y301500D02*
X504987D01*
X504200Y291273D02*
Y292847D01*
X503413Y292060D02*
X504987D01*
X504200Y281833D02*
Y283407D01*
X503413Y282620D02*
X504987D01*
X504200Y272393D02*
Y273967D01*
X503413Y273180D02*
X504987D01*
X504200Y262953D02*
Y264527D01*
X503413Y263740D02*
X504987D01*
X504200Y253513D02*
Y255087D01*
X503413Y254300D02*
X504987D01*
X504200Y156613D02*
Y158187D01*
X503413Y157400D02*
X504987D01*
X504200Y148113D02*
Y149687D01*
X503413Y148900D02*
X504987D01*
X505363Y376599D02*
X506938D01*
X506151Y375812D02*
Y377387D01*
X510338Y376600D02*
X511912D01*
X511125Y377387D02*
X511125Y375813D01*
X489300Y390987D02*
X489300Y389413D01*
X488513Y390200D02*
X490087D01*
X485463Y376599D02*
X487038D01*
X486251Y375812D02*
Y377387D01*
X490438Y376600D02*
X492012D01*
X491225Y375813D02*
Y377387D01*
X478300Y389413D02*
Y390987D01*
X477513Y390200D02*
X479087D01*
X480488Y376599D02*
X482063Y376599D01*
X481276Y377387D02*
X481276Y375812D01*
X475513Y376600D02*
X477087D01*
X476300Y375813D02*
Y377387D01*
X518113Y315200D02*
X519687D01*
X518900Y314413D02*
Y315987D01*
X485198Y333458D02*
X486772D01*
X485985Y332671D02*
Y334245D01*
X490341Y333457D02*
X491916D01*
X491128Y332670D02*
Y334245D01*
X505900Y312387D02*
X505900Y310813D01*
X505113Y311600D02*
X506687D01*
X480055Y333458D02*
X481630D01*
X480842Y332671D02*
Y334245D01*
X474913Y333457D02*
X476487D01*
X475700Y332670D02*
X475700Y334245D01*
X535100Y339613D02*
Y341187D01*
X534313Y340400D02*
X535887Y340400D01*
X502713Y333458D02*
X504287D01*
X503500Y332671D02*
Y334245D01*
X497613Y333457D02*
X499187D01*
X498400Y332670D02*
Y334245D01*
X520113Y349000D02*
X521687D01*
X520900Y348213D02*
Y349787D01*
X508313Y333458D02*
X509887D01*
X509100Y332671D02*
Y334245D01*
X513713Y333457D02*
X515287D01*
X514500Y332670D02*
Y334245D01*
X505413Y231799D02*
X506987D01*
X506200Y231012D02*
Y232587D01*
X510413Y231800D02*
X511987D01*
X511200Y231013D02*
Y232587D01*
X489500Y244713D02*
Y246287D01*
X488713Y245500D02*
X490287D01*
X485613Y231799D02*
X487188D01*
X486400Y231012D02*
Y232587D01*
X490512Y231800D02*
X492087D01*
X491300Y231013D02*
Y232587D01*
X478400Y244713D02*
X478400Y246287D01*
X477613Y245500D02*
X479187D01*
X480713Y231799D02*
X482288D01*
X481500Y231012D02*
Y232587D01*
X475713Y231800D02*
X477287D01*
X476500Y231013D02*
Y232587D01*
X512500Y173113D02*
Y174687D01*
X511713Y173900D02*
X513287D01*
X485613Y188657D02*
X487187D01*
X486400Y187870D02*
Y189445D01*
X491113Y188657D02*
X492687D01*
X491900Y187870D02*
Y189445D01*
X512500Y167813D02*
Y169387D01*
X511713Y168600D02*
X513287D01*
X480113Y188657D02*
X481687D01*
X480900Y187870D02*
Y189445D01*
X475113Y188657D02*
X476687D01*
X475900Y187870D02*
Y189445D01*
X529500Y200713D02*
Y202287D01*
X528713Y201500D02*
X530287D01*
X502713Y188657D02*
X504287D01*
X503500Y187870D02*
Y189445D01*
X497613Y188657D02*
X499187D01*
X498400Y187870D02*
Y189445D01*
X520213Y204059D02*
X521788D01*
X521000Y203271D02*
Y204846D01*
X508313Y188657D02*
X509887D01*
X509100Y187870D02*
Y189445D01*
X513713Y188657D02*
X515287D01*
X514500Y187870D02*
Y189445D01*
X412100Y443713D02*
Y445287D01*
X411313Y444500D02*
X412887D01*
X398800Y437413D02*
Y438987D01*
X398013Y438200D02*
X399587D01*
X400572Y428900D02*
X402147D01*
X401360Y428113D02*
Y429687D01*
X398800Y443713D02*
Y445287D01*
X398013Y444500D02*
X399587D01*
X340641Y336813D02*
Y338387D01*
X339854Y337600D02*
X341429D01*
X340641Y326413D02*
Y327988D01*
X339854Y327200D02*
X341429D01*
X340641Y316413D02*
Y317988D01*
X339854Y317200D02*
X341429D01*
X351893Y336813D02*
Y338387D01*
X351106Y337600D02*
X352680D01*
X351893Y326413D02*
Y327988D01*
X351106Y327200D02*
X352680D01*
X351893Y316413D02*
Y317988D01*
X351106Y317200D02*
X352680D01*
X351893Y306313D02*
Y307888D01*
X351106Y307101D02*
X352680D01*
X351893Y296314D02*
Y297888D01*
X351106Y297101D02*
X352680D01*
X351893Y286213D02*
Y287788D01*
X351106Y287001D02*
X352680D01*
X374396Y338387D02*
X374396Y336813D01*
X373609Y337600D02*
X375184D01*
X374396Y327988D02*
X374396Y326413D01*
X373609Y327200D02*
X375184Y327200D01*
X374396Y317988D02*
X374396Y316413D01*
X373609Y317200D02*
X375184D01*
X385648Y336813D02*
Y338387D01*
X384861Y337600D02*
X386436D01*
X385648Y326413D02*
Y327988D01*
X384861Y327200D02*
X386436Y327200D01*
X385648Y316413D02*
Y317988D01*
X384861Y317200D02*
X386436Y317200D01*
X385648Y306314D02*
Y307888D01*
X384861Y307101D02*
X386436D01*
X385648Y296314D02*
Y297888D01*
X384861Y297101D02*
X386436D01*
X385648Y286213D02*
Y287788D01*
X384861Y287001D02*
X386436D01*
X437100Y369871D02*
Y371446D01*
X436313Y370659D02*
X437888D01*
X430800Y369872D02*
Y371447D01*
X430012Y370659D02*
X431587D01*
X399513Y356800D02*
X401087Y356800D01*
X400300Y356013D02*
Y357587D01*
X388600Y352713D02*
Y354287D01*
X387813Y353500D02*
X389387D01*
X402113Y366300D02*
X403687D01*
X402900Y365513D02*
Y367087D01*
X377000Y365013D02*
X377000Y366587D01*
X376213Y365800D02*
X377787D01*
D28*
X337767Y217800D02*
G03*
X337767Y217800I-707J0D01*
G01*
X336060D02*
X338060D01*
X337060Y216800D02*
Y218800D01*
M02*
