G04*
G04 #@! TF.GenerationSoftware,Altium Limited,Altium Designer,20.0.12 (288)*
G04*
G04 Layer_Color=255*
%FSLAX25Y25*%
%MOIN*%
G70*
G01*
G75*
%ADD28R,0.06102X0.02362*%
%ADD98C,0.02559*%
%ADD112C,0.09843*%
%ADD113R,0.09843X0.09843*%
%ADD114C,0.20000*%
%ADD115R,0.06693X0.06693*%
%ADD116C,0.06693*%
%ADD117O,0.03800X0.08000*%
G04:AMPARAMS|DCode=121|XSize=86.61mil|YSize=98.43mil|CornerRadius=0mil|HoleSize=0mil|Usage=FLASHONLY|Rotation=135.000|XOffset=0mil|YOffset=0mil|HoleType=Round|Shape=Rectangle|*
%AMROTATEDRECTD121*
4,1,4,0.06542,0.00418,-0.00418,-0.06542,-0.06542,-0.00418,0.00418,0.06542,0.06542,0.00418,0.0*
%
%ADD121ROTATEDRECTD121*%

G04:AMPARAMS|DCode=122|XSize=39.37mil|YSize=31.5mil|CornerRadius=0mil|HoleSize=0mil|Usage=FLASHONLY|Rotation=0.000|XOffset=0mil|YOffset=0mil|HoleType=Round|Shape=Octagon|*
%AMOCTAGOND122*
4,1,8,0.01968,-0.00787,0.01968,0.00787,0.01181,0.01575,-0.01181,0.01575,-0.01968,0.00787,-0.01968,-0.00787,-0.01181,-0.01575,0.01181,-0.01575,0.01968,-0.00787,0.0*
%
%ADD122OCTAGOND122*%

%ADD123R,0.03937X0.03150*%
%ADD124R,0.07087X0.04724*%
D28*
X352679Y277921D02*
D03*
Y305480D02*
D03*
Y293669D02*
D03*
Y281857D02*
D03*
Y289732D02*
D03*
Y285794D02*
D03*
Y301542D02*
D03*
Y297605D02*
D03*
Y324921D02*
D03*
Y352480D02*
D03*
Y340669D02*
D03*
Y328857D02*
D03*
Y336732D02*
D03*
Y332794D02*
D03*
Y348542D02*
D03*
Y344605D02*
D03*
D98*
X387822Y170193D02*
D03*
X410578Y170193D02*
D03*
D112*
X696630Y314200D02*
D03*
Y344200D02*
D03*
Y374200D02*
D03*
Y254200D02*
D03*
Y284200D02*
D03*
Y224200D02*
D03*
Y194200D02*
D03*
D113*
Y404200D02*
D03*
D114*
X709770Y161400D02*
D03*
Y435100D02*
D03*
X349206Y161400D02*
D03*
Y435100D02*
D03*
D115*
X484600Y150500D02*
D03*
D116*
X474600D02*
D03*
X464600D02*
D03*
X454600D02*
D03*
X444600D02*
D03*
X434600D02*
D03*
X424600D02*
D03*
D117*
X382192Y172162D02*
D03*
X416208Y172162D02*
D03*
X382192Y155705D02*
D03*
X416208D02*
D03*
D121*
X680779Y192281D02*
D03*
X693863Y205365D02*
D03*
X669324Y203736D02*
D03*
X682408Y216820D02*
D03*
D122*
X370812Y333200D02*
D03*
X370812Y327250D02*
D03*
X370812Y321300D02*
D03*
X384588Y333200D02*
D03*
X384588Y327250D02*
D03*
X384588Y321300D02*
D03*
D123*
X359788Y333200D02*
D03*
X359788Y327250D02*
D03*
X359788Y321300D02*
D03*
X395612Y333200D02*
D03*
X395612Y327250D02*
D03*
Y321300D02*
D03*
D124*
X337521Y272802D02*
D03*
Y310598D02*
D03*
Y319802D02*
D03*
Y357598D02*
D03*
M02*
