G04*
G04 #@! TF.GenerationSoftware,Altium Limited,Altium Designer,20.0.12 (288)*
G04*
G04 Layer_Physical_Order=2*
G04 Layer_Color=16711680*
%FSLAX25Y25*%
%MOIN*%
G70*
G01*
G75*
%ADD13C,0.01000*%
%ADD14C,0.02000*%
%ADD17C,0.00600*%
%ADD18C,0.01500*%
%ADD19C,0.00500*%
%ADD20C,0.00800*%
%ADD21C,0.00394*%
%ADD25C,0.00591*%
%ADD26C,0.00197*%
%ADD27C,0.00100*%
%ADD28C,0.00158*%
%ADD32R,0.06102X0.02362*%
%ADD102C,0.02559*%
%ADD110C,0.20000*%
%ADD116C,0.09843*%
%ADD117R,0.09843X0.09843*%
%ADD118C,0.20000*%
%ADD119R,0.06693X0.06693*%
%ADD120C,0.06693*%
%ADD121O,0.03800X0.08000*%
%ADD122C,0.02200*%
%ADD123C,0.19685*%
%ADD124C,0.18000*%
G04:AMPARAMS|DCode=125|XSize=86.61mil|YSize=98.43mil|CornerRadius=0mil|HoleSize=0mil|Usage=FLASHONLY|Rotation=135.000|XOffset=0mil|YOffset=0mil|HoleType=Round|Shape=Rectangle|*
%AMROTATEDRECTD125*
4,1,4,0.06542,0.00418,-0.00418,-0.06542,-0.06542,-0.00418,0.00418,0.06542,0.06542,0.00418,0.0*
%
%ADD125ROTATEDRECTD125*%

G04:AMPARAMS|DCode=126|XSize=39.37mil|YSize=31.5mil|CornerRadius=0mil|HoleSize=0mil|Usage=FLASHONLY|Rotation=0.000|XOffset=0mil|YOffset=0mil|HoleType=Round|Shape=Octagon|*
%AMOCTAGOND126*
4,1,8,0.01968,-0.00787,0.01968,0.00787,0.01181,0.01575,-0.01181,0.01575,-0.01968,0.00787,-0.01968,-0.00787,-0.01181,-0.01575,0.01181,-0.01575,0.01968,-0.00787,0.0*
%
%ADD126OCTAGOND126*%

%ADD127R,0.03937X0.03150*%
%ADD128R,0.07087X0.04724*%
%ADD129C,0.19685*%
G04:AMPARAMS|DCode=130|XSize=242.54mil|YSize=236.88mil|CornerRadius=0mil|HoleSize=0mil|Usage=FLASHONLY|Rotation=45.000|XOffset=0mil|YOffset=0mil|HoleType=Round|Shape=Rectangle|*
%AMROTATEDRECTD130*
4,1,4,-0.00200,-0.16950,-0.16950,-0.00200,0.00200,0.16950,0.16950,0.00200,-0.00200,-0.16950,0.0*
%
%ADD130ROTATEDRECTD130*%

G04:AMPARAMS|DCode=131|XSize=220.62mil|YSize=193.75mil|CornerRadius=0mil|HoleSize=0mil|Usage=FLASHONLY|Rotation=45.000|XOffset=0mil|YOffset=0mil|HoleType=Round|Shape=Rectangle|*
%AMROTATEDRECTD131*
4,1,4,-0.00950,-0.14650,-0.14650,-0.00950,0.00950,0.14650,0.14650,0.00950,-0.00950,-0.14650,0.0*
%
%ADD131ROTATEDRECTD131*%

G04:AMPARAMS|DCode=132|XSize=127.99mil|YSize=106.77mil|CornerRadius=0mil|HoleSize=0mil|Usage=FLASHONLY|Rotation=45.000|XOffset=0mil|YOffset=0mil|HoleType=Round|Shape=Rectangle|*
%AMROTATEDRECTD132*
4,1,4,-0.00750,-0.08300,-0.08300,-0.00750,0.00750,0.08300,0.08300,0.00750,-0.00750,-0.08300,0.0*
%
%ADD132ROTATEDRECTD132*%

%ADD133R,0.22700X0.11800*%
G36*
X398481Y379522D02*
X398401Y379430D01*
X398330Y379337D01*
X398269Y379244D01*
X398218Y379151D01*
X398175Y379058D01*
X398142Y378964D01*
X398119Y378870D01*
X398105Y378776D01*
X398100Y378682D01*
X397500D01*
X397495Y378776D01*
X397481Y378870D01*
X397458Y378964D01*
X397425Y379058D01*
X397382Y379151D01*
X397331Y379244D01*
X397270Y379337D01*
X397199Y379430D01*
X397119Y379522D01*
X397030Y379614D01*
X398570D01*
X398481Y379522D01*
D02*
G37*
G36*
X401881Y379022D02*
X401801Y378930D01*
X401730Y378837D01*
X401669Y378744D01*
X401617Y378651D01*
X401575Y378557D01*
X401542Y378464D01*
X401519Y378370D01*
X401505Y378276D01*
X401500Y378182D01*
X400900D01*
X400895Y378276D01*
X400881Y378370D01*
X400858Y378464D01*
X400825Y378557D01*
X400782Y378651D01*
X400731Y378744D01*
X400670Y378837D01*
X400599Y378930D01*
X400519Y379022D01*
X400430Y379114D01*
X401970D01*
X401881Y379022D01*
D02*
G37*
G36*
X407948Y376290D02*
X407869Y376198D01*
X407798Y376105D01*
X407737Y376012D01*
X407685Y375919D01*
X407643Y375825D01*
X407610Y375732D01*
X407587Y375638D01*
X407573Y375544D01*
X407568Y375449D01*
X406968D01*
X406963Y375544D01*
X406949Y375638D01*
X406925Y375732D01*
X406893Y375825D01*
X406850Y375919D01*
X406799Y376012D01*
X406738Y376105D01*
X406667Y376198D01*
X406587Y376290D01*
X406498Y376382D01*
X408038D01*
X407948Y376290D01*
D02*
G37*
G36*
X404902Y376361D02*
X404911Y376239D01*
X404927Y376123D01*
X404949Y376014D01*
X404979Y375912D01*
X405015Y375816D01*
X405057Y375727D01*
X405107Y375644D01*
X405164Y375567D01*
X405227Y375497D01*
X404803Y375073D01*
X404733Y375136D01*
X404656Y375193D01*
X404573Y375242D01*
X404484Y375285D01*
X404388Y375322D01*
X404286Y375351D01*
X404177Y375373D01*
X404061Y375389D01*
X403939Y375398D01*
X403811Y375400D01*
X404900Y376489D01*
X404902Y376361D01*
D02*
G37*
G36*
X403081Y372522D02*
X403001Y372430D01*
X402930Y372337D01*
X402869Y372244D01*
X402817Y372151D01*
X402775Y372058D01*
X402742Y371964D01*
X402719Y371870D01*
X402705Y371776D01*
X402700Y371682D01*
X402100D01*
X402095Y371776D01*
X402081Y371870D01*
X402058Y371964D01*
X402025Y372058D01*
X401982Y372151D01*
X401931Y372244D01*
X401870Y372337D01*
X401799Y372430D01*
X401719Y372522D01*
X401630Y372614D01*
X403170D01*
X403081Y372522D01*
D02*
G37*
G36*
X349652Y351679D02*
X349643Y351755D01*
X349619Y351823D01*
X349578Y351884D01*
X349522Y351936D01*
X349449Y351979D01*
X349359Y352015D01*
X349254Y352044D01*
X349132Y352063D01*
X348994Y352076D01*
X348840Y352080D01*
Y352880D01*
X348994Y352884D01*
X349132Y352895D01*
X349254Y352916D01*
X349359Y352943D01*
X349449Y352979D01*
X349522Y353024D01*
X349578Y353076D01*
X349619Y353135D01*
X349643Y353204D01*
X349652Y353279D01*
Y351679D01*
D02*
G37*
G36*
Y347743D02*
X349643Y347818D01*
X349619Y347886D01*
X349578Y347947D01*
X349522Y347998D01*
X349449Y348042D01*
X349359Y348078D01*
X349254Y348107D01*
X349132Y348127D01*
X348994Y348138D01*
X348840Y348143D01*
Y348942D01*
X348994Y348946D01*
X349132Y348958D01*
X349254Y348978D01*
X349359Y349007D01*
X349449Y349043D01*
X349522Y349086D01*
X349578Y349138D01*
X349619Y349199D01*
X349643Y349267D01*
X349652Y349342D01*
Y347743D01*
D02*
G37*
G36*
X401106Y345848D02*
X401026Y345755D01*
X400956Y345662D01*
X400895Y345569D01*
X400843Y345476D01*
X400801Y345383D01*
X400768Y345289D01*
X400744Y345196D01*
X400730Y345101D01*
X400726Y345007D01*
X400126D01*
X400121Y345101D01*
X400107Y345196D01*
X400083Y345289D01*
X400050Y345383D01*
X400008Y345476D01*
X399956Y345569D01*
X399895Y345662D01*
X399825Y345755D01*
X399745Y345848D01*
X399656Y345940D01*
X401195D01*
X401106Y345848D01*
D02*
G37*
G36*
X349652Y343806D02*
X349643Y343882D01*
X349619Y343950D01*
X349578Y344009D01*
X349522Y344061D01*
X349449Y344106D01*
X349359Y344142D01*
X349254Y344169D01*
X349132Y344190D01*
X348994Y344201D01*
X348840Y344205D01*
Y345005D01*
X348994Y345009D01*
X349132Y345022D01*
X349254Y345041D01*
X349359Y345070D01*
X349449Y345106D01*
X349522Y345149D01*
X349578Y345201D01*
X349619Y345262D01*
X349643Y345329D01*
X349652Y345406D01*
Y343806D01*
D02*
G37*
G36*
X339574Y343408D02*
X339502Y343331D01*
X339438Y343251D01*
X339381Y343168D01*
X339332Y343083D01*
X339291Y342994D01*
X339257Y342903D01*
X339231Y342809D01*
X339213Y342713D01*
X339203Y342613D01*
X339200Y342511D01*
X338111Y343600D01*
X338213Y343603D01*
X338313Y343613D01*
X338409Y343631D01*
X338503Y343657D01*
X338594Y343691D01*
X338683Y343732D01*
X338768Y343781D01*
X338851Y343838D01*
X338931Y343902D01*
X339008Y343974D01*
X339574Y343408D01*
D02*
G37*
G36*
X355738Y337868D02*
X355798Y337840D01*
X355898Y337814D01*
X356038Y337792D01*
X356218Y337774D01*
X356998Y337738D01*
X357718Y337732D01*
Y335732D01*
X357338Y335730D01*
X355798Y335623D01*
X355738Y335595D01*
X355718Y335562D01*
Y337901D01*
X355738Y337868D01*
D02*
G37*
G36*
X379269Y339146D02*
X379283Y338752D01*
X379325Y338369D01*
X379396Y337998D01*
X379495Y337639D01*
X379622Y337292D01*
X379778Y336957D01*
X379961Y336633D01*
X380174Y336321D01*
X380414Y336020D01*
X380683Y335732D01*
X379269Y334317D01*
X378980Y334586D01*
X378679Y334826D01*
X378367Y335038D01*
X378043Y335222D01*
X377708Y335378D01*
X377361Y335505D01*
X377002Y335604D01*
X376631Y335675D01*
X376248Y335717D01*
X375854Y335732D01*
X375269Y337732D01*
X375648Y337752D01*
X375989Y337811D01*
X376289Y337912D01*
X376549Y338052D01*
X376768Y338231D01*
X376948Y338452D01*
X377088Y338712D01*
X377188Y339012D01*
X377249Y339352D01*
X377269Y339732D01*
X379269Y339146D01*
D02*
G37*
G36*
X338904Y333879D02*
X338915Y333777D01*
X338933Y333679D01*
X338959Y333583D01*
X338993Y333492D01*
X339033Y333403D01*
X339081Y333319D01*
X339137Y333238D01*
X339200Y333160D01*
X339270Y333086D01*
X337730D01*
X337800Y333160D01*
X337863Y333238D01*
X337919Y333319D01*
X337967Y333403D01*
X338007Y333492D01*
X338041Y333583D01*
X338067Y333679D01*
X338085Y333777D01*
X338096Y333879D01*
X338100Y333985D01*
X338900D01*
X338904Y333879D01*
D02*
G37*
G36*
X349652Y331995D02*
X349643Y332070D01*
X349619Y332138D01*
X349578Y332199D01*
X349522Y332250D01*
X349449Y332295D01*
X349359Y332330D01*
X349254Y332359D01*
X349132Y332379D01*
X348994Y332390D01*
X348840Y332395D01*
Y333194D01*
X348994Y333198D01*
X349132Y333210D01*
X349254Y333230D01*
X349359Y333259D01*
X349449Y333295D01*
X349522Y333338D01*
X349578Y333390D01*
X349619Y333451D01*
X349643Y333519D01*
X349652Y333594D01*
Y331995D01*
D02*
G37*
G36*
X377655Y332640D02*
X377592Y332562D01*
X377537Y332481D01*
X377488Y332397D01*
X377448Y332308D01*
X377414Y332217D01*
X377389Y332121D01*
X377370Y332023D01*
X377359Y331921D01*
X377355Y331815D01*
X376555D01*
X376552Y331921D01*
X376540Y332023D01*
X376522Y332121D01*
X376496Y332217D01*
X376463Y332308D01*
X376422Y332397D01*
X376374Y332481D01*
X376318Y332562D01*
X376255Y332640D01*
X376185Y332714D01*
X377725D01*
X377655Y332640D01*
D02*
G37*
G36*
X395601Y332100D02*
X395472Y332098D01*
X395351Y332089D01*
X395235Y332073D01*
X395126Y332051D01*
X395024Y332021D01*
X394928Y331985D01*
X394838Y331943D01*
X394755Y331893D01*
X394679Y331836D01*
X394609Y331773D01*
X394185Y332197D01*
X394248Y332267D01*
X394305Y332344D01*
X394354Y332427D01*
X394397Y332516D01*
X394433Y332612D01*
X394463Y332714D01*
X394485Y332823D01*
X394501Y332939D01*
X394510Y333061D01*
X394512Y333189D01*
X395601Y332100D01*
D02*
G37*
G36*
X360890Y333061D02*
X360899Y332939D01*
X360915Y332823D01*
X360937Y332714D01*
X360967Y332612D01*
X361003Y332516D01*
X361046Y332427D01*
X361095Y332344D01*
X361152Y332267D01*
X361215Y332197D01*
X360791Y331773D01*
X360721Y331836D01*
X360645Y331893D01*
X360562Y331943D01*
X360472Y331985D01*
X360376Y332021D01*
X360274Y332051D01*
X360165Y332073D01*
X360049Y332089D01*
X359928Y332098D01*
X359799Y332100D01*
X360888Y333189D01*
X360890Y333061D01*
D02*
G37*
G36*
X394898Y331649D02*
X394834Y331664D01*
X394767Y331667D01*
X394694Y331656D01*
X394616Y331632D01*
X394534Y331595D01*
X394447Y331544D01*
X394354Y331481D01*
X394257Y331405D01*
X394156Y331315D01*
X394049Y331213D01*
X393231Y331243D01*
X393369Y331385D01*
X393581Y331630D01*
X393656Y331734D01*
X393710Y331825D01*
X393743Y331904D01*
X393755Y331970D01*
X393747Y332023D01*
X393718Y332064D01*
X393667Y332092D01*
X394898Y331649D01*
D02*
G37*
G36*
X361693Y332063D02*
X361662Y332022D01*
X361652Y331968D01*
X361664Y331902D01*
X361696Y331823D01*
X361748Y331732D01*
X361822Y331628D01*
X361917Y331513D01*
X362169Y331243D01*
X361351Y331213D01*
X361246Y331314D01*
X361049Y331477D01*
X360957Y331539D01*
X360870Y331588D01*
X360787Y331624D01*
X360709Y331647D01*
X360636Y331657D01*
X360567Y331653D01*
X360502Y331637D01*
X361745Y332092D01*
X361693Y332063D01*
D02*
G37*
G36*
X385307Y332358D02*
X385261Y332296D01*
X385221Y332226D01*
X385185Y332151D01*
X385156Y332069D01*
X385131Y331980D01*
X385113Y331885D01*
X385099Y331783D01*
X385091Y331675D01*
X385090Y331649D01*
X385588D01*
X385493Y331639D01*
X385408Y331609D01*
X385333Y331558D01*
X385268Y331487D01*
X385213Y331396D01*
X385168Y331285D01*
X385133Y331153D01*
X385108Y331001D01*
X385093Y330830D01*
X385088Y330637D01*
X384088D01*
X384083Y330830D01*
X384068Y331001D01*
X384043Y331153D01*
X384008Y331285D01*
X383963Y331396D01*
X383908Y331487D01*
X383843Y331558D01*
X383768Y331609D01*
X383683Y331639D01*
X383588Y331649D01*
X384086D01*
X384085Y331675D01*
X384064Y331885D01*
X384045Y331980D01*
X384021Y332069D01*
X383991Y332151D01*
X383956Y332226D01*
X383915Y332296D01*
X383870Y332358D01*
X383818Y332414D01*
X385358D01*
X385307Y332358D01*
D02*
G37*
G36*
X371717Y331639D02*
X371632Y331609D01*
X371557Y331558D01*
X371492Y331487D01*
X371437Y331396D01*
X371392Y331285D01*
X371357Y331153D01*
X371332Y331001D01*
X371317Y330830D01*
X371312Y330637D01*
X370312D01*
X370307Y330830D01*
X370292Y331001D01*
X370267Y331153D01*
X370232Y331285D01*
X370187Y331396D01*
X370132Y331487D01*
X370067Y331558D01*
X369992Y331609D01*
X369907Y331639D01*
X369812Y331649D01*
X371812D01*
X371717Y331639D01*
D02*
G37*
G36*
X385093Y329621D02*
X385108Y329449D01*
X385133Y329297D01*
X385168Y329165D01*
X385213Y329054D01*
X385268Y328963D01*
X385333Y328892D01*
X385408Y328841D01*
X385493Y328811D01*
X385588Y328801D01*
X383588D01*
X383683Y328811D01*
X383768Y328841D01*
X383843Y328892D01*
X383908Y328963D01*
X383963Y329054D01*
X384008Y329165D01*
X384043Y329297D01*
X384068Y329449D01*
X384083Y329621D01*
X384088Y329813D01*
X385088D01*
X385093Y329621D01*
D02*
G37*
G36*
X393555Y327599D02*
X393569Y327608D01*
X393612Y327647D01*
X393643Y327692D01*
X393661Y327743D01*
X393667Y327800D01*
Y326600D01*
X393661Y326657D01*
X393643Y326708D01*
X393612Y326753D01*
X393569Y326792D01*
X393555Y326801D01*
Y326430D01*
X393463Y326519D01*
X393370Y326599D01*
X393278Y326670D01*
X393185Y326731D01*
X393092Y326782D01*
X392998Y326825D01*
X392904Y326858D01*
X392811Y326881D01*
X392717Y326895D01*
X392622Y326900D01*
Y327500D01*
X392717Y327505D01*
X392811Y327519D01*
X392904Y327542D01*
X392998Y327575D01*
X393092Y327618D01*
X393185Y327669D01*
X393278Y327730D01*
X393370Y327801D01*
X393463Y327881D01*
X393555Y327970D01*
Y327599D01*
D02*
G37*
G36*
X361687Y327061D02*
X361696Y326939D01*
X361711Y326835D01*
X361733Y326889D01*
X361716Y326828D01*
X361715Y326810D01*
X361735Y326714D01*
X361764Y326612D01*
X361800Y326516D01*
X361841Y326431D01*
X361896Y326350D01*
X361974Y326252D01*
X362065Y326149D01*
X362169Y326041D01*
X362098Y325263D01*
X361958Y325399D01*
X361715Y325609D01*
X361612Y325683D01*
X361521Y325737D01*
X361442Y325770D01*
X361376Y325783D01*
X361322Y325776D01*
X361280Y325748D01*
X361250Y325699D01*
X361350Y325947D01*
X361269Y325985D01*
X361173Y326022D01*
X361071Y326051D01*
X360962Y326073D01*
X360847Y326089D01*
X360725Y326098D01*
X360596Y326100D01*
X361685Y327189D01*
X361687Y327061D01*
D02*
G37*
G36*
X371317Y329621D02*
X371332Y329449D01*
X371357Y329297D01*
X371392Y329165D01*
X371437Y329054D01*
X371492Y328963D01*
X371557Y328892D01*
X371632Y328841D01*
X371717Y328811D01*
X371812Y328801D01*
X371315D01*
X371384Y328202D01*
X370743Y327319D01*
X370700Y327200D01*
X370743Y327081D01*
X371384Y326198D01*
X371326Y325699D01*
X371812D01*
X371717Y325689D01*
X371632Y325659D01*
X371557Y325608D01*
X371492Y325537D01*
X371437Y325446D01*
X371392Y325335D01*
X371357Y325203D01*
X371332Y325051D01*
X371317Y324880D01*
X371312Y324687D01*
X370312D01*
X370307Y324880D01*
X370292Y325051D01*
X370267Y325203D01*
X370232Y325335D01*
X370187Y325446D01*
X370132Y325537D01*
X370067Y325608D01*
X369992Y325659D01*
X369907Y325689D01*
X369812Y325699D01*
X371091D01*
X370312Y326142D01*
X370700Y327200D01*
X370312Y328258D01*
X371267Y328801D01*
X369812D01*
X369907Y328811D01*
X369992Y328841D01*
X370067Y328892D01*
X370132Y328963D01*
X370187Y329054D01*
X370232Y329165D01*
X370267Y329297D01*
X370292Y329449D01*
X370307Y329621D01*
X370312Y329813D01*
X371312D01*
X371317Y329621D01*
D02*
G37*
G36*
X385493Y325689D02*
X385408Y325659D01*
X385333Y325608D01*
X385268Y325537D01*
X385213Y325446D01*
X385168Y325335D01*
X385133Y325203D01*
X385108Y325051D01*
X385093Y324880D01*
X385088Y324687D01*
X384088D01*
X384083Y324880D01*
X384068Y325051D01*
X384043Y325203D01*
X384008Y325335D01*
X383963Y325446D01*
X383908Y325537D01*
X383843Y325608D01*
X383768Y325659D01*
X383683Y325689D01*
X383588Y325699D01*
X385588D01*
X385493Y325689D01*
D02*
G37*
G36*
X350483Y323763D02*
X350434Y323820D01*
X350372Y323852D01*
X350295Y323858D01*
X350203Y323838D01*
X350097Y323793D01*
X349977Y323723D01*
X349842Y323626D01*
X349693Y323505D01*
X349351Y323186D01*
X349074Y324040D01*
X349221Y324192D01*
X349455Y324470D01*
X349542Y324597D01*
X349610Y324714D01*
X349658Y324823D01*
X349686Y324923D01*
X349694Y325014D01*
X349683Y325097D01*
X349652Y325171D01*
X350483Y323763D01*
D02*
G37*
G36*
X385093Y323671D02*
X385108Y323499D01*
X385133Y323347D01*
X385168Y323215D01*
X385213Y323104D01*
X385268Y323013D01*
X385333Y322942D01*
X385408Y322891D01*
X385493Y322861D01*
X385588Y322851D01*
X383588D01*
X383683Y322861D01*
X383768Y322891D01*
X383843Y322942D01*
X383908Y323013D01*
X383963Y323104D01*
X384008Y323215D01*
X384043Y323347D01*
X384068Y323499D01*
X384083Y323671D01*
X384088Y323863D01*
X385088D01*
X385093Y323671D01*
D02*
G37*
G36*
X371317Y323671D02*
X371332Y323499D01*
X371357Y323347D01*
X371392Y323215D01*
X371437Y323104D01*
X371492Y323013D01*
X371557Y322942D01*
X371632Y322891D01*
X371717Y322861D01*
X371812Y322851D01*
X369812D01*
X369907Y322861D01*
X369992Y322891D01*
X370067Y322942D01*
X370132Y323013D01*
X370187Y323104D01*
X370232Y323215D01*
X370267Y323347D01*
X370292Y323499D01*
X370307Y323671D01*
X370312Y323863D01*
X371312D01*
X371317Y323671D01*
D02*
G37*
G36*
X343604Y323379D02*
X343615Y323277D01*
X343633Y323179D01*
X343659Y323083D01*
X343692Y322992D01*
X343733Y322903D01*
X343781Y322819D01*
X343837Y322738D01*
X343900Y322660D01*
X343970Y322586D01*
X342430D01*
X342500Y322660D01*
X342563Y322738D01*
X342619Y322819D01*
X342667Y322903D01*
X342707Y322992D01*
X342741Y323083D01*
X342767Y323179D01*
X342785Y323277D01*
X342796Y323379D01*
X342800Y323485D01*
X343600D01*
X343604Y323379D01*
D02*
G37*
G36*
X377655Y321485D02*
X377592Y321407D01*
X377537Y321326D01*
X377488Y321241D01*
X377448Y321153D01*
X377414Y321061D01*
X377389Y320966D01*
X377370Y320868D01*
X377359Y320766D01*
X377355Y320660D01*
X376555D01*
X376552Y320766D01*
X376540Y320868D01*
X376522Y320966D01*
X376496Y321061D01*
X376463Y321153D01*
X376422Y321241D01*
X376374Y321326D01*
X376318Y321407D01*
X376255Y321485D01*
X376185Y321559D01*
X377725D01*
X377655Y321485D01*
D02*
G37*
G36*
X395601Y320200D02*
X395472Y320198D01*
X395351Y320189D01*
X395235Y320173D01*
X395126Y320151D01*
X395024Y320122D01*
X394928Y320085D01*
X394838Y320042D01*
X394755Y319993D01*
X394679Y319936D01*
X394609Y319873D01*
X394185Y320297D01*
X394248Y320367D01*
X394305Y320444D01*
X394354Y320527D01*
X394397Y320616D01*
X394433Y320712D01*
X394463Y320814D01*
X394485Y320923D01*
X394501Y321039D01*
X394510Y321161D01*
X394512Y321289D01*
X395601Y320200D01*
D02*
G37*
G36*
X394898Y319749D02*
X394834Y319764D01*
X394767Y319767D01*
X394694Y319756D01*
X394616Y319732D01*
X394534Y319695D01*
X394447Y319644D01*
X394354Y319581D01*
X394257Y319505D01*
X394156Y319415D01*
X394049Y319313D01*
X393231Y319343D01*
X393369Y319485D01*
X393581Y319730D01*
X393656Y319834D01*
X393710Y319925D01*
X393743Y320004D01*
X393755Y320070D01*
X393747Y320123D01*
X393718Y320164D01*
X393667Y320192D01*
X394898Y319749D01*
D02*
G37*
G36*
X360469Y320422D02*
X360389Y320330D01*
X360318Y320237D01*
X360257Y320144D01*
X360206Y320051D01*
X360163Y319957D01*
X360131Y319864D01*
X360107Y319770D01*
X360102Y319737D01*
X360388D01*
X360331Y319731D01*
X360280Y319713D01*
X360235Y319683D01*
X360196Y319641D01*
X360163Y319587D01*
X360136Y319521D01*
X360115Y319443D01*
X360100Y319353D01*
X360091Y319251D01*
X360088Y319137D01*
X359488D01*
X359485Y319251D01*
X359476Y319353D01*
X359461Y319443D01*
X359440Y319521D01*
X359413Y319587D01*
X359380Y319641D01*
X359341Y319683D01*
X359296Y319713D01*
X359245Y319731D01*
X359188Y319737D01*
X359474D01*
X359469Y319770D01*
X359446Y319864D01*
X359413Y319957D01*
X359371Y320051D01*
X359319Y320144D01*
X359258Y320237D01*
X359187Y320330D01*
X359107Y320422D01*
X359018Y320514D01*
X360558D01*
X360469Y320422D01*
D02*
G37*
G36*
X371717Y319739D02*
X371632Y319709D01*
X371557Y319658D01*
X371492Y319587D01*
X371437Y319496D01*
X371392Y319385D01*
X371357Y319253D01*
X371332Y319102D01*
X371317Y318929D01*
X371312Y318737D01*
X370312D01*
X370307Y318929D01*
X370292Y319102D01*
X370267Y319253D01*
X370232Y319385D01*
X370187Y319496D01*
X370132Y319587D01*
X370067Y319658D01*
X369992Y319709D01*
X369907Y319739D01*
X369812Y319749D01*
X371812D01*
X371717Y319739D01*
D02*
G37*
G36*
X343604Y313379D02*
X343615Y313277D01*
X343633Y313178D01*
X343659Y313083D01*
X343692Y312992D01*
X343733Y312903D01*
X343781Y312819D01*
X343837Y312738D01*
X343900Y312660D01*
X343970Y312586D01*
X342430D01*
X342500Y312660D01*
X342563Y312738D01*
X342619Y312819D01*
X342667Y312903D01*
X342707Y312992D01*
X342741Y313083D01*
X342767Y313178D01*
X342785Y313277D01*
X342796Y313379D01*
X342800Y313485D01*
X343600D01*
X343604Y313379D01*
D02*
G37*
G36*
X363427Y313503D02*
X363364Y313433D01*
X363307Y313356D01*
X363258Y313273D01*
X363215Y313184D01*
X363178Y313088D01*
X363149Y312986D01*
X363127Y312877D01*
X363111Y312761D01*
X363102Y312639D01*
X363100Y312511D01*
X362011Y313600D01*
X362139Y313602D01*
X362261Y313611D01*
X362377Y313627D01*
X362486Y313649D01*
X362588Y313679D01*
X362684Y313715D01*
X362773Y313757D01*
X362856Y313807D01*
X362933Y313864D01*
X363003Y313927D01*
X363427Y313503D01*
D02*
G37*
G36*
X359927D02*
X359864Y313433D01*
X359807Y313356D01*
X359757Y313273D01*
X359715Y313184D01*
X359679Y313088D01*
X359649Y312986D01*
X359627Y312877D01*
X359611Y312761D01*
X359602Y312639D01*
X359600Y312511D01*
X358511Y313600D01*
X358639Y313602D01*
X358761Y313611D01*
X358877Y313627D01*
X358986Y313649D01*
X359088Y313679D01*
X359184Y313715D01*
X359273Y313757D01*
X359356Y313807D01*
X359433Y313864D01*
X359503Y313927D01*
X359927Y313503D01*
D02*
G37*
G36*
X356427D02*
X356364Y313433D01*
X356307Y313356D01*
X356258Y313273D01*
X356215Y313184D01*
X356178Y313088D01*
X356149Y312986D01*
X356127Y312877D01*
X356111Y312761D01*
X356102Y312639D01*
X356100Y312511D01*
X355011Y313600D01*
X355139Y313602D01*
X355261Y313611D01*
X355377Y313627D01*
X355486Y313649D01*
X355588Y313679D01*
X355684Y313715D01*
X355773Y313757D01*
X355856Y313807D01*
X355933Y313864D01*
X356003Y313927D01*
X356427Y313503D01*
D02*
G37*
G36*
X376944Y311355D02*
X376842Y311352D01*
X376743Y311342D01*
X376646Y311324D01*
X376552Y311298D01*
X376461Y311264D01*
X376373Y311223D01*
X376287Y311174D01*
X376204Y311118D01*
X376124Y311053D01*
X376047Y310981D01*
X375481Y311547D01*
X375553Y311624D01*
X375618Y311704D01*
X375674Y311787D01*
X375723Y311873D01*
X375764Y311961D01*
X375798Y312052D01*
X375824Y312146D01*
X375842Y312243D01*
X375852Y312342D01*
X375855Y312444D01*
X376944Y311355D01*
D02*
G37*
G36*
X351603Y311913D02*
X351615Y311836D01*
X351636Y311759D01*
X351664Y311680D01*
X351701Y311601D01*
X351747Y311521D01*
X351801Y311441D01*
X351863Y311359D01*
X351934Y311277D01*
X352013Y311194D01*
X351306Y310487D01*
X351223Y310566D01*
X351059Y310699D01*
X350979Y310753D01*
X350899Y310799D01*
X350820Y310836D01*
X350741Y310864D01*
X350664Y310885D01*
X350587Y310897D01*
X350511Y310900D01*
X351600Y311989D01*
X351603Y311913D01*
D02*
G37*
G36*
X355714Y306204D02*
X355738Y306136D01*
X355779Y306076D01*
X355836Y306024D01*
X355909Y305979D01*
X355998Y305943D01*
X356104Y305915D01*
X356226Y305895D01*
X356364Y305884D01*
X356518Y305879D01*
Y305080D01*
X356364Y305076D01*
X356226Y305064D01*
X356104Y305044D01*
X355998Y305015D01*
X355909Y304979D01*
X355836Y304936D01*
X355779Y304884D01*
X355738Y304823D01*
X355714Y304755D01*
X355706Y304679D01*
Y306279D01*
X355714Y306204D01*
D02*
G37*
G36*
X345404Y302879D02*
X345415Y302777D01*
X345433Y302678D01*
X345459Y302583D01*
X345493Y302492D01*
X345533Y302403D01*
X345581Y302319D01*
X345637Y302238D01*
X345700Y302160D01*
X345770Y302086D01*
X344230D01*
X344300Y302160D01*
X344363Y302238D01*
X344419Y302319D01*
X344467Y302403D01*
X344508Y302492D01*
X344541Y302583D01*
X344567Y302678D01*
X344585Y302777D01*
X344596Y302879D01*
X344600Y302985D01*
X345400D01*
X345404Y302879D01*
D02*
G37*
G36*
X355714Y302267D02*
X355738Y302199D01*
X355779Y302138D01*
X355836Y302086D01*
X355909Y302043D01*
X355998Y302007D01*
X356104Y301978D01*
X356226Y301958D01*
X356364Y301946D01*
X356518Y301942D01*
Y301143D01*
X356364Y301138D01*
X356226Y301127D01*
X356104Y301107D01*
X355998Y301079D01*
X355909Y301043D01*
X355836Y300998D01*
X355779Y300946D01*
X355738Y300887D01*
X355714Y300818D01*
X355706Y300743D01*
Y302343D01*
X355714Y302267D01*
D02*
G37*
G36*
X376944Y301045D02*
X376842Y301042D01*
X376743Y301031D01*
X376646Y301013D01*
X376552Y300988D01*
X376461Y300954D01*
X376373Y300913D01*
X376287Y300864D01*
X376204Y300807D01*
X376124Y300743D01*
X376047Y300671D01*
X375481Y301236D01*
X375553Y301314D01*
X375618Y301394D01*
X375674Y301477D01*
X375723Y301562D01*
X375764Y301650D01*
X375798Y301742D01*
X375824Y301835D01*
X375842Y301932D01*
X375852Y302032D01*
X375855Y302134D01*
X376944Y301045D01*
D02*
G37*
G36*
X355714Y298329D02*
X355738Y298261D01*
X355779Y298201D01*
X355836Y298149D01*
X355909Y298106D01*
X355998Y298070D01*
X356104Y298042D01*
X356226Y298022D01*
X356364Y298009D01*
X356518Y298006D01*
Y297205D01*
X356364Y297201D01*
X356226Y297189D01*
X356104Y297169D01*
X355998Y297142D01*
X355909Y297106D01*
X355836Y297061D01*
X355779Y297009D01*
X355738Y296950D01*
X355714Y296882D01*
X355706Y296806D01*
Y298406D01*
X355714Y298329D01*
D02*
G37*
G36*
X342374Y293908D02*
X342302Y293831D01*
X342238Y293751D01*
X342181Y293668D01*
X342132Y293583D01*
X342091Y293494D01*
X342057Y293403D01*
X342031Y293309D01*
X342013Y293213D01*
X342003Y293113D01*
X342000Y293011D01*
X340911Y294100D01*
X341013Y294103D01*
X341113Y294113D01*
X341209Y294131D01*
X341303Y294157D01*
X341394Y294191D01*
X341483Y294232D01*
X341568Y294281D01*
X341651Y294338D01*
X341731Y294402D01*
X341808Y294474D01*
X342374Y293908D01*
D02*
G37*
G36*
X720933Y451393D02*
X722389Y450789D01*
X723700Y449914D01*
X724814Y448800D01*
X725690Y447489D01*
X726293Y446033D01*
X726600Y444488D01*
Y443700D01*
Y153000D01*
Y152212D01*
X726293Y150666D01*
X725690Y149211D01*
X724814Y147900D01*
X723700Y146786D01*
X722389Y145911D01*
X720933Y145307D01*
X719388Y145000D01*
X340312D01*
X338767Y145307D01*
X337311Y145911D01*
X336000Y146786D01*
X334886Y147900D01*
X334011Y149211D01*
X333407Y150666D01*
X333100Y152212D01*
Y153000D01*
Y176843D01*
X333600Y176994D01*
X333958Y176458D01*
X337858Y172558D01*
X338520Y172116D01*
X339300Y171961D01*
X353755D01*
X365058Y160658D01*
X365720Y160216D01*
X366500Y160061D01*
X379637D01*
X379884Y159561D01*
X379659Y159268D01*
X379367Y158562D01*
X379267Y157805D01*
Y153605D01*
X379367Y152848D01*
X379659Y152143D01*
X380124Y151537D01*
X380730Y151072D01*
X381435Y150780D01*
X382192Y150680D01*
X382949Y150780D01*
X383655Y151072D01*
X384260Y151537D01*
X384725Y152143D01*
X385017Y152848D01*
X385117Y153605D01*
Y157805D01*
X385017Y158562D01*
X384725Y159268D01*
X384500Y159561D01*
X384747Y160061D01*
X413653D01*
X413900Y159561D01*
X413675Y159268D01*
X413382Y158562D01*
X413283Y157805D01*
Y153605D01*
X413382Y152848D01*
X413675Y152143D01*
X414140Y151537D01*
X414745Y151072D01*
X415451Y150780D01*
X416208Y150680D01*
X416965Y150780D01*
X417670Y151072D01*
X418276Y151537D01*
X418741Y152143D01*
X419033Y152848D01*
X419133Y153605D01*
Y157676D01*
X419578Y157939D01*
X422599Y154917D01*
X422482Y154327D01*
X422408Y154297D01*
X421500Y153600D01*
X420803Y152692D01*
X420365Y151635D01*
X420216Y150500D01*
X420365Y149365D01*
X420803Y148308D01*
X421500Y147400D01*
X422408Y146703D01*
X423465Y146265D01*
X424600Y146116D01*
X425735Y146265D01*
X426792Y146703D01*
X427700Y147400D01*
X428397Y148308D01*
X428835Y149365D01*
X428984Y150500D01*
X428835Y151635D01*
X428397Y152692D01*
X427730Y153561D01*
X427786Y153853D01*
X427856Y154061D01*
X431344D01*
X431414Y153853D01*
X431470Y153561D01*
X430803Y152692D01*
X430365Y151635D01*
X430216Y150500D01*
X430365Y149365D01*
X430803Y148308D01*
X431500Y147400D01*
X432408Y146703D01*
X433465Y146265D01*
X434600Y146116D01*
X435735Y146265D01*
X436792Y146703D01*
X437700Y147400D01*
X438397Y148308D01*
X438835Y149365D01*
X438984Y150500D01*
X438835Y151635D01*
X438397Y152692D01*
X437730Y153561D01*
X437786Y153853D01*
X437856Y154061D01*
X441344D01*
X441414Y153853D01*
X441470Y153561D01*
X440803Y152692D01*
X440365Y151635D01*
X440216Y150500D01*
X440365Y149365D01*
X440803Y148308D01*
X441500Y147400D01*
X442408Y146703D01*
X443465Y146265D01*
X444600Y146116D01*
X445735Y146265D01*
X446792Y146703D01*
X447700Y147400D01*
X448397Y148308D01*
X448835Y149365D01*
X448984Y150500D01*
X448835Y151635D01*
X448397Y152692D01*
X447730Y153561D01*
X447786Y153853D01*
X447856Y154061D01*
X451344D01*
X451414Y153853D01*
X451470Y153561D01*
X450803Y152692D01*
X450365Y151635D01*
X450216Y150500D01*
X450365Y149365D01*
X450803Y148308D01*
X451500Y147400D01*
X452408Y146703D01*
X453465Y146265D01*
X454600Y146116D01*
X455735Y146265D01*
X456792Y146703D01*
X457700Y147400D01*
X458397Y148308D01*
X458835Y149365D01*
X458984Y150500D01*
X458835Y151635D01*
X458397Y152692D01*
X457730Y153561D01*
X457786Y153853D01*
X457856Y154061D01*
X461344D01*
X461414Y153853D01*
X461470Y153561D01*
X460803Y152692D01*
X460365Y151635D01*
X460216Y150500D01*
X460365Y149365D01*
X460803Y148308D01*
X461500Y147400D01*
X462408Y146703D01*
X463465Y146265D01*
X464600Y146116D01*
X465735Y146265D01*
X466792Y146703D01*
X467700Y147400D01*
X468397Y148308D01*
X468835Y149365D01*
X468984Y150500D01*
X468835Y151635D01*
X468397Y152692D01*
X467913Y153322D01*
X467936Y153580D01*
X468110Y153875D01*
X468326Y153890D01*
X470429Y151787D01*
X470365Y151635D01*
X470216Y150500D01*
X470365Y149365D01*
X470803Y148308D01*
X471500Y147400D01*
X472408Y146703D01*
X473465Y146265D01*
X474600Y146116D01*
X475735Y146265D01*
X476792Y146703D01*
X477700Y147400D01*
X478397Y148308D01*
X478835Y149365D01*
X478984Y150500D01*
X478835Y151635D01*
X478397Y152692D01*
X477700Y153600D01*
X476792Y154297D01*
X475735Y154735D01*
X474600Y154884D01*
X473465Y154735D01*
X473313Y154671D01*
X470442Y157542D01*
X469780Y157984D01*
X469000Y158139D01*
X425145D01*
X419742Y163542D01*
X419080Y163984D01*
X418300Y164139D01*
X367345D01*
X356042Y175442D01*
X355380Y175884D01*
X354600Y176039D01*
X340145D01*
X337439Y178745D01*
Y259828D01*
X337939Y260170D01*
X338500Y260059D01*
X339319Y260222D01*
X340014Y260686D01*
X340478Y261381D01*
X340636Y262173D01*
X341881Y263419D01*
X342213Y263915D01*
X342329Y264500D01*
Y266866D01*
X343781Y268319D01*
X344113Y268815D01*
X344229Y269400D01*
Y276800D01*
X344113Y277385D01*
X343781Y277881D01*
X342681Y278981D01*
X342185Y279313D01*
X341600Y279429D01*
X338391D01*
X337719Y279878D01*
X336900Y280041D01*
X336081Y279878D01*
X335386Y279414D01*
X334922Y278719D01*
X334759Y277900D01*
X334922Y277081D01*
X335200Y276664D01*
X334933Y276165D01*
X333100D01*
Y307236D01*
X342064D01*
Y309477D01*
X342565Y309785D01*
X343200Y309659D01*
X343573Y309223D01*
Y302872D01*
X343486Y302814D01*
X343022Y302119D01*
X342859Y301300D01*
X343022Y300481D01*
X343486Y299786D01*
X344181Y299322D01*
X344444Y299270D01*
X344608Y298727D01*
X341002Y295121D01*
X340900Y295141D01*
X340081Y294978D01*
X339386Y294514D01*
X338922Y293819D01*
X338759Y293000D01*
X338922Y292181D01*
X339386Y291486D01*
X340081Y291022D01*
X340900Y290859D01*
X341719Y291022D01*
X342414Y291486D01*
X342878Y292181D01*
X343041Y293000D01*
X343021Y293102D01*
X348128Y298209D01*
X348628Y298002D01*
Y295424D01*
X356730D01*
Y296178D01*
X361887D01*
X362094Y295678D01*
X358187Y291771D01*
X356730D01*
Y291913D01*
X348628D01*
Y291770D01*
X347851Y291616D01*
X347190Y291173D01*
X345558Y289542D01*
X345116Y288880D01*
X344961Y288100D01*
Y283313D01*
X344859Y282800D01*
X345022Y281981D01*
X345486Y281286D01*
X346181Y280822D01*
X347000Y280659D01*
X347819Y280822D01*
X348128Y281028D01*
X348628Y280761D01*
Y275739D01*
X351266D01*
X351506Y275239D01*
X351359Y274500D01*
X351475Y273917D01*
X351108Y273492D01*
X351090Y273483D01*
X350800Y273541D01*
X349981Y273378D01*
X349286Y272914D01*
X348822Y272219D01*
X348659Y271400D01*
X348822Y270581D01*
X349286Y269886D01*
X349601Y269676D01*
X349495Y269145D01*
X349393Y269125D01*
X348963Y268837D01*
X347722Y267597D01*
X347500Y267641D01*
X346681Y267478D01*
X345986Y267014D01*
X345522Y266319D01*
X345359Y265500D01*
X345522Y264681D01*
X345986Y263986D01*
X346681Y263522D01*
X347500Y263359D01*
X350200Y262400D01*
X350994Y259324D01*
X349295Y257626D01*
X346440D01*
X346314Y257814D01*
X345619Y258278D01*
X344800Y258441D01*
X343981Y258278D01*
X343286Y257814D01*
X342822Y257119D01*
X342659Y256300D01*
X342822Y255481D01*
X343286Y254786D01*
X343981Y254322D01*
X344231Y253762D01*
X344159Y253400D01*
X344322Y252581D01*
X344786Y251886D01*
X345481Y251422D01*
X346300Y251259D01*
X347119Y251422D01*
X347814Y251886D01*
X348278Y252581D01*
X348441Y253400D01*
X348428Y253466D01*
X348784Y253874D01*
X350300D01*
X350807Y253975D01*
X351237Y254263D01*
X361149Y264175D01*
X367070D01*
X367453Y263674D01*
X367359Y263200D01*
X367522Y262381D01*
X367986Y261686D01*
X368175Y261560D01*
Y255300D01*
X368275Y254793D01*
X368563Y254363D01*
X370374Y252551D01*
Y236349D01*
X369408Y235382D01*
X369020Y235563D01*
X368937Y235619D01*
X368778Y236419D01*
X368314Y237114D01*
X367619Y237578D01*
X366800Y237741D01*
X365981Y237578D01*
X365309Y237129D01*
X361600D01*
X361015Y237013D01*
X360519Y236681D01*
X359866Y236029D01*
X351033D01*
X349581Y237481D01*
X349085Y237813D01*
X348500Y237929D01*
X347191D01*
X346519Y238378D01*
X345700Y238541D01*
X344881Y238378D01*
X344186Y237914D01*
X343722Y237219D01*
X343559Y236400D01*
X343722Y235581D01*
X344186Y234886D01*
X344881Y234422D01*
X345700Y234259D01*
X346519Y234422D01*
X347191Y234871D01*
X347867D01*
X349319Y233419D01*
X349815Y233087D01*
X350400Y232971D01*
X360225D01*
X360617Y232563D01*
X360638Y232488D01*
X360559Y232088D01*
X360663Y231563D01*
X360256Y231134D01*
X360220Y231141D01*
X359401Y230978D01*
X358706Y230514D01*
X358242Y229819D01*
X358079Y229000D01*
X358242Y228181D01*
X358706Y227486D01*
X359401Y227022D01*
X360220Y226859D01*
X361040Y227022D01*
X361711Y227471D01*
X362266D01*
X364371Y225366D01*
Y214700D01*
X364487Y214115D01*
X364819Y213619D01*
X369419Y209019D01*
X369915Y208687D01*
X370500Y208571D01*
X381467D01*
X387219Y202819D01*
X387715Y202487D01*
X388300Y202371D01*
X390566D01*
X393664Y199273D01*
X393822Y198481D01*
X394286Y197786D01*
X394981Y197322D01*
X395800Y197159D01*
X396619Y197322D01*
X397314Y197786D01*
X397778Y198481D01*
X397936Y199273D01*
X402134Y203471D01*
X414866D01*
X418119Y200219D01*
X418615Y199887D01*
X419200Y199771D01*
X422009D01*
X422681Y199322D01*
X423500Y199159D01*
X424319Y199322D01*
X425014Y199786D01*
X425478Y200481D01*
X425641Y201300D01*
X425478Y202119D01*
X425014Y202814D01*
X424926Y202873D01*
X425078Y203373D01*
X463102D01*
X463254Y202873D01*
X463058Y202742D01*
X459821Y199504D01*
X459386Y199214D01*
X458922Y198519D01*
X458759Y197700D01*
X458922Y196881D01*
X459386Y196186D01*
X460081Y195722D01*
X460900Y195559D01*
X461719Y195722D01*
X462414Y196186D01*
X462704Y196621D01*
X465345Y199261D01*
X482900D01*
X483680Y199416D01*
X484342Y199858D01*
X489280Y204796D01*
X489714Y205086D01*
X490178Y205781D01*
X490341Y206600D01*
X490178Y207419D01*
X489714Y208114D01*
X489019Y208578D01*
X488200Y208741D01*
X487909Y208683D01*
X487663Y209144D01*
X488991Y210473D01*
X496909D01*
X500179Y207202D01*
X500159Y207100D01*
X500322Y206281D01*
X500786Y205586D01*
X501481Y205122D01*
X502300Y204959D01*
X503119Y205122D01*
X503814Y205586D01*
X504278Y206281D01*
X504441Y207100D01*
X504278Y207919D01*
X503814Y208614D01*
X503119Y209078D01*
X502300Y209241D01*
X502198Y209221D01*
X498509Y212909D01*
X498046Y213219D01*
X497500Y213327D01*
X497500Y213327D01*
X488400D01*
X488400Y213327D01*
X487854Y213219D01*
X487391Y212909D01*
X487391Y212909D01*
X481673Y207192D01*
X481131Y207356D01*
X481078Y207619D01*
X480614Y208314D01*
X479919Y208778D01*
X479656Y208830D01*
X479492Y209373D01*
X480109Y209991D01*
X480419Y210454D01*
X480527Y211000D01*
X480527Y211000D01*
Y212328D01*
X480614Y212386D01*
X481078Y213081D01*
X481241Y213900D01*
X481078Y214719D01*
X480614Y215414D01*
X479919Y215878D01*
X479100Y216041D01*
X478281Y215878D01*
X477586Y215414D01*
X477122Y214719D01*
X476959Y213900D01*
X477122Y213081D01*
X477586Y212386D01*
X477673Y212328D01*
Y211591D01*
X476309Y210227D01*
X419910D01*
X418728Y211409D01*
X418265Y211719D01*
X417719Y211827D01*
X417719Y211827D01*
X411928D01*
X411777Y212327D01*
X412014Y212486D01*
X412478Y213181D01*
X412641Y214000D01*
X412478Y214819D01*
X412014Y215514D01*
X411319Y215978D01*
X410500Y216141D01*
X410278Y216097D01*
X409637Y216737D01*
X409207Y217025D01*
X408700Y217126D01*
X396549D01*
X392955Y220720D01*
X393100Y221198D01*
X393219Y221222D01*
X393914Y221686D01*
X394378Y222381D01*
X394541Y223200D01*
X394378Y224019D01*
X393914Y224714D01*
X393725Y224840D01*
Y225551D01*
X396037Y227863D01*
X396325Y228293D01*
X396355Y228447D01*
X396886Y228553D01*
X396931Y228486D01*
X397626Y228022D01*
X398445Y227859D01*
X399264Y228022D01*
X399959Y228486D01*
X400085Y228675D01*
X412860D01*
X412986Y228486D01*
X413681Y228022D01*
X414500Y227859D01*
X415319Y228022D01*
X416014Y228486D01*
X416478Y229181D01*
X416641Y230000D01*
X416478Y230819D01*
X416014Y231514D01*
X415319Y231978D01*
X414686Y232104D01*
X414469Y232500D01*
X414686Y232896D01*
X415319Y233022D01*
X416014Y233486D01*
X416478Y234181D01*
X416641Y235000D01*
X416478Y235819D01*
X416014Y236514D01*
X415319Y236978D01*
X415083Y237025D01*
X414799Y237505D01*
X414941Y238219D01*
X414778Y239039D01*
X414314Y239734D01*
X413619Y240198D01*
X412800Y240361D01*
X411981Y240198D01*
X411286Y239734D01*
X411160Y239545D01*
X399629D01*
X399426Y239749D01*
Y263000D01*
X399325Y263507D01*
X399037Y263937D01*
X391325Y271649D01*
Y278551D01*
X392678Y279903D01*
X392900Y279859D01*
X393719Y280022D01*
X394414Y280486D01*
X394878Y281181D01*
X395041Y282000D01*
X394878Y282819D01*
X394414Y283514D01*
X393719Y283978D01*
X392900Y284141D01*
X392725Y284616D01*
Y299351D01*
X407437Y314063D01*
X407725Y314493D01*
X407826Y315000D01*
Y350200D01*
X407725Y350707D01*
X407437Y351137D01*
X406626Y351949D01*
Y369851D01*
X408205Y371430D01*
X408492Y371861D01*
X408593Y372368D01*
Y375528D01*
X408782Y375654D01*
X409246Y376348D01*
X409409Y377168D01*
X409246Y377987D01*
X408782Y378682D01*
X408087Y379146D01*
X407268Y379309D01*
X406448Y379146D01*
X405754Y378682D01*
X405309Y378017D01*
X404619Y378478D01*
X403800Y378641D01*
X403438Y378569D01*
X403137Y379019D01*
X403178Y379081D01*
X403341Y379900D01*
X403178Y380719D01*
X402714Y381414D01*
X402019Y381878D01*
X401200Y382041D01*
X400381Y381878D01*
X400075Y381674D01*
X399389Y381801D01*
X399314Y381914D01*
X398619Y382378D01*
X397800Y382541D01*
X396981Y382378D01*
X396286Y381914D01*
X395822Y381219D01*
X395659Y380400D01*
X395822Y379581D01*
X396286Y378886D01*
X396475Y378760D01*
Y375900D01*
X396575Y375393D01*
X396863Y374963D01*
X397475Y374351D01*
Y350949D01*
X396863Y350337D01*
X396575Y349907D01*
X396475Y349400D01*
Y345500D01*
X396575Y344993D01*
X396863Y344563D01*
X397574Y343851D01*
Y335775D01*
X386269D01*
X387210Y334866D01*
X387209Y334835D01*
X386269Y335775D01*
X382907D01*
X382563Y335431D01*
X382189Y335545D01*
X382053Y335627D01*
X381642Y336242D01*
X380308Y337576D01*
Y342256D01*
X380410Y342769D01*
X380247Y343588D01*
X379783Y344283D01*
X379088Y344747D01*
X378269Y344910D01*
X377449Y344747D01*
X376754Y344283D01*
X376290Y343588D01*
X376127Y342769D01*
X376229Y342256D01*
Y338771D01*
X356730D01*
Y338913D01*
X348628D01*
Y342424D01*
X356730D01*
Y346361D01*
Y350298D01*
Y354661D01*
X348628D01*
Y353907D01*
X348079D01*
X347533Y353798D01*
X347070Y353489D01*
X347070Y353489D01*
X338202Y344621D01*
X338100Y344641D01*
X337281Y344478D01*
X336586Y344014D01*
X336122Y343319D01*
X335959Y342500D01*
X336122Y341681D01*
X336586Y340986D01*
X337281Y340522D01*
X337530Y340472D01*
X337675Y339994D01*
X337491Y339809D01*
X337181Y339346D01*
X337073Y338800D01*
X337073Y338800D01*
Y333872D01*
X336986Y333814D01*
X336522Y333119D01*
X336359Y332300D01*
X336522Y331481D01*
X336986Y330786D01*
X337681Y330322D01*
X338500Y330159D01*
X341773D01*
Y323372D01*
X341686Y323314D01*
X341586Y323165D01*
X333100D01*
Y354236D01*
X342064D01*
Y360960D01*
X333100D01*
Y443700D01*
Y444488D01*
X333407Y446033D01*
X334011Y447489D01*
X334886Y448800D01*
X336000Y449914D01*
X337311Y450789D01*
X338767Y451393D01*
X340312Y451700D01*
X719388D01*
X720933Y451393D01*
D02*
G37*
G36*
X376170Y291285D02*
X376095Y291355D01*
X376018Y291418D01*
X375936Y291474D01*
X375852Y291522D01*
X375764Y291563D01*
X375672Y291596D01*
X375577Y291622D01*
X375478Y291640D01*
X375376Y291652D01*
X375271Y291655D01*
Y292455D01*
X375376Y292459D01*
X375478Y292470D01*
X375577Y292489D01*
X375672Y292514D01*
X375764Y292548D01*
X375852Y292588D01*
X375936Y292636D01*
X376018Y292692D01*
X376095Y292755D01*
X376170Y292825D01*
Y291285D01*
D02*
G37*
G36*
X349652Y288723D02*
X349641Y288725D01*
X349611Y288726D01*
X348632Y288732D01*
Y290732D01*
X349652Y290740D01*
Y288723D01*
D02*
G37*
G36*
X355738Y290868D02*
X355798Y290840D01*
X355898Y290814D01*
X356038Y290792D01*
X356218Y290774D01*
X356998Y290738D01*
X357718Y290732D01*
Y288732D01*
X357338Y288730D01*
X355798Y288623D01*
X355738Y288595D01*
X355718Y288562D01*
Y290901D01*
X355738Y290868D01*
D02*
G37*
G36*
X355714Y286519D02*
X355738Y286451D01*
X355779Y286390D01*
X355836Y286338D01*
X355909Y286295D01*
X355998Y286259D01*
X356104Y286230D01*
X356226Y286210D01*
X356364Y286198D01*
X356518Y286194D01*
Y285395D01*
X356364Y285390D01*
X356226Y285379D01*
X356104Y285359D01*
X355998Y285331D01*
X355909Y285295D01*
X355836Y285250D01*
X355779Y285198D01*
X355738Y285139D01*
X355714Y285070D01*
X355706Y284995D01*
Y286595D01*
X355714Y286519D01*
D02*
G37*
G36*
X367289Y284900D02*
X367187Y284897D01*
X367087Y284887D01*
X366991Y284869D01*
X366897Y284843D01*
X366806Y284809D01*
X366717Y284768D01*
X366632Y284719D01*
X366549Y284662D01*
X366469Y284598D01*
X366392Y284526D01*
X365826Y285092D01*
X365898Y285169D01*
X365962Y285249D01*
X366019Y285332D01*
X366068Y285417D01*
X366109Y285506D01*
X366143Y285597D01*
X366169Y285691D01*
X366187Y285787D01*
X366197Y285887D01*
X366200Y285989D01*
X367289Y284900D01*
D02*
G37*
G36*
X355714Y282581D02*
X355738Y282513D01*
X355779Y282453D01*
X355836Y282401D01*
X355909Y282358D01*
X355998Y282322D01*
X356104Y282294D01*
X356226Y282274D01*
X356364Y282261D01*
X356518Y282258D01*
Y281457D01*
X356364Y281453D01*
X356226Y281441D01*
X356104Y281421D01*
X355998Y281394D01*
X355909Y281358D01*
X355836Y281313D01*
X355779Y281261D01*
X355738Y281202D01*
X355714Y281134D01*
X355706Y281058D01*
Y282658D01*
X355714Y282581D01*
D02*
G37*
G36*
X392889Y280900D02*
X392761Y280898D01*
X392639Y280889D01*
X392523Y280873D01*
X392414Y280851D01*
X392312Y280821D01*
X392216Y280785D01*
X392127Y280743D01*
X392044Y280693D01*
X391967Y280636D01*
X391897Y280573D01*
X391473Y280997D01*
X391536Y281067D01*
X391593Y281144D01*
X391642Y281227D01*
X391685Y281316D01*
X391722Y281412D01*
X391751Y281514D01*
X391773Y281623D01*
X391789Y281739D01*
X391798Y281861D01*
X391800Y281989D01*
X392889Y280900D01*
D02*
G37*
G36*
X337742Y278619D02*
X337804Y278573D01*
X337874Y278532D01*
X337949Y278497D01*
X338031Y278467D01*
X338120Y278443D01*
X338215Y278424D01*
X338317Y278411D01*
X338425Y278403D01*
X338540Y278400D01*
Y277400D01*
X338425Y277397D01*
X338215Y277376D01*
X338120Y277357D01*
X338031Y277332D01*
X337949Y277303D01*
X337874Y277268D01*
X337804Y277227D01*
X337742Y277181D01*
X337686Y277130D01*
Y278670D01*
X337742Y278619D01*
D02*
G37*
G36*
X355714Y278644D02*
X355738Y278576D01*
X355779Y278517D01*
X355836Y278465D01*
X355909Y278420D01*
X355998Y278384D01*
X356104Y278357D01*
X356226Y278337D01*
X356364Y278325D01*
X356518Y278321D01*
Y277520D01*
X356364Y277517D01*
X356226Y277504D01*
X356104Y277484D01*
X355998Y277456D01*
X355909Y277420D01*
X355836Y277377D01*
X355779Y277325D01*
X355738Y277264D01*
X355714Y277197D01*
X355706Y277120D01*
Y278720D01*
X355714Y278644D01*
D02*
G37*
G36*
X367505Y277324D02*
X367519Y277230D01*
X367542Y277136D01*
X367575Y277043D01*
X367618Y276949D01*
X367669Y276856D01*
X367730Y276763D01*
X367801Y276670D01*
X367881Y276578D01*
X367970Y276486D01*
X366430D01*
X366519Y276578D01*
X366599Y276670D01*
X366670Y276763D01*
X366731Y276856D01*
X366782Y276949D01*
X366825Y277043D01*
X366858Y277136D01*
X366881Y277230D01*
X366895Y277324D01*
X366900Y277418D01*
X367500D01*
X367505Y277324D01*
D02*
G37*
G36*
X372727Y276703D02*
X372664Y276633D01*
X372607Y276556D01*
X372557Y276473D01*
X372515Y276384D01*
X372479Y276288D01*
X372449Y276186D01*
X372427Y276077D01*
X372411Y275961D01*
X372402Y275839D01*
X372400Y275711D01*
X371311Y276800D01*
X371439Y276802D01*
X371561Y276811D01*
X371677Y276827D01*
X371786Y276849D01*
X371888Y276878D01*
X371984Y276915D01*
X372073Y276958D01*
X372156Y277007D01*
X372233Y277064D01*
X372303Y277127D01*
X372727Y276703D01*
D02*
G37*
G36*
X376278Y276381D02*
X376370Y276301D01*
X376463Y276230D01*
X376556Y276169D01*
X376649Y276117D01*
X376743Y276075D01*
X376836Y276042D01*
X376930Y276019D01*
X377024Y276005D01*
X377118Y276000D01*
Y275400D01*
X377024Y275395D01*
X376930Y275381D01*
X376836Y275358D01*
X376743Y275325D01*
X376649Y275283D01*
X376556Y275231D01*
X376463Y275170D01*
X376370Y275099D01*
X376278Y275019D01*
X376186Y274930D01*
Y276470D01*
X376278Y276381D01*
D02*
G37*
G36*
X354927Y275503D02*
X354864Y275433D01*
X354807Y275356D01*
X354757Y275273D01*
X354715Y275184D01*
X354679Y275088D01*
X354649Y274986D01*
X354627Y274877D01*
X354611Y274761D01*
X354602Y274639D01*
X354600Y274511D01*
X353511Y275600D01*
X353639Y275602D01*
X353761Y275611D01*
X353877Y275627D01*
X353986Y275649D01*
X354088Y275678D01*
X354184Y275715D01*
X354273Y275758D01*
X354356Y275807D01*
X354433Y275864D01*
X354503Y275927D01*
X354927Y275503D01*
D02*
G37*
G36*
X358177Y274353D02*
X358114Y274283D01*
X358057Y274206D01*
X358008Y274123D01*
X357965Y274034D01*
X357928Y273938D01*
X357899Y273836D01*
X357877Y273727D01*
X357861Y273611D01*
X357852Y273489D01*
X357850Y273361D01*
X356761Y274450D01*
X356889Y274452D01*
X357011Y274461D01*
X357127Y274477D01*
X357236Y274499D01*
X357338Y274529D01*
X357434Y274565D01*
X357523Y274607D01*
X357606Y274657D01*
X357683Y274714D01*
X357753Y274777D01*
X358177Y274353D01*
D02*
G37*
G36*
X369555Y273224D02*
X369569Y273130D01*
X369592Y273036D01*
X369625Y272942D01*
X369668Y272849D01*
X369719Y272756D01*
X369780Y272663D01*
X369851Y272570D01*
X369931Y272478D01*
X370020Y272386D01*
X368480D01*
X368569Y272478D01*
X368649Y272570D01*
X368720Y272663D01*
X368781Y272756D01*
X368832Y272849D01*
X368875Y272942D01*
X368908Y273036D01*
X368931Y273130D01*
X368945Y273224D01*
X368950Y273318D01*
X369550D01*
X369555Y273224D01*
D02*
G37*
G36*
X361427Y273203D02*
X361364Y273133D01*
X361307Y273056D01*
X361258Y272973D01*
X361215Y272884D01*
X361178Y272788D01*
X361149Y272686D01*
X361127Y272577D01*
X361111Y272461D01*
X361102Y272339D01*
X361100Y272211D01*
X360011Y273300D01*
X360139Y273302D01*
X360261Y273311D01*
X360377Y273327D01*
X360486Y273349D01*
X360588Y273378D01*
X360684Y273415D01*
X360773Y273458D01*
X360856Y273507D01*
X360933Y273564D01*
X361003Y273627D01*
X361427Y273203D01*
D02*
G37*
G36*
X374228Y272281D02*
X374320Y272201D01*
X374413Y272130D01*
X374506Y272069D01*
X374599Y272018D01*
X374693Y271975D01*
X374786Y271942D01*
X374880Y271919D01*
X374974Y271905D01*
X375068Y271900D01*
Y271300D01*
X374974Y271295D01*
X374880Y271281D01*
X374786Y271258D01*
X374693Y271225D01*
X374599Y271182D01*
X374506Y271131D01*
X374413Y271070D01*
X374320Y270999D01*
X374228Y270919D01*
X374136Y270830D01*
Y272370D01*
X374228Y272281D01*
D02*
G37*
G36*
X351902Y271261D02*
X351911Y271139D01*
X351927Y271023D01*
X351949Y270914D01*
X351978Y270812D01*
X352015Y270716D01*
X352058Y270627D01*
X352107Y270544D01*
X352164Y270467D01*
X352227Y270397D01*
X351803Y269973D01*
X351733Y270036D01*
X351656Y270093D01*
X351573Y270143D01*
X351484Y270185D01*
X351388Y270221D01*
X351286Y270251D01*
X351177Y270273D01*
X351061Y270289D01*
X350939Y270298D01*
X350811Y270300D01*
X351900Y271389D01*
X351902Y271261D01*
D02*
G37*
G36*
X348927Y266503D02*
X348864Y266433D01*
X348807Y266356D01*
X348758Y266273D01*
X348715Y266184D01*
X348678Y266088D01*
X348649Y265986D01*
X348627Y265877D01*
X348611Y265761D01*
X348602Y265639D01*
X348600Y265511D01*
X347511Y266600D01*
X347639Y266602D01*
X347761Y266611D01*
X347877Y266627D01*
X347986Y266649D01*
X348088Y266679D01*
X348184Y266715D01*
X348273Y266757D01*
X348356Y266807D01*
X348433Y266864D01*
X348503Y266927D01*
X348927Y266503D01*
D02*
G37*
G36*
X340013Y263006D02*
X339934Y262923D01*
X339801Y262759D01*
X339747Y262679D01*
X339701Y262599D01*
X339664Y262520D01*
X339635Y262441D01*
X339615Y262364D01*
X339603Y262287D01*
X339600Y262211D01*
X338511Y263300D01*
X338587Y263303D01*
X338664Y263315D01*
X338741Y263335D01*
X338820Y263364D01*
X338899Y263401D01*
X338979Y263447D01*
X339059Y263501D01*
X339141Y263563D01*
X339223Y263634D01*
X339306Y263713D01*
X340013Y263006D01*
D02*
G37*
G36*
X370181Y262322D02*
X370101Y262230D01*
X370030Y262137D01*
X369969Y262044D01*
X369917Y261951D01*
X369875Y261858D01*
X369842Y261764D01*
X369819Y261670D01*
X369805Y261576D01*
X369800Y261482D01*
X369200D01*
X369195Y261576D01*
X369181Y261670D01*
X369158Y261764D01*
X369125Y261858D01*
X369082Y261951D01*
X369031Y262044D01*
X368970Y262137D01*
X368899Y262230D01*
X368819Y262322D01*
X368730Y262414D01*
X370270D01*
X370181Y262322D01*
D02*
G37*
G36*
X389800Y262140D02*
X389737Y262062D01*
X389681Y261981D01*
X389633Y261896D01*
X389593Y261808D01*
X389559Y261717D01*
X389533Y261621D01*
X389515Y261523D01*
X389504Y261421D01*
X389500Y261315D01*
X388700D01*
X388696Y261421D01*
X388685Y261523D01*
X388667Y261621D01*
X388641Y261717D01*
X388608Y261808D01*
X388567Y261896D01*
X388519Y261981D01*
X388463Y262062D01*
X388400Y262140D01*
X388330Y262214D01*
X389870D01*
X389800Y262140D01*
D02*
G37*
G36*
X379681Y262122D02*
X379601Y262030D01*
X379530Y261937D01*
X379469Y261844D01*
X379417Y261751D01*
X379375Y261658D01*
X379342Y261564D01*
X379319Y261470D01*
X379305Y261376D01*
X379300Y261282D01*
X378700D01*
X378695Y261376D01*
X378681Y261470D01*
X378658Y261564D01*
X378625Y261658D01*
X378583Y261751D01*
X378531Y261844D01*
X378470Y261937D01*
X378399Y262030D01*
X378319Y262122D01*
X378230Y262214D01*
X379770D01*
X379681Y262122D01*
D02*
G37*
G36*
X374931D02*
X374851Y262030D01*
X374780Y261937D01*
X374719Y261844D01*
X374668Y261751D01*
X374625Y261658D01*
X374592Y261564D01*
X374569Y261470D01*
X374555Y261376D01*
X374550Y261282D01*
X373950D01*
X373945Y261376D01*
X373931Y261470D01*
X373908Y261564D01*
X373875Y261658D01*
X373833Y261751D01*
X373781Y261844D01*
X373720Y261937D01*
X373649Y262030D01*
X373569Y262122D01*
X373480Y262214D01*
X375020D01*
X374931Y262122D01*
D02*
G37*
G36*
X392411Y259440D02*
X392349Y259362D01*
X392293Y259281D01*
X392245Y259196D01*
X392204Y259108D01*
X392171Y259017D01*
X392145Y258922D01*
X392127Y258823D01*
X392115Y258721D01*
X392112Y258615D01*
X391312D01*
X391308Y258721D01*
X391297Y258823D01*
X391279Y258922D01*
X391253Y259017D01*
X391219Y259108D01*
X391179Y259196D01*
X391130Y259281D01*
X391075Y259362D01*
X391012Y259440D01*
X390942Y259514D01*
X392482D01*
X392411Y259440D01*
D02*
G37*
G36*
X387200D02*
X387137Y259362D01*
X387081Y259281D01*
X387033Y259196D01*
X386993Y259108D01*
X386959Y259017D01*
X386933Y258922D01*
X386915Y258823D01*
X386904Y258721D01*
X386900Y258615D01*
X386100D01*
X386096Y258721D01*
X386085Y258823D01*
X386067Y258922D01*
X386041Y259017D01*
X386007Y259108D01*
X385967Y259196D01*
X385919Y259281D01*
X385863Y259362D01*
X385800Y259440D01*
X385730Y259514D01*
X387270D01*
X387200Y259440D01*
D02*
G37*
G36*
X377306Y259422D02*
X377226Y259330D01*
X377155Y259237D01*
X377094Y259144D01*
X377043Y259051D01*
X377000Y258958D01*
X376967Y258864D01*
X376944Y258770D01*
X376930Y258676D01*
X376925Y258582D01*
X376325D01*
X376320Y258676D01*
X376306Y258770D01*
X376283Y258864D01*
X376250Y258958D01*
X376207Y259051D01*
X376156Y259144D01*
X376095Y259237D01*
X376024Y259330D01*
X375944Y259422D01*
X375855Y259514D01*
X377395D01*
X377306Y259422D01*
D02*
G37*
G36*
X372556D02*
X372476Y259330D01*
X372405Y259237D01*
X372344Y259144D01*
X372292Y259051D01*
X372250Y258958D01*
X372217Y258864D01*
X372194Y258770D01*
X372180Y258676D01*
X372175Y258582D01*
X371575D01*
X371570Y258676D01*
X371556Y258770D01*
X371533Y258864D01*
X371500Y258958D01*
X371458Y259051D01*
X371406Y259144D01*
X371345Y259237D01*
X371274Y259330D01*
X371194Y259422D01*
X371105Y259514D01*
X372645D01*
X372556Y259422D01*
D02*
G37*
G36*
X380895Y259134D02*
X380909Y259039D01*
X380933Y258946D01*
X380966Y258852D01*
X381008Y258759D01*
X381060Y258665D01*
X381121Y258573D01*
X381191Y258480D01*
X381271Y258387D01*
X381360Y258295D01*
X379820D01*
X379910Y258387D01*
X379990Y258480D01*
X380060Y258573D01*
X380121Y258665D01*
X380173Y258759D01*
X380215Y258852D01*
X380248Y258946D01*
X380272Y259039D01*
X380286Y259134D01*
X380290Y259228D01*
X380890D01*
X380895Y259134D01*
D02*
G37*
G36*
X345678Y256981D02*
X345770Y256901D01*
X345863Y256830D01*
X345956Y256769D01*
X346049Y256717D01*
X346143Y256675D01*
X346236Y256642D01*
X346330Y256619D01*
X346424Y256605D01*
X346518Y256600D01*
Y256000D01*
X346424Y255995D01*
X346330Y255981D01*
X346236Y255958D01*
X346143Y255925D01*
X346049Y255883D01*
X345956Y255831D01*
X345863Y255770D01*
X345770Y255699D01*
X345678Y255619D01*
X345586Y255530D01*
Y257070D01*
X345678Y256981D01*
D02*
G37*
G36*
X347727Y254403D02*
X347664Y254333D01*
X347607Y254256D01*
X347557Y254173D01*
X347515Y254084D01*
X347479Y253988D01*
X347449Y253886D01*
X347427Y253777D01*
X347411Y253661D01*
X347402Y253539D01*
X347400Y253411D01*
X346311Y254500D01*
X346439Y254502D01*
X346561Y254511D01*
X346677Y254527D01*
X346786Y254549D01*
X346888Y254578D01*
X346984Y254615D01*
X347073Y254658D01*
X347156Y254707D01*
X347233Y254764D01*
X347303Y254827D01*
X347727Y254403D01*
D02*
G37*
G36*
X382714Y245230D02*
X382622Y245319D01*
X382530Y245399D01*
X382437Y245470D01*
X382344Y245531D01*
X382251Y245583D01*
X382157Y245625D01*
X382064Y245658D01*
X381970Y245681D01*
X381876Y245695D01*
X381782Y245700D01*
Y246300D01*
X381876Y246305D01*
X381970Y246319D01*
X382064Y246342D01*
X382157Y246375D01*
X382251Y246417D01*
X382344Y246469D01*
X382437Y246530D01*
X382530Y246601D01*
X382622Y246681D01*
X382714Y246770D01*
Y245230D01*
D02*
G37*
G36*
X389504Y241579D02*
X389515Y241477D01*
X389533Y241378D01*
X389559Y241283D01*
X389593Y241192D01*
X389633Y241104D01*
X389681Y241019D01*
X389737Y240938D01*
X389800Y240860D01*
X389870Y240786D01*
X388330D01*
X388400Y240860D01*
X388463Y240938D01*
X388519Y241019D01*
X388567Y241104D01*
X388608Y241192D01*
X388641Y241283D01*
X388667Y241378D01*
X388685Y241477D01*
X388696Y241579D01*
X388700Y241685D01*
X389500D01*
X389504Y241579D01*
D02*
G37*
G36*
X386904Y239202D02*
X386915Y239100D01*
X386933Y239001D01*
X386959Y238906D01*
X386993Y238814D01*
X387033Y238726D01*
X387081Y238642D01*
X387137Y238560D01*
X387200Y238483D01*
X387270Y238408D01*
X385730D01*
X385800Y238483D01*
X385863Y238560D01*
X385919Y238642D01*
X385967Y238726D01*
X386007Y238814D01*
X386041Y238906D01*
X386067Y239001D01*
X386085Y239100D01*
X386096Y239202D01*
X386100Y239307D01*
X386900D01*
X386904Y239202D01*
D02*
G37*
G36*
X412014Y237450D02*
X411922Y237539D01*
X411830Y237619D01*
X411737Y237689D01*
X411644Y237750D01*
X411551Y237802D01*
X411457Y237844D01*
X411364Y237877D01*
X411270Y237901D01*
X411176Y237915D01*
X411082Y237919D01*
Y238520D01*
X411176Y238524D01*
X411270Y238538D01*
X411364Y238562D01*
X411457Y238595D01*
X411551Y238637D01*
X411644Y238689D01*
X411737Y238750D01*
X411830Y238820D01*
X411922Y238900D01*
X412014Y238989D01*
Y237450D01*
D02*
G37*
G36*
X346542Y237119D02*
X346604Y237073D01*
X346674Y237032D01*
X346749Y236997D01*
X346831Y236967D01*
X346920Y236943D01*
X347015Y236924D01*
X347117Y236911D01*
X347225Y236903D01*
X347340Y236900D01*
Y235900D01*
X347225Y235897D01*
X347015Y235876D01*
X346920Y235857D01*
X346831Y235833D01*
X346749Y235803D01*
X346674Y235768D01*
X346604Y235727D01*
X346542Y235681D01*
X346486Y235630D01*
Y237170D01*
X346542Y237119D01*
D02*
G37*
G36*
X366014Y234830D02*
X365958Y234881D01*
X365896Y234927D01*
X365826Y234968D01*
X365751Y235003D01*
X365669Y235033D01*
X365580Y235057D01*
X365485Y235076D01*
X365383Y235089D01*
X365275Y235097D01*
X365160Y235100D01*
Y236100D01*
X365275Y236103D01*
X365485Y236124D01*
X365580Y236143D01*
X365669Y236168D01*
X365751Y236197D01*
X365826Y236232D01*
X365896Y236273D01*
X365958Y236319D01*
X366014Y236370D01*
Y234830D01*
D02*
G37*
G36*
X413714Y234230D02*
X413622Y234319D01*
X413530Y234399D01*
X413437Y234470D01*
X413344Y234531D01*
X413251Y234582D01*
X413158Y234625D01*
X413064Y234658D01*
X412970Y234681D01*
X412876Y234695D01*
X412782Y234700D01*
Y235300D01*
X412876Y235305D01*
X412970Y235319D01*
X413064Y235342D01*
X413158Y235375D01*
X413251Y235418D01*
X413344Y235469D01*
X413437Y235530D01*
X413530Y235601D01*
X413622Y235681D01*
X413714Y235770D01*
Y234230D01*
D02*
G37*
G36*
X399323Y235681D02*
X399415Y235601D01*
X399508Y235530D01*
X399601Y235469D01*
X399694Y235418D01*
X399787Y235375D01*
X399881Y235342D01*
X399975Y235319D01*
X400069Y235305D01*
X400163Y235300D01*
Y234700D01*
X400069Y234695D01*
X399975Y234681D01*
X399881Y234658D01*
X399787Y234625D01*
X399694Y234582D01*
X399601Y234531D01*
X399508Y234470D01*
X399415Y234399D01*
X399323Y234319D01*
X399231Y234230D01*
Y235770D01*
X399323Y235681D01*
D02*
G37*
G36*
X376305Y233124D02*
X376319Y233030D01*
X376342Y232936D01*
X376375Y232842D01*
X376417Y232749D01*
X376469Y232656D01*
X376530Y232563D01*
X376601Y232470D01*
X376681Y232378D01*
X376770Y232286D01*
X375230D01*
X375319Y232378D01*
X375399Y232470D01*
X375470Y232563D01*
X375531Y232656D01*
X375583Y232749D01*
X375625Y232842D01*
X375658Y232936D01*
X375681Y233030D01*
X375695Y233124D01*
X375700Y233218D01*
X376300D01*
X376305Y233124D01*
D02*
G37*
G36*
X411214Y231730D02*
X411122Y231819D01*
X411030Y231899D01*
X410937Y231970D01*
X410844Y232031D01*
X410751Y232083D01*
X410658Y232125D01*
X410564Y232158D01*
X410470Y232181D01*
X410376Y232195D01*
X410282Y232200D01*
Y232800D01*
X410376Y232805D01*
X410470Y232819D01*
X410564Y232842D01*
X410658Y232875D01*
X410751Y232917D01*
X410844Y232969D01*
X410937Y233030D01*
X411030Y233101D01*
X411122Y233181D01*
X411214Y233270D01*
Y231730D01*
D02*
G37*
G36*
X401678Y233181D02*
X401770Y233101D01*
X401863Y233030D01*
X401956Y232969D01*
X402049Y232917D01*
X402142Y232875D01*
X402236Y232842D01*
X402330Y232819D01*
X402424Y232805D01*
X402518Y232800D01*
Y232200D01*
X402424Y232195D01*
X402330Y232181D01*
X402236Y232158D01*
X402142Y232125D01*
X402049Y232083D01*
X401956Y232031D01*
X401863Y231970D01*
X401770Y231899D01*
X401678Y231819D01*
X401586Y231730D01*
Y233270D01*
X401678Y233181D01*
D02*
G37*
G36*
X363802Y231949D02*
X363811Y231827D01*
X363827Y231712D01*
X363849Y231603D01*
X363878Y231500D01*
X363915Y231404D01*
X363958Y231315D01*
X364007Y231232D01*
X364064Y231155D01*
X364127Y231085D01*
X363703Y230661D01*
X363633Y230724D01*
X363556Y230781D01*
X363473Y230831D01*
X363384Y230874D01*
X363288Y230910D01*
X363186Y230939D01*
X363077Y230961D01*
X362961Y230977D01*
X362839Y230986D01*
X362711Y230988D01*
X363800Y232077D01*
X363802Y231949D01*
D02*
G37*
G36*
X369705Y231024D02*
X369719Y230930D01*
X369742Y230836D01*
X369775Y230743D01*
X369817Y230649D01*
X369869Y230556D01*
X369930Y230463D01*
X370001Y230370D01*
X370081Y230278D01*
X370170Y230186D01*
X368630D01*
X368719Y230278D01*
X368799Y230370D01*
X368870Y230463D01*
X368931Y230556D01*
X368983Y230649D01*
X369025Y230743D01*
X369058Y230836D01*
X369081Y230930D01*
X369095Y231024D01*
X369100Y231118D01*
X369700D01*
X369705Y231024D01*
D02*
G37*
G36*
X413714Y229230D02*
X413622Y229319D01*
X413530Y229399D01*
X413437Y229470D01*
X413344Y229531D01*
X413251Y229583D01*
X413158Y229625D01*
X413064Y229658D01*
X412970Y229681D01*
X412876Y229695D01*
X412782Y229700D01*
Y230300D01*
X412876Y230305D01*
X412970Y230319D01*
X413064Y230342D01*
X413158Y230375D01*
X413251Y230417D01*
X413344Y230469D01*
X413437Y230530D01*
X413530Y230601D01*
X413622Y230681D01*
X413714Y230770D01*
Y229230D01*
D02*
G37*
G36*
X399323Y230681D02*
X399415Y230601D01*
X399508Y230530D01*
X399601Y230469D01*
X399694Y230417D01*
X399787Y230375D01*
X399881Y230342D01*
X399975Y230319D01*
X400069Y230305D01*
X400163Y230300D01*
Y229700D01*
X400069Y229695D01*
X399975Y229681D01*
X399881Y229658D01*
X399787Y229625D01*
X399694Y229583D01*
X399601Y229531D01*
X399508Y229470D01*
X399415Y229399D01*
X399323Y229319D01*
X399231Y229230D01*
Y230770D01*
X399323Y230681D01*
D02*
G37*
G36*
X361062Y229719D02*
X361125Y229673D01*
X361194Y229632D01*
X361270Y229597D01*
X361352Y229568D01*
X361440Y229543D01*
X361536Y229524D01*
X361637Y229511D01*
X361746Y229503D01*
X361860Y229500D01*
Y228500D01*
X361746Y228497D01*
X361536Y228476D01*
X361440Y228457D01*
X361352Y228432D01*
X361270Y228403D01*
X361194Y228368D01*
X361125Y228327D01*
X361062Y228281D01*
X361006Y228230D01*
Y229770D01*
X361062Y229719D01*
D02*
G37*
G36*
X377427Y228803D02*
X377364Y228733D01*
X377307Y228656D01*
X377257Y228573D01*
X377215Y228484D01*
X377179Y228388D01*
X377149Y228286D01*
X377127Y228177D01*
X377111Y228061D01*
X377102Y227939D01*
X377100Y227811D01*
X376011Y228900D01*
X376139Y228902D01*
X376261Y228911D01*
X376377Y228927D01*
X376486Y228949D01*
X376588Y228978D01*
X376684Y229015D01*
X376773Y229058D01*
X376856Y229107D01*
X376933Y229164D01*
X377003Y229227D01*
X377427Y228803D01*
D02*
G37*
G36*
X372305Y226624D02*
X372319Y226530D01*
X372342Y226436D01*
X372375Y226343D01*
X372417Y226249D01*
X372469Y226156D01*
X372530Y226063D01*
X372601Y225970D01*
X372681Y225878D01*
X372770Y225786D01*
X371230D01*
X371319Y225878D01*
X371399Y225970D01*
X371470Y226063D01*
X371531Y226156D01*
X371583Y226249D01*
X371625Y226343D01*
X371658Y226436D01*
X371681Y226530D01*
X371695Y226624D01*
X371700Y226718D01*
X372300D01*
X372305Y226624D01*
D02*
G37*
G36*
X377427Y225103D02*
X377364Y225033D01*
X377307Y224956D01*
X377257Y224873D01*
X377215Y224784D01*
X377179Y224688D01*
X377149Y224586D01*
X377127Y224477D01*
X377111Y224361D01*
X377102Y224239D01*
X377100Y224111D01*
X376011Y225200D01*
X376139Y225202D01*
X376261Y225211D01*
X376377Y225227D01*
X376486Y225249D01*
X376588Y225278D01*
X376684Y225315D01*
X376773Y225358D01*
X376856Y225407D01*
X376933Y225464D01*
X377003Y225527D01*
X377427Y225103D01*
D02*
G37*
G36*
X392705Y224824D02*
X392719Y224730D01*
X392742Y224636D01*
X392775Y224542D01*
X392817Y224449D01*
X392869Y224356D01*
X392930Y224263D01*
X393001Y224170D01*
X393081Y224078D01*
X393170Y223986D01*
X391630D01*
X391719Y224078D01*
X391799Y224170D01*
X391870Y224263D01*
X391931Y224356D01*
X391983Y224449D01*
X392025Y224542D01*
X392058Y224636D01*
X392081Y224730D01*
X392095Y224824D01*
X392100Y224918D01*
X392700D01*
X392705Y224824D01*
D02*
G37*
G36*
X371460Y222200D02*
X371538Y222137D01*
X371619Y222081D01*
X371704Y222033D01*
X371792Y221992D01*
X371883Y221959D01*
X371978Y221933D01*
X372077Y221915D01*
X372179Y221904D01*
X372285Y221900D01*
Y221100D01*
X372179Y221096D01*
X372077Y221085D01*
X371978Y221067D01*
X371883Y221041D01*
X371792Y221007D01*
X371704Y220967D01*
X371619Y220919D01*
X371538Y220863D01*
X371460Y220800D01*
X371386Y220730D01*
Y222270D01*
X371460Y222200D01*
D02*
G37*
G36*
X372360Y219000D02*
X372438Y218937D01*
X372519Y218881D01*
X372604Y218833D01*
X372692Y218793D01*
X372783Y218759D01*
X372879Y218733D01*
X372977Y218715D01*
X373079Y218704D01*
X373185Y218700D01*
Y217900D01*
X373079Y217896D01*
X372977Y217885D01*
X372879Y217867D01*
X372783Y217841D01*
X372692Y217808D01*
X372604Y217767D01*
X372519Y217719D01*
X372438Y217663D01*
X372360Y217600D01*
X372286Y217530D01*
Y219070D01*
X372360Y219000D01*
D02*
G37*
G36*
X374098Y216061D02*
X374176Y215998D01*
X374257Y215943D01*
X374342Y215895D01*
X374430Y215854D01*
X374522Y215821D01*
X374617Y215795D01*
X374716Y215776D01*
X374818Y215765D01*
X374923Y215761D01*
Y214961D01*
X374818Y214958D01*
X374716Y214947D01*
X374617Y214928D01*
X374522Y214902D01*
X374430Y214869D01*
X374342Y214828D01*
X374257Y214780D01*
X374176Y214725D01*
X374098Y214662D01*
X374024Y214591D01*
Y216131D01*
X374098Y216061D01*
D02*
G37*
G36*
X390881Y215614D02*
X390961Y215550D01*
X391043Y215493D01*
X391129Y215444D01*
X391217Y215403D01*
X391309Y215369D01*
X391403Y215343D01*
X391499Y215325D01*
X391599Y215315D01*
X391701Y215312D01*
X390612Y214223D01*
X390609Y214325D01*
X390599Y214424D01*
X390580Y214521D01*
X390554Y214615D01*
X390521Y214706D01*
X390480Y214795D01*
X390431Y214880D01*
X390374Y214963D01*
X390310Y215043D01*
X390238Y215120D01*
X390803Y215686D01*
X390881Y215614D01*
D02*
G37*
G36*
X409567Y215364D02*
X409644Y215307D01*
X409727Y215258D01*
X409816Y215215D01*
X409912Y215178D01*
X410014Y215149D01*
X410123Y215127D01*
X410239Y215111D01*
X410361Y215102D01*
X410489Y215100D01*
X409400Y214011D01*
X409398Y214139D01*
X409389Y214261D01*
X409373Y214377D01*
X409351Y214486D01*
X409321Y214588D01*
X409285Y214684D01*
X409242Y214773D01*
X409193Y214856D01*
X409136Y214933D01*
X409073Y215003D01*
X409497Y215427D01*
X409567Y215364D01*
D02*
G37*
G36*
X406714Y212230D02*
X406622Y212319D01*
X406530Y212399D01*
X406437Y212470D01*
X406344Y212531D01*
X406251Y212582D01*
X406157Y212625D01*
X406064Y212658D01*
X405970Y212681D01*
X405876Y212695D01*
X405782Y212700D01*
Y213300D01*
X405876Y213305D01*
X405970Y213319D01*
X406064Y213342D01*
X406157Y213375D01*
X406251Y213418D01*
X406344Y213469D01*
X406437Y213530D01*
X406530Y213601D01*
X406622Y213681D01*
X406714Y213770D01*
Y212230D01*
D02*
G37*
G36*
X479800Y213040D02*
X479737Y212962D01*
X479681Y212881D01*
X479633Y212796D01*
X479593Y212708D01*
X479559Y212617D01*
X479533Y212522D01*
X479515Y212423D01*
X479504Y212321D01*
X479500Y212215D01*
X478700D01*
X478696Y212321D01*
X478685Y212423D01*
X478667Y212522D01*
X478641Y212617D01*
X478608Y212708D01*
X478567Y212796D01*
X478519Y212881D01*
X478463Y212962D01*
X478400Y213040D01*
X478330Y213114D01*
X479870D01*
X479800Y213040D01*
D02*
G37*
G36*
X501469Y208502D02*
X501549Y208438D01*
X501632Y208381D01*
X501717Y208332D01*
X501806Y208291D01*
X501897Y208257D01*
X501991Y208231D01*
X502087Y208213D01*
X502187Y208203D01*
X502289Y208200D01*
X501200Y207111D01*
X501197Y207213D01*
X501187Y207313D01*
X501169Y207409D01*
X501143Y207503D01*
X501109Y207594D01*
X501068Y207683D01*
X501019Y207768D01*
X500962Y207851D01*
X500898Y207931D01*
X500826Y208008D01*
X501392Y208574D01*
X501469Y208502D01*
D02*
G37*
G36*
X478314Y206030D02*
X478240Y206100D01*
X478162Y206163D01*
X478081Y206219D01*
X477996Y206267D01*
X477908Y206308D01*
X477817Y206341D01*
X477722Y206367D01*
X477623Y206385D01*
X477521Y206396D01*
X477415Y206400D01*
Y207200D01*
X477521Y207204D01*
X477623Y207215D01*
X477722Y207233D01*
X477817Y207259D01*
X477908Y207293D01*
X477996Y207333D01*
X478081Y207381D01*
X478162Y207437D01*
X478240Y207500D01*
X478314Y207570D01*
Y206030D01*
D02*
G37*
G36*
X394567Y204864D02*
X394644Y204807D01*
X394727Y204757D01*
X394816Y204715D01*
X394912Y204679D01*
X395014Y204649D01*
X395123Y204627D01*
X395239Y204611D01*
X395361Y204602D01*
X395489Y204600D01*
X394400Y203511D01*
X394398Y203639D01*
X394389Y203761D01*
X394373Y203877D01*
X394351Y203986D01*
X394321Y204088D01*
X394285Y204184D01*
X394243Y204273D01*
X394193Y204356D01*
X394136Y204433D01*
X394073Y204503D01*
X394497Y204927D01*
X394567Y204864D01*
D02*
G37*
G36*
X422714Y200530D02*
X422658Y200581D01*
X422596Y200627D01*
X422526Y200668D01*
X422451Y200703D01*
X422369Y200732D01*
X422280Y200757D01*
X422185Y200776D01*
X422083Y200789D01*
X421975Y200797D01*
X421860Y200800D01*
Y201800D01*
X421975Y201803D01*
X422185Y201824D01*
X422280Y201843D01*
X422369Y201868D01*
X422451Y201897D01*
X422526Y201932D01*
X422596Y201973D01*
X422658Y202019D01*
X422714Y202070D01*
Y200530D01*
D02*
G37*
G36*
X397313Y200106D02*
X397234Y200023D01*
X397101Y199859D01*
X397047Y199779D01*
X397001Y199699D01*
X396964Y199620D01*
X396936Y199541D01*
X396915Y199464D01*
X396903Y199387D01*
X396900Y199311D01*
X395811Y200400D01*
X395887Y200403D01*
X395964Y200415D01*
X396041Y200435D01*
X396120Y200464D01*
X396199Y200501D01*
X396279Y200547D01*
X396359Y200601D01*
X396441Y200663D01*
X396523Y200734D01*
X396606Y200813D01*
X397313Y200106D01*
D02*
G37*
G36*
X395077Y200734D02*
X395241Y200601D01*
X395321Y200547D01*
X395401Y200501D01*
X395480Y200464D01*
X395559Y200435D01*
X395636Y200415D01*
X395713Y200403D01*
X395789Y200400D01*
X394700Y199311D01*
X394697Y199387D01*
X394685Y199464D01*
X394665Y199541D01*
X394636Y199620D01*
X394599Y199699D01*
X394553Y199779D01*
X394499Y199859D01*
X394437Y199941D01*
X394366Y200023D01*
X394287Y200106D01*
X394994Y200813D01*
X395077Y200734D01*
D02*
G37*
G36*
X471849Y154684D02*
X472085Y154505D01*
X472338Y154347D01*
X472607Y154211D01*
X472892Y154097D01*
X473194Y154004D01*
X473513Y153932D01*
X473847Y153882D01*
X474199Y153853D01*
X474567Y153846D01*
X471254Y150533D01*
X471247Y150901D01*
X471218Y151252D01*
X471168Y151587D01*
X471097Y151906D01*
X471003Y152208D01*
X470889Y152493D01*
X470753Y152762D01*
X470595Y153015D01*
X470416Y153251D01*
X470215Y153471D01*
X471629Y154885D01*
X471849Y154684D01*
D02*
G37*
%LPC*%
G36*
X532300Y397130D02*
X531481Y396967D01*
X531190Y396773D01*
X510921D01*
X510630Y396967D01*
X509811Y397130D01*
X508992Y396967D01*
X508297Y396503D01*
X507833Y395808D01*
X507670Y394989D01*
X507833Y394170D01*
X508297Y393475D01*
X508992Y393011D01*
X509811Y392848D01*
X510630Y393011D01*
X510921Y393205D01*
X531190D01*
X531481Y393011D01*
X532300Y392848D01*
X533119Y393011D01*
X533814Y393475D01*
X534278Y394170D01*
X534441Y394989D01*
X534278Y395808D01*
X533814Y396503D01*
X533119Y396967D01*
X532300Y397130D01*
D02*
G37*
G36*
X368600Y377741D02*
X367781Y377578D01*
X367491Y377384D01*
X348009D01*
X347719Y377578D01*
X346900Y377741D01*
X346081Y377578D01*
X345386Y377114D01*
X344922Y376419D01*
X344759Y375600D01*
X344922Y374781D01*
X345386Y374086D01*
X346081Y373622D01*
X346900Y373459D01*
X347719Y373622D01*
X348009Y373816D01*
X367491D01*
X367781Y373622D01*
X368600Y373459D01*
X369419Y373622D01*
X370114Y374086D01*
X370578Y374781D01*
X370741Y375600D01*
X370578Y376419D01*
X370114Y377114D01*
X369419Y377578D01*
X368600Y377741D01*
D02*
G37*
G36*
X478750Y362291D02*
X477931Y362128D01*
X477236Y361664D01*
X476772Y360969D01*
X476609Y360150D01*
X476629Y360048D01*
X476109Y359527D01*
X423400D01*
X423400Y359527D01*
X422854Y359419D01*
X422391Y359109D01*
X422391Y359109D01*
X416903Y353622D01*
X416181Y353478D01*
X415486Y353014D01*
X415022Y352319D01*
X414859Y351500D01*
X415022Y350681D01*
X415486Y349986D01*
X416181Y349522D01*
X417000Y349359D01*
X417819Y349522D01*
X418514Y349986D01*
X418625Y350152D01*
X419125D01*
X419236Y349986D01*
X419931Y349522D01*
X420750Y349359D01*
X421569Y349522D01*
X422264Y349986D01*
X422375Y350152D01*
X422875D01*
X422986Y349986D01*
X423681Y349522D01*
X424500Y349359D01*
X425319Y349522D01*
X426014Y349986D01*
X426478Y350681D01*
X426641Y351500D01*
X426621Y351602D01*
X427691Y352673D01*
X433689D01*
X433925Y352232D01*
X433783Y352019D01*
X433620Y351200D01*
X433783Y350381D01*
X433977Y350091D01*
Y309771D01*
X433783Y309481D01*
X433620Y308661D01*
X433783Y307842D01*
X433977Y307552D01*
Y298609D01*
X433783Y298319D01*
X433620Y297500D01*
X433783Y296681D01*
X433977Y296391D01*
Y227271D01*
X433783Y226981D01*
X433620Y226161D01*
X433783Y225342D01*
X434247Y224647D01*
X434942Y224183D01*
X435761Y224020D01*
X436581Y224183D01*
X437275Y224647D01*
X437740Y225342D01*
X437902Y226161D01*
X437740Y226981D01*
X437546Y227271D01*
Y294362D01*
X438046Y294629D01*
X438431Y294372D01*
X439250Y294209D01*
X440069Y294372D01*
X440764Y294836D01*
X441228Y295531D01*
X441391Y296350D01*
X441228Y297169D01*
X441034Y297460D01*
Y348141D01*
X441228Y348431D01*
X441391Y349250D01*
X441228Y350069D01*
X440764Y350764D01*
X440069Y351228D01*
X439250Y351391D01*
X438431Y351228D01*
X438371Y351188D01*
X437854Y351444D01*
X437740Y352019D01*
X437598Y352232D01*
X437833Y352673D01*
X471709D01*
X476091Y348291D01*
X476091Y348291D01*
X476554Y347981D01*
X477100Y347873D01*
X477100Y347873D01*
X480300D01*
X480300Y347873D01*
X480846Y347981D01*
X481309Y348291D01*
X487591Y354573D01*
X500409D01*
X501879Y353102D01*
X501859Y353000D01*
X502022Y352181D01*
X502486Y351486D01*
X503181Y351022D01*
X504000Y350859D01*
X504819Y351022D01*
X505514Y351486D01*
X505978Y352181D01*
X506141Y353000D01*
X505978Y353819D01*
X505514Y354514D01*
X504819Y354978D01*
X504000Y355141D01*
X503898Y355121D01*
X502009Y357009D01*
X501546Y357319D01*
X501000Y357427D01*
X501000Y357427D01*
X487000D01*
X487000Y357427D01*
X486454Y357319D01*
X485991Y357009D01*
X485991Y357009D01*
X481340Y352358D01*
X480797Y352523D01*
X480728Y352869D01*
X480264Y353564D01*
X479569Y354028D01*
X478750Y354191D01*
X478648Y354171D01*
X476631Y356188D01*
X476652Y356336D01*
X476828Y356698D01*
X477246Y356781D01*
X477709Y357091D01*
X478648Y358029D01*
X478750Y358009D01*
X479569Y358172D01*
X480264Y358636D01*
X480728Y359331D01*
X480891Y360150D01*
X480728Y360969D01*
X480264Y361664D01*
X479569Y362128D01*
X478750Y362291D01*
D02*
G37*
G36*
X415645Y322041D02*
X414825Y321878D01*
X414131Y321414D01*
X413666Y320719D01*
X413503Y319900D01*
X413666Y319081D01*
X414131Y318386D01*
X414319Y318260D01*
Y315936D01*
X413878Y315700D01*
X413792Y315758D01*
X412972Y315921D01*
X412153Y315758D01*
X411458Y315294D01*
X410994Y314599D01*
X410831Y313779D01*
X410994Y312960D01*
X411458Y312265D01*
X411647Y312140D01*
Y302624D01*
X411458Y302498D01*
X410994Y301804D01*
X410831Y300984D01*
X410994Y300165D01*
X411458Y299470D01*
X412153Y299006D01*
X412972Y298843D01*
X413792Y299006D01*
X414486Y299470D01*
X414950Y300165D01*
X415113Y300984D01*
X415093Y301088D01*
X415446Y301442D01*
X415645Y301402D01*
X416464Y301565D01*
X417159Y302029D01*
X417623Y302724D01*
X417786Y303543D01*
X417623Y304363D01*
X417159Y305057D01*
X416970Y305183D01*
Y318260D01*
X417159Y318386D01*
X417623Y319081D01*
X417786Y319900D01*
X417623Y320719D01*
X417159Y321414D01*
X416464Y321878D01*
X415645Y322041D01*
D02*
G37*
G36*
X423661Y318480D02*
X422842Y318317D01*
X422147Y317853D01*
X421683Y317158D01*
X421520Y316339D01*
X421683Y315519D01*
X422147Y314825D01*
X422336Y314699D01*
Y312940D01*
X421895Y312705D01*
X421808Y312762D01*
X420989Y312926D01*
X420170Y312762D01*
X419475Y312298D01*
X419011Y311604D01*
X418848Y310784D01*
X419011Y309965D01*
X419475Y309270D01*
X419664Y309144D01*
Y302624D01*
X419475Y302498D01*
X419011Y301804D01*
X418848Y300984D01*
X419011Y300165D01*
X419475Y299470D01*
X420170Y299006D01*
X420989Y298843D01*
X421808Y299006D01*
X422503Y299470D01*
X422967Y300165D01*
X423130Y300984D01*
X423110Y301088D01*
X423463Y301442D01*
X423661Y301402D01*
X424481Y301565D01*
X425175Y302029D01*
X425640Y302724D01*
X425803Y303543D01*
X425640Y304363D01*
X425175Y305057D01*
X424987Y305183D01*
Y314699D01*
X425175Y314825D01*
X425640Y315519D01*
X425803Y316339D01*
X425640Y317158D01*
X425175Y317853D01*
X424481Y318317D01*
X423661Y318480D01*
D02*
G37*
G36*
X458900Y319241D02*
X458081Y319078D01*
X457386Y318614D01*
X456922Y317919D01*
X456759Y317100D01*
X456922Y316281D01*
X457386Y315586D01*
X457473Y315528D01*
Y302636D01*
X456681Y302478D01*
X455986Y302014D01*
X455522Y301319D01*
X455359Y300500D01*
X455522Y299681D01*
X455986Y298986D01*
X456435Y298686D01*
X456589Y298101D01*
X456575Y298037D01*
X456494Y297927D01*
X449172D01*
X449114Y298014D01*
X448419Y298478D01*
X447600Y298641D01*
X446781Y298478D01*
X446086Y298014D01*
X445622Y297319D01*
X445459Y296500D01*
X445622Y295681D01*
X446086Y294986D01*
X446781Y294522D01*
X447600Y294359D01*
X448419Y294522D01*
X449114Y294986D01*
X449172Y295073D01*
X457500D01*
X457500Y295073D01*
X458046Y295181D01*
X458509Y295491D01*
X461609Y298591D01*
X461609Y298591D01*
X461919Y299054D01*
X462027Y299600D01*
X462027Y299600D01*
Y306864D01*
X462819Y307022D01*
X463514Y307486D01*
X463978Y308181D01*
X464141Y309000D01*
X463978Y309819D01*
X463514Y310514D01*
X462819Y310978D01*
X462000Y311141D01*
X461181Y310978D01*
X460827Y310742D01*
X460327Y311009D01*
Y315528D01*
X460414Y315586D01*
X460878Y316281D01*
X461041Y317100D01*
X460878Y317919D01*
X460414Y318614D01*
X459719Y319078D01*
X458900Y319241D01*
D02*
G37*
G36*
X469300Y311341D02*
X468481Y311178D01*
X467786Y310714D01*
X467322Y310019D01*
X467159Y309200D01*
X467261Y308687D01*
Y295013D01*
X467159Y294500D01*
X467322Y293681D01*
X467786Y292986D01*
X468481Y292522D01*
X469300Y292359D01*
X470119Y292522D01*
X470814Y292986D01*
X471278Y293681D01*
X471441Y294500D01*
X471339Y295013D01*
Y308687D01*
X471441Y309200D01*
X471278Y310019D01*
X470814Y310714D01*
X470119Y311178D01*
X469300Y311341D01*
D02*
G37*
G36*
X532300Y254870D02*
X531481Y254707D01*
X531190Y254513D01*
X524329D01*
X523646Y254377D01*
X523067Y253991D01*
X523067Y253991D01*
X516361Y247285D01*
X511909D01*
X511619Y247479D01*
X510800Y247641D01*
X509981Y247479D01*
X509286Y247014D01*
X508822Y246320D01*
X508659Y245500D01*
X508822Y244681D01*
X509286Y243986D01*
X509981Y243522D01*
X510800Y243359D01*
X511619Y243522D01*
X511909Y243716D01*
X517100D01*
X517783Y243852D01*
X518362Y244239D01*
X525068Y250945D01*
X531190D01*
X531481Y250751D01*
X532300Y250588D01*
X533119Y250751D01*
X533814Y251215D01*
X534278Y251910D01*
X534441Y252729D01*
X534278Y253548D01*
X533814Y254243D01*
X533119Y254707D01*
X532300Y254870D01*
D02*
G37*
G36*
X469300Y273641D02*
X468481Y273478D01*
X467786Y273014D01*
X467322Y272319D01*
X467159Y271500D01*
X467261Y270987D01*
Y249513D01*
X467159Y249000D01*
X467322Y248181D01*
X467786Y247486D01*
X468481Y247022D01*
X469300Y246859D01*
X470119Y247022D01*
X470814Y247486D01*
X471278Y248181D01*
X471441Y249000D01*
X471339Y249513D01*
Y270987D01*
X471441Y271500D01*
X471278Y272319D01*
X470814Y273014D01*
X470119Y273478D01*
X469300Y273641D01*
D02*
G37*
G36*
X458800Y236341D02*
X457981Y236178D01*
X457286Y235714D01*
X456822Y235019D01*
X456659Y234200D01*
X456822Y233381D01*
X457286Y232686D01*
X457373Y232628D01*
Y220116D01*
X456681Y219978D01*
X455986Y219514D01*
X455522Y218819D01*
X455359Y218000D01*
X455493Y217327D01*
X455202Y216827D01*
X447872D01*
X447814Y216914D01*
X447119Y217378D01*
X446300Y217541D01*
X445481Y217378D01*
X444786Y216914D01*
X444322Y216219D01*
X444159Y215400D01*
X444322Y214581D01*
X444786Y213886D01*
X445481Y213422D01*
X446300Y213259D01*
X447119Y213422D01*
X447814Y213886D01*
X447872Y213973D01*
X459000D01*
X459000Y213973D01*
X459546Y214081D01*
X460009Y214391D01*
X461509Y215891D01*
X461819Y216354D01*
X461927Y216900D01*
X461927Y216900D01*
Y223409D01*
X462398Y223879D01*
X462500Y223859D01*
X463319Y224022D01*
X464014Y224486D01*
X464478Y225181D01*
X464641Y226000D01*
X464478Y226819D01*
X464014Y227514D01*
X463319Y227978D01*
X462500Y228141D01*
X461681Y227978D01*
X460986Y227514D01*
X460727Y227127D01*
X460227Y227279D01*
Y232628D01*
X460314Y232686D01*
X460778Y233381D01*
X460941Y234200D01*
X460778Y235019D01*
X460314Y235714D01*
X459619Y236178D01*
X458800Y236341D01*
D02*
G37*
G36*
X491300Y240741D02*
X490481Y240578D01*
X489786Y240114D01*
X489322Y239419D01*
X489159Y238600D01*
X489322Y237780D01*
X489771Y237109D01*
Y228300D01*
X489887Y227715D01*
X490218Y227219D01*
X501964Y215473D01*
X502122Y214681D01*
X502586Y213986D01*
X503281Y213522D01*
X504100Y213359D01*
X504919Y213522D01*
X505614Y213986D01*
X506078Y214681D01*
X506241Y215500D01*
X506078Y216319D01*
X505614Y217014D01*
X504919Y217478D01*
X504127Y217636D01*
X492829Y228934D01*
Y237109D01*
X493278Y237780D01*
X493441Y238600D01*
X493278Y239419D01*
X492814Y240114D01*
X492119Y240578D01*
X491300Y240741D01*
D02*
G37*
G36*
X383300Y202141D02*
X382481Y201978D01*
X381900Y201590D01*
X381319Y201978D01*
X380500Y202141D01*
X379681Y201978D01*
X378986Y201514D01*
X378522Y200819D01*
X378359Y200000D01*
X378522Y199181D01*
X378986Y198486D01*
X379681Y198022D01*
X379975Y197963D01*
Y193703D01*
X380075Y193196D01*
X380363Y192766D01*
X385266Y187863D01*
X385696Y187575D01*
X386203Y187475D01*
X393651D01*
X397274Y183851D01*
Y183337D01*
X396981Y183278D01*
X396286Y182814D01*
X395822Y182119D01*
X395659Y181300D01*
X395822Y180481D01*
X396286Y179786D01*
X396981Y179322D01*
X397800Y179159D01*
X398619Y179322D01*
X399200Y179710D01*
X399781Y179322D01*
X400600Y179159D01*
X401419Y179322D01*
X402114Y179786D01*
X402578Y180481D01*
X402741Y181300D01*
X402578Y182119D01*
X402114Y182814D01*
X401419Y183278D01*
X401125Y183337D01*
Y184897D01*
X401025Y185404D01*
X400737Y185834D01*
X395634Y190937D01*
X395204Y191225D01*
X394697Y191325D01*
X387249D01*
X383825Y194749D01*
Y197963D01*
X384119Y198022D01*
X384814Y198486D01*
X385278Y199181D01*
X385441Y200000D01*
X385278Y200819D01*
X384814Y201514D01*
X384119Y201978D01*
X383300Y202141D01*
D02*
G37*
G36*
X590600Y419900D02*
X582600Y411900D01*
X582600Y171200D01*
X589600Y164200D01*
X624800Y164200D01*
X651829Y191229D01*
X655966Y187092D01*
Y177500D01*
X656102Y175774D01*
X656506Y174090D01*
X657169Y172491D01*
X658073Y171014D01*
X659198Y169698D01*
X660514Y168573D01*
X661991Y167669D01*
X663590Y167006D01*
X665274Y166602D01*
X667000Y166466D01*
X668726Y166602D01*
X670410Y167006D01*
X672009Y167669D01*
X673486Y168573D01*
X674802Y169698D01*
X675927Y171014D01*
X676831Y172491D01*
X677494Y174090D01*
X677898Y175774D01*
X678034Y177500D01*
Y182692D01*
X680014Y184672D01*
X680362Y184325D01*
X688735Y192699D01*
X681197Y200237D01*
X680601Y199641D01*
X676684Y203557D01*
X677280Y204154D01*
X671017Y210417D01*
X675727Y215127D01*
X681991Y208864D01*
X682992Y209866D01*
X686909Y205949D01*
X685907Y204948D01*
X693446Y197409D01*
X701820Y205783D01*
X699240Y208362D01*
X699432Y208824D01*
X710000D01*
X711701Y208958D01*
X713361Y209356D01*
X714938Y210009D01*
X716393Y210901D01*
X717691Y212010D01*
X718799Y213307D01*
X719691Y214762D01*
X720344Y216339D01*
X720742Y217999D01*
X720876Y219700D01*
X720742Y221401D01*
X720344Y223061D01*
X719691Y224638D01*
X718799Y226093D01*
X717691Y227391D01*
X716393Y228499D01*
X714938Y229391D01*
X713361Y230044D01*
X711701Y230442D01*
X710000Y230576D01*
X708166D01*
X699671Y239071D01*
X711600Y251000D01*
X711600Y413600D01*
X705300Y419900D01*
X590600Y419900D01*
D02*
G37*
G36*
X361600Y208741D02*
X360781Y208578D01*
X360086Y208114D01*
X359622Y207419D01*
X359459Y206600D01*
X359622Y205781D01*
X360071Y205109D01*
Y203200D01*
X360187Y202615D01*
X360519Y202119D01*
X362719Y199919D01*
X363215Y199587D01*
X363800Y199471D01*
X365847D01*
X370164Y195153D01*
X370322Y194361D01*
X370786Y193667D01*
X371481Y193202D01*
X372300Y193039D01*
X373119Y193202D01*
X373814Y193667D01*
X374278Y194361D01*
X374441Y195180D01*
X374278Y196000D01*
X373814Y196695D01*
X373119Y197159D01*
X372327Y197316D01*
X367562Y202081D01*
X367066Y202413D01*
X366480Y202529D01*
X364434D01*
X363129Y203834D01*
Y205109D01*
X363578Y205781D01*
X363741Y206600D01*
X363578Y207419D01*
X363114Y208114D01*
X362419Y208578D01*
X361600Y208741D01*
D02*
G37*
G36*
X416208Y177187D02*
X415451Y177087D01*
X414745Y176795D01*
X414140Y176330D01*
X413675Y175724D01*
X413382Y175019D01*
X413283Y174262D01*
Y170842D01*
X412783Y170793D01*
X412725Y171083D01*
X412221Y171837D01*
X411467Y172341D01*
X410578Y172518D01*
X409689Y172341D01*
X408934Y171837D01*
X408431Y171083D01*
X408254Y170193D01*
X408431Y169304D01*
X408934Y168550D01*
X409689Y168046D01*
X410578Y167869D01*
X411467Y168046D01*
X412221Y168550D01*
X412725Y169304D01*
X412817Y169767D01*
X413324Y169750D01*
X413382Y169305D01*
X413675Y168599D01*
X414140Y167993D01*
X414745Y167529D01*
X415451Y167236D01*
X416208Y167137D01*
X416965Y167236D01*
X417670Y167529D01*
X418276Y167993D01*
X418741Y168599D01*
X419033Y169305D01*
X419133Y170062D01*
Y174262D01*
X419033Y175019D01*
X418741Y175724D01*
X418276Y176330D01*
X417670Y176795D01*
X416965Y177087D01*
X416208Y177187D01*
D02*
G37*
G36*
X382192Y177187D02*
X381435Y177087D01*
X380730Y176795D01*
X380124Y176330D01*
X379659Y175724D01*
X379367Y175019D01*
X379267Y174262D01*
Y170062D01*
X379367Y169305D01*
X379659Y168599D01*
X380124Y167993D01*
X380730Y167529D01*
X381435Y167236D01*
X382192Y167137D01*
X382949Y167236D01*
X383655Y167529D01*
X384260Y167993D01*
X384725Y168599D01*
X385017Y169305D01*
X385076Y169750D01*
X385583Y169767D01*
X385675Y169304D01*
X386179Y168550D01*
X386933Y168046D01*
X387822Y167869D01*
X388712Y168046D01*
X389465Y168550D01*
X389969Y169304D01*
X390146Y170193D01*
X389969Y171083D01*
X389465Y171837D01*
X388712Y172341D01*
X387822Y172518D01*
X386933Y172341D01*
X386179Y171837D01*
X385675Y171083D01*
X385617Y170793D01*
X385117Y170842D01*
Y174262D01*
X385017Y175019D01*
X384725Y175724D01*
X384260Y176330D01*
X383655Y176795D01*
X382949Y177087D01*
X382192Y177187D01*
D02*
G37*
%LPD*%
G36*
X531514Y394219D02*
X531504Y394223D01*
X531481Y394226D01*
X531445Y394229D01*
X531173Y394237D01*
X530835Y394239D01*
Y395739D01*
X531514Y395759D01*
Y394219D01*
D02*
G37*
G36*
X510607Y395755D02*
X510630Y395752D01*
X510666Y395749D01*
X510938Y395741D01*
X511276Y395739D01*
Y394239D01*
X510597Y394219D01*
Y395759D01*
X510607Y395755D01*
D02*
G37*
G36*
X367814Y374830D02*
X367804Y374834D01*
X367781Y374837D01*
X367745Y374840D01*
X367473Y374848D01*
X367135Y374850D01*
Y376350D01*
X367814Y376370D01*
Y374830D01*
D02*
G37*
G36*
X347696Y376366D02*
X347719Y376363D01*
X347755Y376360D01*
X348027Y376352D01*
X348365Y376350D01*
Y374850D01*
X347686Y374830D01*
Y376370D01*
X347696Y376366D01*
D02*
G37*
G36*
X478739Y359050D02*
X478637Y359047D01*
X478537Y359037D01*
X478441Y359019D01*
X478347Y358993D01*
X478256Y358959D01*
X478167Y358918D01*
X478082Y358869D01*
X477999Y358812D01*
X477919Y358748D01*
X477842Y358676D01*
X477276Y359242D01*
X477348Y359319D01*
X477412Y359399D01*
X477469Y359482D01*
X477518Y359567D01*
X477559Y359656D01*
X477593Y359747D01*
X477619Y359841D01*
X477637Y359937D01*
X477647Y360037D01*
X477650Y360139D01*
X478739Y359050D01*
D02*
G37*
G36*
X503169Y354402D02*
X503249Y354338D01*
X503332Y354281D01*
X503417Y354232D01*
X503506Y354191D01*
X503597Y354157D01*
X503691Y354131D01*
X503787Y354113D01*
X503887Y354103D01*
X503989Y354100D01*
X502900Y353011D01*
X502897Y353113D01*
X502887Y353213D01*
X502869Y353309D01*
X502843Y353403D01*
X502809Y353494D01*
X502768Y353583D01*
X502719Y353668D01*
X502662Y353751D01*
X502598Y353831D01*
X502526Y353908D01*
X503092Y354474D01*
X503169Y354402D01*
D02*
G37*
G36*
X477919Y353452D02*
X477999Y353388D01*
X478082Y353331D01*
X478167Y353282D01*
X478256Y353241D01*
X478347Y353207D01*
X478441Y353181D01*
X478537Y353163D01*
X478637Y353153D01*
X478739Y353150D01*
X477650Y352061D01*
X477647Y352163D01*
X477637Y352263D01*
X477619Y352359D01*
X477593Y352453D01*
X477559Y352544D01*
X477518Y352633D01*
X477469Y352718D01*
X477412Y352801D01*
X477348Y352881D01*
X477276Y352958D01*
X477842Y353524D01*
X477919Y353452D01*
D02*
G37*
G36*
X418406Y352540D02*
X418333Y352462D01*
X418269Y352381D01*
X418215Y352298D01*
X418170Y352213D01*
X418133Y352125D01*
X418106Y352035D01*
X418088Y351943D01*
X418080Y351848D01*
X418080Y351751D01*
X418089Y351652D01*
X416869Y352592D01*
X416972Y352608D01*
X417071Y352629D01*
X417168Y352657D01*
X417261Y352692D01*
X417352Y352732D01*
X417440Y352778D01*
X417524Y352831D01*
X417606Y352890D01*
X417685Y352955D01*
X417761Y353027D01*
X418406Y352540D01*
D02*
G37*
G36*
X425974Y352408D02*
X425902Y352331D01*
X425838Y352251D01*
X425781Y352168D01*
X425732Y352083D01*
X425691Y351994D01*
X425657Y351903D01*
X425631Y351809D01*
X425613Y351713D01*
X425603Y351613D01*
X425600Y351511D01*
X424511Y352600D01*
X424613Y352603D01*
X424713Y352613D01*
X424809Y352631D01*
X424903Y352657D01*
X424994Y352691D01*
X425083Y352732D01*
X425168Y352781D01*
X425251Y352838D01*
X425331Y352902D01*
X425408Y352974D01*
X425974Y352408D01*
D02*
G37*
G36*
X422224D02*
X422152Y352331D01*
X422088Y352251D01*
X422031Y352168D01*
X421982Y352083D01*
X421941Y351994D01*
X421907Y351903D01*
X421881Y351809D01*
X421863Y351713D01*
X421853Y351613D01*
X421850Y351511D01*
X420761Y352600D01*
X420863Y352603D01*
X420963Y352613D01*
X421059Y352631D01*
X421153Y352657D01*
X421244Y352691D01*
X421333Y352732D01*
X421418Y352781D01*
X421501Y352838D01*
X421581Y352902D01*
X421658Y352974D01*
X422224Y352408D01*
D02*
G37*
G36*
X436528Y350404D02*
X436524Y350381D01*
X436521Y350345D01*
X436513Y350073D01*
X436511Y349735D01*
X435011D01*
X434991Y350414D01*
X436531D01*
X436528Y350404D01*
D02*
G37*
G36*
X440016Y348454D02*
X440013Y348431D01*
X440010Y348395D01*
X440002Y348123D01*
X440000Y347785D01*
X438500D01*
X438480Y348464D01*
X440020D01*
X440016Y348454D01*
D02*
G37*
G36*
X436531Y309447D02*
X434991D01*
X434995Y309457D01*
X434999Y309480D01*
X435002Y309516D01*
X435010Y309788D01*
X435011Y310126D01*
X436511D01*
X436531Y309447D01*
D02*
G37*
G36*
X436528Y307866D02*
X436524Y307842D01*
X436521Y307806D01*
X436513Y307535D01*
X436511Y307197D01*
X435011D01*
X434991Y307876D01*
X436531D01*
X436528Y307866D01*
D02*
G37*
G36*
X436531Y298286D02*
X434991D01*
X434995Y298296D01*
X434999Y298319D01*
X435002Y298355D01*
X435010Y298627D01*
X435011Y298965D01*
X436511D01*
X436531Y298286D01*
D02*
G37*
G36*
X440020Y297136D02*
X438480D01*
X438484Y297146D01*
X438487Y297169D01*
X438490Y297205D01*
X438498Y297477D01*
X438500Y297815D01*
X440000D01*
X440020Y297136D01*
D02*
G37*
G36*
X436528Y296704D02*
X436524Y296681D01*
X436521Y296645D01*
X436513Y296373D01*
X436511Y296035D01*
X435011D01*
X434991Y296714D01*
X436531D01*
X436528Y296704D01*
D02*
G37*
G36*
X436531Y226947D02*
X434991D01*
X434995Y226957D01*
X434999Y226980D01*
X435002Y227016D01*
X435010Y227288D01*
X435011Y227626D01*
X436511D01*
X436531Y226947D01*
D02*
G37*
G36*
X416325Y319022D02*
X416245Y318930D01*
X416175Y318837D01*
X416114Y318744D01*
X416062Y318651D01*
X416020Y318558D01*
X415987Y318464D01*
X415963Y318370D01*
X415949Y318276D01*
X415945Y318182D01*
X415345D01*
X415340Y318276D01*
X415326Y318370D01*
X415302Y318464D01*
X415269Y318558D01*
X415227Y318651D01*
X415175Y318744D01*
X415114Y318837D01*
X415044Y318930D01*
X414964Y319022D01*
X414875Y319114D01*
X416415D01*
X416325Y319022D01*
D02*
G37*
G36*
X413653Y312902D02*
X413573Y312809D01*
X413503Y312717D01*
X413442Y312624D01*
X413390Y312530D01*
X413347Y312437D01*
X413315Y312343D01*
X413291Y312250D01*
X413277Y312156D01*
X413272Y312061D01*
X412672D01*
X412668Y312156D01*
X412653Y312250D01*
X412630Y312343D01*
X412597Y312437D01*
X412555Y312530D01*
X412503Y312624D01*
X412442Y312717D01*
X412371Y312809D01*
X412292Y312902D01*
X412202Y312994D01*
X413742D01*
X413653Y312902D01*
D02*
G37*
G36*
X415949Y305167D02*
X415963Y305073D01*
X415987Y304979D01*
X416020Y304886D01*
X416062Y304792D01*
X416114Y304699D01*
X416175Y304606D01*
X416245Y304514D01*
X416325Y304421D01*
X416415Y304329D01*
X414875D01*
X414964Y304421D01*
X415044Y304514D01*
X415114Y304606D01*
X415175Y304699D01*
X415227Y304792D01*
X415269Y304886D01*
X415302Y304979D01*
X415326Y305073D01*
X415340Y305167D01*
X415345Y305262D01*
X415945D01*
X415949Y305167D01*
D02*
G37*
G36*
X413277Y302608D02*
X413291Y302514D01*
X413315Y302420D01*
X413347Y302327D01*
X413390Y302233D01*
X413442Y302140D01*
X413503Y302047D01*
X413573Y301955D01*
X413653Y301862D01*
X413742Y301770D01*
X412202D01*
X412292Y301862D01*
X412371Y301955D01*
X412442Y302047D01*
X412503Y302140D01*
X412555Y302233D01*
X412597Y302327D01*
X412630Y302420D01*
X412653Y302514D01*
X412668Y302608D01*
X412672Y302702D01*
X413272D01*
X413277Y302608D01*
D02*
G37*
G36*
X424342Y315461D02*
X424262Y315368D01*
X424192Y315276D01*
X424131Y315183D01*
X424079Y315090D01*
X424037Y314996D01*
X424004Y314902D01*
X423980Y314809D01*
X423966Y314715D01*
X423961Y314620D01*
X423361D01*
X423357Y314715D01*
X423343Y314809D01*
X423319Y314902D01*
X423286Y314996D01*
X423244Y315090D01*
X423192Y315183D01*
X423131Y315276D01*
X423061Y315368D01*
X422981Y315461D01*
X422891Y315553D01*
X424431D01*
X424342Y315461D01*
D02*
G37*
G36*
X421670Y309907D02*
X421590Y309814D01*
X421519Y309721D01*
X421458Y309628D01*
X421407Y309535D01*
X421364Y309442D01*
X421331Y309348D01*
X421308Y309254D01*
X421294Y309160D01*
X421289Y309066D01*
X420689D01*
X420684Y309160D01*
X420670Y309254D01*
X420647Y309348D01*
X420614Y309442D01*
X420572Y309535D01*
X420520Y309628D01*
X420459Y309721D01*
X420388Y309814D01*
X420308Y309907D01*
X420219Y309999D01*
X421759D01*
X421670Y309907D01*
D02*
G37*
G36*
X423966Y305167D02*
X423980Y305073D01*
X424004Y304979D01*
X424037Y304886D01*
X424079Y304792D01*
X424131Y304699D01*
X424192Y304606D01*
X424262Y304514D01*
X424342Y304421D01*
X424431Y304329D01*
X422891D01*
X422981Y304421D01*
X423061Y304514D01*
X423131Y304606D01*
X423192Y304699D01*
X423244Y304792D01*
X423286Y304886D01*
X423319Y304979D01*
X423343Y305073D01*
X423357Y305167D01*
X423361Y305262D01*
X423961D01*
X423966Y305167D01*
D02*
G37*
G36*
X421294Y302608D02*
X421308Y302514D01*
X421331Y302420D01*
X421364Y302327D01*
X421407Y302233D01*
X421458Y302140D01*
X421519Y302047D01*
X421590Y301955D01*
X421670Y301862D01*
X421759Y301770D01*
X420219D01*
X420308Y301862D01*
X420388Y301955D01*
X420459Y302047D01*
X420520Y302140D01*
X420572Y302233D01*
X420614Y302327D01*
X420647Y302420D01*
X420670Y302514D01*
X420684Y302608D01*
X420689Y302702D01*
X421289D01*
X421294Y302608D01*
D02*
G37*
G36*
X459600Y316240D02*
X459537Y316162D01*
X459481Y316081D01*
X459433Y315997D01*
X459392Y315908D01*
X459359Y315817D01*
X459333Y315722D01*
X459315Y315623D01*
X459304Y315521D01*
X459300Y315415D01*
X458500D01*
X458496Y315521D01*
X458485Y315623D01*
X458467Y315722D01*
X458441Y315817D01*
X458407Y315908D01*
X458367Y315997D01*
X458319Y316081D01*
X458263Y316162D01*
X458200Y316240D01*
X458130Y316314D01*
X459670D01*
X459600Y316240D01*
D02*
G37*
G36*
X461989Y307900D02*
X461887Y307897D01*
X461787Y307887D01*
X461691Y307869D01*
X461597Y307843D01*
X461506Y307809D01*
X461417Y307768D01*
X461332Y307719D01*
X461249Y307662D01*
X461169Y307598D01*
X461092Y307526D01*
X460526Y308092D01*
X460598Y308169D01*
X460662Y308249D01*
X460719Y308332D01*
X460768Y308417D01*
X460809Y308506D01*
X460843Y308597D01*
X460869Y308691D01*
X460887Y308787D01*
X460897Y308887D01*
X460900Y308989D01*
X461989Y307900D01*
D02*
G37*
G36*
X458974Y301408D02*
X458902Y301331D01*
X458838Y301251D01*
X458781Y301168D01*
X458732Y301083D01*
X458691Y300994D01*
X458657Y300903D01*
X458631Y300809D01*
X458613Y300713D01*
X458603Y300613D01*
X458600Y300511D01*
X457511Y301600D01*
X457613Y301603D01*
X457713Y301613D01*
X457809Y301631D01*
X457903Y301657D01*
X457994Y301691D01*
X458083Y301732D01*
X458168Y301781D01*
X458251Y301838D01*
X458331Y301902D01*
X458408Y301974D01*
X458974Y301408D01*
D02*
G37*
G36*
X448460Y297200D02*
X448538Y297137D01*
X448619Y297081D01*
X448703Y297033D01*
X448792Y296992D01*
X448883Y296959D01*
X448979Y296933D01*
X449077Y296915D01*
X449179Y296904D01*
X449285Y296900D01*
Y296100D01*
X449179Y296096D01*
X449077Y296085D01*
X448979Y296067D01*
X448883Y296041D01*
X448792Y296007D01*
X448703Y295967D01*
X448619Y295919D01*
X448538Y295863D01*
X448460Y295800D01*
X448386Y295730D01*
Y297270D01*
X448460Y297200D01*
D02*
G37*
G36*
X531514Y251959D02*
X531504Y251963D01*
X531481Y251966D01*
X531445Y251969D01*
X531173Y251977D01*
X530835Y251979D01*
Y253479D01*
X531514Y253499D01*
Y251959D01*
D02*
G37*
G36*
X511596Y246267D02*
X511619Y246263D01*
X511655Y246260D01*
X511927Y246252D01*
X512265Y246250D01*
Y244750D01*
X511586Y244730D01*
Y246270D01*
X511596Y246267D01*
D02*
G37*
G36*
X459500Y233340D02*
X459437Y233262D01*
X459381Y233181D01*
X459333Y233097D01*
X459293Y233008D01*
X459259Y232917D01*
X459233Y232821D01*
X459215Y232723D01*
X459204Y232621D01*
X459200Y232515D01*
X458400D01*
X458396Y232621D01*
X458385Y232723D01*
X458367Y232821D01*
X458341Y232917D01*
X458308Y233008D01*
X458267Y233097D01*
X458219Y233181D01*
X458163Y233262D01*
X458100Y233340D01*
X458030Y233414D01*
X459570D01*
X459500Y233340D01*
D02*
G37*
G36*
X462489Y224900D02*
X462387Y224897D01*
X462287Y224887D01*
X462191Y224869D01*
X462097Y224843D01*
X462006Y224809D01*
X461917Y224768D01*
X461832Y224719D01*
X461749Y224662D01*
X461669Y224598D01*
X461592Y224526D01*
X461026Y225092D01*
X461098Y225169D01*
X461162Y225249D01*
X461219Y225332D01*
X461268Y225417D01*
X461309Y225506D01*
X461343Y225597D01*
X461369Y225691D01*
X461387Y225787D01*
X461397Y225887D01*
X461400Y225989D01*
X462489Y224900D01*
D02*
G37*
G36*
X458974Y218908D02*
X458902Y218831D01*
X458838Y218751D01*
X458781Y218668D01*
X458732Y218583D01*
X458691Y218494D01*
X458657Y218403D01*
X458631Y218309D01*
X458613Y218213D01*
X458603Y218113D01*
X458600Y218011D01*
X457511Y219100D01*
X457613Y219103D01*
X457713Y219113D01*
X457809Y219131D01*
X457903Y219157D01*
X457994Y219191D01*
X458083Y219232D01*
X458168Y219281D01*
X458251Y219338D01*
X458331Y219402D01*
X458408Y219474D01*
X458974Y218908D01*
D02*
G37*
G36*
X447160Y216100D02*
X447238Y216037D01*
X447319Y215981D01*
X447403Y215933D01*
X447492Y215893D01*
X447583Y215859D01*
X447679Y215833D01*
X447777Y215815D01*
X447879Y215804D01*
X447985Y215800D01*
Y215000D01*
X447879Y214996D01*
X447777Y214985D01*
X447679Y214967D01*
X447583Y214941D01*
X447492Y214908D01*
X447403Y214867D01*
X447319Y214819D01*
X447238Y214763D01*
X447160Y214700D01*
X447086Y214630D01*
Y216170D01*
X447160Y216100D01*
D02*
G37*
G36*
X492019Y237758D02*
X491973Y237696D01*
X491932Y237626D01*
X491897Y237551D01*
X491867Y237469D01*
X491843Y237380D01*
X491824Y237285D01*
X491811Y237183D01*
X491803Y237075D01*
X491800Y236960D01*
X490800D01*
X490797Y237075D01*
X490776Y237285D01*
X490757Y237380D01*
X490732Y237469D01*
X490703Y237551D01*
X490668Y237626D01*
X490627Y237696D01*
X490581Y237758D01*
X490530Y237814D01*
X492070D01*
X492019Y237758D01*
D02*
G37*
G36*
X503377Y216934D02*
X503541Y216801D01*
X503621Y216747D01*
X503701Y216701D01*
X503780Y216664D01*
X503859Y216635D01*
X503936Y216615D01*
X504013Y216603D01*
X504089Y216600D01*
X503000Y215511D01*
X502997Y215587D01*
X502985Y215664D01*
X502964Y215741D01*
X502936Y215820D01*
X502899Y215899D01*
X502853Y215979D01*
X502799Y216059D01*
X502737Y216141D01*
X502666Y216223D01*
X502587Y216306D01*
X503294Y217013D01*
X503377Y216934D01*
D02*
G37*
G36*
X362319Y205758D02*
X362273Y205696D01*
X362232Y205626D01*
X362197Y205551D01*
X362168Y205469D01*
X362143Y205380D01*
X362124Y205285D01*
X362111Y205183D01*
X362103Y205075D01*
X362100Y204960D01*
X361100D01*
X361097Y205075D01*
X361076Y205285D01*
X361057Y205380D01*
X361033Y205469D01*
X361003Y205551D01*
X360968Y205626D01*
X360927Y205696D01*
X360881Y205758D01*
X360830Y205814D01*
X362370D01*
X362319Y205758D01*
D02*
G37*
G36*
X371577Y196614D02*
X371741Y196481D01*
X371821Y196427D01*
X371901Y196382D01*
X371980Y196345D01*
X372059Y196316D01*
X372136Y196296D01*
X372213Y196284D01*
X372289Y196280D01*
X371200Y195192D01*
X371197Y195267D01*
X371185Y195344D01*
X371164Y195422D01*
X371136Y195500D01*
X371099Y195579D01*
X371053Y195659D01*
X370999Y195740D01*
X370937Y195821D01*
X370866Y195904D01*
X370787Y195986D01*
X371494Y196694D01*
X371577Y196614D01*
D02*
G37*
D13*
X384588Y321300D02*
Y333200D01*
X370812Y321300D02*
Y333200D01*
X360500Y234500D02*
X361600Y235600D01*
X350400Y234500D02*
X360500D01*
X348500Y236400D02*
X350400Y234500D01*
X361600Y235600D02*
X366800D01*
X345700Y236400D02*
X348500D01*
X370500Y210100D02*
X382100D01*
X365900Y214700D02*
X370500Y210100D01*
X365900Y214700D02*
Y226000D01*
X362900Y229000D02*
X365900Y226000D01*
X382100Y210100D02*
X388300Y203900D01*
X360220Y229000D02*
X362900D01*
X340800Y264500D02*
Y267500D01*
X338500Y262200D02*
X340800Y264500D01*
X336900Y277900D02*
X341600D01*
X388300Y203900D02*
X391200D01*
X395800Y199300D01*
X491300Y228300D02*
X504100Y215500D01*
X419200Y201300D02*
X423500D01*
X415500Y205000D02*
X419200Y201300D01*
X401500Y205000D02*
X415500D01*
X395800Y199300D02*
X401500Y205000D01*
X363800Y201000D02*
X366480D01*
X361600Y203200D02*
X363800Y201000D01*
X361600Y203200D02*
Y206600D01*
X366480Y201000D02*
X372300Y195180D01*
X516300Y238800D02*
X516300Y238800D01*
X430659Y289859D02*
X430700Y289900D01*
X496200Y238800D02*
X496300Y238900D01*
X491300Y228300D02*
Y238600D01*
X350500Y312000D02*
X354000Y308500D01*
X362900D01*
X370812Y316412D01*
Y321300D01*
X340800Y267500D02*
X342700Y269400D01*
Y276800D01*
X341600Y277900D02*
X342700Y276800D01*
D14*
X511100Y383700D02*
X511125Y383675D01*
X469300Y249000D02*
Y271500D01*
Y294500D02*
Y309200D01*
X366500Y162100D02*
X418300D01*
X354600Y174000D02*
X366500Y162100D01*
X339300Y174000D02*
X354600D01*
X335400Y177900D02*
X339300Y174000D01*
X424300Y156100D02*
X469000D01*
X418300Y162100D02*
X424300Y156100D01*
X335400Y177900D02*
Y264900D01*
X335500Y265000D01*
X347000Y282800D02*
Y288100D01*
X348632Y289732D01*
X352679D01*
X469000Y156100D02*
X474600Y150500D01*
X482900Y201300D02*
X488200Y206600D01*
X496200Y383700D02*
X496200Y383700D01*
X378269Y336732D02*
X380200Y334800D01*
Y310900D02*
Y334800D01*
X359032Y289732D02*
X380200Y310900D01*
X352679Y289732D02*
X359032D01*
X352679Y336732D02*
X378269D01*
Y342769D01*
X464500Y201300D02*
X482900D01*
X460900Y197700D02*
X464500Y201300D01*
D17*
X371700Y235800D02*
Y253100D01*
X369400Y233500D02*
X371700Y235800D01*
X369400Y229400D02*
Y233500D01*
X391400Y284200D02*
Y299900D01*
X389900Y285400D02*
Y300500D01*
X388500Y286300D02*
Y301200D01*
X387100Y287400D02*
Y301900D01*
X385600Y302600D02*
X400425Y317425D01*
X385600Y288256D02*
Y302600D01*
X384100Y289100D02*
Y303200D01*
X388500Y281300D02*
X391400Y284200D01*
X388500Y270800D02*
Y281300D01*
X376100Y271600D02*
X389900Y285400D01*
X377900Y275700D02*
X388500Y286300D01*
X377600Y277900D02*
X387100Y287400D01*
X373350Y271600D02*
X376100D01*
X375400Y275700D02*
X377900D01*
X373500Y277900D02*
X377600D01*
X376444Y279100D02*
X385600Y288256D01*
X371800Y279100D02*
X376444D01*
X371300Y275700D02*
X373500Y277900D01*
X369250Y276550D02*
X371800Y279100D01*
X375300Y280300D02*
X384100Y289100D01*
X382600Y289900D02*
Y303956D01*
X374200Y281500D02*
X382600Y289900D01*
Y303956D02*
X383244Y304600D01*
X381100Y290600D02*
Y304300D01*
X373200Y282700D02*
X381100Y290600D01*
Y304300D02*
X389700Y312900D01*
X379600Y291200D02*
Y305200D01*
X372400Y284000D02*
X379600Y291200D01*
Y305200D02*
X388100Y313700D01*
X388700Y226800D02*
X392100Y230200D01*
X388700Y221000D02*
Y226800D01*
X392100Y230200D02*
Y236100D01*
X390000Y225900D02*
X393500Y229400D01*
X390000Y221800D02*
Y225900D01*
X393500Y229400D02*
Y235600D01*
X392400Y226100D02*
X395100Y228800D01*
X392400Y223200D02*
Y226100D01*
X395100Y228800D02*
Y235400D01*
X388300Y269100D02*
X395500Y261900D01*
X353100Y269100D02*
X388300D01*
X350800Y271400D02*
X353100Y269100D01*
X387600Y267900D02*
X394200Y261300D01*
X349900Y267900D02*
X387600D01*
X347500Y265500D02*
X349900Y267900D01*
X380900Y266700D02*
X382990Y264610D01*
X360244Y266700D02*
X380900D01*
X349844Y256300D02*
X360244Y266700D01*
X398100Y239200D02*
Y263000D01*
X390000Y271100D02*
X398100Y263000D01*
X390000Y271100D02*
Y279100D01*
X396800Y237100D02*
Y262500D01*
X388500Y270800D02*
X396800Y262500D01*
X394200Y238200D02*
Y261300D01*
X395500Y237600D02*
Y261900D01*
X390000Y279100D02*
X392900Y282000D01*
X367500Y284000D02*
X372400D01*
X359300Y275800D02*
X367500Y284000D01*
X368300Y282700D02*
X373200D01*
X360200Y274600D02*
X368300Y282700D01*
X370000Y280300D02*
X375300D01*
X367200Y277500D02*
X370000Y280300D01*
X369300Y281500D02*
X374200D01*
X367200Y275700D02*
Y277500D01*
X369250Y271600D02*
Y276550D01*
X360000Y272200D02*
X369300Y281500D01*
X360600Y265500D02*
X379900D01*
X381300Y261600D02*
Y264100D01*
X379900Y265500D02*
X381300Y264100D01*
X371875Y255425D02*
X374200Y253100D01*
Y234100D02*
Y253100D01*
X372000Y231900D02*
X374200Y234100D01*
X369500Y255300D02*
X371700Y253100D01*
X369500Y255300D02*
Y263200D01*
X371875Y255425D02*
Y260300D01*
X377500Y243800D02*
Y254700D01*
X376625Y255575D02*
X377500Y254700D01*
X376625Y255575D02*
Y260300D01*
X378900Y245300D02*
Y255600D01*
X378200Y256300D02*
X378900Y255600D01*
X378200Y256300D02*
Y258800D01*
X374250Y255550D02*
X376000Y253800D01*
X378200Y258800D02*
X379000Y259600D01*
X374250Y255550D02*
Y263000D01*
X379000Y259600D02*
Y263000D01*
X380590Y257510D02*
Y260890D01*
X382990Y256090D02*
Y264610D01*
X380600Y253700D02*
X382990Y256090D01*
X354800Y275800D02*
X359300D01*
X372000Y225000D02*
Y231900D01*
X344800Y256300D02*
X349844D01*
X350300Y255200D02*
X360600Y265500D01*
X348100Y255200D02*
X350300D01*
X380000Y228100D02*
Y244200D01*
X378900Y245300D02*
X380000Y244200D01*
X378400Y230200D02*
Y242900D01*
X377500Y243800D02*
X378400Y242900D01*
X376000Y227800D02*
X378400Y230200D01*
X376000Y224100D02*
X380000Y228100D01*
X376000Y231500D02*
Y253800D01*
X381300Y193703D02*
Y199200D01*
X380500Y200000D02*
X381300Y199200D01*
X382500D02*
X383300Y200000D01*
X382500Y194200D02*
Y199200D01*
X371500Y211900D02*
X383000D01*
X367800Y215600D02*
X371500Y211900D01*
X367800Y215600D02*
Y226988D01*
X362700Y232088D02*
X367800Y226988D01*
X383000Y211900D02*
X389200Y205700D01*
X420989Y300984D02*
Y310784D01*
X423661Y303543D02*
Y316339D01*
X415645Y303543D02*
Y319900D01*
X412972Y300984D02*
Y313779D01*
X389200Y205700D02*
X393300D01*
X395500Y203500D01*
X408700Y215800D02*
X410500Y214000D01*
X358000Y274600D02*
X360200D01*
X386203Y188800D02*
X394200D01*
X381300Y193703D02*
X386203Y188800D01*
X386700Y190000D02*
X394697D01*
X382500Y194200D02*
X386700Y190000D01*
X394697D02*
X399800Y184897D01*
X394200Y188800D02*
X398600Y184400D01*
X399800Y182100D02*
Y184897D01*
Y182100D02*
X400600Y181300D01*
X398600Y182100D02*
Y184400D01*
X397800Y181300D02*
X398600Y182100D01*
X398445Y235000D02*
X414500D01*
X356750Y273350D02*
X358000Y274600D01*
X353500Y274500D02*
X354800Y275800D01*
X398445Y230000D02*
X414500D01*
X400800Y232500D02*
X412000D01*
X360585Y327200D02*
X363100Y324685D01*
X359788Y333200D02*
X364800Y328188D01*
X359788Y317288D02*
Y321300D01*
X355000Y312500D02*
X359788Y317288D01*
X362000Y312500D02*
X364800Y315300D01*
Y328188D01*
X358500Y312500D02*
X363100Y317100D01*
Y324685D01*
X389700Y312900D02*
Y324800D01*
X392100Y327200D01*
X394341D01*
X388100Y313700D02*
Y325688D01*
X395612Y333200D01*
X380590Y260890D02*
X381300Y261600D01*
X380600Y246800D02*
Y253700D01*
Y246800D02*
X381400Y246000D01*
X383500D01*
X346300Y253400D02*
X348100Y255200D01*
X399080Y238219D02*
X412800D01*
X383244Y304600D02*
X383275D01*
X391300Y312626D01*
Y316988D01*
X395612Y321300D01*
X390000Y221800D02*
X396000Y215800D01*
X408700D01*
X388700Y221000D02*
X396700Y213000D01*
X407500D01*
X395100Y235400D02*
X396800Y237100D01*
X393500Y235600D02*
X395500Y237600D01*
X392100Y236100D02*
X394200Y238200D01*
X398100Y239200D02*
X399080Y238219D01*
X400425Y317425D02*
Y346726D01*
X403800Y376500D02*
X405300Y375000D01*
X404000Y371200D02*
X405300Y372500D01*
Y375000D01*
X407268Y372368D02*
Y377168D01*
X405300Y370400D02*
X407268Y372368D01*
X402400Y350300D02*
Y373400D01*
X404000Y350700D02*
Y371200D01*
X405300Y351400D02*
Y370400D01*
X387100Y301900D02*
X402600Y317400D01*
Y348000D01*
X388500Y301200D02*
X403900Y316600D01*
Y348800D01*
X402400Y350300D02*
X403900Y348800D01*
X389900Y300500D02*
X405200Y315800D01*
Y349500D01*
X404000Y350700D02*
X405200Y349500D01*
X391400Y299900D02*
X406500Y315000D01*
Y350200D01*
X405300Y351400D02*
X406500Y350200D01*
X401200Y376100D02*
Y379900D01*
X400200Y350400D02*
X402600Y348000D01*
X400200Y350400D02*
Y375100D01*
X401200Y376100D01*
X384100Y303200D02*
X398900Y318000D01*
Y344400D01*
X397800Y345500D02*
X398900Y344400D01*
X397800Y375900D02*
Y380400D01*
Y375900D02*
X398800Y374900D01*
X397800Y345500D02*
Y349400D01*
X398800Y350400D01*
Y374900D01*
D18*
X509811Y394989D02*
X532300D01*
X510800Y245500D02*
X517100D01*
X524329Y252729D01*
X532300D01*
X435761Y308661D02*
Y351200D01*
Y226161D02*
Y297500D01*
Y308661D01*
X439250Y296350D02*
Y349250D01*
X346900Y375600D02*
X368600D01*
D19*
X333100Y153000D02*
G03*
X341100Y145000I8000J0D01*
G01*
X718600D02*
G03*
X726600Y153000I0J8000D01*
G01*
Y443700D02*
G03*
X718600Y451700I-8000J0D01*
G01*
X341100D02*
G03*
X333100Y443700I0J-8000D01*
G01*
Y153000D02*
Y443700D01*
X341100Y145000D02*
X718600D01*
X341100Y451700D02*
X718600D01*
X726600Y153000D02*
Y443700D01*
D20*
X359658Y281857D02*
X369855Y292055D01*
X376955D01*
X359221Y277921D02*
X367300Y286000D01*
X352679Y277921D02*
X359221D01*
X370600Y221500D02*
X380300D01*
X381200Y218300D02*
X390700Y208800D01*
X371500Y218300D02*
X381200D01*
X380300Y221500D02*
X391400Y210400D01*
X373239Y215361D02*
X381839D01*
X390000Y207200D01*
X347500Y299600D02*
Y316200D01*
X340900Y293000D02*
X347500Y299600D01*
X390000Y207200D02*
X416200D01*
X390700Y208800D02*
X417000D01*
X497500Y211900D02*
X502300Y207100D01*
X488400Y211900D02*
X497500D01*
X480600Y204100D02*
X488400Y211900D01*
X476900Y204100D02*
X480600D01*
X476200Y204800D02*
X476900Y204100D01*
X391712Y238912D02*
Y260300D01*
X385400Y232600D02*
X391712Y238912D01*
X385400Y220524D02*
Y232600D01*
Y220524D02*
X391712Y214212D01*
X391400Y210400D02*
X417719D01*
X418600Y204800D02*
X476200D01*
X416200Y207200D02*
X418600Y204800D01*
X419000Y206800D02*
X479100D01*
X417000Y208800D02*
X419000Y206800D01*
X417719Y210400D02*
X419319Y208800D01*
X476900D01*
X352679Y281857D02*
X359658D01*
X389100Y240000D02*
Y263000D01*
X386500Y237623D02*
Y260300D01*
X360605Y285794D02*
X376955Y302145D01*
X352679Y285794D02*
X360605D01*
X460500Y216900D02*
Y224000D01*
X459000Y215400D02*
X460500Y216900D01*
X446300Y215400D02*
X459000D01*
X460500Y224000D02*
X462500Y226000D01*
X457500Y218000D02*
X458800Y219300D01*
X460600Y307600D02*
X462000Y309000D01*
X460600Y299600D02*
Y307600D01*
X457500Y296500D02*
X460600Y299600D01*
X447600Y296500D02*
X457500D01*
X476700Y358100D02*
X478750Y360150D01*
X457500Y300500D02*
X458900Y301900D01*
Y317100D01*
X458800Y219300D02*
Y234200D01*
X476900Y208800D02*
X479100Y211000D01*
Y213900D01*
X423400Y358100D02*
X476700D01*
X424500Y351500D02*
X427100Y354100D01*
X420750Y351500D02*
X425350Y356100D01*
X417000Y351700D02*
X423400Y358100D01*
X417000Y351500D02*
Y351700D01*
X338500Y338800D02*
X348242Y348542D01*
X352679D01*
X349257Y328857D02*
X352679D01*
X338500Y332300D02*
Y338800D01*
X338100Y342500D02*
X348079Y352480D01*
X352679D01*
X343200Y321800D02*
Y339900D01*
X347905Y344605D01*
X352679D01*
X348495Y332794D02*
X352679D01*
X345700Y330000D02*
X348495Y332794D01*
X343200Y311800D02*
Y317800D01*
X345700Y320300D01*
Y330000D01*
X347300Y326900D02*
X349257Y328857D01*
X345000Y301300D02*
Y309619D01*
X345700Y310319D01*
Y317400D01*
X347300Y319000D01*
Y326900D01*
X347500Y316200D02*
X348900Y317600D01*
Y323300D01*
X350520Y324921D01*
X352679D01*
X362105Y297605D02*
X376955Y312455D01*
X352679Y297605D02*
X362105D01*
X352679Y301542D02*
X362042D01*
X376955Y316455D01*
Y322345D01*
X352679Y305480D02*
X362980D01*
X374455Y316955D01*
Y324055D01*
X376955Y326555D02*
Y333500D01*
X374455Y324055D02*
X376955Y326555D01*
X425350Y356100D02*
X474700D01*
X478750Y352050D01*
X501000Y356000D02*
X504000Y353000D01*
X480300Y349300D02*
X487000Y356000D01*
X501000D01*
X427100Y354100D02*
X472300D01*
X477100Y349300D01*
X480300D01*
D21*
X448450Y169794D02*
G03*
X448450Y169794I-1000J0D01*
G01*
X415150Y425994D02*
G03*
X415150Y425994I-1000J0D01*
G01*
X457835Y190239D02*
G03*
X457835Y190239I-1000J0D01*
G01*
X684816Y185739D02*
X700406Y201328D01*
X674237Y196318D02*
X689827Y211907D01*
X700406Y201328D01*
X648896Y450344D02*
X680904D01*
X648896Y425856D02*
X680904D01*
X673361Y197194D02*
X688950Y212784D01*
X662782Y207773D02*
X678372Y223362D01*
X688950Y212784D01*
X443150Y167795D02*
X449450D01*
Y179606D01*
X443150D02*
X449450D01*
X443150Y167795D02*
Y179606D01*
X416150Y435806D02*
X416150Y423994D01*
X409850D02*
Y435806D01*
Y423994D02*
X416150D01*
X409850Y435806D02*
X416150D01*
X431545Y299705D02*
Y325295D01*
Y299705D02*
X449655D01*
Y325295D01*
X431545D02*
X449655D01*
X431545Y217205D02*
Y242795D01*
Y217205D02*
X449655D01*
Y242795D01*
X431545D02*
X449655D01*
X454835Y188239D02*
Y194538D01*
Y188239D02*
X466646D01*
Y194538D01*
X454835D02*
X466646D01*
X385876Y359894D02*
Y371706D01*
X390995Y359894D02*
Y371706D01*
X385876D02*
X390995D01*
X385876Y359894D02*
X390995D01*
X381900Y191430D02*
X418670Y228200D01*
X345130Y228200D02*
X381900Y264970D01*
X418670Y228200D01*
X345130Y228200D02*
X381900Y191430D01*
X437800Y167200D02*
Y180200D01*
X454800D01*
Y167200D02*
Y180200D01*
X437800Y167200D02*
X454800D01*
X421000Y423404D02*
Y436396D01*
X405000Y423404D02*
Y436396D01*
Y423404D02*
X421000D01*
X405000Y436396D02*
X421000D01*
X425600Y298500D02*
Y326500D01*
Y298500D02*
X455600Y298500D01*
Y326500D01*
X425600Y326500D02*
X455600Y326500D01*
X425600Y216000D02*
Y244000D01*
Y216000D02*
X455600Y216000D01*
Y244000D01*
X425600Y244000D02*
X455600Y244000D01*
X454240Y199888D02*
X467240D01*
Y182888D02*
Y199888D01*
X454240Y182888D02*
X467240D01*
X454240D02*
Y199888D01*
X381600Y359501D02*
X381600Y372099D01*
X395200Y359501D02*
Y372099D01*
X381600D02*
X395200D01*
X381600Y359501D02*
X395200Y359501D01*
D25*
X362655Y228200D02*
G03*
X362655Y228200I-1969J0D01*
G01*
X509164Y359927D02*
G03*
X509164Y359927I-1414J0D01*
G01*
X509514Y214458D02*
G03*
X509514Y214458I-1414J0D01*
G01*
X381900Y200361D02*
X409739Y228200D01*
X354061D02*
X381900Y256039D01*
X409739Y228200D01*
X354061D02*
X381900Y200361D01*
X510750Y348841D02*
Y363014D01*
X476750Y348841D02*
X510750D01*
X476750D02*
Y363014D01*
X510750D01*
X511100Y203371D02*
Y217544D01*
X477100Y203371D02*
X511100D01*
X477100D02*
Y217544D01*
X511100D01*
X476250Y369927D02*
X511250D01*
X476250Y341927D02*
Y369927D01*
Y341927D02*
X511250D01*
Y369927D01*
X476600Y224458D02*
X511600D01*
X476600Y196458D02*
Y224458D01*
Y196458D02*
X511600D01*
Y224458D01*
D26*
X688699Y198823D02*
G03*
X688699Y198823I-1378J0D01*
G01*
X666278Y438100D02*
G03*
X666278Y438100I-1378J0D01*
G01*
X677244Y210278D02*
G03*
X677244Y210278I-1378J0D01*
G01*
X441778Y196589D02*
G03*
X441778Y196589I-1378J0D01*
G01*
X712378Y299200D02*
G03*
X712378Y299200I-1378J0D01*
G01*
X383278Y228200D02*
G03*
X383278Y228200I-1378J0D01*
G01*
X380878Y432511D02*
G03*
X380878Y432511I-1378J0D01*
G01*
X423878Y444200D02*
G03*
X423878Y444200I-1378J0D01*
G01*
D02*
G03*
X423878Y444200I-1378J0D01*
G01*
X448178Y348800D02*
G03*
X448178Y348800I-1378J0D01*
G01*
X440628D02*
G03*
X440628Y348800I-1378J0D01*
G01*
X433078D02*
G03*
X433078Y348800I-1378J0D01*
G01*
X448178Y266483D02*
G03*
X448178Y266483I-1378J0D01*
G01*
X440628D02*
G03*
X440628Y266483I-1378J0D01*
G01*
X433078D02*
G03*
X433078Y266483I-1378J0D01*
G01*
X533678Y406800D02*
G03*
X533678Y406800I-1378J0D01*
G01*
X533678Y360480D02*
G03*
X533678Y360480I-1378J0D01*
G01*
X533678Y319960D02*
G03*
X533678Y319960I-1378J0D01*
G01*
Y264540D02*
G03*
X533678Y264540I-1378J0D01*
G01*
Y221520D02*
G03*
X533678Y221520I-1378J0D01*
G01*
Y175200D02*
G03*
X533678Y175200I-1378J0D01*
G01*
X495128Y355927D02*
G03*
X495128Y355927I-1378J0D01*
G01*
X495478Y210457D02*
G03*
X495478Y210457I-1378J0D01*
G01*
X447678Y173700D02*
G03*
X447678Y173700I-1378J0D01*
G01*
X414378Y429900D02*
G03*
X414378Y429900I-1378J0D01*
G01*
X352578Y358300D02*
G03*
X352578Y358300I-1378J0D01*
G01*
X352578Y385400D02*
G03*
X352578Y385400I-1378J0D01*
G01*
X441978Y312500D02*
G03*
X441978Y312500I-1378J0D01*
G01*
Y230000D02*
G03*
X441978Y230000I-1378J0D01*
G01*
X462118Y191388D02*
G03*
X462118Y191388I-1378J0D01*
G01*
X366678Y333200D02*
G03*
X366678Y333200I-1378J0D01*
G01*
Y327250D02*
G03*
X366678Y327250I-1378J0D01*
G01*
Y321300D02*
G03*
X366678Y321300I-1378J0D01*
G01*
X391478Y333200D02*
G03*
X391478Y333200I-1378J0D01*
G01*
Y327250D02*
G03*
X391478Y327250I-1378J0D01*
G01*
Y321300D02*
G03*
X391478Y321300I-1378J0D01*
G01*
X631312Y444199D02*
G03*
X631312Y444199I-1378J0D01*
G01*
D02*
G03*
X631312Y444199I-1378J0D01*
G01*
X623445D02*
G03*
X623445Y444199I-1378J0D01*
G01*
D02*
G03*
X623445Y444199I-1378J0D01*
G01*
X615579D02*
G03*
X615579Y444199I-1378J0D01*
G01*
D02*
G03*
X615579Y444199I-1378J0D01*
G01*
X607712D02*
G03*
X607712Y444199I-1378J0D01*
G01*
D02*
G03*
X607712Y444199I-1378J0D01*
G01*
X599845D02*
G03*
X599845Y444199I-1378J0D01*
G01*
D02*
G03*
X599845Y444199I-1378J0D01*
G01*
X591979D02*
G03*
X591979Y444199I-1378J0D01*
G01*
D02*
G03*
X591979Y444199I-1378J0D01*
G01*
X584112D02*
G03*
X584112Y444199I-1378J0D01*
G01*
D02*
G03*
X584112Y444199I-1378J0D01*
G01*
X576245D02*
G03*
X576245Y444199I-1378J0D01*
G01*
D02*
G03*
X576245Y444199I-1378J0D01*
G01*
X568378D02*
G03*
X568378Y444199I-1378J0D01*
G01*
D02*
G03*
X568378Y444199I-1378J0D01*
G01*
X560512D02*
G03*
X560512Y444199I-1378J0D01*
G01*
D02*
G03*
X560512Y444199I-1378J0D01*
G01*
X552645D02*
G03*
X552645Y444199I-1378J0D01*
G01*
D02*
G03*
X552645Y444199I-1378J0D01*
G01*
X544778D02*
G03*
X544778Y444199I-1378J0D01*
G01*
D02*
G03*
X544778Y444199I-1378J0D01*
G01*
X536912D02*
G03*
X536912Y444199I-1378J0D01*
G01*
D02*
G03*
X536912Y444199I-1378J0D01*
G01*
X529045D02*
G03*
X529045Y444199I-1378J0D01*
G01*
D02*
G03*
X529045Y444199I-1378J0D01*
G01*
X521178D02*
G03*
X521178Y444199I-1378J0D01*
G01*
D02*
G03*
X521178Y444199I-1378J0D01*
G01*
X513312D02*
G03*
X513312Y444199I-1378J0D01*
G01*
D02*
G03*
X513312Y444199I-1378J0D01*
G01*
X505445D02*
G03*
X505445Y444199I-1378J0D01*
G01*
D02*
G03*
X505445Y444199I-1378J0D01*
G01*
X497579D02*
G03*
X497579Y444199I-1378J0D01*
G01*
D02*
G03*
X497579Y444199I-1378J0D01*
G01*
X489712D02*
G03*
X489712Y444199I-1378J0D01*
G01*
D02*
G03*
X489712Y444199I-1378J0D01*
G01*
X481845D02*
G03*
X481845Y444199I-1378J0D01*
G01*
D02*
G03*
X481845Y444199I-1378J0D01*
G01*
X473979D02*
G03*
X473979Y444199I-1378J0D01*
G01*
D02*
G03*
X473979Y444199I-1378J0D01*
G01*
X466112D02*
G03*
X466112Y444199I-1378J0D01*
G01*
D02*
G03*
X466112Y444199I-1378J0D01*
G01*
X458245D02*
G03*
X458245Y444199I-1378J0D01*
G01*
D02*
G03*
X458245Y444199I-1378J0D01*
G01*
X450379D02*
G03*
X450379Y444199I-1378J0D01*
G01*
D02*
G03*
X450379Y444199I-1378J0D01*
G01*
X389813Y365800D02*
G03*
X389813Y365800I-1378J0D01*
G01*
X685929Y197431D02*
X688713Y200215D01*
X685929D02*
X688713Y197431D01*
X662931Y438100D02*
X666868D01*
X664900Y436131D02*
Y440068D01*
X674474Y208886D02*
X677258Y211670D01*
X674474D02*
X677258Y208886D01*
X440400Y194621D02*
Y198557D01*
X438432Y196589D02*
X442369D01*
X711000Y297232D02*
Y301168D01*
X709031Y299200D02*
X712968D01*
X380508Y226808D02*
X383292Y229592D01*
X380508D02*
X383292Y226808D01*
X379500Y430543D02*
Y434480D01*
X377532Y432511D02*
X381469D01*
X420532Y444200D02*
X424469D01*
X422500Y442232D02*
Y446169D01*
Y442232D02*
Y446169D01*
X420532Y444200D02*
X424469D01*
X444832Y348800D02*
X448769D01*
X446800Y346831D02*
Y350768D01*
X437282Y348800D02*
X441219D01*
X439250Y346831D02*
Y350768D01*
X429732Y348800D02*
X433669D01*
X431700Y346831D02*
Y350768D01*
X444832Y266483D02*
X448769D01*
X446800Y264515D02*
Y268452D01*
X437282Y266483D02*
X441219D01*
X439250Y264515D02*
Y268452D01*
X429732Y266483D02*
X433669D01*
X431700Y264515D02*
Y268452D01*
X532300Y404832D02*
Y408769D01*
X530332Y406800D02*
X534269D01*
X532300Y358511D02*
Y362449D01*
X530332Y360480D02*
X534269D01*
X532300Y317991D02*
Y321929D01*
X530332Y319960D02*
X534269D01*
X532300Y262572D02*
Y266509D01*
X530332Y264540D02*
X534269D01*
X532300Y219551D02*
Y223488D01*
X530332Y221520D02*
X534269D01*
X532300Y173231D02*
Y177169D01*
X530332Y175200D02*
X534269D01*
X491782Y355927D02*
X495718D01*
X493750Y353959D02*
Y357896D01*
X492132Y210457D02*
X496068D01*
X494100Y208489D02*
Y212426D01*
X444332Y173700D02*
X448269D01*
X446300Y171731D02*
Y175669D01*
X411031Y429900D02*
X414968D01*
X413000Y427931D02*
Y431869D01*
X349232Y358300D02*
X353169D01*
X351200Y356331D02*
Y360268D01*
X349232Y385400D02*
X353169D01*
X351200Y383432D02*
Y387368D01*
X440600Y310531D02*
Y314469D01*
X438631Y312500D02*
X442568D01*
X440600Y228031D02*
Y231968D01*
X438631Y230000D02*
X442568D01*
X460740Y189420D02*
Y193357D01*
X458772Y191388D02*
X462709D01*
X363332Y333200D02*
X367268D01*
X365300Y331231D02*
Y335169D01*
X363332Y327250D02*
X367268Y327250D01*
X365300Y325282D02*
X365300Y329219D01*
X363332Y321300D02*
X367268Y321300D01*
X365300Y319332D02*
Y323269D01*
X388131Y333200D02*
X392069D01*
X390100Y331231D02*
Y335169D01*
X388131Y327250D02*
X392069D01*
X390100Y325282D02*
Y329219D01*
X388131Y321300D02*
X392069D01*
X390100Y319332D02*
Y323269D01*
X627965Y444199D02*
X631902D01*
X629934Y442231D02*
Y446168D01*
Y442231D02*
Y446168D01*
X627965Y444199D02*
X631902D01*
X620099D02*
X624036D01*
X622067Y442231D02*
Y446168D01*
Y442231D02*
Y446168D01*
X620099Y444199D02*
X624036D01*
X612232D02*
X616169D01*
X614200Y442231D02*
Y446168D01*
Y442231D02*
Y446168D01*
X612232Y444199D02*
X616169D01*
X604365D02*
X608302D01*
X606334Y442231D02*
Y446168D01*
Y442231D02*
Y446168D01*
X604365Y444199D02*
X608302D01*
X596499D02*
X600436D01*
X598467Y442231D02*
Y446168D01*
Y442231D02*
Y446168D01*
X596499Y444199D02*
X600436D01*
X588632D02*
X592569D01*
X590600Y442231D02*
Y446168D01*
Y442231D02*
Y446168D01*
X588632Y444199D02*
X592569D01*
X580765D02*
X584702D01*
X582734Y442231D02*
Y446168D01*
Y442231D02*
Y446168D01*
X580765Y444199D02*
X584702D01*
X572899D02*
X576836D01*
X574867Y442231D02*
Y446168D01*
Y442231D02*
Y446168D01*
X572899Y444199D02*
X576836D01*
X565032D02*
X568969D01*
X567001Y442231D02*
Y446168D01*
Y442231D02*
Y446168D01*
X565032Y444199D02*
X568969D01*
X557165D02*
X561102D01*
X559134Y442231D02*
Y446168D01*
Y442231D02*
Y446168D01*
X557165Y444199D02*
X561102D01*
X549299D02*
X553236D01*
X551267Y442231D02*
Y446168D01*
Y442231D02*
Y446168D01*
X549299Y444199D02*
X553236D01*
X541432D02*
X545369D01*
X543401Y442231D02*
Y446168D01*
Y442231D02*
Y446168D01*
X541432Y444199D02*
X545369D01*
X533565D02*
X537502D01*
X535534Y442231D02*
Y446168D01*
Y442231D02*
Y446168D01*
X533565Y444199D02*
X537502D01*
X525699D02*
X529636D01*
X527667Y442231D02*
Y446168D01*
Y442231D02*
Y446168D01*
X525699Y444199D02*
X529636D01*
X517832D02*
X521769D01*
X519801Y442231D02*
Y446168D01*
Y442231D02*
Y446168D01*
X517832Y444199D02*
X521769D01*
X509965D02*
X513902D01*
X511934Y442231D02*
Y446168D01*
Y442231D02*
Y446168D01*
X509965Y444199D02*
X513902D01*
X502099D02*
X506036D01*
X504067Y442231D02*
Y446168D01*
Y442231D02*
Y446168D01*
X502099Y444199D02*
X506036D01*
X494232D02*
X498169D01*
X496201Y442231D02*
Y446168D01*
Y442231D02*
Y446168D01*
X494232Y444199D02*
X498169D01*
X486365D02*
X490303D01*
X488334Y442231D02*
Y446168D01*
Y442231D02*
Y446168D01*
X486365Y444199D02*
X490303D01*
X478499D02*
X482436D01*
X480467Y442231D02*
Y446168D01*
Y442231D02*
Y446168D01*
X478499Y444199D02*
X482436D01*
X470632D02*
X474569D01*
X472601Y442231D02*
Y446168D01*
Y442231D02*
Y446168D01*
X470632Y444199D02*
X474569D01*
X462766D02*
X466703D01*
X464734Y442231D02*
Y446168D01*
Y442231D02*
Y446168D01*
X462766Y444199D02*
X466703D01*
X454899D02*
X458836D01*
X456867Y442231D02*
Y446168D01*
Y442231D02*
Y446168D01*
X454899Y444199D02*
X458836D01*
X447032D02*
X450969D01*
X449001Y442231D02*
Y446168D01*
Y442231D02*
Y446168D01*
X447032Y444199D02*
X450969D01*
X388435Y363831D02*
Y367769D01*
X386467Y365800D02*
X390404D01*
D27*
X477000Y165200D02*
G03*
X477000Y165200I-500J0D01*
G01*
X470667D02*
G03*
X470667Y165200I-500J0D01*
G01*
X460059Y208500D02*
G03*
X460059Y208500I-500J0D01*
G01*
Y202500D02*
G03*
X460059Y202500I-500J0D01*
G01*
X368300Y194300D02*
G03*
X368300Y194300I-500J0D01*
G01*
X372200Y186100D02*
G03*
X372200Y186100I-500J0D01*
G01*
X343200Y198700D02*
G03*
X343200Y198700I-500J0D01*
G01*
X357800Y197900D02*
G03*
X357800Y197900I-500J0D01*
G01*
X381900Y188800D02*
G03*
X381900Y188800I-500J0D01*
G01*
X339381Y236400D02*
G03*
X339381Y236400I-500J0D01*
G01*
X355700Y181700D02*
G03*
X355700Y181700I-500J0D01*
G01*
X402400Y259800D02*
G03*
X402400Y259800I-500J0D01*
G01*
X414300Y206700D02*
G03*
X414300Y206700I-500J0D01*
G01*
X398200Y264000D02*
G03*
X398200Y264000I-500J0D01*
G01*
X420300Y206700D02*
G03*
X420300Y206700I-500J0D01*
G01*
X364100Y190100D02*
G03*
X364100Y190100I-500J0D01*
G01*
X359900Y185900D02*
G03*
X359900Y185900I-500J0D01*
G01*
X339381Y230500D02*
G03*
X339381Y230500I-500J0D01*
G01*
X447300Y331500D02*
G03*
X447300Y331500I-500J0D01*
G01*
X433703Y293039D02*
G03*
X433703Y293039I-500J0D01*
G01*
X439749Y331500D02*
G03*
X439749Y331500I-500J0D01*
G01*
X431100Y213200D02*
G03*
X431100Y213200I-500J0D01*
G01*
X432199Y331500D02*
G03*
X432199Y331500I-500J0D01*
G01*
X447300Y249159D02*
G03*
X447300Y249159I-500J0D01*
G01*
X439899D02*
G03*
X439899Y249159I-500J0D01*
G01*
X432199Y249101D02*
G03*
X432199Y249101I-500J0D01*
G01*
X501676Y376599D02*
G03*
X501676Y376599I-500J0D01*
G01*
X496701D02*
G03*
X496701Y376599I-500J0D01*
G01*
X516600Y376600D02*
G03*
X516600Y376600I-500J0D01*
G01*
X484200Y384300D02*
G03*
X484200Y384300I-500J0D01*
G01*
X506400Y317700D02*
G03*
X506400Y317700I-500J0D01*
G01*
X525200Y340400D02*
G03*
X525200Y340400I-500J0D01*
G01*
X501600Y231799D02*
G03*
X501600Y231799I-500J0D01*
G01*
X496700D02*
G03*
X496700Y231799I-500J0D01*
G01*
X516800Y231800D02*
G03*
X516800Y231800I-500J0D01*
G01*
X484400Y239600D02*
G03*
X484400Y239600I-500J0D01*
G01*
X503800Y171400D02*
G03*
X503800Y171400I-500J0D01*
G01*
X524900Y195600D02*
G03*
X524900Y195600I-500J0D01*
G01*
X363645Y337600D02*
G03*
X363645Y337600I-500J0D01*
G01*
Y327200D02*
G03*
X363645Y327200I-500J0D01*
G01*
X363645Y317200D02*
G03*
X363645Y317200I-500J0D01*
G01*
X341141Y287000D02*
G03*
X341141Y287000I-500J0D01*
G01*
X341141Y297100D02*
G03*
X341141Y297100I-500J0D01*
G01*
X341141Y307100D02*
G03*
X341141Y307100I-500J0D01*
G01*
X397400Y337600D02*
G03*
X397400Y337600I-500J0D01*
G01*
Y327200D02*
G03*
X397400Y327200I-500J0D01*
G01*
X397400Y317200D02*
G03*
X397400Y317200I-500J0D01*
G01*
X374896Y287000D02*
G03*
X374896Y287000I-500J0D01*
G01*
X374896Y297100D02*
G03*
X374896Y297100I-500J0D01*
G01*
X374896Y307100D02*
G03*
X374896Y307100I-500J0D01*
G01*
X386100Y408741D02*
G03*
X386100Y408741I-500J0D01*
G01*
X392800D02*
G03*
X392800Y408741I-500J0D01*
G01*
X396742Y428900D02*
G03*
X396742Y428900I-500J0D01*
G01*
X464333Y165200D02*
G03*
X464333Y165200I-500J0D01*
G01*
X433200Y179600D02*
G03*
X433200Y179600I-500J0D01*
G01*
X430200Y444200D02*
G03*
X430200Y444200I-500J0D01*
G01*
X458000Y165200D02*
G03*
X458000Y165200I-500J0D01*
G01*
X433200Y174500D02*
G03*
X433200Y174500I-500J0D01*
G01*
X413300Y419700D02*
G03*
X413300Y419700I-500J0D01*
G01*
X504700Y425500D02*
G03*
X504700Y425500I-500J0D01*
G01*
Y417633D02*
G03*
X504700Y417633I-500J0D01*
G01*
Y409767D02*
G03*
X504700Y409767I-500J0D01*
G01*
Y401900D02*
G03*
X504700Y401900I-500J0D01*
G01*
Y301500D02*
G03*
X504700Y301500I-500J0D01*
G01*
Y292060D02*
G03*
X504700Y292060I-500J0D01*
G01*
Y282620D02*
G03*
X504700Y282620I-500J0D01*
G01*
Y273180D02*
G03*
X504700Y273180I-500J0D01*
G01*
Y263740D02*
G03*
X504700Y263740I-500J0D01*
G01*
Y254300D02*
G03*
X504700Y254300I-500J0D01*
G01*
Y157400D02*
G03*
X504700Y157400I-500J0D01*
G01*
Y148900D02*
G03*
X504700Y148900I-500J0D01*
G01*
X506651Y376599D02*
G03*
X506651Y376599I-500J0D01*
G01*
X511625Y376600D02*
G03*
X511625Y376600I-500J0D01*
G01*
X489800Y390200D02*
G03*
X489800Y390200I-500J0D01*
G01*
X486751Y376599D02*
G03*
X486751Y376599I-500J0D01*
G01*
X491725Y376600D02*
G03*
X491725Y376600I-500J0D01*
G01*
X478800Y390200D02*
G03*
X478800Y390200I-500J0D01*
G01*
X481776Y376599D02*
G03*
X481776Y376599I-500J0D01*
G01*
X476800Y376600D02*
G03*
X476800Y376600I-500J0D01*
G01*
X519400Y315200D02*
G03*
X519400Y315200I-500J0D01*
G01*
X486485Y333458D02*
G03*
X486485Y333458I-500J0D01*
G01*
X491629Y333457D02*
G03*
X491629Y333457I-500J0D01*
G01*
X506400Y311600D02*
G03*
X506400Y311600I-500J0D01*
G01*
X481342Y333458D02*
G03*
X481342Y333458I-500J0D01*
G01*
X476200Y333457D02*
G03*
X476200Y333457I-500J0D01*
G01*
X535600Y340400D02*
G03*
X535600Y340400I-500J0D01*
G01*
X504000Y333458D02*
G03*
X504000Y333458I-500J0D01*
G01*
X498900Y333457D02*
G03*
X498900Y333457I-500J0D01*
G01*
X521400Y349000D02*
G03*
X521400Y349000I-500J0D01*
G01*
X509600Y333458D02*
G03*
X509600Y333458I-500J0D01*
G01*
X515000Y333457D02*
G03*
X515000Y333457I-500J0D01*
G01*
X506700Y231799D02*
G03*
X506700Y231799I-500J0D01*
G01*
X511700Y231800D02*
G03*
X511700Y231800I-500J0D01*
G01*
X490000Y245500D02*
G03*
X490000Y245500I-500J0D01*
G01*
X486900Y231799D02*
G03*
X486900Y231799I-500J0D01*
G01*
X491800Y231800D02*
G03*
X491800Y231800I-500J0D01*
G01*
X478900Y245500D02*
G03*
X478900Y245500I-500J0D01*
G01*
X482000Y231799D02*
G03*
X482000Y231799I-500J0D01*
G01*
X477000Y231800D02*
G03*
X477000Y231800I-500J0D01*
G01*
X513000Y173900D02*
G03*
X513000Y173900I-500J0D01*
G01*
X486900Y188657D02*
G03*
X486900Y188657I-500J0D01*
G01*
X492400D02*
G03*
X492400Y188657I-500J0D01*
G01*
X513000Y168600D02*
G03*
X513000Y168600I-500J0D01*
G01*
X481400Y188657D02*
G03*
X481400Y188657I-500J0D01*
G01*
X476400D02*
G03*
X476400Y188657I-500J0D01*
G01*
X530000Y201500D02*
G03*
X530000Y201500I-500J0D01*
G01*
X504000Y188657D02*
G03*
X504000Y188657I-500J0D01*
G01*
X498900D02*
G03*
X498900Y188657I-500J0D01*
G01*
X521500Y204059D02*
G03*
X521500Y204059I-500J0D01*
G01*
X509600Y188657D02*
G03*
X509600Y188657I-500J0D01*
G01*
X515000D02*
G03*
X515000Y188657I-500J0D01*
G01*
X412600Y444500D02*
G03*
X412600Y444500I-500J0D01*
G01*
X399300Y438200D02*
G03*
X399300Y438200I-500J0D01*
G01*
X401860Y428900D02*
G03*
X401860Y428900I-500J0D01*
G01*
X399300Y444500D02*
G03*
X399300Y444500I-500J0D01*
G01*
X341141Y337600D02*
G03*
X341141Y337600I-500J0D01*
G01*
Y327200D02*
G03*
X341141Y327200I-500J0D01*
G01*
X341141Y317200D02*
G03*
X341141Y317200I-500J0D01*
G01*
X352393Y337600D02*
G03*
X352393Y337600I-500J0D01*
G01*
Y327200D02*
G03*
X352393Y327200I-500J0D01*
G01*
Y317200D02*
G03*
X352393Y317200I-500J0D01*
G01*
Y307101D02*
G03*
X352393Y307101I-500J0D01*
G01*
X352393Y297101D02*
G03*
X352393Y297101I-500J0D01*
G01*
X352393Y287001D02*
G03*
X352393Y287001I-500J0D01*
G01*
X374897Y337600D02*
G03*
X374897Y337600I-500J0D01*
G01*
Y327200D02*
G03*
X374897Y327200I-500J0D01*
G01*
X374897Y317200D02*
G03*
X374897Y317200I-500J0D01*
G01*
X386148Y337600D02*
G03*
X386148Y337600I-500J0D01*
G01*
Y327200D02*
G03*
X386148Y327200I-500J0D01*
G01*
X386148Y317200D02*
G03*
X386148Y317200I-500J0D01*
G01*
Y307101D02*
G03*
X386148Y307101I-500J0D01*
G01*
X386148Y297101D02*
G03*
X386148Y297101I-500J0D01*
G01*
X386148Y287001D02*
G03*
X386148Y287001I-500J0D01*
G01*
X437600Y370659D02*
G03*
X437600Y370659I-500J0D01*
G01*
X431300Y370659D02*
G03*
X431300Y370659I-500J0D01*
G01*
X400800Y356800D02*
G03*
X400800Y356800I-500J0D01*
G01*
X389100Y353500D02*
G03*
X389100Y353500I-500J0D01*
G01*
X403400Y366300D02*
G03*
X403400Y366300I-500J0D01*
G01*
X377500Y365800D02*
G03*
X377500Y365800I-500J0D01*
G01*
X475713Y165200D02*
X477287D01*
X476500Y164413D02*
Y165987D01*
X469379Y165200D02*
X470954D01*
X470167Y164413D02*
Y165987D01*
X459559Y207713D02*
Y209288D01*
X458772Y208500D02*
X460347D01*
X459559Y201713D02*
Y203288D01*
X458772Y202500D02*
X460347D01*
X367243Y194857D02*
X368357Y193743D01*
X367243D02*
X368357Y194857D01*
X371143Y186657D02*
X372257Y185543D01*
X371143D02*
X372257Y186657D01*
X342143Y198143D02*
X343257Y199257D01*
X342143D02*
X343257Y198143D01*
X356743Y198457D02*
X357857Y197343D01*
X356743D02*
X357857Y198457D01*
X380613Y188800D02*
X382187D01*
X381400Y188013D02*
Y189587D01*
X338093Y236400D02*
X339668D01*
X338881Y235613D02*
X338881Y237187D01*
X354643Y182257D02*
X355757Y181143D01*
X354643D02*
X355757Y182257D01*
X401343Y260357D02*
X402457Y259243D01*
X401343D02*
X402457Y260357D01*
X413013Y206700D02*
X414587D01*
X413800Y205913D02*
Y207487D01*
X397143Y264557D02*
X398257Y263443D01*
X397143D02*
X398257Y264557D01*
X419013Y206700D02*
X420587Y206700D01*
X419800Y205913D02*
X419800Y207487D01*
X363043Y189543D02*
X364157Y190657D01*
X363043D02*
X364157Y189543D01*
X358843Y185343D02*
X359957Y186457D01*
X358843D02*
X359957Y185343D01*
X338881Y229713D02*
X338881Y231287D01*
X338094Y230500D02*
X339669Y230500D01*
X446800Y330713D02*
Y332287D01*
X446012Y331500D02*
X447587D01*
X432415Y293039D02*
X433990D01*
X433203Y292251D02*
Y293826D01*
X439250Y332287D02*
X439250Y330713D01*
X438462Y331500D02*
X440037D01*
X429813Y213200D02*
X431387D01*
X430600Y212413D02*
Y213987D01*
X431699Y330713D02*
Y332287D01*
X430912Y331500D02*
X432487D01*
X446800Y248372D02*
Y249947D01*
X446012Y249159D02*
X447587D01*
X439399Y249947D02*
X439399Y248372D01*
X438612Y249159D02*
X440187D01*
X431699Y248313D02*
Y249888D01*
X430912Y249101D02*
X432487D01*
X501176Y375812D02*
Y377387D01*
X500388Y376599D02*
X501963D01*
X496201Y375812D02*
Y377387D01*
X495413Y376599D02*
X496988D01*
X516100Y375813D02*
Y377387D01*
X515313Y376600D02*
X516887D01*
X482913Y384300D02*
X484487Y384300D01*
X483700Y383513D02*
Y385087D01*
X505113Y317700D02*
X506687D01*
X505900Y316913D02*
Y318487D01*
X523913Y340400D02*
X525487D01*
X524700Y339613D02*
Y341187D01*
X501100Y231012D02*
Y232587D01*
X500313Y231799D02*
X501887D01*
X496200Y231012D02*
Y232587D01*
X495413Y231799D02*
X496987D01*
X516300Y231013D02*
Y232587D01*
X515513Y231800D02*
X517087D01*
X483113Y239600D02*
X484687D01*
X483900Y238813D02*
Y240387D01*
X503300Y172187D02*
X503300Y170613D01*
X502513Y171400D02*
X504087D01*
X523613Y195600D02*
X525187Y195600D01*
X524400Y194813D02*
Y196387D01*
X362357Y337600D02*
X363932Y337600D01*
X363145Y338387D02*
X363145Y336813D01*
X362357Y327200D02*
X363932Y327200D01*
X363145Y327988D02*
X363145Y326413D01*
X362357Y317200D02*
X363932Y317200D01*
X363145Y317988D02*
X363145Y316413D01*
X339853Y287000D02*
X341428D01*
X340641Y286213D02*
Y287788D01*
X339853Y297100D02*
X341428Y297100D01*
X340641Y296313D02*
Y297888D01*
X339853Y307100D02*
X341428D01*
X340641Y306313D02*
Y307888D01*
X396113Y337600D02*
X397687D01*
X396900Y336812D02*
X396900Y338387D01*
X396113Y327200D02*
X397687D01*
X396900Y327988D02*
X396900Y326413D01*
X396113Y317200D02*
X397687D01*
X396900Y316413D02*
X396900Y317988D01*
X373608Y287000D02*
X375183D01*
X374396Y286213D02*
Y287788D01*
X373608Y297100D02*
X375183D01*
X374396Y296313D02*
Y297888D01*
X373608Y307100D02*
X375183D01*
X374396Y306313D02*
Y307888D01*
X385600Y407954D02*
X385600Y409529D01*
X384812Y408741D02*
X386387Y408741D01*
X392300Y407954D02*
X392300Y409529D01*
X391512Y408741D02*
X393087D01*
X396242Y428113D02*
Y429687D01*
X395454Y428900D02*
X397029D01*
X463833Y164413D02*
Y165987D01*
X463046Y165200D02*
X464621Y165200D01*
X431913Y179600D02*
X433487D01*
X432700Y178813D02*
X432700Y180387D01*
X429700Y443413D02*
X429700Y444987D01*
X428913Y444200D02*
X430487Y444200D01*
X457500Y164413D02*
X457500Y165987D01*
X456713Y165200D02*
X458287D01*
X431913Y174500D02*
X433487D01*
X432700Y173713D02*
Y175287D01*
X412013Y419700D02*
X413587D01*
X412800Y418913D02*
Y420487D01*
X504200Y424713D02*
Y426287D01*
X503413Y425500D02*
X504987D01*
X504200Y416846D02*
Y418421D01*
X503413Y417633D02*
X504987D01*
X504200Y410554D02*
X504200Y408979D01*
X503413Y409767D02*
X504987D01*
X504200Y401113D02*
Y402687D01*
X503413Y401900D02*
X504987D01*
X504200Y300713D02*
Y302287D01*
X503413Y301500D02*
X504987D01*
X504200Y291273D02*
Y292847D01*
X503413Y292060D02*
X504987D01*
X504200Y281833D02*
Y283407D01*
X503413Y282620D02*
X504987D01*
X504200Y272393D02*
Y273967D01*
X503413Y273180D02*
X504987D01*
X504200Y262953D02*
Y264527D01*
X503413Y263740D02*
X504987D01*
X504200Y253513D02*
Y255087D01*
X503413Y254300D02*
X504987D01*
X504200Y156613D02*
Y158187D01*
X503413Y157400D02*
X504987D01*
X504200Y148113D02*
Y149687D01*
X503413Y148900D02*
X504987D01*
X505363Y376599D02*
X506938D01*
X506151Y375812D02*
Y377387D01*
X510338Y376600D02*
X511912D01*
X511125Y377387D02*
X511125Y375813D01*
X489300Y390987D02*
X489300Y389413D01*
X488513Y390200D02*
X490087D01*
X485463Y376599D02*
X487038D01*
X486251Y375812D02*
Y377387D01*
X490438Y376600D02*
X492012D01*
X491225Y375813D02*
Y377387D01*
X478300Y389413D02*
Y390987D01*
X477513Y390200D02*
X479087D01*
X480488Y376599D02*
X482063Y376599D01*
X481276Y377387D02*
X481276Y375812D01*
X475513Y376600D02*
X477087D01*
X476300Y375813D02*
Y377387D01*
X518113Y315200D02*
X519687D01*
X518900Y314413D02*
Y315987D01*
X485198Y333458D02*
X486772D01*
X485985Y332671D02*
Y334245D01*
X490341Y333457D02*
X491916D01*
X491128Y332670D02*
Y334245D01*
X505900Y312387D02*
X505900Y310813D01*
X505113Y311600D02*
X506687D01*
X480055Y333458D02*
X481630D01*
X480842Y332671D02*
Y334245D01*
X474913Y333457D02*
X476487D01*
X475700Y332670D02*
X475700Y334245D01*
X535100Y339613D02*
Y341187D01*
X534313Y340400D02*
X535887Y340400D01*
X502713Y333458D02*
X504287D01*
X503500Y332671D02*
Y334245D01*
X497613Y333457D02*
X499187D01*
X498400Y332670D02*
Y334245D01*
X520113Y349000D02*
X521687D01*
X520900Y348213D02*
Y349787D01*
X508313Y333458D02*
X509887D01*
X509100Y332671D02*
Y334245D01*
X513713Y333457D02*
X515287D01*
X514500Y332670D02*
Y334245D01*
X505413Y231799D02*
X506987D01*
X506200Y231012D02*
Y232587D01*
X510413Y231800D02*
X511987D01*
X511200Y231013D02*
Y232587D01*
X489500Y244713D02*
Y246287D01*
X488713Y245500D02*
X490287D01*
X485613Y231799D02*
X487188D01*
X486400Y231012D02*
Y232587D01*
X490512Y231800D02*
X492087D01*
X491300Y231013D02*
Y232587D01*
X478400Y244713D02*
X478400Y246287D01*
X477613Y245500D02*
X479187D01*
X480713Y231799D02*
X482288D01*
X481500Y231012D02*
Y232587D01*
X475713Y231800D02*
X477287D01*
X476500Y231013D02*
Y232587D01*
X512500Y173113D02*
Y174687D01*
X511713Y173900D02*
X513287D01*
X485613Y188657D02*
X487187D01*
X486400Y187870D02*
Y189445D01*
X491113Y188657D02*
X492687D01*
X491900Y187870D02*
Y189445D01*
X512500Y167813D02*
Y169387D01*
X511713Y168600D02*
X513287D01*
X480113Y188657D02*
X481687D01*
X480900Y187870D02*
Y189445D01*
X475113Y188657D02*
X476687D01*
X475900Y187870D02*
Y189445D01*
X529500Y200713D02*
Y202287D01*
X528713Y201500D02*
X530287D01*
X502713Y188657D02*
X504287D01*
X503500Y187870D02*
Y189445D01*
X497613Y188657D02*
X499187D01*
X498400Y187870D02*
Y189445D01*
X520213Y204059D02*
X521788D01*
X521000Y203271D02*
Y204846D01*
X508313Y188657D02*
X509887D01*
X509100Y187870D02*
Y189445D01*
X513713Y188657D02*
X515287D01*
X514500Y187870D02*
Y189445D01*
X412100Y443713D02*
Y445287D01*
X411313Y444500D02*
X412887D01*
X398800Y437413D02*
Y438987D01*
X398013Y438200D02*
X399587D01*
X400572Y428900D02*
X402147D01*
X401360Y428113D02*
Y429687D01*
X398800Y443713D02*
Y445287D01*
X398013Y444500D02*
X399587D01*
X340641Y336813D02*
Y338387D01*
X339854Y337600D02*
X341429D01*
X340641Y326413D02*
Y327988D01*
X339854Y327200D02*
X341429D01*
X340641Y316413D02*
Y317988D01*
X339854Y317200D02*
X341429D01*
X351893Y336813D02*
Y338387D01*
X351106Y337600D02*
X352680D01*
X351893Y326413D02*
Y327988D01*
X351106Y327200D02*
X352680D01*
X351893Y316413D02*
Y317988D01*
X351106Y317200D02*
X352680D01*
X351893Y306313D02*
Y307888D01*
X351106Y307101D02*
X352680D01*
X351893Y296314D02*
Y297888D01*
X351106Y297101D02*
X352680D01*
X351893Y286213D02*
Y287788D01*
X351106Y287001D02*
X352680D01*
X374396Y338387D02*
X374396Y336813D01*
X373609Y337600D02*
X375184D01*
X374396Y327988D02*
X374396Y326413D01*
X373609Y327200D02*
X375184Y327200D01*
X374396Y317988D02*
X374396Y316413D01*
X373609Y317200D02*
X375184D01*
X385648Y336813D02*
Y338387D01*
X384861Y337600D02*
X386436D01*
X385648Y326413D02*
Y327988D01*
X384861Y327200D02*
X386436Y327200D01*
X385648Y316413D02*
Y317988D01*
X384861Y317200D02*
X386436Y317200D01*
X385648Y306314D02*
Y307888D01*
X384861Y307101D02*
X386436D01*
X385648Y296314D02*
Y297888D01*
X384861Y297101D02*
X386436D01*
X385648Y286213D02*
Y287788D01*
X384861Y287001D02*
X386436D01*
X437100Y369871D02*
Y371446D01*
X436313Y370659D02*
X437888D01*
X430800Y369872D02*
Y371447D01*
X430012Y370659D02*
X431587D01*
X399513Y356800D02*
X401087Y356800D01*
X400300Y356013D02*
Y357587D01*
X388600Y352713D02*
Y354287D01*
X387813Y353500D02*
X389387D01*
X402113Y366300D02*
X403687D01*
X402900Y365513D02*
Y367087D01*
X377000Y365013D02*
X377000Y366587D01*
X376213Y365800D02*
X377787D01*
D28*
X337767Y217800D02*
G03*
X337767Y217800I-707J0D01*
G01*
X336060D02*
X338060D01*
X337060Y216800D02*
Y218800D01*
D32*
X352679Y277921D02*
D03*
Y305480D02*
D03*
Y293669D02*
D03*
Y281857D02*
D03*
Y289732D02*
D03*
Y285794D02*
D03*
Y301542D02*
D03*
Y297605D02*
D03*
Y324921D02*
D03*
Y352480D02*
D03*
Y340669D02*
D03*
Y328857D02*
D03*
Y336732D02*
D03*
Y332794D02*
D03*
Y348542D02*
D03*
Y344605D02*
D03*
D102*
X387822Y170193D02*
D03*
X410578Y170193D02*
D03*
D110*
X596000Y223000D02*
X619000D01*
X680200Y284200D02*
X696630D01*
X619000Y223000D02*
X680200Y284200D01*
X596000Y177500D02*
X619930D01*
X696630Y254200D02*
Y254200D01*
X619930Y177500D02*
X696630Y254200D01*
X667000Y189600D02*
X670900Y193500D01*
X667000Y177500D02*
Y189600D01*
X613800Y268500D02*
X659500Y314200D01*
X596000Y268500D02*
X613800D01*
X659500Y314200D02*
X696630D01*
X642900Y344200D02*
X696630D01*
X612700Y314000D02*
X642900Y344200D01*
X596000Y314000D02*
X612700D01*
X637000Y405000D02*
X637800Y404200D01*
X596000Y405000D02*
X637000D01*
X596000Y359500D02*
X612600D01*
X637800Y404200D02*
X696630D01*
X627300Y374200D02*
X696630D01*
X612600Y359500D02*
X627300Y374200D01*
D116*
X696630Y314200D02*
D03*
Y344200D02*
D03*
Y374200D02*
D03*
Y254200D02*
D03*
Y284200D02*
D03*
Y224200D02*
D03*
Y194200D02*
D03*
D117*
Y404200D02*
D03*
D118*
X709770Y161400D02*
D03*
Y435100D02*
D03*
X349206Y161400D02*
D03*
Y435100D02*
D03*
D119*
X484600Y150500D02*
D03*
D120*
X474600D02*
D03*
X464600D02*
D03*
X454600D02*
D03*
X444600D02*
D03*
X434600D02*
D03*
X424600D02*
D03*
D121*
X382192Y172162D02*
D03*
X416208Y172162D02*
D03*
X382192Y155705D02*
D03*
X416208D02*
D03*
D122*
X665400Y442500D02*
D03*
X665000Y432200D02*
D03*
X667800Y428600D02*
D03*
X663800D02*
D03*
X659800D02*
D03*
X655800D02*
D03*
X651800D02*
D03*
X658200Y432075D02*
D03*
Y435550D02*
D03*
Y439025D02*
D03*
Y442500D02*
D03*
X366800Y235600D02*
D03*
X340500Y282000D02*
D03*
X469300Y271500D02*
D03*
Y294500D02*
D03*
X375400Y275700D02*
D03*
X373350Y271600D02*
D03*
X380590Y257510D02*
D03*
X376625Y260300D02*
D03*
X369500Y263200D02*
D03*
X371300Y275700D02*
D03*
X369250Y271600D02*
D03*
X369400Y229400D02*
D03*
X372000Y225000D02*
D03*
X371875Y260300D02*
D03*
X383300Y200000D02*
D03*
X380500D02*
D03*
X373239Y215361D02*
D03*
X370600Y221500D02*
D03*
X360220Y229000D02*
D03*
X338800Y242300D02*
D03*
X354700Y385400D02*
D03*
X355400Y358300D02*
D03*
X385600Y416600D02*
D03*
X338500Y262200D02*
D03*
X335500Y265000D02*
D03*
X336900Y277900D02*
D03*
X347000Y282800D02*
D03*
X423661Y303543D02*
D03*
X420989Y310784D02*
D03*
Y300984D02*
D03*
X415645Y303543D02*
D03*
X423661Y316339D02*
D03*
X412972Y313779D02*
D03*
Y300984D02*
D03*
X435761Y308661D02*
D03*
X415645Y319900D02*
D03*
X392900Y282000D02*
D03*
X412800Y238219D02*
D03*
X488200Y206600D02*
D03*
X504100Y215500D02*
D03*
X392400Y223200D02*
D03*
X389000Y342600D02*
D03*
X365704Y345897D02*
D03*
X395800Y199300D02*
D03*
X386200Y197200D02*
D03*
X423500Y201300D02*
D03*
X410000Y200340D02*
D03*
X345789Y214500D02*
D03*
X350057Y194043D02*
D03*
X361600Y206600D02*
D03*
X376000Y227800D02*
D03*
Y224100D02*
D03*
X395500Y203500D02*
D03*
X407500Y213000D02*
D03*
X411798Y181802D02*
D03*
X386602D02*
D03*
X400600Y181300D02*
D03*
X397800D02*
D03*
X398445Y235000D02*
D03*
X407000Y264900D02*
D03*
X360000Y272200D02*
D03*
X367300Y286000D02*
D03*
X350800Y271400D02*
D03*
X347500Y265500D02*
D03*
X410500Y214000D02*
D03*
X386500Y237623D02*
D03*
X389100Y240000D02*
D03*
X386500Y260300D02*
D03*
X391712Y214212D02*
D03*
X478750Y352050D02*
D03*
X510800Y245500D02*
D03*
X516200Y206618D02*
D03*
X387278Y444322D02*
D03*
X475841Y239941D02*
D03*
X475741Y384759D02*
D03*
X496600Y206800D02*
D03*
X495400Y352800D02*
D03*
X536500Y261400D02*
D03*
X536600Y403800D02*
D03*
X528000D02*
D03*
X532300Y411000D02*
D03*
X528000Y408600D02*
D03*
Y413400D02*
D03*
X532300Y406200D02*
D03*
X536600Y408600D02*
D03*
Y413400D02*
D03*
X527900Y357200D02*
D03*
X532200Y364400D02*
D03*
X527900Y362000D02*
D03*
Y366800D02*
D03*
X532200Y359600D02*
D03*
X536500Y357200D02*
D03*
Y362000D02*
D03*
Y366800D02*
D03*
X528100Y316800D02*
D03*
X532400Y324000D02*
D03*
X528100Y321600D02*
D03*
Y326400D02*
D03*
X532400Y319200D02*
D03*
X536700Y316800D02*
D03*
Y321600D02*
D03*
Y326400D02*
D03*
X527900Y261400D02*
D03*
X532200Y268600D02*
D03*
X527900Y266200D02*
D03*
X527900Y271000D02*
D03*
X532200Y263800D02*
D03*
X536500Y266200D02*
D03*
Y271000D02*
D03*
X528000Y218100D02*
D03*
X532300Y225300D02*
D03*
X528000Y222900D02*
D03*
Y227700D02*
D03*
X532300Y220500D02*
D03*
X536600Y218100D02*
D03*
Y222900D02*
D03*
Y227700D02*
D03*
X528200Y171900D02*
D03*
Y176700D02*
D03*
Y181500D02*
D03*
X532300Y179100D02*
D03*
X536400Y171900D02*
D03*
Y176700D02*
D03*
X532300Y174300D02*
D03*
X536400Y181500D02*
D03*
X516300Y238800D02*
D03*
X496200Y383700D02*
D03*
X511125D02*
D03*
X515059Y161541D02*
D03*
X508459Y306459D02*
D03*
X516100Y351559D02*
D03*
X504000Y353000D02*
D03*
X478750Y360150D02*
D03*
X502300Y207100D02*
D03*
X479100Y206800D02*
D03*
Y213900D02*
D03*
X424500Y428700D02*
D03*
X422300Y423500D02*
D03*
X424900Y425400D02*
D03*
X457500Y218000D02*
D03*
X458800Y234200D02*
D03*
X446300Y215400D02*
D03*
X462500Y226000D02*
D03*
X457500Y300500D02*
D03*
X458900Y317100D02*
D03*
X462000Y309000D02*
D03*
X447600Y296500D02*
D03*
X435761Y226161D02*
D03*
Y351200D02*
D03*
X532300Y394989D02*
D03*
X509811D02*
D03*
X532300Y252729D02*
D03*
X491300Y238600D02*
D03*
X496200Y238800D02*
D03*
X469300Y309200D02*
D03*
Y249000D02*
D03*
X366800Y181200D02*
D03*
X372300Y195180D02*
D03*
X371500Y218300D02*
D03*
X365500Y205000D02*
D03*
X398445Y230000D02*
D03*
X400800Y232500D02*
D03*
X414500Y235000D02*
D03*
X412000Y232500D02*
D03*
X414500Y230000D02*
D03*
X432500Y306102D02*
D03*
X424500Y351500D02*
D03*
X420750D02*
D03*
X417000D02*
D03*
X343200Y321800D02*
D03*
X338100Y342500D02*
D03*
X338500Y332300D02*
D03*
X345000Y301300D02*
D03*
X340900Y293000D02*
D03*
X343200Y311800D02*
D03*
X376955Y322345D02*
D03*
X376955Y312455D02*
D03*
X376955Y333500D02*
D03*
X376955Y302145D02*
D03*
Y292055D02*
D03*
X394341Y327200D02*
D03*
X359788Y333200D02*
D03*
X359788Y321300D02*
D03*
X360585Y327200D02*
D03*
X395612Y333200D02*
D03*
X395612Y321300D02*
D03*
X384588Y333200D02*
D03*
X371837Y327200D02*
D03*
X350500Y312000D02*
D03*
X389100Y263000D02*
D03*
X391712Y260300D02*
D03*
X355000Y312500D02*
D03*
X358500D02*
D03*
X362000D02*
D03*
X378269Y342769D02*
D03*
X374250Y263000D02*
D03*
X379000D02*
D03*
X344800Y256300D02*
D03*
X353500Y274500D02*
D03*
X356750Y273350D02*
D03*
X351700Y238200D02*
D03*
X345700Y236400D02*
D03*
X376000Y231500D02*
D03*
X362700Y232088D02*
D03*
X383500Y246000D02*
D03*
X347700Y259411D02*
D03*
X346300Y253400D02*
D03*
X424000Y221900D02*
D03*
X435761Y297500D02*
D03*
X430643Y297943D02*
D03*
X439250Y296350D02*
D03*
Y349250D02*
D03*
X460900Y197700D02*
D03*
X451100Y212000D02*
D03*
X433159Y213200D02*
D03*
X460740Y191360D02*
D03*
Y181040D02*
D03*
X458019Y173700D02*
D03*
X466913Y170838D02*
D03*
X440400Y196200D02*
D03*
X430141Y185941D02*
D03*
X367200Y275700D02*
D03*
X449000Y440459D02*
D03*
X456867D02*
D03*
X464734D02*
D03*
X472600D02*
D03*
X480467D02*
D03*
X496200D02*
D03*
X504067D02*
D03*
X511934D02*
D03*
X519800D02*
D03*
X527667D02*
D03*
X535534D02*
D03*
X543400D02*
D03*
X551267D02*
D03*
X559134D02*
D03*
X567000D02*
D03*
X574867D02*
D03*
X582734D02*
D03*
X590600D02*
D03*
X598467D02*
D03*
X606333D02*
D03*
X614200D02*
D03*
X622067D02*
D03*
X629934D02*
D03*
X488334D02*
D03*
X393400Y353400D02*
D03*
X368600Y375600D02*
D03*
X346900D02*
D03*
X400425Y346726D02*
D03*
X397800Y380400D02*
D03*
X401200Y379900D02*
D03*
X407268Y377168D02*
D03*
X394359Y377400D02*
D03*
X402400Y373400D02*
D03*
X403800Y376500D02*
D03*
D123*
X667000Y177500D02*
D03*
X710000Y219700D02*
D03*
Y188600D02*
D03*
D124*
X596000Y405000D02*
D03*
Y177500D02*
D03*
Y223000D02*
D03*
Y268500D02*
D03*
Y314000D02*
D03*
Y359500D02*
D03*
D125*
X680779Y192281D02*
D03*
X693863Y205365D02*
D03*
X669324Y203736D02*
D03*
X682408Y216820D02*
D03*
D126*
X370812Y333200D02*
D03*
X370812Y327250D02*
D03*
X370812Y321300D02*
D03*
X384588Y333200D02*
D03*
X384588Y327250D02*
D03*
X384588Y321300D02*
D03*
D127*
X359788Y333200D02*
D03*
X359788Y327250D02*
D03*
X359788Y321300D02*
D03*
X395612Y333200D02*
D03*
X395612Y327250D02*
D03*
Y321300D02*
D03*
D128*
X337521Y272802D02*
D03*
Y310598D02*
D03*
Y319802D02*
D03*
Y357598D02*
D03*
D129*
X698500Y219700D02*
X710000D01*
D130*
X669400Y192250D02*
D03*
D131*
X697450Y224250D02*
D03*
D132*
X691100Y212250D02*
D03*
D133*
X694150Y217400D02*
D03*
M02*
