G04*
G04 #@! TF.GenerationSoftware,Altium Limited,Altium Designer,20.0.12 (288)*
G04*
G04 Layer_Color=255*
%FSLAX25Y25*%
%MOIN*%
G70*
G01*
G75*
%ADD25R,0.33465X0.39370*%
%ADD26R,0.12598X0.06299*%
%ADD27R,0.10236X0.12402*%
%ADD28R,0.06102X0.02362*%
G04:AMPARAMS|DCode=29|XSize=78.74mil|YSize=47.24mil|CornerRadius=0mil|HoleSize=0mil|Usage=FLASHONLY|Rotation=180.000|XOffset=0mil|YOffset=0mil|HoleType=Round|Shape=Octagon|*
%AMOCTAGOND29*
4,1,8,-0.03937,0.01181,-0.03937,-0.01181,-0.02756,-0.02362,0.02756,-0.02362,0.03937,-0.01181,0.03937,0.01181,0.02756,0.02362,-0.02756,0.02362,-0.03937,0.01181,0.0*
%
%ADD29OCTAGOND29*%

%ADD30R,0.03000X0.03000*%
%ADD31R,0.03000X0.03000*%
%ADD32R,0.03937X0.10630*%
%ADD33O,0.03937X0.10630*%
%ADD34R,0.05906X0.04724*%
%ADD35P,0.04243X4X180.0*%
%ADD36P,0.04243X4X90.0*%
G04:AMPARAMS|DCode=37|XSize=43.31mil|YSize=51.18mil|CornerRadius=0mil|HoleSize=0mil|Usage=FLASHONLY|Rotation=225.000|XOffset=0mil|YOffset=0mil|HoleType=Round|Shape=Rectangle|*
%AMROTATEDRECTD37*
4,1,4,-0.00278,0.03341,0.03341,-0.00278,0.00278,-0.03341,-0.03341,0.00278,-0.00278,0.03341,0.0*
%
%ADD37ROTATEDRECTD37*%

G04:AMPARAMS|DCode=38|XSize=9.84mil|YSize=61.02mil|CornerRadius=0mil|HoleSize=0mil|Usage=FLASHONLY|Rotation=135.000|XOffset=0mil|YOffset=0mil|HoleType=Round|Shape=Round|*
%AMOVALD38*
21,1,0.05118,0.00984,0.00000,0.00000,225.0*
1,1,0.00984,0.01810,0.01810*
1,1,0.00984,-0.01810,-0.01810*
%
%ADD38OVALD38*%

G04:AMPARAMS|DCode=39|XSize=9.84mil|YSize=61.02mil|CornerRadius=0mil|HoleSize=0mil|Usage=FLASHONLY|Rotation=45.000|XOffset=0mil|YOffset=0mil|HoleType=Round|Shape=Round|*
%AMOVALD39*
21,1,0.05118,0.00984,0.00000,0.00000,135.0*
1,1,0.00984,0.01810,-0.01810*
1,1,0.00984,-0.01810,0.01810*
%
%ADD39OVALD39*%

%ADD40R,0.05000X0.03500*%
G04:AMPARAMS|DCode=41|XSize=51.18mil|YSize=39.37mil|CornerRadius=0mil|HoleSize=0mil|Usage=FLASHONLY|Rotation=270.000|XOffset=0mil|YOffset=0mil|HoleType=Round|Shape=Octagon|*
%AMOCTAGOND41*
4,1,8,-0.00984,-0.02559,0.00984,-0.02559,0.01968,-0.01575,0.01968,0.01575,0.00984,0.02559,-0.00984,0.02559,-0.01968,0.01575,-0.01968,-0.01575,-0.00984,-0.02559,0.0*
%
%ADD41OCTAGOND41*%

%ADD42R,0.03937X0.05118*%
%ADD43R,0.07874X0.07874*%
%ADD44R,0.12598X0.06496*%
%ADD45R,0.01968X0.05906*%
%ADD46O,0.01968X0.05906*%
%ADD47R,0.04724X0.01968*%
%ADD48R,0.03937X0.01772*%
%ADD49R,0.10630X0.03937*%
%ADD50O,0.10630X0.03937*%
%ADD51O,0.04724X0.00984*%
%ADD52R,0.01181X0.05118*%
%ADD53R,0.02000X0.05118*%
%ADD54R,0.02362X0.05118*%
%ADD55R,0.01968X0.04724*%
%ADD56R,0.07874X0.01496*%
%ADD57R,0.03543X0.02756*%
%ADD98C,0.02559*%
%ADD112C,0.09843*%
%ADD113R,0.09843X0.09843*%
%ADD114C,0.20000*%
%ADD115R,0.06693X0.06693*%
%ADD116C,0.06693*%
%ADD117O,0.03800X0.08000*%
D25*
X596000Y177500D02*
D03*
Y405000D02*
D03*
Y359500D02*
D03*
X665158Y405000D02*
D03*
X665158Y359500D02*
D03*
Y314000D02*
D03*
X596000D02*
D03*
X665158Y223000D02*
D03*
X596000Y268500D02*
D03*
X665158D02*
D03*
Y177500D02*
D03*
X596000Y223000D02*
D03*
D26*
X555842Y187500D02*
D03*
Y167500D02*
D03*
Y415000D02*
D03*
Y395000D02*
D03*
Y369500D02*
D03*
Y349500D02*
D03*
X625000Y415000D02*
D03*
Y395000D02*
D03*
X625000Y369500D02*
D03*
Y349500D02*
D03*
Y324000D02*
D03*
Y304000D02*
D03*
X555842Y324000D02*
D03*
Y304000D02*
D03*
X625000Y233000D02*
D03*
Y213000D02*
D03*
X555842Y278500D02*
D03*
Y258500D02*
D03*
X625000Y278500D02*
D03*
Y258500D02*
D03*
Y187500D02*
D03*
Y167500D02*
D03*
X555842Y233000D02*
D03*
Y213000D02*
D03*
D27*
X650727Y438100D02*
D03*
X679073D02*
D03*
D28*
X352500Y251537D02*
D03*
Y247600D02*
D03*
X352500Y259411D02*
D03*
Y255474D02*
D03*
X352500Y263348D02*
D03*
Y267285D02*
D03*
D29*
X337700Y242300D02*
D03*
X337700Y272047D02*
D03*
D30*
X476500Y162641D02*
D03*
Y167759D02*
D03*
X470167Y162641D02*
D03*
Y167759D02*
D03*
X381400Y186241D02*
D03*
Y191359D02*
D03*
X413800Y204141D02*
D03*
Y209259D02*
D03*
X419800Y204141D02*
D03*
Y209259D02*
D03*
X446800Y334059D02*
D03*
Y328941D02*
D03*
X439250Y334059D02*
D03*
Y328941D02*
D03*
X431700Y334059D02*
D03*
Y328941D02*
D03*
X446800Y251718D02*
D03*
Y246600D02*
D03*
X439400Y251718D02*
D03*
Y246600D02*
D03*
X431700Y251659D02*
D03*
Y246541D02*
D03*
X501175Y374041D02*
D03*
Y379159D02*
D03*
X496200Y374041D02*
D03*
Y379159D02*
D03*
X516100D02*
D03*
Y374041D02*
D03*
X501100Y229241D02*
D03*
Y234359D02*
D03*
X496200Y229241D02*
D03*
Y234359D02*
D03*
X516300D02*
D03*
Y229241D02*
D03*
X503300Y168841D02*
D03*
Y173959D02*
D03*
X385600Y411300D02*
D03*
Y406182D02*
D03*
X392300Y411300D02*
D03*
X392300Y406182D02*
D03*
X396241Y426341D02*
D03*
Y431459D02*
D03*
X463834Y167759D02*
D03*
X463834Y162641D02*
D03*
X429700Y446759D02*
D03*
X429700Y441641D02*
D03*
X457500Y167759D02*
D03*
X457500Y162641D02*
D03*
X506150Y379159D02*
D03*
Y374041D02*
D03*
X511125D02*
D03*
Y379159D02*
D03*
X486250D02*
D03*
Y374041D02*
D03*
X491225D02*
D03*
Y379159D02*
D03*
X481275D02*
D03*
Y374041D02*
D03*
X476300D02*
D03*
Y379159D02*
D03*
X518900Y312641D02*
D03*
X518900Y317759D02*
D03*
X485985Y330899D02*
D03*
Y336017D02*
D03*
X491128Y336017D02*
D03*
Y330899D02*
D03*
X480842D02*
D03*
Y336017D02*
D03*
X475700D02*
D03*
X475700Y330899D02*
D03*
X503500Y330899D02*
D03*
Y336017D02*
D03*
X498400D02*
D03*
Y330899D02*
D03*
X520900Y351559D02*
D03*
Y346441D02*
D03*
X509100Y330899D02*
D03*
Y336017D02*
D03*
X514500D02*
D03*
Y330899D02*
D03*
X506200Y234359D02*
D03*
Y229241D02*
D03*
X511200D02*
D03*
Y234359D02*
D03*
X486400D02*
D03*
Y229241D02*
D03*
X491300D02*
D03*
Y234359D02*
D03*
X481500D02*
D03*
Y229241D02*
D03*
X476500D02*
D03*
Y234359D02*
D03*
X486400Y186098D02*
D03*
Y191216D02*
D03*
X491900Y191217D02*
D03*
Y186099D02*
D03*
X480900Y186098D02*
D03*
Y191216D02*
D03*
X475900Y191217D02*
D03*
Y186099D02*
D03*
X503500Y186098D02*
D03*
Y191216D02*
D03*
X498400Y191217D02*
D03*
Y186099D02*
D03*
X521000Y206618D02*
D03*
X521000Y201500D02*
D03*
X509100Y186098D02*
D03*
Y191216D02*
D03*
X514500Y191217D02*
D03*
Y186099D02*
D03*
X401359Y431459D02*
D03*
Y426341D02*
D03*
X437100Y368100D02*
D03*
Y373218D02*
D03*
X430800D02*
D03*
Y368100D02*
D03*
X388600Y356059D02*
D03*
X388600Y350941D02*
D03*
X402900Y363741D02*
D03*
Y368859D02*
D03*
X377000Y363241D02*
D03*
Y368359D02*
D03*
D31*
X457000Y208500D02*
D03*
X462118D02*
D03*
X457000Y202500D02*
D03*
X462118D02*
D03*
X336322Y236400D02*
D03*
X341440D02*
D03*
X336322Y230500D02*
D03*
X341440D02*
D03*
X435761Y293039D02*
D03*
X430643D02*
D03*
X428041Y213200D02*
D03*
X433159D02*
D03*
X481141Y384300D02*
D03*
X486259D02*
D03*
X503341Y317700D02*
D03*
X508459Y317700D02*
D03*
X522141Y340400D02*
D03*
X527259D02*
D03*
X481341Y239600D02*
D03*
X486459D02*
D03*
X521841Y195600D02*
D03*
X526959D02*
D03*
X365704Y337600D02*
D03*
X360585D02*
D03*
X365704Y327200D02*
D03*
X360585D02*
D03*
X365704Y317200D02*
D03*
X360585D02*
D03*
X338082Y287001D02*
D03*
X343200Y287001D02*
D03*
X338082Y297101D02*
D03*
X343200D02*
D03*
X338082Y307101D02*
D03*
X343200D02*
D03*
X399459Y337600D02*
D03*
X394341D02*
D03*
X399459Y327200D02*
D03*
X394341D02*
D03*
X399459Y317200D02*
D03*
X394341D02*
D03*
X371837Y287001D02*
D03*
X376955Y287001D02*
D03*
X371837Y297101D02*
D03*
X376955D02*
D03*
X371837Y307101D02*
D03*
X376955D02*
D03*
X430141Y179600D02*
D03*
X435259Y179600D02*
D03*
X430141Y174500D02*
D03*
X435259Y174500D02*
D03*
X415359Y419700D02*
D03*
X410241D02*
D03*
X501641Y425500D02*
D03*
X506759D02*
D03*
X501641Y417633D02*
D03*
X506759D02*
D03*
X501641Y409766D02*
D03*
X506759Y409766D02*
D03*
X501641Y401900D02*
D03*
X506759D02*
D03*
X501641Y301500D02*
D03*
X506759D02*
D03*
X501641Y292060D02*
D03*
X506759D02*
D03*
X501641Y282620D02*
D03*
X506759D02*
D03*
X501641Y273180D02*
D03*
X506759D02*
D03*
X501641Y263740D02*
D03*
X506759D02*
D03*
X501641Y254300D02*
D03*
X506759D02*
D03*
X501641Y157400D02*
D03*
X506759D02*
D03*
X501641Y148900D02*
D03*
X506759D02*
D03*
X491859Y390200D02*
D03*
X486741D02*
D03*
X475741Y390200D02*
D03*
X480859D02*
D03*
X508459Y311600D02*
D03*
X503341D02*
D03*
X537659Y340400D02*
D03*
X532541D02*
D03*
X492059Y245500D02*
D03*
X486941Y245500D02*
D03*
X475841Y245500D02*
D03*
X480959D02*
D03*
X515059Y173900D02*
D03*
X509941D02*
D03*
X515059Y168600D02*
D03*
X509941D02*
D03*
X532059Y201500D02*
D03*
X526941D02*
D03*
X414659Y444500D02*
D03*
X409541Y444500D02*
D03*
X401359Y438200D02*
D03*
X396241D02*
D03*
X401359Y444500D02*
D03*
X396241D02*
D03*
X338082Y337600D02*
D03*
X343200Y337600D02*
D03*
X338082Y327200D02*
D03*
X343200Y327200D02*
D03*
X338082Y317200D02*
D03*
X343200D02*
D03*
X349334Y337600D02*
D03*
X354452Y337600D02*
D03*
X349334Y327200D02*
D03*
X354452Y327200D02*
D03*
X349334Y317200D02*
D03*
X354452Y317200D02*
D03*
X349334Y307101D02*
D03*
X354452Y307101D02*
D03*
X349334Y297101D02*
D03*
X354452D02*
D03*
X349334Y287001D02*
D03*
X354452D02*
D03*
X371837Y337600D02*
D03*
X376955D02*
D03*
X371837Y327200D02*
D03*
X376955D02*
D03*
X371837Y317200D02*
D03*
X376955D02*
D03*
X383089Y337600D02*
D03*
X388207D02*
D03*
X383089Y327200D02*
D03*
X388207D02*
D03*
X383089Y317200D02*
D03*
X388207D02*
D03*
X383089Y307101D02*
D03*
X388207D02*
D03*
X383089Y297101D02*
D03*
X388207D02*
D03*
X383089Y287001D02*
D03*
X388207D02*
D03*
X402859Y356800D02*
D03*
X397741D02*
D03*
D32*
X440400Y208400D02*
D03*
X379500Y420700D02*
D03*
D33*
X440400Y184778D02*
D03*
X379500Y444322D02*
D03*
D34*
X337060Y211304D02*
D03*
Y224296D02*
D03*
D35*
X365991Y196109D02*
D03*
X369610Y192490D02*
D03*
X344510Y196890D02*
D03*
X340891Y200510D02*
D03*
X353391Y183510D02*
D03*
X357010Y179891D02*
D03*
X365410Y188291D02*
D03*
X361791Y191910D02*
D03*
X361210Y184090D02*
D03*
X357591Y187709D02*
D03*
D36*
X369890Y184290D02*
D03*
X373510Y187909D02*
D03*
X355490Y196090D02*
D03*
X359109Y199709D02*
D03*
X403710Y261610D02*
D03*
X400091Y257991D02*
D03*
X399510Y265810D02*
D03*
X395890Y262191D02*
D03*
D37*
X355346Y204943D02*
D03*
X350057Y199654D02*
D03*
X348943Y211346D02*
D03*
X343654Y206057D02*
D03*
D38*
X392339Y248381D02*
D03*
X390947Y249773D02*
D03*
X386771Y253949D02*
D03*
X388163Y252557D02*
D03*
X389555Y251165D02*
D03*
X393731Y246989D02*
D03*
X395123Y245597D02*
D03*
X396515Y244205D02*
D03*
X397907Y242813D02*
D03*
X399299Y241421D02*
D03*
X400691Y240030D02*
D03*
X402082Y238638D02*
D03*
X403474Y237246D02*
D03*
X404866Y235854D02*
D03*
X406258Y234462D02*
D03*
X407650Y233070D02*
D03*
X377030Y202449D02*
D03*
X375638Y203841D02*
D03*
X374246Y205233D02*
D03*
X372854Y206625D02*
D03*
X371462Y208017D02*
D03*
X370070Y209409D02*
D03*
X368678Y210801D02*
D03*
X367286Y212193D02*
D03*
X365894Y213585D02*
D03*
X364502Y214977D02*
D03*
X363110Y216369D02*
D03*
X361718Y217761D02*
D03*
X360327Y219153D02*
D03*
X358934Y220545D02*
D03*
X357542Y221936D02*
D03*
X356151Y223328D02*
D03*
D39*
Y233070D02*
D03*
X357542Y234462D02*
D03*
X358934Y235854D02*
D03*
X360327Y237246D02*
D03*
X361718Y238638D02*
D03*
X363110Y240030D02*
D03*
X364502Y241421D02*
D03*
X365894Y242813D02*
D03*
X367286Y244205D02*
D03*
X368678Y245597D02*
D03*
X370070Y246989D02*
D03*
X371462Y248381D02*
D03*
X372854Y249773D02*
D03*
X374246Y251165D02*
D03*
X375638Y252557D02*
D03*
X377030Y253949D02*
D03*
X407650Y223328D02*
D03*
X406258Y221936D02*
D03*
X404866Y220545D02*
D03*
X403474Y219153D02*
D03*
X402082Y217761D02*
D03*
X400691Y216369D02*
D03*
X399299Y214977D02*
D03*
X397907Y213585D02*
D03*
X396515Y212193D02*
D03*
X395123Y210801D02*
D03*
X393731Y209409D02*
D03*
X392339Y208017D02*
D03*
X390947Y206625D02*
D03*
X389555Y205233D02*
D03*
X388163Y203841D02*
D03*
X386771Y202449D02*
D03*
D40*
X422500Y440459D02*
D03*
X422500Y447940D02*
D03*
X629934Y447940D02*
D03*
Y440459D02*
D03*
X622067Y447940D02*
D03*
Y440459D02*
D03*
X614200Y447940D02*
D03*
Y440459D02*
D03*
X606333Y447940D02*
D03*
Y440459D02*
D03*
X598467Y447940D02*
D03*
Y440459D02*
D03*
X590600Y447940D02*
D03*
Y440459D02*
D03*
X582734Y447940D02*
D03*
Y440459D02*
D03*
X574867Y447940D02*
D03*
Y440459D02*
D03*
X567000Y447940D02*
D03*
Y440459D02*
D03*
X559134Y447940D02*
D03*
Y440459D02*
D03*
X551267Y447940D02*
D03*
Y440459D02*
D03*
X543400Y447940D02*
D03*
Y440459D02*
D03*
X535534Y447940D02*
D03*
Y440459D02*
D03*
X527667Y447940D02*
D03*
Y440459D02*
D03*
X519800Y447940D02*
D03*
Y440459D02*
D03*
X511934Y447940D02*
D03*
Y440459D02*
D03*
X504067Y447940D02*
D03*
Y440459D02*
D03*
X496200Y447940D02*
D03*
Y440459D02*
D03*
X488334Y447940D02*
D03*
Y440459D02*
D03*
X480467Y447940D02*
D03*
Y440459D02*
D03*
X472600Y447940D02*
D03*
Y440459D02*
D03*
X464734Y447940D02*
D03*
Y440459D02*
D03*
X456867Y447940D02*
D03*
Y440459D02*
D03*
X449000Y447940D02*
D03*
Y440459D02*
D03*
D41*
X446800Y341517D02*
D03*
X439250D02*
D03*
X431700D02*
D03*
X446800Y259200D02*
D03*
X439250D02*
D03*
X431700D02*
D03*
D42*
X446800Y356083D02*
D03*
X439250D02*
D03*
X431700D02*
D03*
X446800Y273767D02*
D03*
X439250D02*
D03*
X431700D02*
D03*
D43*
X415474Y407600D02*
D03*
X399726D02*
D03*
D44*
X532300Y394989D02*
D03*
Y418414D02*
D03*
X532300Y348669D02*
D03*
Y372094D02*
D03*
X532300Y308149D02*
D03*
X532300Y331574D02*
D03*
X532300Y252729D02*
D03*
X532300Y276154D02*
D03*
X532300Y209709D02*
D03*
Y233134D02*
D03*
Y163389D02*
D03*
Y186814D02*
D03*
D45*
X508750Y365770D02*
D03*
X509100Y220300D02*
D03*
D46*
X503750Y365770D02*
D03*
X498750Y365770D02*
D03*
X493750Y365770D02*
D03*
X488750Y365770D02*
D03*
X483750Y365770D02*
D03*
X478750D02*
D03*
Y346085D02*
D03*
X483750D02*
D03*
X488750Y346085D02*
D03*
X493750Y346085D02*
D03*
X498750Y346085D02*
D03*
X503750Y346085D02*
D03*
X508750D02*
D03*
X504100Y220300D02*
D03*
X499100D02*
D03*
X494100D02*
D03*
X489100D02*
D03*
X484100D02*
D03*
X479100D02*
D03*
Y200615D02*
D03*
X484100D02*
D03*
X489100D02*
D03*
X494100D02*
D03*
X499100D02*
D03*
X504100D02*
D03*
X509100D02*
D03*
D47*
X440788Y177440D02*
D03*
Y169960D02*
D03*
X451812Y173700D02*
D03*
Y169960D02*
D03*
Y177440D02*
D03*
D48*
X418500Y426160D02*
D03*
Y429900D02*
D03*
Y433640D02*
D03*
X407500Y433640D02*
D03*
Y429900D02*
D03*
X407500Y426160D02*
D03*
D49*
X339389Y358300D02*
D03*
Y385400D02*
D03*
D50*
X363011Y358300D02*
D03*
X363011Y385400D02*
D03*
D51*
X452411Y300984D02*
D03*
Y303543D02*
D03*
Y306102D02*
D03*
Y308661D02*
D03*
Y311220D02*
D03*
Y313779D02*
D03*
Y316339D02*
D03*
Y318898D02*
D03*
Y321457D02*
D03*
Y324016D02*
D03*
X428789Y300984D02*
D03*
X428789Y303543D02*
D03*
X428789Y306102D02*
D03*
X428789Y308661D02*
D03*
X428789Y311221D02*
D03*
X428789Y313779D02*
D03*
X428789Y316339D02*
D03*
Y318898D02*
D03*
Y321457D02*
D03*
Y324016D02*
D03*
X452411Y218484D02*
D03*
Y221043D02*
D03*
Y223602D02*
D03*
Y226161D02*
D03*
Y228720D02*
D03*
Y231279D02*
D03*
Y233839D02*
D03*
Y236398D02*
D03*
Y238957D02*
D03*
Y241516D02*
D03*
X428789Y218484D02*
D03*
X428789Y221043D02*
D03*
X428789Y223602D02*
D03*
X428789Y226161D02*
D03*
X428789Y228720D02*
D03*
X428789Y231279D02*
D03*
X428789Y233839D02*
D03*
Y236398D02*
D03*
Y238957D02*
D03*
Y241516D02*
D03*
D52*
X396247Y175095D02*
D03*
X398216Y175095D02*
D03*
X400184D02*
D03*
X402153Y175095D02*
D03*
D53*
X389751D02*
D03*
X408649D02*
D03*
D54*
X386602D02*
D03*
X411798D02*
D03*
D55*
X464480Y196900D02*
D03*
X457000D02*
D03*
X460740Y185876D02*
D03*
X457000D02*
D03*
X464480D02*
D03*
D56*
X414000Y357876D02*
D03*
X414000Y360632D02*
D03*
Y363388D02*
D03*
Y366144D02*
D03*
Y368900D02*
D03*
Y374412D02*
D03*
X414000Y377168D02*
D03*
X414000Y379924D02*
D03*
Y382680D02*
D03*
Y355121D02*
D03*
Y371656D02*
D03*
D57*
X384069Y369540D02*
D03*
Y362060D02*
D03*
X392731Y365800D02*
D03*
D98*
X387822Y170193D02*
D03*
X410578Y170193D02*
D03*
D112*
X696630Y314200D02*
D03*
Y344200D02*
D03*
Y374200D02*
D03*
Y254200D02*
D03*
Y284200D02*
D03*
Y224200D02*
D03*
Y194200D02*
D03*
D113*
Y404200D02*
D03*
D114*
X709770Y161400D02*
D03*
Y435100D02*
D03*
X349206Y161400D02*
D03*
Y435100D02*
D03*
D115*
X484600Y150500D02*
D03*
D116*
X474600D02*
D03*
X464600D02*
D03*
X454600D02*
D03*
X444600D02*
D03*
X434600D02*
D03*
X424600D02*
D03*
D117*
X382192Y172162D02*
D03*
X416208Y172162D02*
D03*
X382192Y155705D02*
D03*
X416208D02*
D03*
M02*
