M48
;Layer_Color=9474304
;FILE_FORMAT=2:5
INCH,LZ
;TYPE=PLATED
T1F00S00C0.01200
T3F00S00C0.03543
T4F00S00C0.04724
T5F00S00C0.12000
T6F00S00C0.12500
T7F00S00C0.13780
;TYPE=NON_PLATED
T8F00S00C0.02559
%
T01
X0515059Y0161541
X05282Y01719
Y01767
Y01815
X05323Y01791
Y01743
X05364Y01719
Y01767
Y01815
X05366Y02181
Y02229
Y02277
X05323Y02253
Y02205
X0528Y02229
Y02277
Y02181
X05162Y0206618
X05023Y02071
X04966Y02068
X04882Y02066
X04791Y02068
Y02139
X05041Y02155
X04962Y02388
X04913Y02386
X0475841Y0239941
X04693Y0249
Y02715
Y02945
Y03092
X0508459Y0306459
X05279Y0271
X05279Y02662
X05279Y02614
X05322Y02638
Y02686
X05365Y02662
Y02614
Y0271
X05323Y0252729
X05108Y02455
X05163Y02388
X04588Y02342
X04625Y0226
X04575Y0218
X04511Y0212
X04463Y02154
X0433159Y02132
X0435761Y0226161
X0424Y02219
X04145Y023
Y0235
X04128Y0238219
X0412Y02325
X04008
X0398445Y0235
Y023
X03924Y02232
X0391712Y0214212
X03955Y02035
X03958Y01993
X03862Y01972
X03833Y02
X03805
X03723Y019518
X03655Y0205
X03616Y02066
X0373239Y0215361
X03715Y02183
X03706Y02215
X0372Y0225
X0376Y02241
Y02278
Y02315
X03694Y02294
X03668Y02356
X03627Y0232088
X036022Y0229
X03517Y02382
X03457Y02364
X03388Y02423
X03463Y02534
X03448Y02563
X03477Y0259411
X03475Y02655
X03508Y02714
X03535Y02745
X035675Y027335
X036Y02722
X036925Y02716
X037335
X03754Y02757
X03713
X03672
X03673Y0286
X0376955Y0292055
Y0302145
Y0312455
X03505Y0312
X03432Y03118
X0345Y03013
X03409Y0293
X03405Y0282
X0347Y02828
X03369Y02779
X03355Y0265
X03385Y02622
X03695Y02632
X037425Y0263
X0379
X0376625Y02603
X0371875
X038059Y025751
X03865Y02603
X0391712
X03891Y0263
X0407Y02649
X03929Y0282
X0412972Y0300984
X0415645Y0303543
X0420989Y0300984
X0423661Y0303543
X0420989Y0310784
X04325Y0306102
X0435761Y0308661
Y02975
X043925Y029635
X04476Y02965
X04575Y03005
X0462Y0309
X0430643Y0297943
X03835Y0246
X03865Y0237623
X03891Y024
X04075Y0213
X04105Y0214
X041Y020034
X04235Y02013
X04404Y01962
X0430141Y0185941
X0411798Y0181802
X04006Y01813
X03978
X0386602Y0181802
X03668Y01812
X0350057Y0194043
X0345789Y02145
X04609Y01977
X046074Y019136
Y018104
X0458019Y01737
X0466913Y0170838
X04589Y03171
X0423661Y0316339
X0415645Y03199
X0412972Y0313779
X0395612Y03213
X0394341Y03272
X0395612Y03332
X0384588
X0376955Y03335
X0378269Y0342769
X0389Y03426
X03934Y03534
X0400425Y0346726
X0417Y03515
X042075
X04245
X0435761Y03512
X043925Y034925
X0407268Y0377168
X04038Y03765
X04024Y03734
X04012Y03799
X03978Y03804
X0394359Y03774
X03686Y03756
X03469
X03547Y03854
X03554Y03583
X0365704Y0345897
X0359788Y03332
X0360585Y03272
X0359788Y03213
X03585Y03125
X0355
X0362
X0371837Y03272
X0376955Y0322345
X03432Y03218
X03385Y03323
X03381Y03425
X03856Y04166
X0387278Y0444322
X04245Y04287
X04249Y04254
X04223Y04235
X0449Y0440459
X0456867
X0464734
X04726
X0480467
X0488334
X04962
X0504067
X0511934
X05198
X0527667
X0535534
X05434
X0551267
X0559134
X0567
X0574867
X0582734
X05906
X0598467
X0606333
X06142
X0622067
X05366Y04134
Y04086
Y04038
X05323Y04062
Y0411
X0528Y04086
Y04038
Y04134
X05323Y0394989
X0509811
X0511125Y03837
X04962
X0475741Y0384759
X047875Y036015
Y035205
X04954Y03528
X0504Y0353
X05161Y0351559
X05279Y03572
Y0362
Y03668
X05322Y03644
Y03596
X05365Y03572
Y0362
Y03668
X05367Y03264
Y03216
Y03168
X05324Y03192
Y0324
X05281Y03216
Y03168
Y03264
X0629934Y0440459
X06582Y0439025
Y043555
Y0432075
X06598Y04286
X06638
X06678
X0665Y04322
X06654Y04425
X06582
X06558Y04286
X06518
T03
X04246Y01505
X04346
X04446
X04546
X04646
X04746
X04846
T04
X069663Y01942
Y02242
Y02542
Y02842
Y03142
Y03442
Y03742
Y04042
T05
X0596Y01775
Y0223
Y02685
Y0314
Y03595
Y0405
T06
X070977Y01614
X0349206
Y04351
X070977
T07
X0667Y01775
X071Y01886
Y02197
T08
X0387822Y0170193
X0410578Y0170193
M30
