G04*
G04 #@! TF.GenerationSoftware,Altium Limited,Altium Designer,20.0.12 (288)*
G04*
G04 Layer_Color=16711935*
%FSLAX25Y25*%
%MOIN*%
G70*
G01*
G75*
%ADD58C,0.09500*%
%ADD63R,0.06902X0.03162*%
%ADD93C,0.10642*%
%ADD94R,0.10642X0.10642*%
%ADD95C,0.20800*%
%ADD96R,0.07493X0.07493*%
%ADD97C,0.07493*%
%ADD98C,0.02559*%
%ADD99O,0.04600X0.08800*%
%ADD100C,0.20485*%
%ADD101C,0.18800*%
G04:AMPARAMS|DCode=130|XSize=106.77mil|YSize=110.31mil|CornerRadius=0mil|HoleSize=0mil|Usage=FLASHONLY|Rotation=45.000|XOffset=0mil|YOffset=0mil|HoleType=Round|Shape=Rectangle|*
%AMROTATEDRECTD130*
4,1,4,0.00125,-0.07675,-0.07675,0.00125,-0.00125,0.07675,0.07675,-0.00125,0.00125,-0.07675,0.0*
%
%ADD130ROTATEDRECTD130*%

G04:AMPARAMS|DCode=131|XSize=94.61mil|YSize=106.42mil|CornerRadius=0mil|HoleSize=0mil|Usage=FLASHONLY|Rotation=135.000|XOffset=0mil|YOffset=0mil|HoleType=Round|Shape=Rectangle|*
%AMROTATEDRECTD131*
4,1,4,0.07108,0.00418,-0.00418,-0.07108,-0.07108,-0.00418,0.00418,0.07108,0.07108,0.00418,0.0*
%
%ADD131ROTATEDRECTD131*%

G04:AMPARAMS|DCode=132|XSize=47.37mil|YSize=39.5mil|CornerRadius=0mil|HoleSize=0mil|Usage=FLASHONLY|Rotation=0.000|XOffset=0mil|YOffset=0mil|HoleType=Round|Shape=Octagon|*
%AMOCTAGOND132*
4,1,8,0.02368,-0.00987,0.02368,0.00987,0.01381,0.01975,-0.01381,0.01975,-0.02368,0.00987,-0.02368,-0.00987,-0.01381,-0.01975,0.01381,-0.01975,0.02368,-0.00987,0.0*
%
%ADD132OCTAGOND132*%

%ADD133R,0.04737X0.03950*%
%ADD134R,0.07887X0.05524*%
D58*
X619930Y177500D02*
X696630Y254200D01*
X596000Y177500D02*
X619930D01*
X680000Y284200D02*
X696630D01*
X618800Y223000D02*
X680000Y284200D01*
X596000Y223000D02*
X618800D01*
X659800Y314200D02*
X696630D01*
X614100Y268500D02*
X659800Y314200D01*
X596000Y268500D02*
X614100D01*
X642800Y344200D02*
X696630D01*
X612600Y314000D02*
X642800Y344200D01*
X596000Y314000D02*
X612600D01*
X596000Y359500D02*
X612600D01*
X627300Y374200D01*
X696630D01*
X641600Y405000D02*
X642400Y404200D01*
X596000Y405000D02*
X641600D01*
X642400Y404200D02*
X696630D01*
D63*
X352679Y277921D02*
D03*
Y305480D02*
D03*
Y293669D02*
D03*
Y281857D02*
D03*
Y289732D02*
D03*
Y285794D02*
D03*
Y301542D02*
D03*
Y297605D02*
D03*
Y324921D02*
D03*
Y352480D02*
D03*
Y340669D02*
D03*
Y328857D02*
D03*
Y336732D02*
D03*
Y332794D02*
D03*
Y348542D02*
D03*
Y344605D02*
D03*
D93*
X696630Y314200D02*
D03*
Y344200D02*
D03*
Y374200D02*
D03*
Y254200D02*
D03*
Y284200D02*
D03*
Y224200D02*
D03*
Y194200D02*
D03*
D94*
Y404200D02*
D03*
D95*
X709770Y161400D02*
D03*
Y435100D02*
D03*
X349206Y161400D02*
D03*
Y435100D02*
D03*
D96*
X484600Y150500D02*
D03*
D97*
X474600D02*
D03*
X464600D02*
D03*
X454600D02*
D03*
X444600D02*
D03*
X434600D02*
D03*
X424600D02*
D03*
D98*
X387822Y170193D02*
D03*
X410578Y170193D02*
D03*
D99*
X382192Y172162D02*
D03*
X416208Y172162D02*
D03*
X382192Y155705D02*
D03*
X416208D02*
D03*
D100*
X667000Y177500D02*
D03*
X710000Y219700D02*
D03*
Y188600D02*
D03*
D101*
X596000Y405000D02*
D03*
Y177500D02*
D03*
Y223000D02*
D03*
Y268500D02*
D03*
Y314000D02*
D03*
Y359500D02*
D03*
D130*
X687791Y211375D02*
D03*
X675075Y197975D02*
D03*
D131*
X680779Y192281D02*
D03*
X693863Y205365D02*
D03*
X669324Y203736D02*
D03*
X682408Y216820D02*
D03*
D132*
X370812Y333200D02*
D03*
X370812Y327250D02*
D03*
X370812Y321300D02*
D03*
X384588Y333200D02*
D03*
X384588Y327250D02*
D03*
X384588Y321300D02*
D03*
D133*
X359788Y333200D02*
D03*
X359788Y327250D02*
D03*
X359788Y321300D02*
D03*
X395612Y333200D02*
D03*
X395612Y327250D02*
D03*
Y321300D02*
D03*
D134*
X337521Y272802D02*
D03*
Y310598D02*
D03*
Y319802D02*
D03*
Y357598D02*
D03*
M02*
