G04*
G04 #@! TF.GenerationSoftware,Altium Limited,Altium Designer,20.0.12 (288)*
G04*
G04 Layer_Color=128*
%FSLAX25Y25*%
%MOIN*%
G70*
G01*
G75*
%ADD10C,0.00500*%
%ADD11C,0.00591*%
%ADD12C,0.00394*%
%ADD13C,0.00197*%
%ADD14C,0.00100*%
%ADD15C,0.00158*%
%ADD16C,0.00200*%
D10*
X333100Y153000D02*
G03*
X341100Y145000I8000J0D01*
G01*
X718600D02*
G03*
X726600Y153000I0J8000D01*
G01*
Y443700D02*
G03*
X718600Y451700I-8000J0D01*
G01*
X341100D02*
G03*
X333100Y443700I0J-8000D01*
G01*
Y153000D02*
Y443700D01*
X341100Y145000D02*
X718600D01*
X341100Y451700D02*
X718600D01*
X726600Y153000D02*
Y443700D01*
D11*
X362655Y228200D02*
G03*
X362655Y228200I-1969J0D01*
G01*
X509164Y359927D02*
G03*
X509164Y359927I-1414J0D01*
G01*
X509514Y214458D02*
G03*
X509514Y214458I-1414J0D01*
G01*
X381900Y200361D02*
X409739Y228200D01*
X354061D02*
X381900Y256039D01*
X409739Y228200D01*
X354061D02*
X381900Y200361D01*
X510750Y348841D02*
Y363014D01*
X476750Y348841D02*
X510750D01*
X476750D02*
Y363014D01*
X510750D01*
X511100Y203371D02*
Y217544D01*
X477100Y203371D02*
X511100D01*
X477100D02*
Y217544D01*
X511100D01*
X476250Y369927D02*
X511250D01*
X476250Y341927D02*
Y369927D01*
Y341927D02*
X511250D01*
Y369927D01*
X476600Y224458D02*
X511600D01*
X476600Y196458D02*
Y224458D01*
Y196458D02*
X511600D01*
Y224458D01*
D12*
X448450Y169794D02*
G03*
X448450Y169794I-1000J0D01*
G01*
X415150Y425994D02*
G03*
X415150Y425994I-1000J0D01*
G01*
X457835Y190239D02*
G03*
X457835Y190239I-1000J0D01*
G01*
X684816Y185739D02*
X700406Y201328D01*
X674237Y196318D02*
X689827Y211907D01*
X700406Y201328D01*
X648896Y450344D02*
X680904D01*
X648896Y425856D02*
X680904D01*
X673361Y197194D02*
X688950Y212784D01*
X662782Y207773D02*
X678372Y223362D01*
X688950Y212784D01*
X443150Y167795D02*
X449450D01*
Y179606D01*
X443150D02*
X449450D01*
X443150Y167795D02*
Y179606D01*
X416150Y435806D02*
X416150Y423994D01*
X409850D02*
Y435806D01*
Y423994D02*
X416150D01*
X409850Y435806D02*
X416150D01*
X431545Y299705D02*
Y325295D01*
Y299705D02*
X449655D01*
Y325295D01*
X431545D02*
X449655D01*
X431545Y217205D02*
Y242795D01*
Y217205D02*
X449655D01*
Y242795D01*
X431545D02*
X449655D01*
X454835Y188239D02*
Y194538D01*
Y188239D02*
X466646D01*
Y194538D01*
X454835D02*
X466646D01*
X385876Y359894D02*
Y371706D01*
X390995Y359894D02*
Y371706D01*
X385876D02*
X390995D01*
X385876Y359894D02*
X390995D01*
X381900Y191430D02*
X418670Y228200D01*
X345130Y228200D02*
X381900Y264970D01*
X418670Y228200D01*
X345130Y228200D02*
X381900Y191430D01*
X437800Y167200D02*
Y180200D01*
X454800D01*
Y167200D02*
Y180200D01*
X437800Y167200D02*
X454800D01*
X421000Y423404D02*
Y436396D01*
X405000Y423404D02*
Y436396D01*
Y423404D02*
X421000D01*
X405000Y436396D02*
X421000D01*
X425600Y298500D02*
Y326500D01*
Y298500D02*
X455600Y298500D01*
Y326500D01*
X425600Y326500D02*
X455600Y326500D01*
X425600Y216000D02*
Y244000D01*
Y216000D02*
X455600Y216000D01*
Y244000D01*
X425600Y244000D02*
X455600Y244000D01*
X454240Y199888D02*
X467240D01*
Y182888D02*
Y199888D01*
X454240Y182888D02*
X467240D01*
X454240D02*
Y199888D01*
X381600Y359501D02*
X381600Y372099D01*
X395200Y359501D02*
Y372099D01*
X381600D02*
X395200D01*
X381600Y359501D02*
X395200Y359501D01*
D13*
X688699Y198823D02*
G03*
X688699Y198823I-1378J0D01*
G01*
X666278Y438100D02*
G03*
X666278Y438100I-1378J0D01*
G01*
X677244Y210278D02*
G03*
X677244Y210278I-1378J0D01*
G01*
X441778Y196589D02*
G03*
X441778Y196589I-1378J0D01*
G01*
X712378Y299200D02*
G03*
X712378Y299200I-1378J0D01*
G01*
X383278Y228200D02*
G03*
X383278Y228200I-1378J0D01*
G01*
X380878Y432511D02*
G03*
X380878Y432511I-1378J0D01*
G01*
X423878Y444200D02*
G03*
X423878Y444200I-1378J0D01*
G01*
D02*
G03*
X423878Y444200I-1378J0D01*
G01*
X448178Y348800D02*
G03*
X448178Y348800I-1378J0D01*
G01*
X440628D02*
G03*
X440628Y348800I-1378J0D01*
G01*
X433078D02*
G03*
X433078Y348800I-1378J0D01*
G01*
X448178Y266483D02*
G03*
X448178Y266483I-1378J0D01*
G01*
X440628D02*
G03*
X440628Y266483I-1378J0D01*
G01*
X433078D02*
G03*
X433078Y266483I-1378J0D01*
G01*
X533678Y406800D02*
G03*
X533678Y406800I-1378J0D01*
G01*
X533678Y360480D02*
G03*
X533678Y360480I-1378J0D01*
G01*
X533678Y319960D02*
G03*
X533678Y319960I-1378J0D01*
G01*
Y264540D02*
G03*
X533678Y264540I-1378J0D01*
G01*
Y221520D02*
G03*
X533678Y221520I-1378J0D01*
G01*
Y175200D02*
G03*
X533678Y175200I-1378J0D01*
G01*
X495128Y355927D02*
G03*
X495128Y355927I-1378J0D01*
G01*
X495478Y210457D02*
G03*
X495478Y210457I-1378J0D01*
G01*
X447678Y173700D02*
G03*
X447678Y173700I-1378J0D01*
G01*
X414378Y429900D02*
G03*
X414378Y429900I-1378J0D01*
G01*
X352578Y358300D02*
G03*
X352578Y358300I-1378J0D01*
G01*
X352578Y385400D02*
G03*
X352578Y385400I-1378J0D01*
G01*
X441978Y312500D02*
G03*
X441978Y312500I-1378J0D01*
G01*
Y230000D02*
G03*
X441978Y230000I-1378J0D01*
G01*
X462118Y191388D02*
G03*
X462118Y191388I-1378J0D01*
G01*
X366678Y333200D02*
G03*
X366678Y333200I-1378J0D01*
G01*
Y327250D02*
G03*
X366678Y327250I-1378J0D01*
G01*
Y321300D02*
G03*
X366678Y321300I-1378J0D01*
G01*
X391478Y333200D02*
G03*
X391478Y333200I-1378J0D01*
G01*
Y327250D02*
G03*
X391478Y327250I-1378J0D01*
G01*
Y321300D02*
G03*
X391478Y321300I-1378J0D01*
G01*
X631312Y444199D02*
G03*
X631312Y444199I-1378J0D01*
G01*
D02*
G03*
X631312Y444199I-1378J0D01*
G01*
X623445D02*
G03*
X623445Y444199I-1378J0D01*
G01*
D02*
G03*
X623445Y444199I-1378J0D01*
G01*
X615579D02*
G03*
X615579Y444199I-1378J0D01*
G01*
D02*
G03*
X615579Y444199I-1378J0D01*
G01*
X607712D02*
G03*
X607712Y444199I-1378J0D01*
G01*
D02*
G03*
X607712Y444199I-1378J0D01*
G01*
X599845D02*
G03*
X599845Y444199I-1378J0D01*
G01*
D02*
G03*
X599845Y444199I-1378J0D01*
G01*
X591979D02*
G03*
X591979Y444199I-1378J0D01*
G01*
D02*
G03*
X591979Y444199I-1378J0D01*
G01*
X584112D02*
G03*
X584112Y444199I-1378J0D01*
G01*
D02*
G03*
X584112Y444199I-1378J0D01*
G01*
X576245D02*
G03*
X576245Y444199I-1378J0D01*
G01*
D02*
G03*
X576245Y444199I-1378J0D01*
G01*
X568378D02*
G03*
X568378Y444199I-1378J0D01*
G01*
D02*
G03*
X568378Y444199I-1378J0D01*
G01*
X560512D02*
G03*
X560512Y444199I-1378J0D01*
G01*
D02*
G03*
X560512Y444199I-1378J0D01*
G01*
X552645D02*
G03*
X552645Y444199I-1378J0D01*
G01*
D02*
G03*
X552645Y444199I-1378J0D01*
G01*
X544778D02*
G03*
X544778Y444199I-1378J0D01*
G01*
D02*
G03*
X544778Y444199I-1378J0D01*
G01*
X536912D02*
G03*
X536912Y444199I-1378J0D01*
G01*
D02*
G03*
X536912Y444199I-1378J0D01*
G01*
X529045D02*
G03*
X529045Y444199I-1378J0D01*
G01*
D02*
G03*
X529045Y444199I-1378J0D01*
G01*
X521178D02*
G03*
X521178Y444199I-1378J0D01*
G01*
D02*
G03*
X521178Y444199I-1378J0D01*
G01*
X513312D02*
G03*
X513312Y444199I-1378J0D01*
G01*
D02*
G03*
X513312Y444199I-1378J0D01*
G01*
X505445D02*
G03*
X505445Y444199I-1378J0D01*
G01*
D02*
G03*
X505445Y444199I-1378J0D01*
G01*
X497579D02*
G03*
X497579Y444199I-1378J0D01*
G01*
D02*
G03*
X497579Y444199I-1378J0D01*
G01*
X489712D02*
G03*
X489712Y444199I-1378J0D01*
G01*
D02*
G03*
X489712Y444199I-1378J0D01*
G01*
X481845D02*
G03*
X481845Y444199I-1378J0D01*
G01*
D02*
G03*
X481845Y444199I-1378J0D01*
G01*
X473979D02*
G03*
X473979Y444199I-1378J0D01*
G01*
D02*
G03*
X473979Y444199I-1378J0D01*
G01*
X466112D02*
G03*
X466112Y444199I-1378J0D01*
G01*
D02*
G03*
X466112Y444199I-1378J0D01*
G01*
X458245D02*
G03*
X458245Y444199I-1378J0D01*
G01*
D02*
G03*
X458245Y444199I-1378J0D01*
G01*
X450379D02*
G03*
X450379Y444199I-1378J0D01*
G01*
D02*
G03*
X450379Y444199I-1378J0D01*
G01*
X389813Y365800D02*
G03*
X389813Y365800I-1378J0D01*
G01*
X685929Y197431D02*
X688713Y200215D01*
X685929D02*
X688713Y197431D01*
X662931Y438100D02*
X666868D01*
X664900Y436131D02*
Y440068D01*
X674474Y208886D02*
X677258Y211670D01*
X674474D02*
X677258Y208886D01*
X440400Y194621D02*
Y198557D01*
X438432Y196589D02*
X442369D01*
X711000Y297232D02*
Y301168D01*
X709031Y299200D02*
X712968D01*
X380508Y226808D02*
X383292Y229592D01*
X380508D02*
X383292Y226808D01*
X379500Y430543D02*
Y434480D01*
X377532Y432511D02*
X381469D01*
X420532Y444200D02*
X424469D01*
X422500Y442232D02*
Y446169D01*
Y442232D02*
Y446169D01*
X420532Y444200D02*
X424469D01*
X444832Y348800D02*
X448769D01*
X446800Y346831D02*
Y350768D01*
X437282Y348800D02*
X441219D01*
X439250Y346831D02*
Y350768D01*
X429732Y348800D02*
X433669D01*
X431700Y346831D02*
Y350768D01*
X444832Y266483D02*
X448769D01*
X446800Y264515D02*
Y268452D01*
X437282Y266483D02*
X441219D01*
X439250Y264515D02*
Y268452D01*
X429732Y266483D02*
X433669D01*
X431700Y264515D02*
Y268452D01*
X532300Y404832D02*
Y408769D01*
X530332Y406800D02*
X534269D01*
X532300Y358511D02*
Y362449D01*
X530332Y360480D02*
X534269D01*
X532300Y317991D02*
Y321929D01*
X530332Y319960D02*
X534269D01*
X532300Y262572D02*
Y266509D01*
X530332Y264540D02*
X534269D01*
X532300Y219551D02*
Y223488D01*
X530332Y221520D02*
X534269D01*
X532300Y173231D02*
Y177169D01*
X530332Y175200D02*
X534269D01*
X491782Y355927D02*
X495718D01*
X493750Y353959D02*
Y357896D01*
X492132Y210457D02*
X496068D01*
X494100Y208489D02*
Y212426D01*
X444332Y173700D02*
X448269D01*
X446300Y171731D02*
Y175669D01*
X411031Y429900D02*
X414968D01*
X413000Y427931D02*
Y431869D01*
X349232Y358300D02*
X353169D01*
X351200Y356331D02*
Y360268D01*
X349232Y385400D02*
X353169D01*
X351200Y383432D02*
Y387368D01*
X440600Y310531D02*
Y314469D01*
X438631Y312500D02*
X442568D01*
X440600Y228031D02*
Y231968D01*
X438631Y230000D02*
X442568D01*
X460740Y189420D02*
Y193357D01*
X458772Y191388D02*
X462709D01*
X363332Y333200D02*
X367268D01*
X365300Y331231D02*
Y335169D01*
X363332Y327250D02*
X367268Y327250D01*
X365300Y325282D02*
X365300Y329219D01*
X363332Y321300D02*
X367268Y321300D01*
X365300Y319332D02*
Y323269D01*
X388131Y333200D02*
X392069D01*
X390100Y331231D02*
Y335169D01*
X388131Y327250D02*
X392069D01*
X390100Y325282D02*
Y329219D01*
X388131Y321300D02*
X392069D01*
X390100Y319332D02*
Y323269D01*
X627965Y444199D02*
X631902D01*
X629934Y442231D02*
Y446168D01*
Y442231D02*
Y446168D01*
X627965Y444199D02*
X631902D01*
X620099D02*
X624036D01*
X622067Y442231D02*
Y446168D01*
Y442231D02*
Y446168D01*
X620099Y444199D02*
X624036D01*
X612232D02*
X616169D01*
X614200Y442231D02*
Y446168D01*
Y442231D02*
Y446168D01*
X612232Y444199D02*
X616169D01*
X604365D02*
X608302D01*
X606334Y442231D02*
Y446168D01*
Y442231D02*
Y446168D01*
X604365Y444199D02*
X608302D01*
X596499D02*
X600436D01*
X598467Y442231D02*
Y446168D01*
Y442231D02*
Y446168D01*
X596499Y444199D02*
X600436D01*
X588632D02*
X592569D01*
X590600Y442231D02*
Y446168D01*
Y442231D02*
Y446168D01*
X588632Y444199D02*
X592569D01*
X580765D02*
X584702D01*
X582734Y442231D02*
Y446168D01*
Y442231D02*
Y446168D01*
X580765Y444199D02*
X584702D01*
X572899D02*
X576836D01*
X574867Y442231D02*
Y446168D01*
Y442231D02*
Y446168D01*
X572899Y444199D02*
X576836D01*
X565032D02*
X568969D01*
X567001Y442231D02*
Y446168D01*
Y442231D02*
Y446168D01*
X565032Y444199D02*
X568969D01*
X557165D02*
X561102D01*
X559134Y442231D02*
Y446168D01*
Y442231D02*
Y446168D01*
X557165Y444199D02*
X561102D01*
X549299D02*
X553236D01*
X551267Y442231D02*
Y446168D01*
Y442231D02*
Y446168D01*
X549299Y444199D02*
X553236D01*
X541432D02*
X545369D01*
X543401Y442231D02*
Y446168D01*
Y442231D02*
Y446168D01*
X541432Y444199D02*
X545369D01*
X533565D02*
X537502D01*
X535534Y442231D02*
Y446168D01*
Y442231D02*
Y446168D01*
X533565Y444199D02*
X537502D01*
X525699D02*
X529636D01*
X527667Y442231D02*
Y446168D01*
Y442231D02*
Y446168D01*
X525699Y444199D02*
X529636D01*
X517832D02*
X521769D01*
X519801Y442231D02*
Y446168D01*
Y442231D02*
Y446168D01*
X517832Y444199D02*
X521769D01*
X509965D02*
X513902D01*
X511934Y442231D02*
Y446168D01*
Y442231D02*
Y446168D01*
X509965Y444199D02*
X513902D01*
X502099D02*
X506036D01*
X504067Y442231D02*
Y446168D01*
Y442231D02*
Y446168D01*
X502099Y444199D02*
X506036D01*
X494232D02*
X498169D01*
X496201Y442231D02*
Y446168D01*
Y442231D02*
Y446168D01*
X494232Y444199D02*
X498169D01*
X486365D02*
X490303D01*
X488334Y442231D02*
Y446168D01*
Y442231D02*
Y446168D01*
X486365Y444199D02*
X490303D01*
X478499D02*
X482436D01*
X480467Y442231D02*
Y446168D01*
Y442231D02*
Y446168D01*
X478499Y444199D02*
X482436D01*
X470632D02*
X474569D01*
X472601Y442231D02*
Y446168D01*
Y442231D02*
Y446168D01*
X470632Y444199D02*
X474569D01*
X462766D02*
X466703D01*
X464734Y442231D02*
Y446168D01*
Y442231D02*
Y446168D01*
X462766Y444199D02*
X466703D01*
X454899D02*
X458836D01*
X456867Y442231D02*
Y446168D01*
Y442231D02*
Y446168D01*
X454899Y444199D02*
X458836D01*
X447032D02*
X450969D01*
X449001Y442231D02*
Y446168D01*
Y442231D02*
Y446168D01*
X447032Y444199D02*
X450969D01*
X388435Y363831D02*
Y367769D01*
X386467Y365800D02*
X390404D01*
D14*
X477000Y165200D02*
G03*
X477000Y165200I-500J0D01*
G01*
X470667D02*
G03*
X470667Y165200I-500J0D01*
G01*
X460059Y208500D02*
G03*
X460059Y208500I-500J0D01*
G01*
Y202500D02*
G03*
X460059Y202500I-500J0D01*
G01*
X368300Y194300D02*
G03*
X368300Y194300I-500J0D01*
G01*
X372200Y186100D02*
G03*
X372200Y186100I-500J0D01*
G01*
X343200Y198700D02*
G03*
X343200Y198700I-500J0D01*
G01*
X357800Y197900D02*
G03*
X357800Y197900I-500J0D01*
G01*
X381900Y188800D02*
G03*
X381900Y188800I-500J0D01*
G01*
X339381Y236400D02*
G03*
X339381Y236400I-500J0D01*
G01*
X355700Y181700D02*
G03*
X355700Y181700I-500J0D01*
G01*
X402400Y259800D02*
G03*
X402400Y259800I-500J0D01*
G01*
X414300Y206700D02*
G03*
X414300Y206700I-500J0D01*
G01*
X398200Y264000D02*
G03*
X398200Y264000I-500J0D01*
G01*
X420300Y206700D02*
G03*
X420300Y206700I-500J0D01*
G01*
X364100Y190100D02*
G03*
X364100Y190100I-500J0D01*
G01*
X359900Y185900D02*
G03*
X359900Y185900I-500J0D01*
G01*
X339381Y230500D02*
G03*
X339381Y230500I-500J0D01*
G01*
X447300Y331500D02*
G03*
X447300Y331500I-500J0D01*
G01*
X433703Y293039D02*
G03*
X433703Y293039I-500J0D01*
G01*
X439749Y331500D02*
G03*
X439749Y331500I-500J0D01*
G01*
X431100Y213200D02*
G03*
X431100Y213200I-500J0D01*
G01*
X432199Y331500D02*
G03*
X432199Y331500I-500J0D01*
G01*
X447300Y249159D02*
G03*
X447300Y249159I-500J0D01*
G01*
X439899D02*
G03*
X439899Y249159I-500J0D01*
G01*
X432199Y249101D02*
G03*
X432199Y249101I-500J0D01*
G01*
X501676Y376599D02*
G03*
X501676Y376599I-500J0D01*
G01*
X496701D02*
G03*
X496701Y376599I-500J0D01*
G01*
X516600Y376600D02*
G03*
X516600Y376600I-500J0D01*
G01*
X484200Y384300D02*
G03*
X484200Y384300I-500J0D01*
G01*
X506400Y317700D02*
G03*
X506400Y317700I-500J0D01*
G01*
X525200Y340400D02*
G03*
X525200Y340400I-500J0D01*
G01*
X501600Y231799D02*
G03*
X501600Y231799I-500J0D01*
G01*
X496700D02*
G03*
X496700Y231799I-500J0D01*
G01*
X516800Y231800D02*
G03*
X516800Y231800I-500J0D01*
G01*
X484400Y239600D02*
G03*
X484400Y239600I-500J0D01*
G01*
X503800Y171400D02*
G03*
X503800Y171400I-500J0D01*
G01*
X524900Y195600D02*
G03*
X524900Y195600I-500J0D01*
G01*
X363645Y337600D02*
G03*
X363645Y337600I-500J0D01*
G01*
Y327200D02*
G03*
X363645Y327200I-500J0D01*
G01*
X363645Y317200D02*
G03*
X363645Y317200I-500J0D01*
G01*
X341141Y287000D02*
G03*
X341141Y287000I-500J0D01*
G01*
X341141Y297100D02*
G03*
X341141Y297100I-500J0D01*
G01*
X341141Y307100D02*
G03*
X341141Y307100I-500J0D01*
G01*
X397400Y337600D02*
G03*
X397400Y337600I-500J0D01*
G01*
Y327200D02*
G03*
X397400Y327200I-500J0D01*
G01*
X397400Y317200D02*
G03*
X397400Y317200I-500J0D01*
G01*
X374896Y287000D02*
G03*
X374896Y287000I-500J0D01*
G01*
X374896Y297100D02*
G03*
X374896Y297100I-500J0D01*
G01*
X374896Y307100D02*
G03*
X374896Y307100I-500J0D01*
G01*
X386100Y408741D02*
G03*
X386100Y408741I-500J0D01*
G01*
X392800D02*
G03*
X392800Y408741I-500J0D01*
G01*
X396742Y428900D02*
G03*
X396742Y428900I-500J0D01*
G01*
X464333Y165200D02*
G03*
X464333Y165200I-500J0D01*
G01*
X433200Y179600D02*
G03*
X433200Y179600I-500J0D01*
G01*
X430200Y444200D02*
G03*
X430200Y444200I-500J0D01*
G01*
X458000Y165200D02*
G03*
X458000Y165200I-500J0D01*
G01*
X433200Y174500D02*
G03*
X433200Y174500I-500J0D01*
G01*
X413300Y419700D02*
G03*
X413300Y419700I-500J0D01*
G01*
X504700Y425500D02*
G03*
X504700Y425500I-500J0D01*
G01*
Y417633D02*
G03*
X504700Y417633I-500J0D01*
G01*
Y409767D02*
G03*
X504700Y409767I-500J0D01*
G01*
Y401900D02*
G03*
X504700Y401900I-500J0D01*
G01*
Y301500D02*
G03*
X504700Y301500I-500J0D01*
G01*
Y292060D02*
G03*
X504700Y292060I-500J0D01*
G01*
Y282620D02*
G03*
X504700Y282620I-500J0D01*
G01*
Y273180D02*
G03*
X504700Y273180I-500J0D01*
G01*
Y263740D02*
G03*
X504700Y263740I-500J0D01*
G01*
Y254300D02*
G03*
X504700Y254300I-500J0D01*
G01*
Y157400D02*
G03*
X504700Y157400I-500J0D01*
G01*
Y148900D02*
G03*
X504700Y148900I-500J0D01*
G01*
X506651Y376599D02*
G03*
X506651Y376599I-500J0D01*
G01*
X511625Y376600D02*
G03*
X511625Y376600I-500J0D01*
G01*
X489800Y390200D02*
G03*
X489800Y390200I-500J0D01*
G01*
X486751Y376599D02*
G03*
X486751Y376599I-500J0D01*
G01*
X491725Y376600D02*
G03*
X491725Y376600I-500J0D01*
G01*
X478800Y390200D02*
G03*
X478800Y390200I-500J0D01*
G01*
X481776Y376599D02*
G03*
X481776Y376599I-500J0D01*
G01*
X476800Y376600D02*
G03*
X476800Y376600I-500J0D01*
G01*
X519400Y315200D02*
G03*
X519400Y315200I-500J0D01*
G01*
X486485Y333458D02*
G03*
X486485Y333458I-500J0D01*
G01*
X491629Y333457D02*
G03*
X491629Y333457I-500J0D01*
G01*
X506400Y311600D02*
G03*
X506400Y311600I-500J0D01*
G01*
X481342Y333458D02*
G03*
X481342Y333458I-500J0D01*
G01*
X476200Y333457D02*
G03*
X476200Y333457I-500J0D01*
G01*
X535600Y340400D02*
G03*
X535600Y340400I-500J0D01*
G01*
X504000Y333458D02*
G03*
X504000Y333458I-500J0D01*
G01*
X498900Y333457D02*
G03*
X498900Y333457I-500J0D01*
G01*
X521400Y349000D02*
G03*
X521400Y349000I-500J0D01*
G01*
X509600Y333458D02*
G03*
X509600Y333458I-500J0D01*
G01*
X515000Y333457D02*
G03*
X515000Y333457I-500J0D01*
G01*
X506700Y231799D02*
G03*
X506700Y231799I-500J0D01*
G01*
X511700Y231800D02*
G03*
X511700Y231800I-500J0D01*
G01*
X490000Y245500D02*
G03*
X490000Y245500I-500J0D01*
G01*
X486900Y231799D02*
G03*
X486900Y231799I-500J0D01*
G01*
X491800Y231800D02*
G03*
X491800Y231800I-500J0D01*
G01*
X478900Y245500D02*
G03*
X478900Y245500I-500J0D01*
G01*
X482000Y231799D02*
G03*
X482000Y231799I-500J0D01*
G01*
X477000Y231800D02*
G03*
X477000Y231800I-500J0D01*
G01*
X513000Y173900D02*
G03*
X513000Y173900I-500J0D01*
G01*
X486900Y188657D02*
G03*
X486900Y188657I-500J0D01*
G01*
X492400D02*
G03*
X492400Y188657I-500J0D01*
G01*
X513000Y168600D02*
G03*
X513000Y168600I-500J0D01*
G01*
X481400Y188657D02*
G03*
X481400Y188657I-500J0D01*
G01*
X476400D02*
G03*
X476400Y188657I-500J0D01*
G01*
X530000Y201500D02*
G03*
X530000Y201500I-500J0D01*
G01*
X504000Y188657D02*
G03*
X504000Y188657I-500J0D01*
G01*
X498900D02*
G03*
X498900Y188657I-500J0D01*
G01*
X521500Y204059D02*
G03*
X521500Y204059I-500J0D01*
G01*
X509600Y188657D02*
G03*
X509600Y188657I-500J0D01*
G01*
X515000D02*
G03*
X515000Y188657I-500J0D01*
G01*
X412600Y444500D02*
G03*
X412600Y444500I-500J0D01*
G01*
X399300Y438200D02*
G03*
X399300Y438200I-500J0D01*
G01*
X401860Y428900D02*
G03*
X401860Y428900I-500J0D01*
G01*
X399300Y444500D02*
G03*
X399300Y444500I-500J0D01*
G01*
X341141Y337600D02*
G03*
X341141Y337600I-500J0D01*
G01*
Y327200D02*
G03*
X341141Y327200I-500J0D01*
G01*
X341141Y317200D02*
G03*
X341141Y317200I-500J0D01*
G01*
X352393Y337600D02*
G03*
X352393Y337600I-500J0D01*
G01*
Y327200D02*
G03*
X352393Y327200I-500J0D01*
G01*
Y317200D02*
G03*
X352393Y317200I-500J0D01*
G01*
Y307101D02*
G03*
X352393Y307101I-500J0D01*
G01*
X352393Y297101D02*
G03*
X352393Y297101I-500J0D01*
G01*
X352393Y287001D02*
G03*
X352393Y287001I-500J0D01*
G01*
X374897Y337600D02*
G03*
X374897Y337600I-500J0D01*
G01*
Y327200D02*
G03*
X374897Y327200I-500J0D01*
G01*
X374897Y317200D02*
G03*
X374897Y317200I-500J0D01*
G01*
X386148Y337600D02*
G03*
X386148Y337600I-500J0D01*
G01*
Y327200D02*
G03*
X386148Y327200I-500J0D01*
G01*
X386148Y317200D02*
G03*
X386148Y317200I-500J0D01*
G01*
Y307101D02*
G03*
X386148Y307101I-500J0D01*
G01*
X386148Y297101D02*
G03*
X386148Y297101I-500J0D01*
G01*
X386148Y287001D02*
G03*
X386148Y287001I-500J0D01*
G01*
X437600Y370659D02*
G03*
X437600Y370659I-500J0D01*
G01*
X431300Y370659D02*
G03*
X431300Y370659I-500J0D01*
G01*
X400800Y356800D02*
G03*
X400800Y356800I-500J0D01*
G01*
X389100Y353500D02*
G03*
X389100Y353500I-500J0D01*
G01*
X403400Y366300D02*
G03*
X403400Y366300I-500J0D01*
G01*
X377500Y365800D02*
G03*
X377500Y365800I-500J0D01*
G01*
X475713Y165200D02*
X477287D01*
X476500Y164413D02*
Y165987D01*
X469379Y165200D02*
X470954D01*
X470167Y164413D02*
Y165987D01*
X459559Y207713D02*
Y209288D01*
X458772Y208500D02*
X460347D01*
X459559Y201713D02*
Y203288D01*
X458772Y202500D02*
X460347D01*
X367243Y194857D02*
X368357Y193743D01*
X367243D02*
X368357Y194857D01*
X371143Y186657D02*
X372257Y185543D01*
X371143D02*
X372257Y186657D01*
X342143Y198143D02*
X343257Y199257D01*
X342143D02*
X343257Y198143D01*
X356743Y198457D02*
X357857Y197343D01*
X356743D02*
X357857Y198457D01*
X380613Y188800D02*
X382187D01*
X381400Y188013D02*
Y189587D01*
X338093Y236400D02*
X339668D01*
X338881Y235613D02*
X338881Y237187D01*
X354643Y182257D02*
X355757Y181143D01*
X354643D02*
X355757Y182257D01*
X401343Y260357D02*
X402457Y259243D01*
X401343D02*
X402457Y260357D01*
X413013Y206700D02*
X414587D01*
X413800Y205913D02*
Y207487D01*
X397143Y264557D02*
X398257Y263443D01*
X397143D02*
X398257Y264557D01*
X419013Y206700D02*
X420587Y206700D01*
X419800Y205913D02*
X419800Y207487D01*
X363043Y189543D02*
X364157Y190657D01*
X363043D02*
X364157Y189543D01*
X358843Y185343D02*
X359957Y186457D01*
X358843D02*
X359957Y185343D01*
X338881Y229713D02*
X338881Y231287D01*
X338094Y230500D02*
X339669Y230500D01*
X446800Y330713D02*
Y332287D01*
X446012Y331500D02*
X447587D01*
X432415Y293039D02*
X433990D01*
X433203Y292251D02*
Y293826D01*
X439250Y332287D02*
X439250Y330713D01*
X438462Y331500D02*
X440037D01*
X429813Y213200D02*
X431387D01*
X430600Y212413D02*
Y213987D01*
X431699Y330713D02*
Y332287D01*
X430912Y331500D02*
X432487D01*
X446800Y248372D02*
Y249947D01*
X446012Y249159D02*
X447587D01*
X439399Y249947D02*
X439399Y248372D01*
X438612Y249159D02*
X440187D01*
X431699Y248313D02*
Y249888D01*
X430912Y249101D02*
X432487D01*
X501176Y375812D02*
Y377387D01*
X500388Y376599D02*
X501963D01*
X496201Y375812D02*
Y377387D01*
X495413Y376599D02*
X496988D01*
X516100Y375813D02*
Y377387D01*
X515313Y376600D02*
X516887D01*
X482913Y384300D02*
X484487Y384300D01*
X483700Y383513D02*
Y385087D01*
X505113Y317700D02*
X506687D01*
X505900Y316913D02*
Y318487D01*
X523913Y340400D02*
X525487D01*
X524700Y339613D02*
Y341187D01*
X501100Y231012D02*
Y232587D01*
X500313Y231799D02*
X501887D01*
X496200Y231012D02*
Y232587D01*
X495413Y231799D02*
X496987D01*
X516300Y231013D02*
Y232587D01*
X515513Y231800D02*
X517087D01*
X483113Y239600D02*
X484687D01*
X483900Y238813D02*
Y240387D01*
X503300Y172187D02*
X503300Y170613D01*
X502513Y171400D02*
X504087D01*
X523613Y195600D02*
X525187Y195600D01*
X524400Y194813D02*
Y196387D01*
X362357Y337600D02*
X363932Y337600D01*
X363145Y338387D02*
X363145Y336813D01*
X362357Y327200D02*
X363932Y327200D01*
X363145Y327988D02*
X363145Y326413D01*
X362357Y317200D02*
X363932Y317200D01*
X363145Y317988D02*
X363145Y316413D01*
X339853Y287000D02*
X341428D01*
X340641Y286213D02*
Y287788D01*
X339853Y297100D02*
X341428Y297100D01*
X340641Y296313D02*
Y297888D01*
X339853Y307100D02*
X341428D01*
X340641Y306313D02*
Y307888D01*
X396113Y337600D02*
X397687D01*
X396900Y336812D02*
X396900Y338387D01*
X396113Y327200D02*
X397687D01*
X396900Y327988D02*
X396900Y326413D01*
X396113Y317200D02*
X397687D01*
X396900Y316413D02*
X396900Y317988D01*
X373608Y287000D02*
X375183D01*
X374396Y286213D02*
Y287788D01*
X373608Y297100D02*
X375183D01*
X374396Y296313D02*
Y297888D01*
X373608Y307100D02*
X375183D01*
X374396Y306313D02*
Y307888D01*
X385600Y407954D02*
X385600Y409529D01*
X384812Y408741D02*
X386387Y408741D01*
X392300Y407954D02*
X392300Y409529D01*
X391512Y408741D02*
X393087D01*
X396242Y428113D02*
Y429687D01*
X395454Y428900D02*
X397029D01*
X463833Y164413D02*
Y165987D01*
X463046Y165200D02*
X464621Y165200D01*
X431913Y179600D02*
X433487D01*
X432700Y178813D02*
X432700Y180387D01*
X429700Y443413D02*
X429700Y444987D01*
X428913Y444200D02*
X430487Y444200D01*
X457500Y164413D02*
X457500Y165987D01*
X456713Y165200D02*
X458287D01*
X431913Y174500D02*
X433487D01*
X432700Y173713D02*
Y175287D01*
X412013Y419700D02*
X413587D01*
X412800Y418913D02*
Y420487D01*
X504200Y424713D02*
Y426287D01*
X503413Y425500D02*
X504987D01*
X504200Y416846D02*
Y418421D01*
X503413Y417633D02*
X504987D01*
X504200Y410554D02*
X504200Y408979D01*
X503413Y409767D02*
X504987D01*
X504200Y401113D02*
Y402687D01*
X503413Y401900D02*
X504987D01*
X504200Y300713D02*
Y302287D01*
X503413Y301500D02*
X504987D01*
X504200Y291273D02*
Y292847D01*
X503413Y292060D02*
X504987D01*
X504200Y281833D02*
Y283407D01*
X503413Y282620D02*
X504987D01*
X504200Y272393D02*
Y273967D01*
X503413Y273180D02*
X504987D01*
X504200Y262953D02*
Y264527D01*
X503413Y263740D02*
X504987D01*
X504200Y253513D02*
Y255087D01*
X503413Y254300D02*
X504987D01*
X504200Y156613D02*
Y158187D01*
X503413Y157400D02*
X504987D01*
X504200Y148113D02*
Y149687D01*
X503413Y148900D02*
X504987D01*
X505363Y376599D02*
X506938D01*
X506151Y375812D02*
Y377387D01*
X510338Y376600D02*
X511912D01*
X511125Y377387D02*
X511125Y375813D01*
X489300Y390987D02*
X489300Y389413D01*
X488513Y390200D02*
X490087D01*
X485463Y376599D02*
X487038D01*
X486251Y375812D02*
Y377387D01*
X490438Y376600D02*
X492012D01*
X491225Y375813D02*
Y377387D01*
X478300Y389413D02*
Y390987D01*
X477513Y390200D02*
X479087D01*
X480488Y376599D02*
X482063Y376599D01*
X481276Y377387D02*
X481276Y375812D01*
X475513Y376600D02*
X477087D01*
X476300Y375813D02*
Y377387D01*
X518113Y315200D02*
X519687D01*
X518900Y314413D02*
Y315987D01*
X485198Y333458D02*
X486772D01*
X485985Y332671D02*
Y334245D01*
X490341Y333457D02*
X491916D01*
X491128Y332670D02*
Y334245D01*
X505900Y312387D02*
X505900Y310813D01*
X505113Y311600D02*
X506687D01*
X480055Y333458D02*
X481630D01*
X480842Y332671D02*
Y334245D01*
X474913Y333457D02*
X476487D01*
X475700Y332670D02*
X475700Y334245D01*
X535100Y339613D02*
Y341187D01*
X534313Y340400D02*
X535887Y340400D01*
X502713Y333458D02*
X504287D01*
X503500Y332671D02*
Y334245D01*
X497613Y333457D02*
X499187D01*
X498400Y332670D02*
Y334245D01*
X520113Y349000D02*
X521687D01*
X520900Y348213D02*
Y349787D01*
X508313Y333458D02*
X509887D01*
X509100Y332671D02*
Y334245D01*
X513713Y333457D02*
X515287D01*
X514500Y332670D02*
Y334245D01*
X505413Y231799D02*
X506987D01*
X506200Y231012D02*
Y232587D01*
X510413Y231800D02*
X511987D01*
X511200Y231013D02*
Y232587D01*
X489500Y244713D02*
Y246287D01*
X488713Y245500D02*
X490287D01*
X485613Y231799D02*
X487188D01*
X486400Y231012D02*
Y232587D01*
X490512Y231800D02*
X492087D01*
X491300Y231013D02*
Y232587D01*
X478400Y244713D02*
X478400Y246287D01*
X477613Y245500D02*
X479187D01*
X480713Y231799D02*
X482288D01*
X481500Y231012D02*
Y232587D01*
X475713Y231800D02*
X477287D01*
X476500Y231013D02*
Y232587D01*
X512500Y173113D02*
Y174687D01*
X511713Y173900D02*
X513287D01*
X485613Y188657D02*
X487187D01*
X486400Y187870D02*
Y189445D01*
X491113Y188657D02*
X492687D01*
X491900Y187870D02*
Y189445D01*
X512500Y167813D02*
Y169387D01*
X511713Y168600D02*
X513287D01*
X480113Y188657D02*
X481687D01*
X480900Y187870D02*
Y189445D01*
X475113Y188657D02*
X476687D01*
X475900Y187870D02*
Y189445D01*
X529500Y200713D02*
Y202287D01*
X528713Y201500D02*
X530287D01*
X502713Y188657D02*
X504287D01*
X503500Y187870D02*
Y189445D01*
X497613Y188657D02*
X499187D01*
X498400Y187870D02*
Y189445D01*
X520213Y204059D02*
X521788D01*
X521000Y203271D02*
Y204846D01*
X508313Y188657D02*
X509887D01*
X509100Y187870D02*
Y189445D01*
X513713Y188657D02*
X515287D01*
X514500Y187870D02*
Y189445D01*
X412100Y443713D02*
Y445287D01*
X411313Y444500D02*
X412887D01*
X398800Y437413D02*
Y438987D01*
X398013Y438200D02*
X399587D01*
X400572Y428900D02*
X402147D01*
X401360Y428113D02*
Y429687D01*
X398800Y443713D02*
Y445287D01*
X398013Y444500D02*
X399587D01*
X340641Y336813D02*
Y338387D01*
X339854Y337600D02*
X341429D01*
X340641Y326413D02*
Y327988D01*
X339854Y327200D02*
X341429D01*
X340641Y316413D02*
Y317988D01*
X339854Y317200D02*
X341429D01*
X351893Y336813D02*
Y338387D01*
X351106Y337600D02*
X352680D01*
X351893Y326413D02*
Y327988D01*
X351106Y327200D02*
X352680D01*
X351893Y316413D02*
Y317988D01*
X351106Y317200D02*
X352680D01*
X351893Y306313D02*
Y307888D01*
X351106Y307101D02*
X352680D01*
X351893Y296314D02*
Y297888D01*
X351106Y297101D02*
X352680D01*
X351893Y286213D02*
Y287788D01*
X351106Y287001D02*
X352680D01*
X374396Y338387D02*
X374396Y336813D01*
X373609Y337600D02*
X375184D01*
X374396Y327988D02*
X374396Y326413D01*
X373609Y327200D02*
X375184Y327200D01*
X374396Y317988D02*
X374396Y316413D01*
X373609Y317200D02*
X375184D01*
X385648Y336813D02*
Y338387D01*
X384861Y337600D02*
X386436D01*
X385648Y326413D02*
Y327988D01*
X384861Y327200D02*
X386436Y327200D01*
X385648Y316413D02*
Y317988D01*
X384861Y317200D02*
X386436Y317200D01*
X385648Y306314D02*
Y307888D01*
X384861Y307101D02*
X386436D01*
X385648Y296314D02*
Y297888D01*
X384861Y297101D02*
X386436D01*
X385648Y286213D02*
Y287788D01*
X384861Y287001D02*
X386436D01*
X437100Y369871D02*
Y371446D01*
X436313Y370659D02*
X437888D01*
X430800Y369872D02*
Y371447D01*
X430012Y370659D02*
X431587D01*
X399513Y356800D02*
X401087Y356800D01*
X400300Y356013D02*
Y357587D01*
X388600Y352713D02*
Y354287D01*
X387813Y353500D02*
X389387D01*
X402113Y366300D02*
X403687D01*
X402900Y365513D02*
Y367087D01*
X377000Y365013D02*
X377000Y366587D01*
X376213Y365800D02*
X377787D01*
D15*
X337767Y217800D02*
G03*
X337767Y217800I-707J0D01*
G01*
X336060D02*
X338060D01*
X337060Y216800D02*
Y218800D01*
D16*
X694268Y314200D02*
X698992D01*
X696630Y311838D02*
Y316562D01*
X694268Y344200D02*
X698992D01*
X696630Y341838D02*
Y346562D01*
X694268Y404200D02*
X698992D01*
X696630Y401838D02*
Y406562D01*
X694268Y374200D02*
X698992D01*
X696630Y371838D02*
Y376562D01*
X694268Y254200D02*
X698992D01*
X696630Y251838D02*
Y256562D01*
X694268Y284200D02*
X698992D01*
X696630Y281838D02*
Y286562D01*
X694268Y224200D02*
X698992D01*
X696630Y221838D02*
Y226562D01*
X694268Y194200D02*
X698992D01*
X696630Y191838D02*
Y196562D01*
X703520Y161400D02*
X716020D01*
X709770Y155150D02*
Y167650D01*
X703520Y435100D02*
X716020D01*
X709770Y428850D02*
Y441350D01*
X342956Y161400D02*
X355456D01*
X349206Y155150D02*
Y167650D01*
X342956Y435100D02*
X355456D01*
X349206Y428850D02*
Y441350D01*
X482828Y150500D02*
X486372D01*
X484600Y148728D02*
Y152272D01*
X472828Y150500D02*
X476372D01*
X474600Y148728D02*
Y152272D01*
X462828Y150500D02*
X466372D01*
X464600Y148728D02*
Y152272D01*
X452828Y150500D02*
X456372D01*
X454600Y148728D02*
Y152272D01*
X442828Y150500D02*
X446372D01*
X444600Y148728D02*
Y152272D01*
X432828Y150500D02*
X436372D01*
X434600Y148728D02*
Y152272D01*
X422828Y150500D02*
X426372D01*
X424600Y148728D02*
Y152272D01*
X386543Y170193D02*
X389102D01*
X387822Y168914D02*
Y171473D01*
X409298Y170193D02*
X411858D01*
X410578Y168914D02*
Y171473D01*
X381011Y172162D02*
X383373D01*
X382192Y170981D02*
Y173343D01*
X415027Y172162D02*
X417389D01*
X416208Y170981D02*
Y173343D01*
X381011Y155705D02*
X383373D01*
X382192Y154524D02*
Y156886D01*
X415027Y155705D02*
X417389D01*
X416208Y154524D02*
Y156886D01*
X664800Y442500D02*
X666000D01*
X665400Y441900D02*
Y443100D01*
X664400Y432200D02*
X665600D01*
X665000Y431600D02*
Y432800D01*
X667200Y428600D02*
X668400D01*
X667800Y428000D02*
Y429200D01*
X663200Y428600D02*
X664400D01*
X663800Y428000D02*
Y429200D01*
X659200Y428600D02*
X660400D01*
X659800Y428000D02*
Y429200D01*
X655200Y428600D02*
X656400D01*
X655800Y428000D02*
Y429200D01*
X651200Y428600D02*
X652400D01*
X651800Y428000D02*
Y429200D01*
X657600Y432075D02*
X658800D01*
X658200Y431475D02*
Y432675D01*
X657600Y435550D02*
X658800D01*
X658200Y434950D02*
Y436150D01*
X657600Y439025D02*
X658800D01*
X658200Y438425D02*
Y439625D01*
X657600Y442500D02*
X658800D01*
X658200Y441900D02*
Y443100D01*
X660110Y177500D02*
X673890D01*
X667000Y170610D02*
Y184390D01*
X703110Y219700D02*
X716890D01*
X710000Y212810D02*
Y226590D01*
X703110Y188600D02*
X716890D01*
X710000Y181710D02*
Y195490D01*
X366200Y235600D02*
X367400D01*
X366800Y235000D02*
Y236200D01*
X339900Y282000D02*
X341100D01*
X340500Y281400D02*
Y282600D01*
X468700Y271500D02*
X469900D01*
X469300Y270900D02*
Y272100D01*
X468700Y294500D02*
X469900D01*
X469300Y293900D02*
Y295100D01*
X374800Y275700D02*
X376000D01*
X375400Y275100D02*
Y276300D01*
X372750Y271600D02*
X373950D01*
X373350Y271000D02*
Y272200D01*
X379990Y257510D02*
X381190D01*
X380590Y256910D02*
Y258110D01*
X376025Y260300D02*
X377225D01*
X376625Y259700D02*
Y260900D01*
X368900Y263200D02*
X370100D01*
X369500Y262600D02*
Y263800D01*
X370700Y275700D02*
X371900D01*
X371300Y275100D02*
Y276300D01*
X368650Y271600D02*
X369850D01*
X369250Y271000D02*
Y272200D01*
X368800Y229400D02*
X370000D01*
X369400Y228800D02*
Y230000D01*
X371400Y225000D02*
X372600D01*
X372000Y224400D02*
Y225600D01*
X371275Y260300D02*
X372475D01*
X371875Y259700D02*
Y260900D01*
X382700Y200000D02*
X383900D01*
X383300Y199400D02*
Y200600D01*
X379900Y200000D02*
X381100D01*
X380500Y199400D02*
Y200600D01*
X372639Y215361D02*
X373839D01*
X373239Y214761D02*
Y215961D01*
X370000Y221500D02*
X371200D01*
X370600Y220900D02*
Y222100D01*
X359620Y229000D02*
X360820D01*
X360220Y228400D02*
Y229600D01*
X338200Y242300D02*
X339400D01*
X338800Y241700D02*
Y242900D01*
X354100Y385400D02*
X355300D01*
X354700Y384800D02*
Y386000D01*
X354800Y358300D02*
X356000D01*
X355400Y357700D02*
Y358900D01*
X385000Y416600D02*
X386200D01*
X385600Y416000D02*
Y417200D01*
X337900Y262200D02*
X339100D01*
X338500Y261600D02*
Y262800D01*
X334900Y265000D02*
X336100D01*
X335500Y264400D02*
Y265600D01*
X336300Y277900D02*
X337500D01*
X336900Y277300D02*
Y278500D01*
X346400Y282800D02*
X347600D01*
X347000Y282200D02*
Y283400D01*
X423061Y303543D02*
X424261D01*
X423661Y302943D02*
Y304143D01*
X420389Y310784D02*
X421589D01*
X420989Y310184D02*
Y311384D01*
X420389Y300984D02*
X421589D01*
X420989Y300384D02*
Y301584D01*
X415045Y303543D02*
X416245D01*
X415645Y302943D02*
Y304143D01*
X423061Y316339D02*
X424261D01*
X423661Y315739D02*
Y316939D01*
X412372Y313779D02*
X413572D01*
X412972Y313179D02*
Y314380D01*
X412372Y300984D02*
X413572D01*
X412972Y300384D02*
Y301584D01*
X435161Y308661D02*
X436361D01*
X435761Y308061D02*
Y309261D01*
X415045Y319900D02*
X416245D01*
X415645Y319300D02*
Y320500D01*
X392300Y282000D02*
X393500D01*
X392900Y281400D02*
Y282600D01*
X412200Y238219D02*
X413400D01*
X412800Y237619D02*
Y238820D01*
X487600Y206600D02*
X488800D01*
X488200Y206000D02*
Y207200D01*
X503500Y215500D02*
X504700D01*
X504100Y214900D02*
Y216100D01*
X391800Y223200D02*
X393000D01*
X392400Y222600D02*
Y223800D01*
X388400Y342600D02*
X389600D01*
X389000Y342000D02*
Y343200D01*
X365104Y345897D02*
X366303D01*
X365704Y345297D02*
Y346497D01*
X395200Y199300D02*
X396400D01*
X395800Y198700D02*
Y199900D01*
X385600Y197200D02*
X386800D01*
X386200Y196600D02*
Y197800D01*
X422900Y201300D02*
X424100D01*
X423500Y200700D02*
Y201900D01*
X409400Y200340D02*
X410600D01*
X410000Y199740D02*
Y200940D01*
X345189Y214500D02*
X346389D01*
X345789Y213900D02*
Y215100D01*
X349457Y194043D02*
X350657D01*
X350057Y193443D02*
Y194643D01*
X361000Y206600D02*
X362200D01*
X361600Y206000D02*
Y207200D01*
X375400Y227800D02*
X376600D01*
X376000Y227200D02*
Y228400D01*
X375400Y224100D02*
X376600D01*
X376000Y223500D02*
Y224700D01*
X394900Y203500D02*
X396100D01*
X395500Y202900D02*
Y204100D01*
X406900Y213000D02*
X408100D01*
X407500Y212400D02*
Y213600D01*
X411198Y181802D02*
X412398D01*
X411798Y181202D02*
Y182402D01*
X386002Y181802D02*
X387202D01*
X386602Y181202D02*
Y182402D01*
X400000Y181300D02*
X401200D01*
X400600Y180700D02*
Y181900D01*
X397200Y181300D02*
X398400D01*
X397800Y180700D02*
Y181900D01*
X397845Y235000D02*
X399045D01*
X398445Y234400D02*
Y235600D01*
X406400Y264900D02*
X407600D01*
X407000Y264300D02*
Y265500D01*
X359400Y272200D02*
X360600D01*
X360000Y271600D02*
Y272800D01*
X366700Y286000D02*
X367900D01*
X367300Y285400D02*
Y286600D01*
X350200Y271400D02*
X351400D01*
X350800Y270800D02*
Y272000D01*
X346900Y265500D02*
X348100D01*
X347500Y264900D02*
Y266100D01*
X409900Y214000D02*
X411100D01*
X410500Y213400D02*
Y214600D01*
X385900Y237623D02*
X387100D01*
X386500Y237023D02*
Y238223D01*
X388500Y240000D02*
X389700D01*
X389100Y239400D02*
Y240600D01*
X385900Y260300D02*
X387100D01*
X386500Y259700D02*
Y260900D01*
X391112Y214212D02*
X392312D01*
X391712Y213612D02*
Y214812D01*
X478150Y352050D02*
X479350D01*
X478750Y351450D02*
Y352650D01*
X590000Y405000D02*
X602000D01*
X596000Y399000D02*
Y411000D01*
X510200Y245500D02*
X511400D01*
X510800Y244900D02*
Y246100D01*
X515600Y206618D02*
X516800D01*
X516200Y206018D02*
Y207218D01*
X386678Y444322D02*
X387878D01*
X387278Y443722D02*
Y444922D01*
X475241Y239941D02*
X476441D01*
X475841Y239341D02*
Y240541D01*
X475141Y384759D02*
X476341D01*
X475741Y384159D02*
Y385359D01*
X496000Y206800D02*
X497200D01*
X496600Y206200D02*
Y207400D01*
X494800Y352800D02*
X496000D01*
X495400Y352200D02*
Y353400D01*
X590000Y177500D02*
X602000D01*
X596000Y171500D02*
Y183500D01*
X590000Y223000D02*
X602000D01*
X596000Y217000D02*
Y229000D01*
X590000Y268500D02*
X602000D01*
X596000Y262500D02*
Y274500D01*
X590000Y314000D02*
X602000D01*
X596000Y308000D02*
Y320000D01*
X590000Y359500D02*
X602000D01*
X596000Y353500D02*
Y365500D01*
X535900Y261400D02*
X537100D01*
X536500Y260800D02*
Y262000D01*
X536000Y403800D02*
X537200D01*
X536600Y403200D02*
Y404400D01*
X527400Y403800D02*
X528600D01*
X528000Y403200D02*
Y404400D01*
X531700Y411000D02*
X532900D01*
X532300Y410400D02*
Y411600D01*
X527400Y408600D02*
X528600D01*
X528000Y408000D02*
Y409200D01*
X527400Y413400D02*
X528600D01*
X528000Y412800D02*
Y414000D01*
X531700Y406200D02*
X532900D01*
X532300Y405600D02*
Y406800D01*
X536000Y408600D02*
X537200D01*
X536600Y408000D02*
Y409200D01*
X536000Y413400D02*
X537200D01*
X536600Y412800D02*
Y414000D01*
X527300Y357200D02*
X528500D01*
X527900Y356600D02*
Y357800D01*
X531600Y364400D02*
X532800D01*
X532200Y363800D02*
Y365000D01*
X527300Y362000D02*
X528500D01*
X527900Y361400D02*
Y362600D01*
X527300Y366800D02*
X528500D01*
X527900Y366200D02*
Y367400D01*
X531600Y359600D02*
X532800D01*
X532200Y359000D02*
Y360200D01*
X535900Y357200D02*
X537100D01*
X536500Y356600D02*
Y357800D01*
X535900Y362000D02*
X537100D01*
X536500Y361400D02*
Y362600D01*
X535900Y366800D02*
X537100D01*
X536500Y366200D02*
Y367400D01*
X527500Y316800D02*
X528700D01*
X528100Y316200D02*
Y317400D01*
X531800Y324000D02*
X533000D01*
X532400Y323400D02*
Y324600D01*
X527500Y321600D02*
X528700D01*
X528100Y321000D02*
Y322200D01*
X527500Y326400D02*
X528700D01*
X528100Y325800D02*
Y327000D01*
X531800Y319200D02*
X533000D01*
X532400Y318600D02*
Y319800D01*
X536100Y316800D02*
X537300D01*
X536700Y316200D02*
Y317400D01*
X536100Y321600D02*
X537300D01*
X536700Y321000D02*
Y322200D01*
X536100Y326400D02*
X537300D01*
X536700Y325800D02*
Y327000D01*
X527300Y261400D02*
X528500D01*
X527900Y260800D02*
Y262000D01*
X531600Y268600D02*
X532800D01*
X532200Y268000D02*
Y269200D01*
X527300Y266200D02*
X528500D01*
X527900Y265600D02*
Y266800D01*
X527300Y271000D02*
X528500D01*
X527900Y270400D02*
Y271600D01*
X531600Y263800D02*
X532800D01*
X532200Y263200D02*
Y264400D01*
X535900Y266200D02*
X537100D01*
X536500Y265600D02*
Y266800D01*
X535900Y271000D02*
X537100D01*
X536500Y270400D02*
Y271600D01*
X527400Y218100D02*
X528600D01*
X528000Y217500D02*
Y218700D01*
X531700Y225300D02*
X532900D01*
X532300Y224700D02*
Y225900D01*
X527400Y222900D02*
X528600D01*
X528000Y222300D02*
Y223500D01*
X527400Y227700D02*
X528600D01*
X528000Y227100D02*
Y228300D01*
X531700Y220500D02*
X532900D01*
X532300Y219900D02*
Y221100D01*
X536000Y218100D02*
X537200D01*
X536600Y217500D02*
Y218700D01*
X536000Y222900D02*
X537200D01*
X536600Y222300D02*
Y223500D01*
X536000Y227700D02*
X537200D01*
X536600Y227100D02*
Y228300D01*
X527600Y171900D02*
X528800D01*
X528200Y171300D02*
Y172500D01*
X527600Y176700D02*
X528800D01*
X528200Y176100D02*
Y177300D01*
X527600Y181500D02*
X528800D01*
X528200Y180900D02*
Y182100D01*
X531700Y179100D02*
X532900D01*
X532300Y178500D02*
Y179700D01*
X535800Y171900D02*
X537000D01*
X536400Y171300D02*
Y172500D01*
X535800Y176700D02*
X537000D01*
X536400Y176100D02*
Y177300D01*
X531700Y174300D02*
X532900D01*
X532300Y173700D02*
Y174900D01*
X535800Y181500D02*
X537000D01*
X536400Y180900D02*
Y182100D01*
X515700Y238800D02*
X516900D01*
X516300Y238200D02*
Y239400D01*
X495600Y383700D02*
X496800D01*
X496200Y383100D02*
Y384300D01*
X510525Y383700D02*
X511725D01*
X511125Y383100D02*
Y384300D01*
X514459Y161541D02*
X515659D01*
X515059Y160941D02*
Y162141D01*
X507859Y306459D02*
X509059D01*
X508459Y305859D02*
Y307059D01*
X515500Y351559D02*
X516700D01*
X516100Y350959D02*
Y352159D01*
X503400Y353000D02*
X504600D01*
X504000Y352400D02*
Y353600D01*
X478150Y360150D02*
X479350D01*
X478750Y359550D02*
Y360750D01*
X501700Y207100D02*
X502900D01*
X502300Y206500D02*
Y207700D01*
X478500Y206800D02*
X479700D01*
X479100Y206200D02*
Y207400D01*
X478500Y213900D02*
X479700D01*
X479100Y213300D02*
Y214500D01*
X423900Y428700D02*
X425100D01*
X424500Y428100D02*
Y429300D01*
X421700Y423500D02*
X422900D01*
X422300Y422900D02*
Y424100D01*
X424300Y425400D02*
X425500D01*
X424900Y424800D02*
Y426000D01*
X456900Y218000D02*
X458100D01*
X457500Y217400D02*
Y218600D01*
X458200Y234200D02*
X459400D01*
X458800Y233600D02*
Y234800D01*
X445700Y215400D02*
X446900D01*
X446300Y214800D02*
Y216000D01*
X461900Y226000D02*
X463100D01*
X462500Y225400D02*
Y226600D01*
X456900Y300500D02*
X458100D01*
X457500Y299900D02*
Y301100D01*
X458300Y317100D02*
X459500D01*
X458900Y316500D02*
Y317700D01*
X461400Y309000D02*
X462600D01*
X462000Y308400D02*
Y309600D01*
X447000Y296500D02*
X448200D01*
X447600Y295900D02*
Y297100D01*
X435161Y226161D02*
X436361D01*
X435761Y225561D02*
Y226761D01*
X435161Y351200D02*
X436361D01*
X435761Y350600D02*
Y351800D01*
X531700Y394989D02*
X532900D01*
X532300Y394389D02*
Y395589D01*
X509211Y394989D02*
X510411D01*
X509811Y394389D02*
Y395589D01*
X531700Y252729D02*
X532900D01*
X532300Y252129D02*
Y253329D01*
X490700Y238600D02*
X491900D01*
X491300Y238000D02*
Y239200D01*
X495600Y238800D02*
X496800D01*
X496200Y238200D02*
Y239400D01*
X468700Y309200D02*
X469900D01*
X469300Y308600D02*
Y309800D01*
X468700Y249000D02*
X469900D01*
X469300Y248400D02*
Y249600D01*
X366200Y181200D02*
X367401D01*
X366800Y180600D02*
Y181800D01*
X371700Y195180D02*
X372900D01*
X372300Y194580D02*
Y195781D01*
X370900Y218300D02*
X372100D01*
X371500Y217700D02*
Y218900D01*
X364900Y205000D02*
X366100D01*
X365500Y204400D02*
Y205600D01*
X397845Y230000D02*
X399045D01*
X398445Y229400D02*
Y230600D01*
X400200Y232500D02*
X401400D01*
X400800Y231900D02*
Y233100D01*
X413900Y235000D02*
X415100D01*
X414500Y234400D02*
Y235600D01*
X411400Y232500D02*
X412600D01*
X412000Y231900D02*
Y233100D01*
X413900Y230000D02*
X415100D01*
X414500Y229400D02*
Y230600D01*
X431900Y306102D02*
X433100D01*
X432500Y305502D02*
Y306702D01*
X423900Y351500D02*
X425100D01*
X424500Y350900D02*
Y352100D01*
X420150Y351500D02*
X421350D01*
X420750Y350900D02*
Y352100D01*
X416400Y351500D02*
X417600D01*
X417000Y350900D02*
Y352100D01*
X342600Y321800D02*
X343800D01*
X343200Y321200D02*
Y322400D01*
X337500Y342500D02*
X338700D01*
X338100Y341900D02*
Y343100D01*
X337900Y332300D02*
X339100D01*
X338500Y331700D02*
Y332900D01*
X344400Y301300D02*
X345600D01*
X345000Y300700D02*
Y301900D01*
X340300Y293000D02*
X341500D01*
X340900Y292400D02*
Y293600D01*
X342600Y311800D02*
X343800D01*
X343200Y311200D02*
Y312400D01*
X376355Y322345D02*
X377555D01*
X376955Y321745D02*
Y322945D01*
X376355Y312455D02*
X377555D01*
X376955Y311855D02*
Y313055D01*
X376355Y333500D02*
X377555D01*
X376955Y332900D02*
Y334100D01*
X376355Y302145D02*
X377555D01*
X376955Y301545D02*
Y302745D01*
X376355Y292055D02*
X377555D01*
X376955Y291455D02*
Y292655D01*
X393741Y327200D02*
X394941D01*
X394341Y326600D02*
Y327800D01*
X359188Y333200D02*
X360388D01*
X359788Y332600D02*
Y333800D01*
X359188Y321300D02*
X360388D01*
X359788Y320700D02*
Y321900D01*
X359985Y327200D02*
X361185D01*
X360585Y326600D02*
Y327800D01*
X395012Y333200D02*
X396212D01*
X395612Y332600D02*
Y333800D01*
X395012Y321300D02*
X396212D01*
X395612Y320700D02*
Y321900D01*
X383988Y333200D02*
X385188D01*
X384588Y332600D02*
Y333800D01*
X371237Y327200D02*
X372437D01*
X371837Y326600D02*
Y327800D01*
X349900Y312000D02*
X351100D01*
X350500Y311400D02*
Y312600D01*
X388500Y263000D02*
X389700D01*
X389100Y262400D02*
Y263600D01*
X391112Y260300D02*
X392312D01*
X391712Y259700D02*
Y260900D01*
X354400Y312500D02*
X355600D01*
X355000Y311900D02*
Y313100D01*
X357900Y312500D02*
X359100D01*
X358500Y311900D02*
Y313100D01*
X361400Y312500D02*
X362600D01*
X362000Y311900D02*
Y313100D01*
X377668Y342769D02*
X378869D01*
X378269Y342168D02*
Y343369D01*
X373650Y263000D02*
X374850D01*
X374250Y262400D02*
Y263600D01*
X378400Y263000D02*
X379600D01*
X379000Y262400D02*
Y263600D01*
X344200Y256300D02*
X345400D01*
X344800Y255700D02*
Y256900D01*
X352900Y274500D02*
X354100D01*
X353500Y273900D02*
Y275100D01*
X356150Y273350D02*
X357350D01*
X356750Y272750D02*
Y273950D01*
X351100Y238200D02*
X352300D01*
X351700Y237600D02*
Y238800D01*
X345100Y236400D02*
X346300D01*
X345700Y235800D02*
Y237000D01*
X375400Y231500D02*
X376600D01*
X376000Y230900D02*
Y232100D01*
X362100Y232088D02*
X363300D01*
X362700Y231488D02*
Y232688D01*
X382900Y246000D02*
X384100D01*
X383500Y245400D02*
Y246600D01*
X347100Y259411D02*
X348300D01*
X347700Y258811D02*
Y260011D01*
X345700Y253400D02*
X346900D01*
X346300Y252800D02*
Y254000D01*
X423400Y221900D02*
X424600D01*
X424000Y221300D02*
Y222500D01*
X435161Y297500D02*
X436361D01*
X435761Y296900D02*
Y298100D01*
X430043Y297943D02*
X431243D01*
X430643Y297343D02*
Y298543D01*
X438650Y296350D02*
X439850D01*
X439250Y295750D02*
Y296950D01*
X438650Y349250D02*
X439850D01*
X439250Y348650D02*
Y349850D01*
X460300Y197700D02*
X461500D01*
X460900Y197100D02*
Y198300D01*
X450500Y212000D02*
X451700D01*
X451100Y211400D02*
Y212600D01*
X432559Y213200D02*
X433759D01*
X433159Y212600D02*
Y213800D01*
X460140Y191360D02*
X461340D01*
X460740Y190760D02*
Y191960D01*
X460140Y181040D02*
X461340D01*
X460740Y180440D02*
Y181640D01*
X457419Y173700D02*
X458619D01*
X458019Y173100D02*
Y174300D01*
X466313Y170838D02*
X467513D01*
X466913Y170238D02*
Y171438D01*
X439800Y196200D02*
X441000D01*
X440400Y195600D02*
Y196800D01*
X429541Y185941D02*
X430741D01*
X430141Y185341D02*
Y186541D01*
X366600Y275700D02*
X367800D01*
X367200Y275100D02*
Y276300D01*
X448400Y440459D02*
X449600D01*
X449000Y439859D02*
Y441059D01*
X456267Y440459D02*
X457467D01*
X456867Y439859D02*
Y441059D01*
X464134Y440459D02*
X465334D01*
X464734Y439859D02*
Y441059D01*
X472000Y440459D02*
X473200D01*
X472600Y439859D02*
Y441059D01*
X479867Y440459D02*
X481067D01*
X480467Y439859D02*
Y441059D01*
X495600Y440459D02*
X496800D01*
X496200Y439859D02*
Y441059D01*
X503467Y440459D02*
X504667D01*
X504067Y439859D02*
Y441059D01*
X511334Y440459D02*
X512534D01*
X511934Y439859D02*
Y441059D01*
X519200Y440459D02*
X520400D01*
X519800Y439859D02*
Y441059D01*
X527067Y440459D02*
X528267D01*
X527667Y439859D02*
Y441059D01*
X534934Y440459D02*
X536134D01*
X535534Y439859D02*
Y441059D01*
X542800Y440459D02*
X544000D01*
X543400Y439859D02*
Y441059D01*
X550667Y440459D02*
X551867D01*
X551267Y439859D02*
Y441059D01*
X558534Y440459D02*
X559734D01*
X559134Y439859D02*
Y441059D01*
X566400Y440459D02*
X567600D01*
X567000Y439859D02*
Y441059D01*
X574267Y440459D02*
X575467D01*
X574867Y439859D02*
Y441059D01*
X582134Y440459D02*
X583334D01*
X582734Y439859D02*
Y441059D01*
X590000Y440459D02*
X591200D01*
X590600Y439859D02*
Y441059D01*
X597867Y440459D02*
X599067D01*
X598467Y439859D02*
Y441059D01*
X605733Y440459D02*
X606933D01*
X606333Y439859D02*
Y441059D01*
X613600Y440459D02*
X614800D01*
X614200Y439859D02*
Y441059D01*
X621467Y440459D02*
X622667D01*
X622067Y439859D02*
Y441059D01*
X629333Y440459D02*
X630534D01*
X629934Y439859D02*
Y441059D01*
X487734Y440459D02*
X488934D01*
X488334Y439859D02*
Y441059D01*
X392800Y353400D02*
X394000D01*
X393400Y352800D02*
Y354000D01*
X368000Y375600D02*
X369200D01*
X368600Y375000D02*
Y376200D01*
X346300Y375600D02*
X347500D01*
X346900Y375000D02*
Y376200D01*
X399826Y346726D02*
X401025D01*
X400425Y346126D02*
Y347325D01*
X397200Y380400D02*
X398400D01*
X397800Y379800D02*
Y381000D01*
X400600Y379900D02*
X401800D01*
X401200Y379300D02*
Y380500D01*
X406668Y377168D02*
X407868D01*
X407268Y376568D02*
Y377768D01*
X393759Y377400D02*
X394959D01*
X394359Y376800D02*
Y378000D01*
X401800Y373400D02*
X403000D01*
X402400Y372800D02*
Y374000D01*
X403200Y376500D02*
X404400D01*
X403800Y375900D02*
Y377100D01*
M02*
